<?xml version="1.0" standalone="no"?>
<!DOCTYPE svg PUBLIC "-//W3C//DTD SVG 20010904//EN"
 "http://www.w3.org/TR/2001/REC-SVG-20010904/DTD/svg10.dtd">
<svg version="1.0" xmlns="http://www.w3.org/2000/svg"
 width="3840.000000pt" height="2160.000000pt" viewBox="0 0 3840.000000 2160.000000"
 preserveAspectRatio="xMidYMid meet">

<g transform="translate(0.000000,2160.000000) scale(0.100000,-0.100000)"
fill="#000000" stroke="none">
<path d="M15320 21394 c-411 -35 -731 -98 -1062 -207 -463 -154 -762 -334
-1229 -739 -30 -26 -59 -48 -62 -48 -10 0 -8 145 3 240 12 92 55 279 93 402
14 44 20 75 13 71 -6 -4 -47 -34 -91 -67 -351 -262 -702 -621 -952 -971 -292
-410 -542 -964 -670 -1490 -21 -85 -41 -155 -44 -155 -9 0 -65 160 -89 255
-33 128 -58 291 -71 458 -7 86 -16 154 -21 151 -21 -13 -156 -233 -217 -354
-162 -320 -257 -673 -292 -1076 -16 -191 -7 -731 16 -919 90 -757 353 -1354
807 -1830 l86 -90 -23 113 c-133 641 -57 1292 227 1968 33 79 64 144 67 144 4
0 22 -46 40 -102 70 -214 175 -457 277 -640 266 -480 628 -869 1089 -1173 117
-78 375 -225 394 -225 15 0 14 73 -5 210 -25 182 -30 655 -10 868 20 204 55
426 97 611 28 120 31 147 26 250 -2 64 -12 163 -22 221 -26 150 -27 493 -1
645 65 394 250 753 530 1030 216 214 470 349 780 417 85 19 133 22 306 23 178
0 218 -3 308 -23 213 -48 375 -116 547 -229 127 -84 315 -271 404 -401 231
-340 345 -791 328 -1297 -16 -474 -138 -894 -383 -1319 l-57 -99 6 -74 c5 -71
7 -75 60 -136 29 -34 87 -105 129 -157 49 -63 195 -210 429 -431 818 -775
1184 -1119 1191 -1117 34 12 366 490 495 713 339 587 611 1289 728 1880 47
241 66 415 72 685 10 453 -38 792 -179 1260 -327 1089 -963 1866 -1902 2326
-429 210 -917 353 -1406 410 -127 15 -651 27 -760 18z"/>
<path d="M14275 17408 c-70 -94 -108 -177 -165 -359 -149 -474 -204 -816 -204
-1264 0 -303 18 -479 75 -720 20 -82 28 -98 91 -183 55 -72 89 -106 157 -154
457 -323 767 -703 917 -1123 19 -55 31 -95 26 -90 -5 6 -62 73 -127 150 -336
398 -512 530 -1330 1002 -815 470 -1073 645 -1349 913 -195 189 -347 392 -466
622 l-57 109 -22 -104 c-102 -483 -51 -925 156 -1345 37 -75 69 -140 71 -144
2 -4 -12 -3 -30 3 -126 36 -472 97 -683 118 -256 27 -740 40 -872 25 l-52 -7
129 -88 c177 -120 304 -222 439 -353 133 -130 209 -222 302 -365 92 -141 131
-235 137 -333 4 -70 2 -83 -26 -142 -73 -156 -269 -289 -1071 -724 -709 -384
-1004 -574 -1291 -831 l-45 -40 66 -1 c36 0 124 9 195 19 71 11 181 25 244 32
147 17 520 16 625 0 442 -69 704 -287 781 -651 14 -65 19 -129 18 -275 0 -257
-20 -387 -115 -739 -22 -81 -39 -150 -37 -151 2 -2 66 49 143 112 739 608
1503 1041 2282 1294 90 29 162 54 160 55 -2 2 -205 40 -453 84 -247 44 -460
83 -473 86 -23 5 -21 8 35 66 473 482 1252 792 2159 859 256 19 584 -2 682
-43 26 -11 21 -12 -57 -20 -624 -59 -1206 -231 -1671 -491 -170 -95 -185 -105
-168 -111 8 -3 97 -24 199 -46 241 -53 689 -170 789 -206 9 -3 -37 -34 -110
-75 -430 -244 -746 -532 -988 -899 -72 -109 -204 -356 -229 -428 l-11 -33 52
30 c63 36 194 90 302 125 194 63 466 94 687 77 394 -30 684 -151 908 -380 150
-153 240 -327 276 -533 20 -113 15 -333 -10 -448 -40 -182 -126 -387 -223
-532 -48 -72 -185 -219 -256 -275 -40 -31 -43 -63 -6 -63 10 0 182 20 381 45
199 25 371 44 381 43 17 -3 15 -11 -21 -80 -113 -218 -303 -428 -529 -586 -45
-31 -82 -61 -82 -66 -1 -17 241 2 373 29 509 103 1106 442 1378 783 55 69 128
202 128 234 0 19 -3 20 -92 12 -51 -5 -147 -9 -213 -9 -142 1 -200 20 -263 89
-97 105 -101 234 -19 681 30 165 53 301 52 303 -2 2 -36 -23 -77 -56 -89 -73
-144 -101 -209 -109 -100 -12 -185 49 -231 166 -17 45 -22 76 -22 156 1 110 0
109 175 663 44 140 78 256 76 258 -11 12 -247 65 -367 83 -138 21 -460 51
-553 51 -62 1 -52 9 56 46 237 82 636 155 1062 196 198 19 745 16 931 -5 213
-24 354 -51 411 -79 96 -48 138 -155 114 -294 -19 -112 -72 -257 -160 -437
-71 -146 -75 -158 -57 -162 12 -2 140 -11 286 -20 562 -33 758 -68 961 -172
104 -53 216 -151 275 -240 47 -71 91 -184 110 -280 17 -89 18 -293 3 -416 -6
-49 -9 -91 -6 -93 7 -7 102 42 172 89 414 278 775 847 924 1457 56 232 80 487
62 678 -7 70 -15 143 -19 162 l-8 35 -53 -80 c-157 -235 -314 -377 -524 -475
-47 -22 -89 -40 -94 -40 -6 0 -13 35 -16 78 -17 214 -127 373 -331 477 -57 29
-79 46 -95 76 -21 36 -21 42 -10 151 20 196 -6 457 -66 663 -104 356 -330 754
-644 1130 -170 205 -378 414 -866 869 -489 456 -882 840 -1043 1018 -533 593
-764 1092 -808 1747 -7 103 -7 103 -25 80 -62 -80 -159 -335 -203 -531 -87
-387 -71 -874 35 -1092 45 -93 100 -153 324 -357 708 -645 1232 -1150 1419
-1369 259 -303 470 -626 580 -890 l36 -85 -36 40 c-20 22 -82 101 -139 175
-245 322 -394 474 -1131 1157 -648 599 -912 852 -1199 1145 -308 314 -444 481
-587 720 -210 355 -314 695 -348 1138 -6 80 -13 146 -15 148 -2 2 -25 -25 -50
-60z m2660 -4663 c297 -175 526 -426 681 -749 46 -96 54 -120 43 -128 -18 -12
-162 -1 -236 18 -316 81 -570 382 -699 827 -48 168 -50 163 43 121 43 -20 118
-60 168 -89z"/>
<path d="M25762 14099 c-4 -4 -59 -17 -122 -29 -367 -71 -691 -220 -1076 -495
-72 -52 -313 -239 -535 -416 -222 -177 -442 -347 -488 -377 -108 -71 -209
-111 -279 -112 -99 0 -139 44 -130 142 7 68 160 372 281 556 61 93 85 138 78
145 -15 15 -38 2 -206 -118 -323 -232 -533 -411 -826 -704 -306 -307 -521
-566 -741 -895 -252 -374 -475 -811 -628 -1226 l-28 -77 20 -21 21 -20 41 61
c51 77 389 418 551 556 556 475 1327 926 2050 1199 438 165 905 276 1340 317
159 15 425 18 505 5 32 -5 29 -6 -35 -18 -38 -8 -137 -24 -220 -37 -848 -134
-1595 -443 -2465 -1020 -804 -533 -1537 -1201 -2221 -2025 -237 -286 -509
-640 -509 -663 0 -7 28 -23 63 -36 150 -58 372 -188 552 -324 80 -61 238 -191
500 -412 144 -122 370 -295 384 -295 5 0 43 74 85 164 588 1264 1192 2218
1921 3034 346 388 730 650 1162 791 426 141 901 162 1393 65 169 -34 286 -74
556 -194 l230 -101 174 103 c371 217 782 364 1335 477 463 94 665 116 1070
116 291 -1 346 -3 470 -23 77 -12 166 -28 198 -36 40 -9 57 -10 57 -2 0 14
-260 255 -395 367 -307 254 -612 452 -976 635 -635 318 -1216 465 -1844 465
-430 0 -803 -68 -1340 -245 -415 -136 -507 -146 -581 -64 -64 70 -52 158 37
278 75 101 136 151 428 345 132 88 240 162 241 165 0 8 -89 7 -98 -1z"/>
<path d="M10279 11382 c-918 -943 -1605 -1935 -2022 -2922 -60 -141 -157 -392
-157 -404 0 -3 52 35 116 84 311 242 854 599 854 562 0 -4 -27 -82 -61 -173
-289 -780 -420 -1357 -459 -2024 -64 -1098 238 -2491 742 -3420 237 -437 456
-733 771 -1044 121 -119 131 -118 106 11 -43 222 -65 531 -52 713 l8 100 85
-125 c531 -780 1341 -1394 2370 -1795 832 -325 1731 -426 2695 -304 1841 232
3301 1200 4482 2970 204 306 422 673 596 1007 l85 162 -20 88 -21 87 -151 125
c-83 69 -371 310 -641 536 -269 225 -602 499 -738 609 -208 166 -250 196 -261
184 -7 -8 -50 -77 -96 -154 -510 -856 -1183 -1551 -1947 -2013 -327 -197 -629
-316 -948 -373 -111 -20 -162 -23 -355 -23 -241 0 -370 14 -574 60 -684 153
-1230 604 -1596 1318 -321 628 -406 1329 -259 2131 132 719 439 1402 913 2035
175 235 346 433 609 708 70 74 127 137 127 142 0 9 -116 42 -237 67 -58 13
-132 17 -283 17 -175 0 -220 -3 -306 -22 -324 -70 -630 -235 -979 -528 l-125
-104 5 43 c3 23 9 89 15 147 48 472 193 912 415 1260 23 36 44 70 48 77 17 28
-474 -206 -748 -357 -675 -369 -1234 -776 -1814 -1319 l-134 -126 6 115 c12
197 81 738 178 1395 56 373 57 418 16 507 -23 52 -81 128 -97 128 -4 0 -77
-71 -161 -158z"/>
<path d="M16492 10738 c-42 -126 -54 -203 -53 -333 0 -168 40 -321 121 -470
90 -164 190 -267 475 -493 417 -330 489 -395 568 -515 88 -133 120 -244 148
-517 44 -439 78 -594 179 -805 139 -289 315 -478 865 -930 1561 -1282 1869
-1539 1953 -1629 209 -224 333 -476 386 -785 41 -243 44 -482 10 -1021 -21
-344 -21 -603 0 -755 89 -624 420 -1151 943 -1501 164 -110 410 -225 557 -260
l30 -7 -46 59 c-173 227 -281 470 -329 740 -30 168 -30 422 0 588 47 262 151
500 290 660 44 51 110 111 115 105 3 -2 11 -54 20 -115 40 -288 169 -691 316
-984 282 -562 705 -992 1241 -1261 293 -146 588 -235 949 -286 157 -22 630
-25 790 -5 774 95 1454 361 1949 763 57 46 110 89 118 94 8 6 67 68 131 139
113 126 115 129 82 123 -19 -3 -89 -15 -155 -27 -416 -72 -816 -39 -1222 101
-148 51 -423 186 -568 279 -60 38 -117 74 -125 79 -29 18 1 24 117 20 479 -16
797 13 1128 101 734 195 1385 672 1746 1282 161 271 266 563 315 878 28 177
26 532 -5 703 -47 266 -111 459 -237 707 -314 622 -815 1057 -1536 1334 -236
90 -438 143 -698 182 -189 28 -702 31 -674 4 5 -4 50 -25 99 -45 319 -131 516
-267 688 -473 212 -255 317 -531 317 -838 0 -332 -121 -617 -364 -859 -266
-265 -683 -460 -1136 -532 -211 -33 -771 -22 -795 17 -2 4 45 67 106 141 142
173 197 253 257 375 140 283 195 588 170 947 -32 480 -226 943 -529 1262 -66
70 -309 275 -324 275 -10 0 0 -106 19 -215 118 -668 -444 -1276 -1115 -1206
-229 24 -431 106 -651 264 -70 50 -1673 1358 -2318 1891 -151 125 -310 252
-353 283 -151 107 -339 192 -512 233 -103 25 -205 36 -565 60 -310 21 -366 30
-450 76 -135 74 -184 183 -265 594 -58 292 -112 410 -241 529 -144 132 -282
169 -794 216 -214 20 -339 43 -470 88 -286 98 -475 296 -578 603 -17 50 -34
107 -37 127 -4 20 -11 37 -15 37 -4 0 -21 -42 -38 -92z"/>
</g>
</svg>
