<?xml version="1.0" standalone="no"?>
<!DOCTYPE svg PUBLIC "-//W3C//DTD SVG 20010904//EN"
 "http://www.w3.org/TR/2001/REC-SVG-20010904/DTD/svg10.dtd">
<svg version="1.0" xmlns="http://www.w3.org/2000/svg"
 width="1024.000000pt" height="1024.000000pt" viewBox="0 0 1024.000000 1024.000000"
 preserveAspectRatio="xMidYMid meet">

<g transform="translate(0.000000,1024.000000) scale(0.100000,-0.100000)"
fill="#000000" stroke="none">
<path d="M3375 9101 c-204 -51 -330 -181 -366 -376 -24 -128 24 -263 132 -374
33 -34 63 -60 66 -57 3 2 -7 29 -21 58 -37 76 -59 189 -51 263 13 118 74 208
175 260 52 27 176 32 256 10 136 -37 277 -158 353 -304 56 -109 73 -183 72
-323 -1 -139 -13 -182 -106 -373 -79 -162 -135 -249 -290 -445 -336 -428 -421
-569 -492 -817 -26 -90 -28 -111 -27 -258 1 -204 28 -365 96 -573 56 -175 57
-209 6 -267 -46 -53 -85 -72 -195 -94 -118 -25 -183 -26 -275 -6 -368 78 -638
427 -615 795 9 134 43 248 140 465 102 230 146 346 183 485 25 92 28 123 29
250 0 141 -1 147 -33 226 -24 62 -47 98 -93 147 -78 85 -144 119 -232 119 -83
-1 -138 -24 -187 -80 -49 -55 -64 -105 -58 -199 4 -62 11 -81 46 -140 22 -37
68 -99 101 -138 33 -38 71 -89 83 -112 13 -24 26 -43 29 -43 13 0 17 57 7 110
-12 65 -44 131 -103 212 -75 101 -78 172 -11 245 77 84 219 34 274 -97 40 -95
31 -251 -23 -409 -34 -101 -127 -275 -225 -422 -130 -196 -191 -332 -225 -504
-26 -135 -17 -367 20 -490 59 -199 153 -357 294 -495 230 -223 519 -324 836
-291 171 18 251 43 456 142 102 49 194 89 206 89 11 0 39 -7 62 -15 110 -38
180 -132 166 -221 -14 -93 -37 -114 -130 -114 -60 0 -95 22 -95 61 0 56 56 85
62 32 2 -23 8 -29 35 -31 93 -9 71 142 -28 193 -76 40 -134 4 -249 -152 -147
-199 -366 -391 -823 -722 -327 -236 -430 -330 -534 -488 -90 -138 -125 -234
-143 -390 -24 -216 44 -410 194 -558 129 -127 232 -178 398 -195 174 -18 284
14 388 110 63 58 62 58 -40 7 -93 -47 -151 -54 -255 -33 -249 50 -434 233
-475 470 -33 186 49 404 201 539 158 139 297 213 695 371 385 152 479 203 740
401 68 51 133 96 144 100 33 10 118 -43 167 -105 99 -124 141 -249 150 -445 8
-183 -21 -348 -94 -539 -69 -183 -265 -544 -414 -767 -217 -323 -286 -470
-319 -677 -17 -105 5 -274 46 -355 23 -45 84 -127 94 -127 5 0 -1 21 -14 48
-46 91 -43 289 6 421 38 103 81 159 283 376 230 247 293 322 381 456 131 199
198 373 309 797 142 545 167 784 110 1047 -16 74 -69 183 -95 196 -8 4 -36 15
-62 24 -97 34 -147 87 -172 179 -7 28 -25 94 -40 147 -51 186 -35 259 140 654
l49 110 -3 305 c-2 187 1 326 7 360 14 73 70 185 122 243 39 45 129 115 129
101 0 -3 -21 -29 -46 -57 -52 -58 -95 -137 -118 -219 -21 -69 -35 -265 -36
-468 0 -191 -9 -249 -56 -353 -91 -205 -106 -248 -94 -262 7 -8 45 -32 85 -54
341 -188 545 -558 620 -1125 20 -157 37 -555 33 -801 -4 -295 3 -795 12 -795
5 0 10 30 13 67 3 55 11 814 10 1008 0 62 26 455 32 475 2 8 9 56 15 105 46
375 206 730 418 926 72 67 201 156 238 165 50 13 43 63 -27 213 -78 165 -79
172 -79 451 0 407 -26 524 -150 678 -27 34 -46 62 -41 62 16 0 107 -77 144
-122 54 -65 106 -184 123 -280 13 -66 14 -116 8 -243 -5 -88 -9 -214 -9 -280
0 -139 7 -164 96 -351 121 -253 135 -346 81 -556 -51 -199 -96 -255 -230 -289
l-67 -17 -31 -61 c-101 -198 -97 -575 11 -946 13 -44 47 -168 76 -275 161
-605 247 -754 719 -1255 197 -209 256 -308 281 -468 16 -104 7 -209 -24 -285
-32 -77 -14 -68 45 23 59 91 82 178 82 310 -1 216 -66 379 -275 692 -237 352
-412 685 -494 938 -62 191 -69 231 -70 410 0 149 2 166 29 250 50 158 108 244
205 307 77 49 99 43 254 -71 281 -208 418 -282 807 -439 375 -152 495 -219
625 -351 123 -124 181 -247 192 -406 13 -185 -89 -381 -254 -491 -74 -49 -201
-92 -294 -100 -81 -7 -137 9 -219 61 -22 14 -43 25 -46 25 -13 0 31 -43 85
-82 80 -60 148 -81 261 -81 126 0 197 16 300 66 69 33 102 58 176 132 75 74
99 106 132 175 60 124 75 200 69 340 -8 163 -50 289 -144 432 -93 141 -209
248 -493 452 -561 404 -719 542 -876 767 -102 145 -148 176 -228 149 -92 -30
-144 -169 -73 -194 35 -13 60 1 67 36 4 22 8 24 28 17 18 -7 22 -16 22 -47 0
-56 -24 -74 -100 -75 -58 -2 -64 0 -91 31 -24 27 -29 41 -29 85 1 100 59 177
168 217 67 25 107 19 197 -30 39 -21 120 -59 180 -84 471 -192 880 -120 1205
213 206 211 311 461 312 746 2 262 -62 453 -247 735 -215 329 -271 474 -263
689 3 94 6 111 31 153 68 117 187 153 265 79 35 -32 56 -99 48 -147 -4 -18
-30 -68 -58 -111 -75 -114 -100 -175 -106 -255 -3 -43 -1 -68 6 -68 5 0 25 24
43 53 18 28 62 88 98 132 81 101 122 186 129 270 4 56 1 72 -22 120 -52 104
-119 149 -226 149 -88 0 -146 -28 -224 -106 -101 -102 -146 -220 -146 -386 0
-185 59 -394 213 -747 53 -121 105 -254 117 -295 119 -422 -152 -861 -588
-952 -92 -19 -113 -21 -190 -11 -146 18 -240 62 -295 135 -29 38 -23 98 23
238 86 266 119 540 87 725 -22 124 -48 200 -118 343 -74 152 -181 312 -370
552 -158 200 -205 267 -264 375 -21 39 -47 85 -57 104 -31 55 -78 180 -89 235
-6 28 -10 99 -10 157 0 89 5 120 29 197 88 271 297 437 532 420 89 -7 161 -40
215 -100 53 -59 75 -120 76 -213 1 -81 -4 -104 -42 -203 -16 -40 -29 -78 -29
-85 0 -16 82 75 125 139 100 151 97 327 -9 471 -104 142 -251 213 -442 213
-404 0 -737 -350 -784 -825 -31 -314 27 -535 305 -1155 104 -232 138 -379 137
-595 0 -227 -71 -435 -186 -543 -66 -63 -100 -68 -139 -22 -38 45 -47 111 -47
344 0 392 -51 543 -246 725 -204 192 -476 293 -703 262 -297 -40 -590 -243
-716 -496 -69 -139 -85 -239 -85 -522 0 -204 -3 -233 -20 -270 -35 -79 -91
-81 -170 -7 -67 63 -103 122 -141 234 -29 86 -33 109 -37 246 -3 114 0 171 12
230 23 117 90 310 163 474 135 302 167 379 213 520 66 203 75 258 75 450 0
189 -14 270 -71 414 -106 264 -309 450 -564 515 -97 24 -233 25 -325 2z m138
-3025 c42 -17 65 -45 73 -84 l6 -32 -80 3 c-101 3 -135 -17 -140 -80 -3 -34 1
-44 24 -62 33 -26 48 -26 91 0 37 23 130 36 187 25 103 -20 167 -163 121 -273
-33 -78 -15 -117 101 -218 293 -257 429 -462 520 -787 24 -84 27 -112 29 -284
1 -105 -1 -209 -5 -230 -7 -35 -8 -33 -9 26 -2 82 -32 229 -64 308 -46 113
-141 233 -238 302 -129 92 -169 138 -182 208 -9 44 11 81 68 127 25 21 45 42
45 48 0 23 -57 82 -163 171 -213 177 -229 207 -211 388 6 62 5 68 -19 92 -18
18 -37 26 -61 26 -81 0 -96 -90 -50 -307 6 -29 4 -33 -16 -33 -67 0 -124 86
-136 203 -6 60 -10 70 -33 82 -103 53 -142 192 -82 287 58 91 145 128 224 94z
m3358 -13 c58 -30 92 -71 111 -135 9 -32 8 -49 -6 -96 -14 -46 -30 -68 -76
-112 -52 -50 -59 -61 -69 -113 -20 -110 -64 -177 -124 -191 l-29 -7 7 53 c26
185 20 266 -20 282 -87 33 -147 -46 -112 -148 37 -108 -21 -200 -224 -362
-166 -132 -175 -149 -109 -203 55 -44 72 -74 72 -120 -1 -71 -38 -118 -155
-195 -122 -81 -190 -160 -261 -303 -53 -107 -64 -166 -65 -335 -1 -54 -5 -98
-10 -98 -10 0 -25 197 -24 325 1 200 75 424 226 679 39 66 156 199 227 260 82
70 220 217 226 242 4 16 2 41 -5 58 -46 113 -36 191 33 254 36 33 53 41 97 47
67 8 144 -8 185 -40 30 -23 32 -23 65 -7 45 22 61 77 35 117 -27 41 -75 57
-152 49 l-65 -7 16 39 c40 96 105 117 206 67z"/>
<path d="M4053 4964 c-58 -45 -41 -102 52 -174 79 -61 177 -165 232 -247 31
-45 58 -81 61 -79 2 3 -4 31 -13 63 -23 79 -86 194 -151 275 -30 37 -54 69
-54 71 0 3 7 4 16 3 29 -2 26 19 -11 67 -30 39 -42 47 -68 47 -19 0 -45 -11
-64 -26z"/>
<path d="M6075 4959 c-54 -47 -61 -67 -31 -80 l24 -12 -49 -49 c-27 -27 -65
-73 -84 -101 -37 -54 -88 -176 -100 -237 -6 -32 -3 -30 33 27 67 107 123 171
234 264 108 90 127 116 113 159 -7 24 -60 60 -87 60 -10 0 -33 -14 -53 -31z"/>
<path d="M5815 5554 c-22 -8 -53 -25 -70 -39 l-30 -24 31 -1 c57 0 114 -68
114 -134 0 -47 -33 -126 -68 -161 -58 -58 -150 -69 -215 -26 -31 20 -77 79
-77 98 0 26 -36 11 -59 -25 -84 -131 -128 -243 -162 -408 -22 -108 -22 -119
-20 -894 2 -774 7 -948 37 -1145 49 -331 181 -598 414 -836 85 -87 268 -234
278 -224 3 2 -29 44 -70 92 -270 319 -355 608 -332 1133 5 102 8 204 9 228 0
49 9 54 23 12 27 -77 304 -491 319 -477 2 3 -21 56 -50 118 -102 213 -116 254
-147 407 -16 83 -50 231 -74 329 -24 98 -57 232 -71 298 -15 66 -38 161 -50
210 -34 130 -64 281 -69 345 -2 30 3 132 11 225 14 158 18 177 53 263 l39 93
-32 19 c-45 26 -57 38 -57 56 0 13 4 13 28 1 40 -21 132 -28 193 -17 114 22
181 109 181 237 0 37 -2 75 -4 83 -2 10 4 14 19 12 18 -3 23 3 29 33 13 70
-16 136 -60 134 -12 0 -39 -7 -61 -15z m-435 -1343 c0 -11 20 -74 46 -141 62
-168 93 -309 101 -460 5 -111 3 -140 -21 -255 -14 -72 -30 -152 -36 -180 -26
-134 -28 -134 -28 -5 0 69 3 179 6 245 9 163 0 273 -48 557 -45 271 -44 258
-30 258 6 0 10 -9 10 -19z"/>
<path d="M4320 5545 c-15 -18 -25 -95 -16 -130 6 -22 9 -24 26 -15 19 10 20 7
20 -63 0 -148 49 -232 155 -262 66 -19 158 -14 208 11 l29 16 -18 -30 c-9 -17
-28 -35 -41 -41 -34 -16 -37 -34 -12 -82 59 -117 71 -174 76 -354 3 -93 0
-195 -5 -225 -25 -142 -62 -318 -71 -342 -5 -15 -24 -96 -41 -180 -17 -84 -44
-205 -60 -268 -16 -63 -45 -194 -64 -291 -38 -186 -68 -274 -156 -449 -28 -56
-49 -105 -46 -108 7 -7 13 0 119 148 101 141 109 153 167 263 l47 88 6 -83
c11 -132 8 -509 -4 -595 -16 -113 -65 -296 -104 -386 -44 -104 -124 -230 -212
-335 -40 -48 -73 -90 -73 -94 0 -4 31 15 69 43 324 236 531 557 601 929 43
232 50 389 50 1179 0 807 -4 870 -55 1044 -41 141 -135 337 -162 337 -7 0 -19
-13 -27 -29 -35 -66 -121 -108 -194 -95 -71 13 -153 123 -152 205 1 31 32 100
54 118 9 8 30 14 46 13 46 -1 37 24 -20 53 -56 28 -121 33 -140 10z m539
-1383 c-4 -37 -22 -157 -40 -267 -31 -188 -33 -214 -32 -425 1 -124 4 -272 7
-330 4 -84 3 -95 -5 -55 -5 28 -14 70 -20 95 -39 165 -69 335 -69 392 0 140
40 331 105 500 19 48 37 103 41 123 11 61 20 38 13 -33z"/>
</g>
</svg>
