<?xml version="1.0" standalone="no"?>
<!DOCTYPE svg PUBLIC "-//W3C//DTD SVG 20010904//EN"
 "http://www.w3.org/TR/2001/REC-SVG-20010904/DTD/svg10.dtd">
<svg version="1.0" xmlns="http://www.w3.org/2000/svg"
 width="1024.000000pt" height="1024.000000pt" viewBox="0 0 1024.000000 1024.000000"
 preserveAspectRatio="xMidYMid meet">

<g transform="translate(0.000000,1024.000000) scale(0.100000,-0.100000)"
fill="#000000" stroke="none">
<path d="M3098 9008 c-162 -186 -306 -473 -378 -754 -68 -261 -90 -491 -90
-918 0 -377 25 -664 76 -885 27 -116 18 -180 -38 -258 -23 -32 -134 -126 -160
-136 -17 -6 42 -70 99 -107 l43 -28 -54 -48 c-29 -27 -132 -123 -227 -214 -96
-91 -202 -192 -237 -225 -34 -32 -60 -60 -58 -62 2 -3 87 20 188 51 100 30
244 71 318 92 166 45 361 127 414 173 18 15 18 15 8 -4 -6 -12 -46 -54 -89
-95 -62 -59 -105 -89 -203 -140 -116 -60 -133 -73 -246 -185 -187 -186 -284
-350 -306 -518 -9 -66 -8 -106 5 -202 9 -66 22 -139 29 -162 l13 -42 164 100
c91 54 166 97 168 95 3 -2 -1 -50 -8 -107 -16 -142 -6 -416 19 -534 52 -238
154 -435 252 -485 21 -11 44 -20 49 -20 6 0 11 24 13 53 4 58 2 60 51 -66 39
-100 108 -224 282 -507 153 -247 222 -377 256 -478 l22 -66 24 30 c13 16 43
67 66 113 42 84 42 85 42 196 l0 112 76 -146 c121 -232 226 -385 369 -535 96
-101 203 -184 415 -320 229 -148 341 -233 450 -341 l90 -90 23 70 c49 151 173
303 400 492 95 80 115 93 128 82 28 -23 47 -74 53 -139 l6 -65 48 44 c38 35
63 76 127 205 83 168 107 248 125 419 l8 69 38 -101 c20 -55 45 -136 54 -178
24 -112 22 -109 45 -88 72 65 328 532 331 603 0 9 11 -21 24 -68 31 -112 41
-139 72 -178 l25 -33 67 118 c36 65 110 183 163 263 112 170 144 225 194 340
31 72 37 95 35 150 0 36 2 82 5 102 l6 38 103 -106 c57 -58 110 -104 116 -102
13 4 129 340 171 491 l21 77 45 -67 c75 -115 135 -168 226 -203 23 -8 25 -6
54 108 89 338 85 670 -10 902 -17 41 -35 81 -41 88 -13 16 -4 16 117 -8 119
-24 236 -39 236 -31 0 4 -11 13 -24 21 -31 19 -393 338 -499 440 -43 41 -74
76 -70 77 14 5 178 -62 230 -94 26 -16 102 -51 168 -78 101 -41 133 -49 203
-53 46 -3 87 -1 92 4 5 5 -31 44 -81 88 -102 89 -214 225 -356 430 -54 78
-126 173 -160 213 l-62 71 67 41 c37 22 79 45 95 50 15 6 27 13 27 16 0 7
-203 157 -303 224 -48 32 -82 63 -88 79 -6 15 -22 51 -35 81 -14 29 -23 55
-21 58 6 6 105 -35 155 -63 l42 -25 0 24 c0 13 -5 49 -11 79 -10 49 -8 72 20
204 39 187 58 321 76 549 17 208 20 647 5 850 -27 370 -121 706 -264 940 -61
102 -134 195 -152 195 -7 0 -44 -35 -81 -77 -64 -73 -141 -172 -605 -783 -208
-273 -310 -388 -443 -499 -104 -86 -318 -229 -355 -237 -73 -15 -113 -30 -192
-75 -49 -27 -89 -49 -91 -49 -8 0 14 123 28 156 8 20 15 38 15 40 0 10 -52 3
-133 -18 -86 -22 -88 -22 -155 -5 -37 10 -96 31 -131 47 -35 17 -65 30 -67 30
-2 0 -1 -18 2 -40 9 -53 -3 -124 -25 -152 l-19 -23 -46 43 c-49 45 -125 85
-195 103 -26 6 -58 24 -80 46 -20 20 -90 79 -156 131 -258 205 -449 423 -812
928 -219 305 -327 437 -360 442 -15 2 -36 -15 -75 -60z m313 -1138 c134 -181
217 -281 258 -311 20 -15 119 -61 221 -104 102 -42 217 -97 257 -121 72 -45
73 -46 123 -150 68 -142 66 -156 -10 -79 -58 59 -194 138 -240 139 l-35 1 2
-49 1 -49 -91 7 c-177 13 -319 72 -394 165 -87 107 -155 275 -187 460 -17 103
-22 241 -7 226 5 -6 51 -66 102 -135z m3524 13 c-33 -233 -145 -472 -291 -620
-70 -70 -96 -88 -187 -132 -122 -59 -170 -67 -199 -32 -22 28 -24 90 -3 117 8
10 15 23 15 28 0 13 -79 1 -150 -23 -136 -46 -161 -53 -168 -47 -3 4 2 24 13
44 27 50 155 136 375 251 221 116 333 196 479 342 64 64 117 116 119 117 2 1
0 -19 -3 -45z m-3425 -750 c80 -20 166 -61 204 -99 15 -16 40 -51 54 -79 24
-44 27 -61 26 -143 -1 -109 -13 -133 -85 -170 -33 -18 -55 -22 -92 -19 -76 7
-87 23 -87 131 0 95 -13 196 -32 256 -6 19 -36 61 -66 92 l-55 58 34 -5 c19
-3 63 -13 99 -22z m3163 -120 c-48 -51 -77 -130 -77 -208 0 -61 4 -79 34 -135
19 -36 57 -87 85 -114 l50 -49 -59 8 c-110 13 -171 36 -321 120 l-150 84 2 40
c5 112 87 174 338 252 119 37 132 37 98 2z m-2978 -552 c-6 -5 -138 -78 -295
-161 -384 -205 -472 -255 -495 -280 -44 -49 -56 -42 -23 12 45 76 178 203 287
275 92 62 260 136 345 153 58 11 192 12 181 1z m3039 -81 c117 -10 217 -38
191 -53 -20 -11 -113 -4 -175 13 -25 6 -71 19 -103 28 -58 15 -97 42 -42 28
15 -4 73 -11 129 -16z m-634 -474 c0 -8 -20 -38 -45 -67 -45 -53 -71 -109 -62
-133 4 -11 23 -10 99 5 126 24 269 33 350 20 47 -6 107 -28 192 -67 69 -32
123 -61 120 -63 -2 -3 -118 -6 -257 -7 -138 -1 -298 -7 -355 -12 -89 -9 -111
-15 -160 -44 -69 -40 -393 -355 -430 -417 -42 -72 -97 -381 -127 -720 -18
-196 -36 -365 -39 -368 -2 -2 -11 41 -20 95 -20 111 -19 217 7 587 17 237 41
381 77 463 55 123 173 241 368 366 58 38 92 66 92 77 0 16 -12 28 -79 78 -43
32 -5 90 100 152 105 61 169 82 169 55z m-1875 -40 c88 -41 173 -118 208 -188
26 -51 33 -78 21 -78 -3 0 -25 12 -50 26 -50 29 -97 26 -115 -8 -21 -38 -2
-64 83 -118 97 -61 134 -94 193 -171 97 -124 152 -266 174 -444 39 -332 56
-681 38 -809 -15 -105 -30 -40 -62 279 -20 190 -57 414 -97 579 -29 120 -35
134 -88 205 -65 88 -249 291 -311 344 -82 71 -111 79 -313 88 -187 9 -358 24
-403 35 -21 6 -8 14 83 52 107 44 111 44 219 43 61 0 175 -8 254 -17 128 -14
145 -14 159 -1 13 14 12 20 -11 59 -15 24 -48 72 -74 107 l-46 64 34 -7 c19
-3 66 -21 104 -40z m-170 -438 c42 -14 88 -69 78 -94 -8 -21 -62 -32 -108 -22
-47 11 -142 81 -167 124 l-18 31 87 -13 c49 -6 106 -18 128 -26z m2235 34 c0
-4 -14 -30 -30 -56 -35 -54 -94 -86 -172 -94 -83 -8 -106 42 -44 96 35 31 93
48 186 55 25 2 48 4 53 5 4 1 7 -2 7 -6z m226 -113 c-11 -41 -32 -82 -61 -123
-141 -190 -189 -238 -287 -288 -44 -23 -66 -28 -128 -28 -41 0 -108 7 -149 15
-84 18 -113 14 -193 -26 -54 -27 -88 -30 -88 -6 0 6 14 45 31 88 32 80 77 137
127 163 37 19 176 36 291 36 85 0 103 3 156 29 72 34 203 130 265 195 39 41
45 44 48 27 2 -11 -4 -48 -12 -82z m-2807 37 c49 -70 201 -185 266 -201 17 -4
102 -12 190 -19 157 -13 161 -13 223 -50 65 -39 117 -100 110 -133 -3 -16 -12
-18 -79 -15 -70 4 -83 1 -194 -43 -135 -53 -160 -54 -255 -7 -113 56 -266 243
-305 374 -15 53 -12 138 6 138 4 0 22 -20 38 -44z m-503 -634 c23 -27 74 -60
165 -108 127 -66 195 -116 338 -246 35 -32 67 -58 71 -58 4 0 3 21 -2 48 -15
80 -26 244 -19 296 l6 48 72 -123 c85 -147 142 -261 183 -364 17 -42 46 -107
65 -146 19 -38 53 -122 76 -187 44 -125 69 -168 69 -120 0 15 7 55 15 91 21
91 53 358 64 525 4 78 11 145 14 148 7 7 76 -214 122 -389 45 -175 65 -305 65
-432 0 -236 31 -357 119 -461 71 -83 143 -128 231 -145 74 -14 100 -32 100
-66 0 -38 -50 -52 -202 -59 -199 -10 -283 17 -441 139 -48 37 -92 82 -117 119
-59 88 -105 243 -134 453 -19 138 -38 201 -74 251 -40 54 -156 166 -292 280
-147 124 -390 360 -475 464 -37 44 -63 80 -59 80 4 0 22 -17 40 -38z m3657
-63 c-67 -114 -275 -349 -524 -594 -169 -166 -232 -242 -279 -335 -26 -51 -86
-226 -125 -365 -32 -110 -78 -186 -155 -258 -84 -78 -131 -102 -223 -117 -149
-23 -369 -9 -409 27 -10 9 -18 26 -18 38 0 19 9 24 63 38 199 49 285 143 339
368 23 101 33 126 58 149 38 36 44 62 31 154 -40 283 17 487 179 654 64 65 82
79 87 65 4 -9 1 -78 -5 -152 -18 -197 -15 -339 8 -450 10 -51 22 -96 25 -100
12 -11 55 53 82 124 49 123 130 232 240 322 128 103 146 115 239 162 75 39
204 133 338 248 34 29 62 53 64 53 2 0 -5 -14 -15 -31z m-3503 -939 c1 -156 7
-187 61 -327 22 -57 39 -108 37 -113 -2 -5 -30 17 -63 49 -46 44 -68 76 -95
137 -32 73 -35 87 -35 179 0 89 4 109 32 180 17 44 34 89 39 100 12 33 22 -54
24 -205z m3456 17 c-15 -49 -96 -194 -96 -171 0 38 23 120 40 144 11 16 27 48
35 72 25 71 29 76 33 40 2 -18 -4 -56 -12 -85z m-366 -247 c-11 -150 -69 -288
-159 -383 -45 -48 -86 -70 -113 -61 -19 6 -17 9 20 48 96 100 133 185 181 406
17 80 39 162 49 182 l17 37 7 -62 c3 -34 3 -109 -2 -167z m-2811 -192 c12 -25
31 -54 42 -64 44 -40 7 -58 -57 -28 -49 23 -121 110 -140 168 -18 52 -16 111
7 240 l11 66 58 -167 c31 -93 67 -189 79 -215z m1591 301 c96 -21 40 -29 -153
-23 -174 6 -330 -2 -441 -23 -43 -8 -22 9 38 32 27 10 83 21 125 26 95 10 364
2 431 -12z m-380 -329 c0 -16 -7 -20 -31 -20 -34 0 -69 15 -69 30 0 6 23 10
50 10 43 0 50 -3 50 -20z m470 12 c0 -11 -46 -32 -69 -32 -10 0 -29 9 -42 20
l-24 19 68 1 c37 0 67 -4 67 -8z m210 -424 c0 -4 -30 -33 -67 -64 -73 -62
-194 -124 -282 -144 -70 -16 -317 -6 -392 16 -101 30 -279 146 -279 181 0 15
68 5 199 -28 244 -63 432 -57 681 19 90 28 140 35 140 20z"/>
</g>
</svg>
