<?xml version="1.0" standalone="no"?>
<!DOCTYPE svg PUBLIC "-//W3C//DTD SVG 20010904//EN"
 "http://www.w3.org/TR/2001/REC-SVG-20010904/DTD/svg10.dtd">
<svg version="1.0" xmlns="http://www.w3.org/2000/svg"
 width="1024.000000pt" height="1024.000000pt" viewBox="0 0 1024.000000 1024.000000"
 preserveAspectRatio="xMidYMid meet">

<g transform="translate(0.000000,1024.000000) scale(0.100000,-0.100000)"
fill="#000000" stroke="none">
<path d="M4980 8519 c-413 -36 -612 -136 -486 -245 157 -136 938 -168 1291
-53 184 59 177 170 -13 233 -163 55 -550 86 -792 65z m555 -84 c167 -30 254
-69 240 -107 -9 -22 -90 -52 -202 -75 -130 -27 -647 -26 -778 0 -156 32 -227
74 -186 111 38 34 179 71 336 86 127 13 487 4 590 -15z"/>
<path d="M1180 8345 c0 -24 109 -222 162 -297 204 -281 417 -462 738 -627 364
-186 637 -273 1060 -337 91 -13 183 -29 205 -34 133 -32 32 12 -243 104 -392
132 -614 229 -829 362 -326 202 -750 522 -993 749 -77 72 -100 90 -100 80z"/>
<path d="M9004 8298 c-32 -29 -88 -79 -123 -112 -157 -144 -555 -438 -815
-602 -216 -135 -529 -283 -974 -459 -128 -51 -235 -95 -238 -98 -3 -3 12 -1
34 4 22 5 97 15 168 24 71 8 154 19 184 25 323 61 836 272 1130 464 210 138
448 369 577 561 48 71 137 245 125 245 -4 0 -35 -23 -68 -52z"/>
<path d="M5075 8045 c-5 -1 -36 -8 -68 -15 -33 -7 -70 -22 -88 -37 -31 -26
-86 -126 -109 -198 -9 -28 -39 -65 -101 -125 -137 -134 -170 -221 -135 -356 9
-34 16 -66 16 -70 0 -5 -39 -45 -86 -89 l-85 -81 21 -53 c30 -77 11 -84 -33
-12 -54 87 -188 250 -243 297 -123 103 -231 153 -382 179 -48 8 -211 24 -362
35 -401 30 -692 62 -874 96 -44 8 -81 12 -83 10 -9 -8 264 -135 363 -169 147
-51 280 -82 549 -127 305 -51 330 -58 394 -116 109 -98 127 -166 141 -534 16
-412 34 -568 87 -734 31 -98 73 -185 122 -249 33 -44 78 -83 86 -75 2 2 9 50
15 108 22 204 94 525 154 684 39 103 113 239 148 273 43 41 128 69 276 89
l120 17 12 56 c7 31 25 95 41 143 l28 87 -52 54 c-87 89 -130 159 -135 221 -4
53 12 126 28 126 4 0 13 -21 19 -47 19 -77 90 -210 142 -268 54 -58 121 -95
171 -95 113 1 242 134 319 330 37 94 38 94 49 65 17 -43 4 -125 -31 -193 -28
-57 -130 -176 -158 -184 -11 -3 -8 -30 20 -142 18 -75 36 -141 39 -146 3 -4
55 -13 116 -19 159 -16 207 -33 264 -91 138 -141 254 -524 305 -999 3 -30 7
-56 9 -58 9 -9 87 93 119 155 103 199 136 381 157 892 7 146 18 300 25 342 24
142 103 249 216 291 66 24 179 51 450 107 279 57 443 102 585 160 54 23 118
49 142 58 23 9 42 20 42 25 0 4 -4 6 -9 3 -13 -8 -386 -62 -551 -80 -726 -78
-754 -82 -865 -125 -190 -74 -303 -169 -445 -376 -51 -74 -97 -135 -102 -135
-6 0 -7 30 -3 73 l7 74 -57 54 c-87 82 -91 94 -55 171 36 75 40 151 11 214
-10 22 -52 77 -94 121 -57 61 -86 103 -120 175 -25 52 -66 117 -91 145 -42 47
-51 52 -109 62 -57 10 -256 14 -282 6z"/>
<path d="M1195 7720 c15 -72 69 -194 118 -268 74 -112 259 -291 392 -380 137
-91 248 -145 450 -217 387 -138 647 -183 937 -163 117 8 355 42 366 53 3 3
-33 5 -79 5 -180 1 -485 40 -666 85 -105 27 -517 200 -673 283 -199 106 -474
286 -621 409 -42 34 -112 100 -154 145 -74 79 -77 81 -70 48z"/>
<path d="M8980 7631 c-229 -234 -568 -453 -930 -599 -357 -144 -703 -236
-1085 -288 -148 -21 -146 -22 70 -50 150 -19 345 -15 490 11 275 49 604 143
776 223 419 193 684 451 769 746 10 36 18 66 17 65 -1 0 -49 -49 -107 -108z"/>
<path d="M1219 7093 c21 -72 77 -188 121 -251 118 -168 366 -338 618 -422 254
-85 611 -95 937 -26 116 24 552 162 543 172 -2 1 -35 -3 -73 -11 -471 -89
-888 -76 -1250 42 -412 134 -642 256 -817 435 -68 69 -85 83 -79 61z"/>
<path d="M9015 7063 c-126 -143 -360 -284 -637 -384 -434 -156 -595 -184
-1013 -176 -231 4 -323 12 -512 42 -102 16 242 -100 427 -145 337 -80 777 -66
1057 36 320 115 554 298 666 520 33 66 67 154 59 153 -4 0 -25 -21 -47 -46z"/>
<path d="M5112 7019 c-70 -35 -122 -115 -122 -188 0 -28 39 -63 111 -101 l57
-29 75 40 c94 52 104 69 83 140 -18 64 -67 126 -112 145 -42 18 -41 18 -92 -7z"/>
<path d="M4800 6718 c-59 -9 -200 -70 -223 -97 -21 -23 -60 -150 -111 -356
-48 -191 -137 -586 -156 -695 -13 -71 -20 -83 -257 -453 -73 -114 -134 -212
-136 -218 -2 -9 67 -40 155 -72 16 -6 16 -9 1 -54 -9 -26 -46 -104 -84 -173
-79 -147 -89 -192 -59 -255 44 -90 144 -87 208 8 63 93 80 180 62 314 -6 48
-14 95 -16 104 -4 13 17 10 121 -19 69 -19 127 -33 129 -31 3 2 20 83 39 179
35 175 224 1074 258 1225 9 44 18 69 19 55 0 -14 5 -68 10 -120 37 -358 50
-530 44 -563 -3 -22 -28 -115 -55 -208 -56 -193 -83 -312 -244 -1039 -181
-818 -485 -2267 -485 -2310 0 -59 319 -173 615 -220 166 -27 706 -40 886 -21
231 24 526 101 695 181 60 29 66 34 61 58 -45 255 -81 449 -93 502 -14 59 -69
320 -235 1110 -103 490 -316 1443 -385 1718 -58 232 -65 271 -60 325 28 279
71 598 78 572 4 -16 21 -111 38 -210 49 -279 240 -1209 252 -1220 2 -2 49 10
103 26 155 47 148 47 142 13 -37 -192 -33 -266 18 -371 29 -59 44 -78 81 -99
55 -32 101 -27 137 16 54 64 43 136 -48 306 -31 57 -65 129 -75 159 l-19 56
27 10 c88 32 134 54 139 65 2 7 -81 145 -185 306 l-190 294 -61 304 c-34 168
-86 406 -117 530 -50 200 -60 229 -88 258 -63 68 -162 111 -269 118 -68 4 -69
4 -115 -34 -26 -21 -83 -62 -126 -91 l-79 -51 -26 23 c-14 13 -51 38 -81 55
-30 17 -71 47 -90 67 -37 38 -41 39 -150 23z"/>
<path d="M1360 6344 c0 -20 59 -112 112 -172 110 -126 262 -220 458 -286 149
-50 279 -63 462 -48 258 22 456 75 686 187 170 82 490 270 479 281 -2 2 -75
-17 -163 -42 -221 -62 -643 -171 -735 -188 -293 -56 -610 -41 -858 41 -140 46
-293 120 -375 182 -36 28 -66 48 -66 45z"/>
<path d="M8827 6300 c-141 -101 -398 -204 -587 -235 -224 -37 -466 -29 -720
24 -102 22 -670 164 -825 208 -49 13 248 -168 395 -242 247 -124 495 -193 773
-216 187 -16 310 -2 472 52 256 85 427 213 543 407 18 28 28 52 24 51 -4 0
-38 -22 -75 -49z"/>
<path d="M3684 6100 c-34 -34 -338 -203 -494 -275 -69 -32 -200 -93 -291 -136
-278 -131 -469 -176 -713 -166 -77 3 -156 10 -175 16 -56 17 -47 6 24 -34 289
-162 651 -133 1015 80 84 49 355 241 420 298 78 67 232 218 228 222 -2 3 -9 0
-14 -5z"/>
<path d="M6699 5979 c250 -242 564 -451 786 -522 143 -45 184 -52 335 -52 164
1 230 14 345 71 72 35 140 83 100 69 -139 -47 -473 -22 -680 52 -183 66 -631
285 -854 417 -78 47 -146 86 -150 86 -3 -1 50 -55 118 -121z"/>
<path d="M3675 5758 c-44 -38 -138 -115 -210 -171 -167 -130 -263 -222 -390
-377 -105 -128 -231 -256 -288 -290 -56 -34 -6 -22 95 24 136 61 254 143 376
260 128 123 210 220 368 436 119 163 138 191 132 189 -2 0 -39 -32 -83 -71z"/>
<path d="M6510 5817 c0 -12 200 -292 287 -402 160 -201 285 -318 433 -405 64
-38 248 -115 256 -107 3 2 -15 17 -38 32 -60 40 -150 127 -221 215 -192 236
-265 309 -542 530 -77 62 -148 120 -157 128 -10 8 -18 12 -18 9z"/>
</g>
</svg>
