<svg version="1.1" id="Layer_1" xmlns="http://www.w3.org/2000/svg" xmlns:xlink="http://www.w3.org/1999/xlink" x="0px" y="0px"
	 width="100%" viewBox="0 0 1024 1024" enable-background="new 0 0 1024 1024" xml:space="preserve">
<path fill="#000000" opacity="1.000000" stroke="none" 
	d="
M545.309204,158.752563 
	C553.672852,170.405380 561.630554,181.916382 570.073120,193.060089 
	C583.167847,210.344376 589.767761,229.640457 590.551880,251.328064 
	C590.942871,262.143280 591.869202,272.898651 590.542908,283.694702 
	C590.335022,285.386566 589.995422,286.928833 588.691711,288.183136 
	C578.989685,297.517395 570.029724,307.629150 558.187073,314.580505 
	C544.679382,322.509277 531.919128,331.647095 519.395203,341.010590 
	C513.052124,345.752960 507.512604,345.654236 501.036530,342.308441 
	C493.704071,338.520233 487.446320,333.292877 481.229950,328.016968 
	C469.558807,318.111450 458.665466,307.297424 445.958313,298.605377 
	C439.315826,294.061737 435.438324,288.235474 436.508911,279.298676 
	C438.247284,264.787781 438.128235,250.110184 439.424377,235.526260 
	C440.303436,225.635040 442.979950,216.575531 448.256134,208.338593 
	C467.020721,179.044205 484.970184,149.200089 506.233917,121.575630 
	C507.835815,119.494568 509.574036,117.518471 511.609772,115.057274 
	C523.484558,129.432587 534.573303,143.726410 545.309204,158.752563 
M541.252869,290.783600 
	C541.746582,290.112915 542.208618,289.416046 542.738708,288.775513 
	C551.968018,277.624359 558.149719,265.542969 554.987549,250.392059 
	C554.356140,247.366592 555.753845,244.649689 558.474487,243.207230 
	C562.299805,241.179047 565.011353,238.071548 567.476196,234.731430 
	C569.177673,232.425781 573.781311,230.951965 571.371155,227.230911 
	C569.542236,224.407272 570.428345,220.590424 567.339355,218.379166 
	C565.930054,217.370361 564.991211,216.059601 563.097595,217.386658 
	C561.363098,218.602097 559.431274,220.038116 560.914246,222.184097 
	C563.569946,226.027069 561.387146,228.227310 558.896057,230.689529 
	C556.173401,233.380661 553.674561,236.297134 550.981995,239.020203 
	C547.148804,242.896683 545.974854,242.625732 544.642456,237.386230 
	C543.865662,234.331390 542.052307,232.420761 539.247620,231.344803 
	C536.608398,230.332306 534.380127,230.433090 531.999695,232.647018 
	C526.255188,237.989716 520.160095,242.955566 514.206421,248.073395 
	C522.958008,247.970261 531.398376,247.450333 539.581360,245.716324 
	C544.074585,244.764191 545.832092,246.293427 547.010803,249.838669 
	C548.929138,255.608597 548.553711,261.333344 546.131348,266.891937 
	C542.473877,275.284637 538.740540,283.644257 535.075562,292.033722 
	C534.329468,293.741730 532.714661,295.534576 535.350220,297.464081 
	C538.021729,296.229919 539.151428,293.526459 541.252869,290.783600 
M533.016541,218.198883 
	C531.238586,218.495941 529.251770,218.541199 529.345093,221.632507 
	C535.397705,222.232086 541.546387,219.875870 547.515625,222.176193 
	C548.713074,222.637634 549.397766,221.057419 549.533875,219.837128 
	C550.117981,214.600464 550.658508,209.358963 551.203430,204.227554 
	C549.575256,202.867188 547.847046,203.434860 546.234131,203.359299 
	C538.664429,203.004745 532.277222,207.350296 525.087952,208.711395 
	C514.928650,210.634750 514.502380,210.632202 512.753662,200.035904 
	C512.241028,196.929489 512.300781,193.580948 509.795410,190.804001 
	C506.978912,194.625900 506.803619,198.905991 505.674591,202.847168 
	C503.483459,210.495667 503.312531,210.731033 495.798706,208.703583 
	C487.803741,206.546295 479.741333,204.952332 470.792725,204.571198 
	C471.423065,211.782578 472.461304,218.628098 474.999359,226.118240 
	C481.472168,221.548782 488.346558,226.219254 494.871582,223.918839 
	C493.373566,220.471985 491.131897,219.552063 487.983337,219.256073 
	C483.707275,218.854095 478.979492,218.649811 476.276398,212.207184 
	C488.143005,214.083450 500.536133,209.485306 508.406311,221.887329 
	C510.634796,225.398972 512.396362,224.437164 514.061340,221.144440 
	C515.300232,218.694321 515.861938,215.451172 518.893127,214.458969 
	C527.274963,211.715317 536.008118,213.124252 545.272522,211.587143 
	C542.210876,216.802628 538.499023,218.413788 533.016541,218.198883 
M471.562653,236.915680 
	C467.501434,231.806335 460.919861,227.910217 464.170074,219.565262 
	C457.709808,219.247025 455.375214,223.569702 453.422241,227.321060 
	C451.700165,230.628937 456.012390,231.697998 457.640533,233.741135 
	C458.554352,234.887878 459.801758,235.835724 461.050110,236.637817 
	C467.707153,240.915237 470.138367,246.726990 469.532166,254.763306 
	C468.748230,265.156311 470.296051,275.232544 478.562927,283.006714 
	C480.228149,284.572662 481.205566,286.845032 482.730713,288.590179 
	C485.786407,292.086639 488.218842,296.186829 492.309692,299.474731 
	C492.747345,297.158081 491.948547,295.839966 491.420837,294.492065 
	C487.728027,285.059265 484.155396,275.575104 480.228790,266.240112 
	C478.404694,261.903595 477.625397,257.418640 478.943024,253.148544 
	C480.530853,248.002625 478.828491,244.502487 475.341583,241.178452 
	C474.142700,240.035568 473.126862,238.700699 471.562653,236.915680 
M492.863251,267.835358 
	C494.486450,268.107849 496.167389,268.799622 497.723511,268.585205 
	C508.401489,267.113953 519.174622,266.922180 529.888184,265.975342 
	C532.846619,265.713898 535.906433,265.453522 538.463867,263.735413 
	C540.416382,262.423645 541.322205,260.424713 540.503967,258.100403 
	C539.971619,256.588409 538.667480,256.506927 537.185425,256.912048 
	C523.233948,260.725922 508.955200,260.481018 494.679291,260.296234 
	C492.758942,260.271393 490.438019,259.759674 489.620300,262.312164 
	C488.848999,264.719696 489.829651,266.514587 492.863251,267.835358 
M496.714569,238.803619 
	C494.570282,236.909500 493.074249,234.232224 489.987579,232.871033 
	C488.554688,236.880600 485.614044,239.406967 483.405029,242.470261 
	C482.222870,244.109543 481.526917,245.960892 483.989899,246.937225 
	C490.836578,249.651382 497.815674,250.047165 505.216675,247.804474 
	C503.261780,243.893295 499.264862,242.505295 496.714569,238.803619 
z"/>
<path fill="#000000" opacity="1.000000" stroke="none" 
	d="
M612.237915,456.828796 
	C580.102356,448.061066 548.344543,439.431030 516.586365,430.801880 
	C502.633057,427.010559 488.669403,423.256439 474.732849,419.404510 
	C471.426483,418.490662 468.338013,418.552765 464.989075,419.523773 
	C443.907990,425.636200 422.744354,431.464874 401.676941,437.623108 
	C397.100891,438.960785 395.043518,438.132812 393.190613,433.389984 
	C387.384308,418.527466 378.916138,404.784180 374.406708,389.346985 
	C372.548981,382.987274 369.750763,376.886963 369.644653,370.057434 
	C369.591919,366.662109 371.027618,364.855286 374.123016,363.808563 
	C380.907166,361.514496 387.671844,362.855225 394.370361,363.929688 
	C405.207916,365.668030 415.984222,367.768890 426.243744,371.895660 
	C431.528717,374.021423 436.877869,372.339935 441.998505,371.453430 
	C471.161163,366.404633 500.674408,364.123840 529.970581,360.131805 
	C546.344727,357.900543 562.833862,359.993073 578.904236,364.355988 
	C589.027710,367.104370 599.172180,369.753571 608.529602,374.679413 
	C610.048340,375.478882 611.664429,375.669891 613.354797,375.722229 
	C624.329651,376.061829 635.301270,376.537506 646.278076,376.772980 
	C651.007996,376.874451 655.420410,377.897369 659.919189,379.335754 
	C664.518433,380.806305 664.769592,383.033508 662.801880,386.735626 
	C656.942444,397.759430 651.021729,408.754486 645.396912,419.898041 
	C639.612427,431.357727 633.595581,442.620667 625.520142,452.704956 
	C620.435852,459.053955 620.626221,459.206390 612.237915,456.828796 
z"/>
<path fill="#000000" opacity="1.000000" stroke="none" 
	d="
M414.527924,783.526855 
	C408.614258,779.739380 403.248505,775.657654 397.319763,772.707275 
	C389.376007,768.754272 388.213562,761.803650 389.074951,754.646729 
	C391.058960,738.162598 394.140228,721.826660 398.026367,705.663452 
	C398.667999,702.994812 399.851654,700.752197 402.346100,699.255737 
	C414.217957,692.133362 425.201721,683.732605 436.331940,675.540955 
	C444.961517,669.189758 455.061218,665.413513 464.135895,659.827881 
	C467.283783,657.890320 469.058990,659.114441 469.655975,662.633240 
	C471.488739,673.435608 474.319794,684.171936 474.967102,695.040894 
	C475.532288,704.531250 474.476135,714.324951 467.912048,722.424133 
	C464.458435,726.685425 461.570892,731.400818 458.246124,735.773010 
	C456.269379,738.372498 456.938354,740.073669 459.621490,741.214355 
	C463.140594,742.710388 466.765289,743.955872 470.308197,745.398438 
	C475.801910,747.635254 476.480743,748.902527 474.684113,754.448120 
	C467.146423,777.714783 463.920929,801.673340 462.286072,825.996277 
	C461.645294,835.529297 466.065796,842.207581 471.532623,848.792236 
	C473.888062,851.629272 476.211975,854.408997 477.532654,857.913269 
	C479.102142,862.077698 478.004486,864.214844 473.625427,865.030090 
	C472.329773,865.271362 470.969910,865.214172 469.639435,865.215088 
	C452.311981,865.226501 434.984497,865.238892 417.657074,865.216614 
	C411.541321,865.208740 410.885010,864.449585 410.857422,858.230835 
	C410.837524,853.746765 411.414917,849.201843 410.147705,844.808105 
	C405.803925,829.747131 395.149628,820.685181 380.908722,815.959778 
	C374.305939,813.768799 368.338226,817.399109 363.291840,821.928894 
	C359.016357,825.766785 355.507355,830.459778 350.634583,833.915344 
	C347.996796,830.067627 345.968384,826.504517 345.244049,822.293945 
	C344.768982,819.532593 343.463348,818.105957 340.185272,818.151001 
	C333.911072,818.237244 327.751953,816.302979 321.361084,816.985779 
	C318.423004,817.299683 317.083130,815.573914 318.435852,812.485535 
	C321.975555,804.403809 325.423706,796.281860 328.987701,788.210999 
	C329.927704,786.082336 331.872253,785.128418 334.055206,784.516296 
	C349.415405,780.209473 364.661987,775.476807 380.479706,772.972656 
	C384.313995,772.365662 386.029633,774.209900 387.218353,777.312439 
	C388.684601,781.139404 388.872040,785.465149 391.756500,789.233032 
	C394.048004,786.471924 393.447052,783.453735 393.717194,780.622681 
	C394.141754,776.172913 395.639130,775.436279 399.535675,777.628540 
	C408.098816,782.446350 415.681793,788.814575 424.498932,793.254883 
	C429.546570,795.796875 434.835693,797.594788 440.248566,799.200500 
	C431.774078,794.045776 423.299622,788.891052 414.527924,783.526855 
z"/>
<path fill="#000000" opacity="1.000000" stroke="none" 
	d="
M454.022034,492.982117 
	C466.936157,486.731934 478.845154,479.297974 491.942963,474.232971 
	C499.052094,471.483856 500.110779,471.976196 501.757843,479.102539 
	C505.963257,497.297852 504.611053,515.828857 505.502106,534.240295 
	C506.197601,548.610718 508.294312,562.913269 510.798920,577.234314 
	C511.723328,572.729187 513.166992,568.260559 513.486633,563.712891 
	C515.361633,537.040100 518.961060,510.550079 521.601807,483.960510 
	C522.007507,479.875885 523.267883,478.345398 527.627075,479.553894 
	C534.077942,481.342316 540.135437,483.669830 545.919067,487.190369 
	C562.837219,497.488647 579.957764,507.457855 597.098389,517.384399 
	C600.451660,519.326416 599.575317,521.007812 597.811279,523.296875 
	C588.259705,535.691406 578.788879,548.148254 569.225342,560.533447 
	C549.994812,585.437805 530.705750,610.296936 511.476898,635.202576 
	C505.385742,643.091919 504.722076,643.058044 498.893677,634.548706 
	C475.089966,599.795715 451.016022,565.224487 428.342957,529.711670 
	C426.197388,526.351074 424.153290,522.883179 422.484711,519.269958 
	C419.525330,512.861572 421.629517,508.299042 428.003082,505.403961 
	C436.639618,501.481049 445.138062,497.254089 454.022034,492.982117 
z"/>
<path fill="#000000" opacity="1.000000" stroke="none" 
	d="
M585.372192,738.662170 
	C590.036743,744.769043 594.583801,750.524353 598.861023,756.473633 
	C600.817932,759.195557 602.448547,759.187622 604.235657,756.639404 
	C618.783569,735.895203 639.694031,721.632385 657.576355,704.287903 
	C661.299438,700.676819 663.231689,701.050720 665.509399,705.767212 
	C669.375977,713.774109 670.687927,722.570923 672.644714,731.140503 
	C678.342896,756.095337 682.559204,781.312439 685.565857,806.730164 
	C686.220398,812.263367 685.207458,816.619568 679.064087,819.068359 
	C674.199097,821.007446 671.143921,825.542786 668.534790,830.093262 
	C667.789490,831.393127 667.117493,832.739441 666.305725,833.995850 
	C663.008179,839.099670 661.836792,839.192322 657.911255,834.487915 
	C655.457214,831.546814 653.178406,828.460144 650.788574,825.464661 
	C644.349731,817.393860 636.015625,815.000000 626.393188,818.357971 
	C624.283630,819.094116 622.154175,820.074829 621.086548,821.916687 
	C615.260742,831.967102 605.662170,839.462830 601.715210,850.794922 
	C600.614685,853.954712 599.244568,857.026611 599.353088,860.410645 
	C599.462952,863.835876 597.965027,865.241272 594.612732,865.228027 
	C579.948303,865.170288 565.283142,865.242981 550.619141,865.141296 
	C546.164001,865.110474 543.779297,861.400391 545.493652,856.669128 
	C547.413879,851.369629 549.700806,846.163757 552.281311,841.150391 
	C558.777954,828.528748 563.827942,815.329956 568.610046,802.002136 
	C570.979065,795.399292 571.428467,788.787659 570.025818,781.887634 
	C566.513245,764.609009 562.659485,747.421936 557.288025,730.612000 
	C555.963745,726.467651 557.266968,722.984375 559.880920,719.991089 
	C562.906860,716.526062 565.878845,716.590332 569.214783,719.807434 
	C575.112610,725.495239 579.974304,732.075684 585.372192,738.662170 
M616.411865,800.262878 
	C607.617310,801.389099 598.822754,802.515320 590.028198,803.641541 
	C604.191467,804.525818 618.398865,806.173401 631.951172,800.415588 
	C627.056641,797.590576 622.167236,799.674744 616.411865,800.262878 
z"/>
<path fill="#000000" opacity="1.000000" stroke="none" 
	d="
M366.167114,322.307434 
	C334.430511,333.526978 302.774139,343.724670 270.960419,353.437592 
	C263.953247,355.576904 262.774017,354.399323 264.606628,347.267639 
	C270.642303,323.779633 276.750000,300.310059 282.763306,276.816376 
	C284.404907,270.402771 287.685394,266.432770 294.577850,264.341461 
	C320.031586,256.618439 345.270721,248.187958 370.586731,240.011612 
	C374.124390,238.869049 377.418762,238.530487 381.236328,239.807785 
	C388.656464,242.290466 388.449493,248.421509 389.256805,254.235413 
	C391.560425,270.824707 393.379700,287.500061 397.272308,303.819580 
	C398.242706,307.888031 396.306610,309.706757 393.317657,311.272217 
	C384.742249,315.763733 375.540924,318.727936 366.167114,322.307434 
z"/>
<path fill="#000000" opacity="1.000000" stroke="none" 
	d="
M687.764282,248.146851 
	C704.676453,254.405823 721.200623,260.596100 737.810913,266.545715 
	C741.469055,267.856018 743.027893,270.443787 743.977722,273.747101 
	C747.243774,285.106781 749.140991,296.762390 751.210022,308.369476 
	C753.512024,321.283203 755.462585,334.259247 757.637329,347.196167 
	C758.662659,353.295715 756.682495,354.988251 750.509338,353.210999 
	C728.438843,346.857147 707.143799,338.133148 685.018250,331.920929 
	C674.295288,328.910187 663.545105,325.853973 653.255310,321.497070 
	C647.592224,319.099213 642.063538,316.385803 636.441101,313.889160 
	C634.280579,312.929779 633.575317,311.517029 633.940491,309.145874 
	C637.332520,287.118622 640.123108,265.031677 639.689697,242.674637 
	C639.607727,238.445221 641.583496,236.689026 645.732849,236.607742 
	C653.377808,236.458023 660.548157,238.589447 667.657593,240.937714 
	C674.293457,243.129547 680.828064,245.628052 687.764282,248.146851 
z"/>
<path fill="#000000" opacity="1.000000" stroke="none" 
	d="
M800.909851,478.053528 
	C805.170715,481.820312 805.744934,486.708160 806.192505,491.496796 
	C808.914001,520.615601 811.548767,549.742615 814.146484,578.872742 
	C814.943604,587.810730 815.554688,596.765686 816.210754,605.715759 
	C816.639648,611.567322 815.322693,612.661743 809.289246,613.466187 
	C799.480957,614.774048 789.657654,613.857483 779.850647,614.211426 
	C774.943726,614.388489 772.545044,611.989807 771.807068,607.330566 
	C767.467712,579.933594 760.208679,553.090454 756.242737,525.624939 
	C754.808472,515.691406 756.105469,505.660461 755.599976,495.693756 
	C755.036987,484.593445 756.476257,473.912170 760.036804,463.324402 
	C761.572754,458.757141 763.228638,458.551636 767.109436,460.121399 
	C778.896484,464.889221 789.558533,471.733337 800.909851,478.053528 
z"/>
<path fill="#000000" opacity="1.000000" stroke="none" 
	d="
M629.614136,626.869507 
	C630.753479,631.896973 630.867065,636.618774 629.985535,641.174988 
	C628.318298,649.791992 621.107239,651.885132 613.965210,653.127991 
	C604.311462,654.807861 594.525818,655.717773 584.816589,657.098022 
	C581.920837,657.509583 580.258484,656.087036 578.379822,654.228943 
	C571.452576,647.377380 566.356079,639.135010 560.632874,631.370422 
	C556.876709,626.274475 553.528442,620.846191 549.453857,616.026428 
	C546.083618,612.039856 546.155457,608.556946 548.607971,604.283081 
	C552.598267,597.329651 556.774963,590.510986 561.929626,584.371521 
	C572.212891,572.123840 582.616333,559.976685 593.012634,547.824341 
	C594.282043,546.340454 595.433777,544.654724 597.672241,543.707031 
	C599.299316,547.857056 599.400635,552.155823 599.207336,556.355225 
	C598.578918,570.005310 602.238220,582.167908 610.203552,593.348083 
	C615.994019,601.475708 620.919434,610.218933 626.248718,618.676208 
	C627.770935,621.092041 629.073242,623.585876 629.614136,626.869507 
z"/>
<path fill="#000000" opacity="1.000000" stroke="none" 
	d="
M257.212158,524.142151 
	C245.104111,546.226562 233.167206,567.988220 221.241058,589.755798 
	C219.023270,593.803711 210.449860,597.376892 206.309341,595.912659 
	C204.069672,595.120667 204.687988,593.175232 204.899506,591.661743 
	C206.899384,577.351501 208.981308,563.052673 211.064545,548.754211 
	C214.583740,524.599915 218.091293,500.443787 221.677826,476.299408 
	C222.336029,471.868317 223.299133,467.479706 224.212234,463.090393 
	C224.699829,460.746429 225.948608,458.857178 227.814819,457.265533 
	C236.661026,449.720764 246.891708,444.602386 257.918732,439.702454 
	C260.153839,445.272247 261.267029,450.941956 262.054626,456.546143 
	C263.927734,469.874390 265.820831,483.193848 268.112457,496.457886 
	C268.687592,499.786835 268.402191,503.036865 266.699493,506.145325 
	C263.500458,511.985382 260.481140,517.923889 257.212158,524.142151 
z"/>
<path fill="#000000" opacity="1.000000" stroke="none" 
	d="
M747.646301,460.856567 
	C746.019531,474.899689 744.488647,488.539337 742.922363,502.493866 
	C739.535828,501.923065 737.131104,501.089172 735.152344,499.157684 
	C730.032349,494.159973 725.391846,488.664215 719.615234,484.345337 
	C718.070679,483.190582 717.383972,481.297516 717.202026,479.521454 
	C716.016663,467.950531 718.125977,456.851196 722.077515,445.199921 
	C728.215576,449.607574 732.259705,454.977386 736.582703,460.063080 
	C737.956421,453.020294 737.750366,453.191650 732.967773,448.338135 
	C719.799683,434.974731 708.844727,419.923798 699.829895,403.481506 
	C697.674561,399.550476 699.438599,394.252960 704.449097,389.905487 
	C711.365173,383.904633 718.635376,378.309448 725.499573,372.252319 
	C729.613037,368.622528 733.300598,364.522156 737.808411,361.312256 
	C740.875427,359.128357 742.637085,359.330750 743.889587,363.307587 
	C751.435425,387.266663 759.134277,411.177673 766.806885,435.096741 
	C769.730347,444.210510 766.870239,449.654205 758.203613,453.531555 
	C754.482788,455.196228 748.682800,454.388367 747.646301,460.856567 
z"/>
<path fill="#000000" opacity="1.000000" stroke="none" 
	d="
M333.597229,474.657532 
	C335.212616,483.376953 336.698547,491.702026 338.184235,500.027191 
	C338.643219,502.599060 337.862915,504.968781 336.976776,507.315216 
	C327.224030,533.140747 315.789490,558.316833 307.092377,584.546143 
	C305.817657,588.390503 303.130859,588.201477 300.022552,588.280151 
	C296.766663,588.362366 295.651733,586.571594 294.995483,583.909607 
	C289.988373,563.598572 284.748108,543.341675 280.037262,522.962341 
	C277.663086,512.691467 278.510040,502.096130 278.814972,491.641541 
	C278.923370,487.924622 281.882721,485.424377 285.234711,484.073273 
	C299.120697,478.476105 313.007507,472.870728 327.016083,467.592377 
	C333.461792,465.163666 331.891693,471.455841 333.597229,474.657532 
z"/>
<path fill="#000000" opacity="1.000000" stroke="none" 
	d="
M421.448334,551.600098 
	C421.813293,550.433105 422.020508,549.625916 422.303345,548.846069 
	C423.835876,544.620300 425.609375,544.224609 428.348663,547.779724 
	C437.998657,560.303589 447.150909,573.190613 456.371460,586.033020 
	C461.528900,593.216248 462.736145,600.327942 461.651001,608.922363 
	C460.155121,620.769958 459.969086,632.787476 459.349640,644.738831 
	C459.106110,649.437012 458.220978,653.439209 453.366791,655.748291 
	C449.025635,657.813232 445.050323,660.635071 440.763733,662.830322 
	C436.105347,665.216064 431.544250,664.100037 428.470062,659.830872 
	C420.289001,648.469727 412.897949,636.589661 406.817017,623.983215 
	C403.853119,617.838806 403.629791,611.024170 405.537964,604.479309 
	C410.653320,586.934082 416.044128,569.469299 421.448334,551.600098 
z"/>
<path fill="#000000" opacity="1.000000" stroke="none" 
	d="
M504.935608,437.675781 
	C510.746521,440.927124 511.110413,442.724152 507.028046,447.215942 
	C501.590759,453.198578 494.870911,457.507599 488.009125,461.643188 
	C468.033997,473.682190 447.546021,484.765076 426.501587,494.817383 
	C420.884186,497.500671 417.638977,497.044983 414.372833,492.172485 
	C406.034790,479.733643 397.012207,467.749664 389.401245,454.826996 
	C388.663971,453.575165 387.604645,452.363190 388.302765,450.223511 
	C399.633545,447.434204 411.231659,444.685089 422.771881,441.711334 
	C437.092010,438.021271 451.376312,434.189514 465.645111,430.305267 
	C467.985168,429.668243 470.214996,429.546875 472.519836,430.087463 
	C483.195435,432.591492 493.867737,435.109467 504.935608,437.675781 
z"/>
<path fill="#000000" opacity="1.000000" stroke="none" 
	d="
M392.390472,520.406494 
	C400.045074,510.181396 402.495483,509.706665 410.000763,521.011414 
	C415.032257,528.590027 416.958984,535.836243 413.921661,544.833557 
	C410.104004,556.142456 408.062836,568.060730 404.092163,579.305420 
	C400.184875,590.370789 395.127533,601.008484 387.367523,610.216858 
	C381.052521,617.710510 375.539825,625.878601 369.627380,633.714355 
	C368.145721,635.678040 366.653381,638.347046 363.852325,637.722473 
	C361.328918,637.159973 361.991943,634.170898 361.377289,632.192932 
	C358.476532,622.858643 354.258240,613.916321 353.250488,604.020691 
	C352.511597,596.765015 351.452820,589.541138 350.756897,582.281982 
	C350.353271,578.071350 352.395630,574.491943 354.772430,571.255859 
	C367.182861,554.358582 379.683350,537.527466 392.390472,520.406494 
z"/>
<path fill="#000000" opacity="1.000000" stroke="none" 
	d="
M728.266846,607.676270 
	C723.208801,599.411194 718.583679,591.297913 713.430969,583.534790 
	C703.952759,569.254822 697.784241,553.455688 691.645569,537.621460 
	C690.084595,533.595154 692.573669,526.167358 696.500183,522.852356 
	C696.880798,522.531006 697.304993,522.260681 697.712891,521.972412 
	C708.954163,514.026855 708.966492,514.007263 723.757996,523.165222 
	C729.136658,526.495361 734.383789,530.040833 739.802368,533.302795 
	C743.099609,535.287781 744.506531,538.329895 745.396423,541.786743 
	C749.371521,557.228760 753.179688,572.715820 757.358154,588.102478 
	C759.403931,595.635620 762.144531,602.979248 764.537659,610.419189 
	C766.651917,616.992065 764.590637,619.737549 757.777466,619.075989 
	C750.667114,618.385681 743.609009,617.443054 736.747803,615.150635 
	C732.833069,613.842712 729.956055,611.846008 728.266846,607.676270 
z"/>
<path fill="#000000" opacity="1.000000" stroke="none" 
	d="
M278.898041,730.037109 
	C273.933014,731.661926 269.358398,733.192383 264.753082,734.623962 
	C257.129974,736.993469 252.025467,735.690308 248.716187,728.695923 
	C242.993912,716.601501 232.689957,709.904602 221.825897,703.616455 
	C219.048065,702.008606 216.379669,700.346741 214.635056,697.597229 
	C212.183578,693.733643 211.819824,690.030518 214.993561,686.143311 
	C220.660721,679.202209 227.999008,674.242371 234.967407,668.871582 
	C244.193787,661.760498 253.626572,654.912720 263.071442,648.091370 
	C268.306152,644.310608 270.980347,644.909363 274.559631,650.321106 
	C276.679626,653.526428 278.164490,657.024292 279.352112,660.702209 
	C280.744293,665.013611 280.213257,668.781738 277.608826,672.500549 
	C274.553833,676.862610 271.786316,681.417175 269.660370,686.338318 
	C267.331696,691.728760 267.951141,696.722412 271.414520,701.402039 
	C275.982330,707.573853 281.879822,711.357727 289.668518,712.369324 
	C291.999237,712.671936 295.852814,711.272705 296.248718,715.830505 
	C296.603546,719.915710 293.822632,725.119934 290.212982,726.429382 
	C286.620270,727.732788 282.924957,728.753540 278.898041,730.037109 
z"/>
<path fill="#000000" opacity="1.000000" stroke="none" 
	d="
M432.668640,317.966919 
	C439.210938,318.876282 445.338684,319.312286 451.382935,320.552673 
	C455.234589,321.343109 458.638245,322.655334 461.719849,325.128052 
	C471.197266,332.732941 480.771851,340.216705 490.291779,347.768829 
	C490.776428,348.153320 491.103455,348.736542 491.830292,349.627228 
	C484.875000,353.026398 477.606934,353.861542 470.529694,355.188782 
	C457.468475,357.638214 444.341370,359.734711 431.254730,362.051483 
	C428.195953,362.593018 425.311157,362.223053 422.439880,361.185425 
	C410.784943,356.973602 398.524689,355.546143 386.411438,353.490967 
	C382.326904,352.797943 378.146545,353.194519 374.207031,353.902252 
	C372.606720,352.425690 373.387177,350.854462 373.697815,349.507812 
	C375.638000,341.097809 377.640900,332.700745 379.760284,324.334137 
	C380.869720,319.954376 384.892120,318.584961 388.435638,317.865051 
	C398.446960,315.831238 408.669220,316.266541 418.778076,317.056091 
	C423.254059,317.405701 427.749481,317.387573 432.668640,317.966919 
z"/>
<path fill="#000000" opacity="1.000000" stroke="none" 
	d="
M315.992310,446.018219 
	C317.646576,447.444427 319.166168,448.513458 320.394073,449.850342 
	C324.077576,453.860809 323.312805,457.428986 318.311279,459.632446 
	C310.247589,463.184937 302.151581,466.664124 294.062378,470.158508 
	C293.147644,470.553650 292.203888,470.897675 291.248199,471.179443 
	C279.762665,474.566284 277.043945,473.132202 273.562622,461.698975 
	C269.982452,449.941162 267.996887,437.755432 264.030518,426.094452 
	C263.330627,424.036743 263.502228,421.813110 264.010376,419.671814 
	C268.417206,401.102356 272.813660,382.530396 277.257660,363.969849 
	C277.743835,361.939331 277.709320,359.181702 280.380768,358.806061 
	C283.011932,358.436096 283.830261,361.050537 284.875336,362.854675 
	C292.130371,375.379181 299.185913,388.021759 306.605804,400.447083 
	C309.387726,405.105682 309.664032,409.400177 307.039429,414.025024 
	C306.548309,414.890411 306.364838,415.980408 305.741211,416.712860 
	C299.150299,424.454468 301.374756,430.889648 308.286377,437.053802 
	C311.112762,439.574524 313.265198,442.850891 315.992310,446.018219 
z"/>
<path fill="#000000" opacity="1.000000" stroke="none" 
	d="
M735.388672,520.579102 
	C718.512817,509.838135 701.951538,499.269073 685.324219,488.804962 
	C683.786438,487.837189 682.638184,486.935699 682.568787,485.047424 
	C682.295044,477.603912 677.974182,471.627441 675.259827,465.080261 
	C670.033386,452.473938 664.659119,439.928772 659.316040,427.371033 
	C658.299866,424.982727 657.529907,422.559479 659.210632,420.251801 
	C665.192078,412.038849 667.573059,402.158295 671.900024,393.183044 
	C672.884460,391.141144 673.490417,388.812653 675.480469,387.477448 
	C677.898010,388.045563 678.799744,389.983185 679.942139,391.537872 
	C689.214478,404.157196 698.082275,417.056915 706.543030,430.235992 
	C709.176086,434.337463 708.892761,438.928192 708.228271,443.311188 
	C706.685669,453.485992 704.823059,463.619232 702.789856,473.708832 
	C702.095520,477.154175 702.470520,479.513000 705.257446,482.052368 
	C715.467896,491.355743 725.091858,501.334534 736.878845,508.756256 
	C742.594360,512.355042 741.443604,517.596191 740.766602,522.835022 
	C738.348633,523.398132 737.216003,521.625916 735.388672,520.579102 
z"/>
<path fill="#000000" opacity="1.000000" stroke="none" 
	d="
M627.183655,603.760681 
	C621.371887,595.993164 616.799377,587.874084 612.145020,579.805054 
	C607.581604,571.893616 608.914856,562.967163 607.909485,554.471619 
	C607.326721,549.547424 607.660889,544.495544 607.820496,539.508850 
	C607.941406,535.730713 608.838989,532.216431 612.930481,530.597351 
	C617.118591,528.940002 619.167114,532.074097 621.177490,534.551941 
	C634.381287,550.825928 647.199036,567.420471 660.670715,583.467102 
	C668.511230,592.806335 670.497253,603.371399 670.015381,614.931091 
	C669.613647,624.566589 668.487244,634.123840 667.129517,643.663879 
	C666.763733,646.233948 665.602112,648.042419 663.195740,648.942383 
	C660.620178,649.905640 659.637756,647.730469 658.445251,646.254150 
	C647.460876,632.655029 637.214233,618.510254 627.183655,603.760681 
z"/>
<path fill="#000000" opacity="1.000000" stroke="none" 
	d="
M206.968887,652.694458 
	C206.723892,640.465698 204.300400,628.799072 205.596939,616.948975 
	C206.116913,612.196472 207.846161,609.158691 212.505035,607.149292 
	C222.878067,602.675293 232.881546,597.267761 244.238083,595.556641 
	C252.391754,594.328125 260.453705,595.572815 268.477753,596.897095 
	C272.303864,597.528564 274.200623,599.988953 274.202972,603.877869 
	C274.206909,610.367920 275.089020,616.781799 275.995178,623.184143 
	C276.281250,625.205505 275.359985,626.367249 273.925293,627.329407 
	C252.767380,641.518188 233.101074,657.694031 212.868057,673.114929 
	C212.227859,673.602905 211.481644,673.951782 210.195328,674.715576 
	C207.335083,667.544617 208.246399,660.165588 206.968887,652.694458 
z"/>
<path fill="#000000" opacity="1.000000" stroke="none" 
	d="
M639.595459,321.808044 
	C643.145142,322.437897 644.122620,325.012573 644.061890,327.445679 
	C643.754272,339.775208 647.602051,351.828278 646.360657,364.195251 
	C646.312561,364.674805 646.140625,365.141937 645.991028,365.761414 
	C630.627930,366.333435 615.357910,367.580750 600.685181,360.904022 
	C581.794800,352.307983 561.602173,349.284119 541.037537,348.273407 
	C539.256165,348.185883 537.363647,348.364746 535.167664,346.663055 
	C539.284424,343.684418 543.196228,340.827942 547.135559,338.009918 
	C553.089233,333.750885 559.408997,329.986664 564.735474,324.883392 
	C567.988098,321.767120 572.446899,320.963196 576.363403,321.052216 
	C593.667175,321.445709 610.955566,319.186432 628.237183,320.806335 
	C631.875732,321.147400 635.487854,321.770081 639.595459,321.808044 
z"/>
<path fill="#000000" opacity="1.000000" stroke="none" 
	d="
M799.427734,723.431641 
	C794.711304,726.693665 789.869934,728.947998 784.817200,730.598572 
	C775.088257,733.776672 766.092468,738.329346 757.730835,744.179749 
	C750.629456,749.148499 743.713501,751.230347 736.012451,744.842834 
	C731.431519,741.043396 726.161438,738.048706 721.696167,734.034912 
	C719.085876,731.688416 716.778381,729.115601 716.217285,725.462097 
	C717.700073,724.005554 719.148987,724.854614 720.435547,725.395935 
	C733.002197,730.683167 747.202148,718.809753 747.755615,705.794556 
	C748.069580,698.413025 748.572205,690.890991 744.679443,683.948242 
	C743.207947,681.323792 744.286804,678.257385 745.598450,675.819824 
	C747.648010,672.010803 750.755554,668.918091 753.825684,665.879089 
	C755.147339,664.570862 756.758179,664.512939 758.438477,665.341125 
	C760.832458,666.521118 763.163940,667.765015 765.101440,669.661743 
	C777.586243,681.883789 789.891785,694.279114 801.268127,707.554932 
	C806.326660,713.457947 805.775635,718.352722 799.427734,723.431641 
z"/>
<path fill="#000000" opacity="1.000000" stroke="none" 
	d="
M377.724182,762.659790 
	C365.159393,770.484619 351.833252,775.566467 338.053619,779.546753 
	C332.554993,781.135071 332.219727,780.600037 332.499359,774.898071 
	C333.085297,762.948914 334.140198,751.052124 335.584381,739.178589 
	C335.870667,736.824951 336.307404,734.594238 337.287018,732.463135 
	C343.406342,719.151245 349.765747,705.976990 358.417999,694.050903 
	C363.264648,687.370422 367.898834,686.312378 374.617523,690.583557 
	C376.441345,691.743103 378.136414,693.173340 380.081207,694.062256 
	C387.619843,697.507568 388.821442,703.193481 387.304108,710.822510 
	C384.291565,725.969299 383.189819,741.406555 381.387177,756.733521 
	C381.086334,759.291443 380.231232,761.170776 377.724182,762.659790 
z"/>
<path fill="#000000" opacity="1.000000" stroke="none" 
	d="
M597.428894,237.517136 
	C595.989563,227.295044 592.598145,217.927277 590.370361,207.247665 
	C595.979919,209.045120 600.555603,210.341782 605.008057,211.974640 
	C613.279541,215.008057 621.404358,218.465454 629.979065,220.601913 
	C632.939270,221.339462 633.905823,222.789017 633.456177,225.962509 
	C629.635559,252.926895 629.106567,280.225616 625.317810,307.200775 
	C624.876038,310.346405 623.644104,312.082062 620.264771,311.990875 
	C609.126099,311.690308 597.966003,312.569611 586.841614,311.377991 
	C585.359009,311.219208 583.799072,311.341675 582.641296,309.325562 
	C586.711121,305.911987 590.749817,302.293549 595.035522,298.996002 
	C599.175598,295.810486 600.746338,292.047394 600.827637,286.652191 
	C601.074036,270.298004 599.688904,254.107986 597.428894,237.517136 
z"/>
<path fill="#000000" opacity="1.000000" stroke="none" 
	d="
M784.099243,676.928955 
	C779.431641,673.135681 774.978577,669.638062 770.661682,665.979675 
	C765.131897,661.293396 764.020691,655.794495 767.453979,649.520569 
	C772.326782,640.616150 777.424988,631.835205 782.313721,622.939270 
	C783.380615,620.997742 784.622192,619.908813 786.915771,619.780823 
	C797.021362,619.216736 806.826172,620.628296 816.361389,623.980530 
	C818.722473,624.810608 820.046875,626.181091 820.424866,628.979675 
	C821.895386,639.865784 822.834961,650.843506 822.734741,661.756287 
	C822.624878,673.710632 817.257385,684.232422 810.226379,693.758911 
	C808.185913,696.523499 806.078247,694.492798 804.264709,693.053589 
	C797.616089,687.776794 791.001587,682.456909 784.099243,676.928955 
z"/>
<path fill="#000000" opacity="1.000000" stroke="none" 
	d="
M612.481873,467.377563 
	C615.299561,468.456085 617.758484,469.389465 619.872253,470.191803 
	C620.687988,472.465637 619.434204,473.585876 618.582214,474.719513 
	C611.183289,484.564331 603.641479,494.302856 596.327759,504.209961 
	C593.733032,507.724823 591.625793,507.528809 588.121765,505.177399 
	C568.497559,492.008209 548.498047,479.417389 527.890320,467.828552 
	C524.084351,465.688232 522.863037,462.448975 523.718872,458.621643 
	C524.621033,454.586945 527.412109,452.241974 531.752197,451.624451 
	C543.130859,450.005402 553.895752,453.280273 564.672119,455.822784 
	C580.503418,459.557983 596.762329,461.547577 612.481873,467.377563 
z"/>
<path fill="#000000" opacity="1.000000" stroke="none" 
	d="
M434.652710,301.339355 
	C436.592285,303.336548 439.099335,304.379089 439.841736,307.407654 
	C435.888763,310.293823 431.274933,309.435089 427.022858,309.114380 
	C422.552582,308.777222 418.098602,308.167450 413.602051,308.244751 
	C410.094513,308.305054 407.873199,306.755341 407.169769,303.294769 
	C402.537689,280.506592 395.962616,258.156189 391.851318,235.255081 
	C391.447205,233.004044 391.731079,230.603226 391.884552,228.284439 
	C392.125885,224.638382 393.775818,222.244553 397.579376,221.136337 
	C407.150635,218.347626 416.596741,215.129669 426.166626,212.335953 
	C432.475586,210.494202 433.837585,211.686981 432.426422,218.100601 
	C427.871796,238.801483 427.280548,259.919739 425.267365,280.898621 
	C424.416809,289.762360 426.604645,296.504425 434.652710,301.339355 
z"/>
<path fill="#000000" opacity="1.000000" stroke="none" 
	d="
M369.966919,410.779053 
	C361.710449,426.141998 350.596527,439.011475 340.258728,452.428894 
	C337.622131,455.850983 334.887024,459.417542 329.662933,458.258667 
	C325.500275,449.043152 318.454254,441.896149 312.423004,434.061768 
	C310.206207,431.182281 309.581451,428.806519 311.015778,425.513123 
	C314.199005,418.204193 317.160400,410.798767 320.232788,403.441254 
	C320.886810,401.875122 321.754242,400.336670 323.514709,399.916016 
	C332.532440,397.761169 340.324341,392.851196 348.403168,388.682831 
	C360.895905,382.237122 364.341003,383.427368 368.346741,396.897583 
	C369.652557,401.288605 371.449615,405.689880 369.966919,410.779053 
z"/>
<path fill="#000000" opacity="1.000000" stroke="none" 
	d="
M372.509705,678.494019 
	C360.573547,672.793701 358.453918,665.318481 365.692413,654.582642 
	C373.311615,643.282288 381.113281,632.104919 388.851440,620.885010 
	C389.589722,619.814514 390.117371,618.498901 391.661438,618.108521 
	C394.187134,618.616699 395.293427,620.791809 396.529724,622.707275 
	C405.905792,637.233948 414.671631,652.129761 423.380646,667.062500 
	C424.839569,669.564087 424.755188,671.149597 422.474335,672.945435 
	C415.009918,678.822693 406.757751,683.506775 398.849335,688.708130 
	C396.389008,690.326294 393.750183,689.316101 391.152405,688.621521 
	C384.232513,686.771423 378.809082,682.224426 372.509705,678.494019 
z"/>
<path fill="#000000" opacity="1.000000" stroke="none" 
	d="
M358.106079,357.894775 
	C355.357025,364.354950 353.524261,370.725128 349.848236,376.435913 
	C345.194916,383.664978 328.454224,391.905365 320.028625,390.340729 
	C317.137970,389.803864 314.659088,388.557281 312.900696,386.139313 
	C310.061401,382.235046 307.073975,378.420685 304.493927,374.349792 
	C300.445099,367.961426 303.906250,355.295380 310.637329,351.973450 
	C327.829224,343.488831 345.710449,336.656158 363.748505,330.222290 
	C364.027100,330.122955 364.387909,330.254150 365.047760,330.302460 
	C364.823853,339.908600 361.124023,348.620392 358.106079,357.894775 
z"/>
<path fill="#000000" opacity="1.000000" stroke="none" 
	d="
M718.358154,369.371887 
	C711.063782,375.219147 705.421875,382.338440 698.201538,387.764160 
	C694.834106,390.294586 692.221680,390.005737 689.729309,386.758148 
	C689.224976,386.101105 688.478333,385.610809 688.052673,384.915497 
	C681.728088,374.584229 672.242676,369.126984 660.578308,366.992706 
	C656.712463,366.285370 655.465454,364.197205 656.274353,360.219086 
	C657.557251,353.909637 655.505310,347.682465 655.095764,341.405792 
	C654.945312,339.100311 654.270569,336.825897 655.226135,334.649872 
	C656.454956,333.704803 657.572876,334.370911 658.629150,334.688507 
	C677.567749,340.382568 696.491577,346.126038 715.431885,351.814423 
	C720.062378,353.205139 723.238403,356.669830 727.443176,359.613342 
	C725.074951,363.547058 721.531006,366.068298 718.358154,369.371887 
z"/>
<path fill="#000000" opacity="1.000000" stroke="none" 
	d="
M280.279419,558.889282 
	C282.175964,566.028259 284.107941,572.737427 285.784119,579.509949 
	C287.259369,585.470581 284.252075,589.312073 278.206055,589.284302 
	C265.896851,589.227661 253.599014,589.300049 241.310837,590.229309 
	C239.201233,590.388855 235.835007,591.404785 235.150116,588.633850 
	C234.380295,585.519287 233.104599,582.220886 235.491501,578.677429 
	C244.229141,565.705811 252.695602,552.547485 261.051819,539.325195 
	C263.966003,534.713989 266.246399,529.703796 268.871674,524.906128 
	C269.156250,524.386047 269.810486,524.068237 271.125885,522.946777 
	C274.262421,535.226624 277.233002,546.856873 280.279419,558.889282 
z"/>
<path fill="#000000" opacity="1.000000" stroke="none" 
	d="
M327.241455,857.597595 
	C324.744934,854.263489 324.641602,850.083191 321.768860,846.902100 
	C318.689423,850.447937 317.581268,854.713013 315.369019,858.335083 
	C311.643677,864.434448 300.889771,867.842102 294.489258,864.879272 
	C292.500031,863.958435 292.452362,862.244751 292.728943,860.664856 
	C294.727417,849.248657 297.925842,838.252747 306.302582,829.709045 
	C309.499115,826.448792 313.457672,824.590454 318.518524,826.187805 
	C321.910583,827.258423 325.408813,825.839905 328.623352,824.574280 
	C331.932465,823.271423 334.061371,823.793701 336.146332,826.944214 
	C342.079346,835.909485 346.249695,845.638855 349.541443,855.793213 
	C351.962219,863.261169 350.516449,865.140076 342.839996,865.225220 
	C336.457428,865.296021 331.019470,863.627197 327.241455,857.597595 
z"/>
<path fill="#000000" opacity="1.000000" stroke="none" 
	d="
M705.229736,827.557495 
	C710.038269,829.346436 713.046936,832.440979 715.038147,836.732483 
	C718.471985,844.133362 721.467773,851.645569 722.939819,859.736511 
	C723.667725,863.737061 722.298889,865.123291 718.347473,865.273254 
	C704.726562,865.790405 702.816345,864.635742 697.546753,851.788391 
	C696.919800,850.259888 696.176270,848.779114 695.308228,846.887146 
	C692.638245,848.496704 692.171082,851.155029 691.354309,853.512329 
	C688.471924,861.830627 680.222290,866.687622 671.718750,865.140503 
	C669.291809,864.699036 668.390259,863.232605 668.067688,861.083252 
	C667.606079,858.008362 668.402832,855.101624 669.572510,852.347412 
	C672.688843,845.009583 675.646973,837.591370 679.553955,830.617371 
	C683.868713,822.915405 685.755554,822.012878 694.447571,824.076599 
	C697.987061,824.916931 701.399048,826.294495 705.229736,827.557495 
z"/>
<path fill="#000000" opacity="1.000000" stroke="none" 
	d="
M287.985596,660.436829 
	C287.654999,655.839111 288.217743,651.728333 288.635956,647.603088 
	C289.470581,639.369812 300.824036,631.180054 308.838013,633.018921 
	C311.526001,633.635742 313.186768,635.175293 314.140320,637.728943 
	C316.055908,642.858826 318.302429,647.876709 319.982727,653.079651 
	C321.646057,658.230042 324.428864,662.705200 327.277771,667.195129 
	C328.889618,669.735535 330.284790,672.350037 330.314117,675.500854 
	C330.358002,680.221741 327.944244,683.086548 323.204102,683.275330 
	C318.229401,683.473389 313.278076,683.570007 308.304047,684.148132 
	C302.243500,684.852539 293.652985,678.722595 291.629333,672.770935 
	C290.296173,668.850220 289.221436,664.841675 287.985596,660.436829 
z"/>
<path fill="#000000" opacity="1.000000" stroke="none" 
	d="
M646.279297,827.792297 
	C650.776611,835.011108 655.344666,841.774658 658.737610,849.207581 
	C660.460388,852.981873 661.739197,856.876343 660.436218,861.374634 
	C650.616699,860.627625 646.219971,852.704102 639.665283,846.254700 
	C639.870728,853.756653 645.780640,857.973267 646.629883,864.327454 
	C642.897217,865.818115 639.226379,865.092346 635.659973,865.165527 
	C629.344482,865.295288 623.024109,865.259521 616.706604,865.201416 
	C610.865356,865.147644 609.159180,863.508057 609.744507,857.620728 
	C610.481018,850.212280 613.896118,843.624512 617.467896,837.282288 
	C620.227234,832.382874 623.928101,828.021851 627.067566,823.325989 
	C629.993652,818.949219 633.636963,818.806885 637.842407,821.128540 
	C640.912476,822.823486 643.830994,824.722900 646.279297,827.792297 
z"/>
<path fill="#000000" opacity="1.000000" stroke="none" 
	d="
M354.570068,861.244629 
	C351.175995,858.935303 352.550659,856.045105 353.676300,853.680725 
	C357.325714,846.015442 360.964050,838.307190 365.246887,830.990234 
	C371.359955,820.546509 381.848267,820.768799 388.214508,830.920410 
	C391.571167,836.273010 395.361877,841.340881 398.406952,846.913025 
	C400.457184,850.664795 401.346558,854.699463 402.015686,858.782776 
	C402.533691,861.943787 401.135773,864.897583 397.772247,864.991821 
	C387.009705,865.293457 376.233398,865.103821 364.741760,865.103821 
	C365.972717,858.598206 370.235565,854.591980 373.287048,848.483215 
	C366.734833,853.737122 362.241211,859.591553 354.570068,861.244629 
z"/>
<path fill="#000000" opacity="1.000000" stroke="none" 
	d="
M728.421021,684.199829 
	C725.312561,696.134460 722.571045,697.877502 711.736389,698.526978 
	C705.213074,698.917908 696.857239,691.459534 695.369873,684.226013 
	C694.824585,681.574097 694.930420,679.313904 696.239868,677.078918 
	C699.589783,671.361328 703.169983,665.770630 706.319153,659.945923 
	C709.309326,654.415283 714.526001,651.868530 719.706604,649.340271 
	C723.374756,647.549988 733.663269,651.728455 735.673645,655.267578 
	C736.614014,656.922974 736.188354,658.365417 735.734985,660.019775 
	C733.543335,668.016541 730.062073,675.618958 728.421021,684.199829 
z"/>
<path fill="#000000" opacity="1.000000" stroke="none" 
	d="
M609.978149,729.922119 
	C608.370056,732.279419 607.012390,734.371521 605.556396,736.392700 
	C602.992554,739.951843 599.018066,740.549988 595.793762,737.487671 
	C588.650818,730.703613 581.776428,723.455444 578.603516,713.975037 
	C575.116638,703.556824 576.350342,692.859985 578.462769,682.451904 
	C581.600159,681.729004 582.715332,683.705444 584.041504,685.015015 
	C590.310852,691.205811 596.725403,697.223755 603.587891,702.764587 
	C608.165771,706.460876 611.463562,711.273682 614.741638,716.089417 
	C616.223511,718.266235 616.329651,720.323914 614.806335,722.528870 
	C613.202332,724.850464 611.719910,727.256042 609.978149,729.922119 
z"/>
<path fill="#000000" opacity="1.000000" stroke="none" 
	d="
M639.068970,702.047607 
	C641.738953,707.863953 640.694153,709.633118 633.212158,715.189026 
	C628.923950,718.373352 626.015503,716.310425 623.378174,713.315186 
	C612.732849,701.224792 602.157776,689.078430 590.974609,677.469788 
	C587.525208,673.889099 589.609253,668.465759 594.598450,667.783081 
	C600.017029,667.041687 605.485046,666.641479 610.940063,666.198120 
	C612.592468,666.063843 614.269958,666.219604 615.236084,667.998657 
	C618.909302,674.762573 624.530090,680.068298 629.052246,686.205811 
	C632.715698,691.177979 636.104614,696.235413 639.068970,702.047607 
z"/>
<path fill="#000000" opacity="1.000000" stroke="none" 
	d="
M644.832153,703.925293 
	C642.536438,705.666260 641.487671,704.425537 640.803406,702.709045 
	C639.759155,700.089478 638.663574,697.463379 637.944214,694.746216 
	C635.691223,686.237305 633.542053,677.699524 631.475891,669.143127 
	C630.213745,663.916199 632.397400,660.131165 637.713318,659.364685 
	C646.433228,658.107483 655.224915,658.807251 664.396912,658.984863 
	C663.255981,676.560364 660.183228,692.687805 644.832153,703.925293 
z"/>
<path fill="#000000" opacity="1.000000" stroke="none" 
	d="
M759.056274,622.651733 
	C761.343933,622.692688 763.209534,622.516846 764.995667,622.815613 
	C768.728455,623.440002 770.860229,627.679688 768.807068,630.722351 
	C765.180786,636.096313 761.231689,641.251648 757.451843,646.522888 
	C755.743286,648.905640 753.851807,649.388062 751.036133,648.139038 
	C744.808289,645.376221 738.447815,642.906189 732.101440,640.418701 
	C728.627380,639.057129 726.595215,636.853638 726.826416,632.926025 
	C727.047119,629.176392 729.178528,627.542725 732.679199,626.591858 
	C741.186584,624.281250 749.576965,621.482117 759.056274,622.651733 
z"/>
<path fill="#000000" opacity="1.000000" stroke="none" 
	d="
M300.111816,601.745361 
	C303.907196,602.593689 304.591553,605.449158 305.189789,608.187012 
	C309.086487,626.020203 309.644012,622.362793 294.805511,625.806213 
	C287.581512,627.482605 286.418610,626.525757 285.725586,619.253662 
	C285.302094,614.810242 284.846161,610.368286 284.300568,605.938477 
	C283.671021,600.826965 286.022217,598.347473 291.123932,599.251892 
	C294.041748,599.769043 296.865448,600.817322 300.111816,601.745361 
z"/>
</svg>