<?xml version="1.0" standalone="no"?>
<!DOCTYPE svg PUBLIC "-//W3C//DTD SVG 20010904//EN"
 "http://www.w3.org/TR/2001/REC-SVG-20010904/DTD/svg10.dtd">
<svg version="1.0" xmlns="http://www.w3.org/2000/svg"
 width="1024.000000pt" height="1024.000000pt" viewBox="0 0 1024.000000 1024.000000"
 preserveAspectRatio="xMidYMid meet">

<g transform="translate(0.000000,1024.000000) scale(0.100000,-0.100000)"
fill="#000000" stroke="none">
<path d="M4947 8921 c-22 -8 -13 -18 41 -45 109 -56 330 -257 434 -396 115
-154 181 -274 409 -745 22 -46 86 -143 149 -225 61 -80 157 -205 213 -278 108
-142 142 -191 136 -197 -2 -2 -31 29 -64 68 -72 87 -305 343 -469 516 -117
124 -384 416 -561 612 -257 286 -453 401 -913 535 -301 87 -537 119 -892 119
-254 0 -255 0 -298 -25 -43 -25 -82 -73 -70 -86 8 -7 105 -19 275 -34 221 -18
554 -93 758 -169 185 -70 514 -231 648 -317 37 -24 165 -135 285 -246 253
-236 375 -347 608 -553 208 -184 450 -420 471 -459 24 -46 27 -126 9 -210 -10
-42 -21 -76 -26 -76 -5 0 -8 44 -7 98 2 155 -12 175 -343 462 -85 74 -216 189
-290 255 -286 254 -421 357 -640 490 -378 229 -530 298 -504 230 6 -15 496
-484 689 -659 437 -397 528 -486 617 -602 62 -81 113 -175 148 -275 31 -87 36
-124 21 -134 -12 -7 -51 42 -51 64 0 33 -68 169 -127 256 -66 98 -239 273
-473 480 -184 162 -352 317 -495 456 -66 64 -173 165 -237 224 -65 60 -148
146 -185 192 -83 104 -169 165 -222 161 l-36 -3 0 -50 c1 -54 56 -207 127
-349 55 -110 166 -252 294 -376 290 -282 520 -530 591 -641 142 -222 343 -418
518 -507 82 -41 48 -61 -47 -28 -146 51 -313 200 -465 417 -225 318 -267 367
-323 375 -30 5 -32 4 -26 -18 3 -13 13 -55 20 -94 38 -191 199 -559 360 -824
134 -219 164 -264 194 -291 33 -29 186 -69 341 -88 46 -6 86 -13 89 -15 6 -7
-325 4 -478 15 -238 17 -1072 30 -1179 18 -53 -6 -98 -12 -99 -14 -11 -11 98
-49 189 -65 176 -33 248 -68 339 -167 59 -65 74 -111 67 -208 -4 -67 -6 -71
-46 -107 -23 -20 -61 -43 -84 -51 l-42 -15 135 -133 c155 -154 224 -201 393
-264 138 -51 173 -69 187 -96 19 -35 -16 -79 -86 -108 -63 -27 -124 -62 -124
-71 0 -11 99 -72 138 -86 48 -16 285 -34 460 -34 241 0 367 -25 577 -115 119
-51 230 -115 333 -193 42 -31 94 -71 117 -88 44 -33 75 -86 75 -126 0 -13 -14
-43 -30 -65 l-31 -42 33 -24 c18 -14 67 -44 108 -67 187 -104 225 -181 164
-325 -14 -33 -38 -95 -54 -137 -16 -43 -39 -95 -50 -118 -11 -22 -19 -40 -18
-40 13 0 117 45 137 59 48 34 67 34 88 4 28 -40 41 -79 54 -158 17 -108 68
-303 89 -346 25 -47 40 -58 40 -26 0 40 29 198 46 249 12 38 34 65 107 133 83
77 187 145 223 145 16 0 28 -70 19 -110 -4 -17 -2 -30 3 -30 15 0 55 73 106
195 25 61 73 152 106 204 56 88 79 145 66 158 -11 11 -113 -18 -185 -52 -108
-52 -128 -46 -97 27 8 18 21 53 30 79 18 51 81 124 121 139 44 17 65 11 98
-25 30 -34 31 -35 49 -15 24 26 39 18 77 -40 39 -61 101 -112 121 -100 23 14
28 3 36 -69 l6 -69 75 90 c72 87 158 162 231 203 40 22 50 42 98 199 30 98 87
192 177 296 120 137 127 284 9 193 -89 -68 -144 -79 -183 -37 -46 50 -166 143
-230 178 -35 19 -109 50 -164 67 -99 32 -101 33 -184 118 -135 138 -314 359
-355 439 -13 26 -16 46 -10 90 9 78 24 110 79 172 54 61 111 172 121 236 13
89 -28 275 -65 299 -6 3 -19 -14 -29 -37 -22 -50 -62 -90 -79 -80 -6 4 -29 39
-51 77 -86 153 -174 277 -679 964 -332 451 -531 724 -665 909 -354 489 -529
706 -645 802 -169 140 -385 233 -466 201z m1397 -2410 c62 -49 96 -86 205
-224 106 -134 144 -202 206 -377 30 -84 42 -248 19 -257 -9 -3 -77 36 -172
100 -191 128 -213 139 -379 193 -142 46 -191 72 -253 134 -37 37 -60 84 -47
97 4 3 22 -9 42 -26 55 -48 175 -103 335 -155 87 -28 201 -75 284 -117 76 -39
141 -68 143 -65 10 10 -32 115 -80 196 -45 75 -167 241 -294 398 -54 67 -98
152 -78 152 4 0 35 -22 69 -49z m618 -536 c54 -122 62 -150 66 -215 3 -60 1
-78 -11 -89 -14 -11 -19 -8 -37 21 -11 18 -32 71 -46 118 -14 47 -41 132 -60
189 -19 58 -37 134 -40 170 l-5 66 35 -60 c20 -33 64 -123 98 -200z m555 -96
c27 -53 4 -208 -29 -197 -17 6 -25 47 -27 126 -2 95 26 130 56 71z m-1002
-139 c134 -34 234 -130 257 -245 27 -136 -56 -157 -208 -54 -106 71 -133 111
-163 238 l-18 81 27 0 c15 0 62 -9 105 -20z m-754 -136 c211 -46 279 -68 369
-116 86 -45 176 -112 192 -141 9 -18 8 -19 -18 -13 -15 4 -74 30 -130 57 -57
27 -167 73 -246 103 -136 51 -338 134 -347 142 -9 9 27 2 180 -32z m524 -419
c77 -51 187 -118 245 -149 58 -31 102 -56 98 -56 -4 0 -35 6 -70 14 -35 8
-117 17 -183 21 -158 9 -197 18 -302 71 -121 62 -134 80 -27 36 71 -29 105
-37 172 -40 50 -3 82 0 82 6 0 12 -123 139 -210 217 l-65 57 60 -42 c33 -23
123 -84 200 -135z m652 43 c51 -52 83 -119 82 -173 0 -37 -22 -85 -34 -73 -3
3 -12 40 -20 84 -14 70 -34 116 -81 182 -29 40 8 26 53 -20z m-1359 2 c133
-48 256 -115 452 -245 102 -67 208 -130 235 -139 28 -9 77 -32 109 -52 70 -42
263 -189 363 -276 223 -195 362 -321 367 -333 3 -8 42 -39 86 -71 53 -37 93
-74 113 -105 27 -41 37 -49 64 -49 51 0 80 -16 109 -60 l27 -40 -29 -48 c-34
-55 -86 -85 -151 -86 -32 -1 -43 -5 -43 -16 0 -25 78 -95 101 -92 14 2 19 -3
19 -20 0 -29 -17 -48 -42 -48 -34 0 -161 100 -353 276 -306 281 -437 396 -605
529 -292 234 -422 328 -473 346 -26 9 -50 18 -52 21 -5 4 114 63 205 101 l35
14 -55 54 c-53 52 -92 77 -408 266 -201 121 -200 119 -74 73z m1919 -293 c16
-9 42 -32 58 -52 36 -48 22 -64 -30 -33 -22 12 -82 37 -134 54 -53 18 -89 35
-81 37 8 3 22 8 30 11 26 10 126 -1 157 -17z m204 -197 c22 -12 39 -24 36 -26
-6 -7 -240 14 -263 23 -15 6 -11 10 21 20 54 17 154 9 206 -17z m384 -149 c44
-21 93 -63 120 -104 20 -31 13 -48 -13 -29 -42 30 -112 56 -164 60 -64 5 -106
-17 -133 -68 -21 -41 -19 -64 11 -99 42 -50 85 -76 139 -81 36 -4 50 -9 50
-20 0 -11 -14 -16 -57 -18 -72 -4 -140 24 -194 79 -36 37 -39 44 -39 99 0 50
4 63 31 96 36 45 137 104 179 104 17 0 48 -9 70 -19z"/>
<path d="M6356 4499 c40 -45 169 -150 191 -155 19 -5 31 2 58 32 39 45 44 73
15 99 -24 22 -132 44 -219 45 l-64 0 19 -21z"/>
<path d="M6755 4273 c-11 -2 -37 -9 -59 -14 l-38 -10 23 -26 c13 -14 46 -43
73 -65 39 -31 51 -36 63 -27 29 24 57 106 44 127 -7 12 -78 22 -106 15z"/>
<path d="M6965 4081 c-51 -4 -71 -10 -73 -21 -1 -8 22 -39 52 -69 l54 -54 15
30 c9 16 34 47 56 68 23 22 41 43 41 48 0 7 -31 7 -145 -2z"/>
<path d="M7233 3900 c-12 -5 -49 -12 -82 -16 -34 -3 -61 -9 -61 -13 0 -3 24
-33 53 -65 l53 -59 37 70 c48 93 48 102 0 83z"/>
<path d="M3485 8281 c-27 -10 -90 -27 -140 -39 -469 -110 -462 -108 -528 -155
-34 -25 -139 -123 -232 -218 -165 -168 -245 -270 -305 -389 -20 -39 -6 -28
111 91 105 106 160 153 251 212 186 123 268 154 543 208 166 33 176 33 435 34
146 0 284 -3 307 -8 58 -10 59 8 5 119 -39 78 -51 94 -86 112 -98 52 -265 67
-361 33z"/>
<path d="M3528 7744 c-5 -4 -8 -26 -8 -49 0 -48 8 -57 95 -105 120 -67 202
-130 301 -231 90 -93 108 -117 159 -219 32 -63 75 -158 96 -210 41 -105 99
-181 150 -199 28 -9 30 -9 24 7 -3 9 -9 39 -12 66 -6 44 -4 49 11 43 10 -4 22
-7 26 -7 18 0 61 -88 91 -185 18 -59 62 -158 105 -240 41 -77 87 -164 102
-192 15 -29 32 -59 37 -66 20 -26 131 -95 195 -120 77 -29 200 -46 200 -26 0
21 -59 118 -141 234 -90 128 -110 148 -161 164 -43 14 -145 113 -155 149 -3
13 -1 34 6 48 9 21 17 24 61 24 27 0 50 4 50 9 0 6 -25 60 -55 122 -46 94
-105 258 -158 443 -6 21 -20 49 -30 63 -24 30 -136 105 -242 163 -501 271
-583 309 -680 317 -33 3 -63 2 -67 -3z"/>
<path d="M3600 7205 c-332 -27 -639 -79 -930 -159 -279 -77 -446 -144 -610
-247 l-55 -34 150 -7 c330 -16 445 -55 494 -169 19 -43 20 -55 11 -85 -22 -67
-122 -128 -310 -189 -269 -87 -515 -211 -775 -393 -115 -80 -255 -197 -255
-214 0 -7 15 -9 48 -4 163 23 338 37 403 34 65 -4 85 -9 126 -36 75 -48 99
-77 86 -104 -19 -42 -244 -267 -382 -383 -75 -63 -163 -147 -197 -187 -65 -78
-99 -127 -93 -132 25 -21 46 -22 103 -5 79 24 142 24 209 -1 80 -30 97 -50 97
-114 0 -29 -9 -79 -20 -110 -68 -199 -105 -445 -89 -596 8 -72 38 -210 49
-223 4 -4 13 20 20 55 26 131 43 180 75 214 18 19 37 34 43 34 6 0 25 -25 42
-55 36 -62 61 -187 80 -395 14 -151 40 -284 81 -407 38 -116 51 -128 68 -65 6
26 18 55 26 65 13 18 16 17 70 -8 l56 -27 126 -251 c141 -283 367 -677 387
-677 3 0 1 13 -4 29 -24 86 -20 209 7 218 6 2 65 -60 131 -139 193 -231 327
-351 572 -515 278 -185 576 -328 965 -462 298 -103 417 -122 935 -151 408 -22
546 -37 715 -75 61 -14 123 -29 139 -32 l29 -6 -48 69 c-91 129 -196 253 -298
350 -124 117 -293 254 -367 296 -30 17 -170 100 -310 183 -140 84 -358 212
-485 285 -504 290 -653 386 -833 537 -115 97 -317 304 -461 473 -229 268 -416
587 -527 898 -72 201 -88 295 -88 517 -1 125 4 214 13 260 46 229 135 398 296
561 117 119 205 179 400 274 238 116 406 159 698 180 252 17 397 32 403 41 3
5 -28 78 -69 162 -41 83 -82 174 -92 200 -30 79 -37 81 -253 74 -301 -9 -536
-55 -777 -152 -253 -101 -362 -168 -596 -363 -174 -146 -230 -203 -302 -312
-54 -82 -158 -293 -189 -380 -95 -274 -132 -641 -110 -1080 9 -170 7 -408 -4
-398 -7 8 -65 510 -73 635 -15 237 10 569 58 778 23 97 88 279 129 360 98 196
470 559 742 726 181 111 241 141 410 208 277 110 428 158 619 197 21 4 23 9
18 42 -5 39 -163 382 -181 394 -15 11 -154 8 -346 -7z m-876 -3820 c38 -60
109 -170 158 -243 50 -73 88 -135 85 -138 -3 -3 -26 20 -53 51 -113 131 -168
216 -259 400 -104 211 -136 295 -52 140 29 -55 84 -149 121 -210z"/>
<path d="M3845 5793 c-78 -17 -241 -85 -314 -131 -123 -77 -172 -116 -242
-195 -197 -220 -282 -536 -239 -886 18 -142 122 -433 225 -628 181 -344 568
-828 850 -1064 195 -163 337 -259 685 -462 139 -81 687 -367 703 -367 15 0
-147 234 -252 365 -89 111 -242 285 -391 445 -755 814 -895 977 -989 1150 -66
122 -55 205 38 268 68 47 69 61 9 127 -41 45 -51 63 -51 93 -2 77 94 212 161
227 35 7 112 -22 148 -56 l21 -20 29 68 c33 81 45 100 104 176 76 97 90 119
90 139 0 27 -33 72 -212 286 -27 31 -48 67 -48 79 0 27 -3 27 50 8 57 -20 109
-19 146 4 25 15 33 28 38 63 7 44 -4 122 -20 150 -14 25 -102 97 -144 118 -72
37 -308 62 -395 43z"/>
<path d="M4503 4949 c5 -71 49 -245 67 -263 25 -25 63 150 47 216 -4 13 -32
46 -63 73 l-57 49 6 -75z"/>
</g>
</svg>
