<?xml version="1.0" standalone="no"?>
<!DOCTYPE svg PUBLIC "-//W3C//DTD SVG 20010904//EN"
 "http://www.w3.org/TR/2001/REC-SVG-20010904/DTD/svg10.dtd">
<svg version="1.0" xmlns="http://www.w3.org/2000/svg"
 width="1024.000000pt" height="1024.000000pt" viewBox="0 0 1024.000000 1024.000000"
 preserveAspectRatio="xMidYMid meet">

<g transform="translate(0.000000,1024.000000) scale(0.100000,-0.100000)"
fill="#000000" stroke="none">
<path d="M7567 8590 c-13 -312 -53 -464 -201 -760 -118 -234 -200 -366 -418
-673 -134 -188 -182 -273 -384 -677 -209 -419 -292 -549 -443 -700 -131 -130
-212 -177 -288 -166 -85 11 -210 81 -289 160 -119 119 -141 181 -154 426 -11
217 -35 337 -89 442 -21 43 -34 75 -27 71 84 -49 202 -154 237 -210 29 -47 34
-35 14 29 -49 150 -154 269 -308 349 l-88 45 73 29 c126 49 247 114 289 156
22 22 39 43 36 45 -2 2 -35 -2 -73 -10 -38 -8 -103 -17 -144 -21 l-75 -6 35
27 c53 41 156 151 190 202 52 78 44 79 -79 11 -158 -88 -325 -148 -456 -165
l-50 -6 77 53 c124 87 234 177 271 222 40 49 197 344 176 332 -8 -5 -87 -65
-176 -132 -233 -178 -496 -333 -562 -333 l-30 0 50 51 c135 138 195 285 206
500 6 127 -14 390 -28 367 -5 -7 -9 -27 -9 -44 0 -59 -42 -200 -90 -301 -80
-169 -134 -246 -326 -463 -206 -234 -268 -336 -285 -471 -12 -99 0 -176 36
-223 14 -18 25 -36 25 -40 0 -4 -14 -24 -30 -45 -64 -79 -90 -228 -53 -309
l16 -37 7 60 c8 74 37 132 93 186 71 69 149 89 199 50 14 -11 56 -28 94 -37
85 -20 107 -34 124 -74 21 -51 0 -95 -136 -276 -69 -92 -132 -181 -141 -198
-8 -17 -33 -54 -54 -82 -92 -121 -121 -269 -100 -512 15 -177 40 -313 87 -474
34 -118 101 -269 126 -285 7 -4 53 -62 103 -128 110 -147 363 -403 496 -502
195 -146 239 -231 239 -457 -1 -183 -40 -337 -131 -506 -134 -248 -362 -391
-724 -455 -106 -19 -389 -22 -535 -5 -313 35 -612 133 -850 279 -36 21 -67 37
-69 35 -16 -16 215 -210 384 -323 224 -150 474 -263 725 -330 214 -56 280 -65
488 -66 174 0 189 -1 150 -13 -73 -21 -216 -52 -245 -52 -41 0 -20 -11 49 -26
141 -30 292 -8 437 63 58 28 96 58 161 123 82 82 96 105 148 230 20 47 14 -70
-8 -154 -36 -142 -151 -323 -249 -392 -55 -39 -51 -48 12 -23 150 59 290 161
387 282 82 102 153 259 195 427 19 80 41 185 48 235 16 109 22 98 44 -79 46
-362 -57 -719 -271 -945 -58 -60 -49 -62 59 -11 249 118 413 307 491 566 48
160 45 494 -6 747 -26 128 -64 253 -101 336 -26 58 -27 62 -8 45 49 -44 145
-187 200 -299 94 -190 129 -343 129 -558 l0 -112 30 50 c16 28 42 86 57 130
24 70 28 96 28 200 0 92 -5 134 -19 178 -41 124 -142 257 -311 405 -60 53
-145 129 -190 168 -101 89 -125 129 -125 210 0 94 13 98 105 29 42 -31 78 -55
80 -53 2 2 -23 89 -55 193 -32 105 -55 194 -50 198 27 28 94 -59 241 -313 143
-247 181 -318 215 -405 15 -38 31 -74 37 -80 6 -6 7 57 4 175 -6 195 -26 320
-65 397 -11 21 -40 90 -65 153 -68 174 -71 209 -12 130 64 -87 206 -154 394
-185 165 -28 338 -9 476 51 l40 18 -86 12 c-174 24 -286 71 -454 189 -193 136
-469 373 -453 390 8 8 204 -78 453 -200 207 -101 322 -145 439 -169 143 -30
305 -15 487 44 95 31 271 113 289 135 7 9 -24 12 -128 12 -180 -1 -224 10
-637 148 -365 122 -434 138 -660 150 -109 6 -238 -3 -311 -21 -22 -6 -11 8 52
66 241 223 530 539 686 748 38 51 104 147 146 215 100 157 94 147 89 147 -3 0
-33 -38 -67 -85 -269 -371 -778 -846 -1112 -1039 -59 -34 -63 -29 -8 8 23 15
83 66 133 114 51 48 154 142 229 210 287 259 550 544 741 804 113 154 393 585
385 593 -2 2 -44 -21 -93 -52 -50 -30 -93 -57 -98 -60 -4 -2 21 40 57 94 168
257 418 739 480 923 63 190 80 312 80 575 -1 233 -16 369 -57 505 -13 43 -14
39 -20 -120z m-197 -1110 c-6 -56 -19 -123 -29 -149 -42 -112 -172 -256 -273
-304 -29 -14 -54 -24 -56 -22 -6 6 67 180 118 281 50 98 65 123 130 204 32 40
109 104 117 97 2 -2 -2 -50 -7 -107z m-3023 -582 c13 -29 -21 -98 -48 -98 -21
0 -39 29 -39 61 0 52 67 80 87 37z"/>
<path d="M2323 8579 c-51 -155 -77 -376 -70 -611 7 -275 46 -449 159 -718 68
-160 222 -469 313 -625 291 -503 787 -1061 1198 -1347 245 -171 231 -159 249
-217 10 -30 17 -56 15 -57 -4 -5 -267 203 -397 314 -492 419 -671 618 -944
1045 -38 59 -71 107 -73 107 -3 0 25 -56 61 -126 185 -353 398 -608 811 -969
214 -186 566 -465 587 -465 3 0 -5 36 -18 79 -32 111 -42 196 -41 346 l0 130
-62 32 c-114 59 -264 177 -435 343 -199 193 -276 305 -456 662 -126 249 -174
331 -305 523 -278 409 -463 800 -532 1130 -19 91 -27 165 -32 305 l-6 185 -22
-66z m241 -1120 c41 -49 103 -159 141 -254 34 -86 99 -295 92 -301 -1 -2 -28
16 -58 40 -100 79 -183 203 -214 321 -14 57 -10 225 6 225 4 0 19 -14 33 -31z"/>
<path d="M8241 8605 c-1 -5 -6 -75 -11 -154 -22 -323 -91 -577 -231 -856 -76
-150 -171 -295 -357 -545 -80 -107 -182 -251 -227 -320 -89 -136 -185 -301
-185 -318 0 -5 -16 -33 -35 -61 -32 -47 -43 -71 -30 -71 10 0 161 115 250 189
352 297 598 571 715 793 81 154 119 289 151 538 16 122 17 498 1 615 -12 87
-38 210 -41 190z"/>
<path d="M1814 8245 c-26 -137 -27 -399 0 -540 37 -201 114 -394 254 -640 118
-206 277 -428 440 -610 84 -95 232 -235 232 -220 0 21 -113 266 -179 388 -82
149 -219 391 -281 492 -240 395 -381 773 -438 1170 l-8 60 -20 -100z"/>
<path d="M1713 7504 c-15 -55 -9 -274 11 -359 26 -114 70 -234 128 -350 101
-201 209 -339 462 -590 155 -155 265 -275 252 -275 -8 0 -332 208 -411 263
-218 154 -332 272 -412 427 -40 76 -43 79 -43 46 0 -44 24 -162 50 -242 87
-274 313 -552 535 -659 75 -36 311 -116 409 -138 72 -16 61 -23 -69 -39 -198
-24 -446 22 -694 129 -19 9 18 -57 80 -139 134 -179 303 -279 524 -308 44 -5
190 -15 325 -20 136 -5 281 -17 325 -25 160 -31 152 -30 136 -11 -8 10 -28 24
-45 33 -36 19 -98 64 -93 69 6 6 172 -25 237 -44 36 -11 100 -33 143 -51 43
-17 80 -31 81 -31 2 0 -7 20 -19 44 -12 24 -24 52 -27 63 -3 11 -84 83 -179
159 -148 118 -244 210 -640 609 -256 258 -503 511 -547 562 -236 263 -394 531
-467 793 -31 109 -41 125 -52 84z"/>
<path d="M8421 7408 c-33 -89 -101 -212 -194 -352 -108 -162 -312 -367 -516
-516 -189 -139 -417 -312 -516 -395 -170 -140 -363 -350 -343 -371 3 -3 70 21
149 52 281 109 319 84 83 -55 -201 -118 -279 -170 -318 -210 -22 -22 -38 -43
-35 -45 2 -2 66 22 141 54 257 110 392 144 613 155 263 13 406 56 582 177 89
61 232 209 296 305 115 174 184 371 194 557 4 81 3 107 -6 102 -6 -4 -11 -12
-11 -18 0 -5 -19 -47 -41 -91 -120 -238 -265 -387 -505 -522 -132 -73 -327
-152 -411 -165 -36 -6 -104 -20 -150 -30 -118 -28 -127 -25 -53 17 353 197
522 304 641 406 211 180 355 483 414 869 21 134 17 157 -14 76z"/>
<path d="M8355 5834 c-68 -68 -96 -88 -185 -132 -184 -90 -332 -122 -573 -122
-355 -1 -582 -47 -857 -176 -76 -36 -104 -55 -143 -99 l-48 -55 48 0 c26 0 89
5 138 10 164 18 506 33 795 35 303 1 332 5 453 57 113 49 273 197 368 344 47
70 94 181 87 206 -2 7 -36 -20 -83 -68z"/>
<path d="M8305 5324 c-218 -154 -453 -218 -715 -195 -63 5 -194 22 -290 36
-287 44 -437 41 -615 -10 -94 -28 -245 -93 -245 -106 0 -11 5 -12 224 -49 98
-17 204 -40 235 -51 91 -33 348 -108 427 -124 94 -19 270 -19 354 0 196 46
400 166 523 308 55 63 187 235 187 243 0 7 -5 5 -85 -52z"/>
<path d="M1990 5169 c0 -12 103 -101 159 -137 117 -75 306 -149 452 -177 124
-23 368 -21 499 4 192 38 472 126 525 167 26 19 15 27 -85 53 -127 34 -375 51
-736 51 -180 0 -366 5 -413 11 -141 17 -401 35 -401 28z"/>
<path d="M3680 4940 c-58 -16 -139 -43 -180 -60 -259 -110 -444 -146 -710
-136 -96 3 -197 9 -225 12 l-50 5 30 -21 c48 -34 214 -115 292 -143 255 -92
517 -72 699 54 139 95 325 322 262 318 -7 0 -60 -13 -118 -29z"/>
<path d="M3964 4791 c-109 -53 -206 -114 -289 -181 -143 -117 -284 -193 -405
-219 -117 -25 -110 -22 -69 -36 69 -25 213 -38 289 -26 174 27 332 122 449
269 50 63 113 168 126 210 9 31 -7 29 -101 -17z"/>
<path d="M4240 4678 c-13 -34 -264 -297 -350 -369 -41 -35 -136 -102 -210
-151 -108 -70 -130 -88 -107 -88 58 0 255 74 425 161 97 50 178 86 182 82 4
-4 3 -23 -2 -42 -7 -24 -42 -67 -112 -137 -89 -89 -97 -100 -62 -82 61 31 263
154 333 204 34 24 65 44 69 44 4 0 41 -26 83 -57 99 -74 248 -224 292 -293 64
-99 72 -131 77 -290 5 -164 6 -160 -71 -179 -119 -29 -207 -142 -183 -235 8
-33 26 -34 26 -1 0 13 7 43 16 64 25 64 141 117 171 79 6 -7 13 -42 15 -78 6
-71 31 -131 71 -169 l26 -23 6 38 c23 153 42 199 85 207 42 9 58 -1 91 -59 15
-27 31 -49 36 -49 15 0 14 53 -1 84 -9 16 -16 39 -16 49 0 32 -38 71 -76 78
-19 3 -39 15 -45 26 -15 27 -2 110 28 186 22 55 24 72 18 135 -5 47 -15 86
-30 112 -13 22 -83 99 -156 170 -200 196 -197 193 -297 302 -51 56 -111 112
-134 125 -24 13 -48 34 -55 47 -6 14 -27 39 -45 58 -18 18 -41 42 -50 53 -23
26 -36 25 -48 -2z"/>
</g>
</svg>
