<?xml version="1.0" standalone="no"?>
<!DOCTYPE svg PUBLIC "-//W3C//DTD SVG 20010904//EN"
 "http://www.w3.org/TR/2001/REC-SVG-20010904/DTD/svg10.dtd">
<svg version="1.0" xmlns="http://www.w3.org/2000/svg"
 width="1024.000000pt" height="1024.000000pt" viewBox="0 0 1024.000000 1024.000000"
 preserveAspectRatio="xMidYMid meet">

<g transform="translate(0.000000,1024.000000) scale(0.100000,-0.100000)"
fill="#000000" stroke="none">
<path d="M2897 8842 c-58 -64 26 -304 191 -546 269 -397 660 -723 1302 -1089
63 -36 176 -100 250 -142 74 -42 128 -75 120 -72 -8 3 -58 23 -110 45 -52 21
-189 76 -305 122 -278 109 -551 226 -820 350 -359 166 -480 213 -550 214 l-60
1 1 -39 c4 -127 265 -468 537 -702 339 -292 667 -463 1112 -579 304 -80 522
-102 845 -86 320 16 318 15 296 81 -10 29 -24 40 -111 85 -208 106 -434 190
-739 276 -663 186 -768 218 -729 219 19 0 419 -96 713 -171 323 -83 514 -141
688 -209 69 -27 130 -46 135 -43 16 10 1 36 -103 183 -323 455 -789 940 -1242
1293 -390 303 -1043 712 -1281 802 -80 30 -118 32 -140 7z m803 -682 c370
-280 495 -371 730 -530 349 -236 453 -315 618 -470 142 -131 313 -313 334
-354 5 -11 -23 11 -63 50 -154 148 -464 400 -795 645 -122 90 -311 230 -420
311 -291 216 -591 459 -593 481 -1 10 13 0 189 -133z"/>
<path d="M5985 8421 c-92 -28 -150 -56 -231 -113 -96 -66 -170 -147 -206 -225
-16 -36 -35 -63 -43 -63 -17 0 -35 30 -35 58 0 28 -37 70 -89 103 -65 42 -137
41 -222 -4 -103 -53 -134 -119 -127 -272 5 -119 23 -149 117 -199 95 -50 149
-50 222 -1 71 48 82 42 74 -37 -5 -52 -2 -77 19 -143 62 -196 191 -329 368
-380 31 -9 62 -23 68 -31 22 -25 3 -83 -74 -239 -86 -173 -95 -213 -71 -325
110 -515 158 -791 153 -880 -3 -58 -11 -78 -67 -180 -34 -63 -73 -126 -84
-138 -34 -36 -135 -89 -311 -162 -89 -37 -260 -116 -381 -177 -340 -171 -490
-224 -750 -268 -128 -22 -340 -22 -549 -1 -219 22 -485 22 -557 -1 l-54 -17
110 -7 c179 -10 409 -77 545 -158 63 -38 110 -81 110 -102 0 -14 -127 -47
-324 -85 -105 -19 -196 -39 -204 -43 -8 -5 16 -10 60 -14 149 -13 383 -91 431
-145 18 -19 17 -20 -29 -36 -110 -37 -222 -49 -446 -48 -209 1 -278 -8 -164
-22 30 -3 106 -19 169 -36 131 -33 249 -50 354 -50 40 0 73 -3 73 -8 0 -16
-380 -115 -570 -148 -196 -34 -460 -44 -524 -20 -53 20 -69 38 -111 118 l-32
63 -63 0 c-71 0 -55 13 -172 -144 l-63 -84 -155 -72 c-180 -82 -244 -121 -248
-153 -4 -27 9 -28 146 -7 179 27 435 47 612 48 l175 1 495 -98 c272 -53 505
-100 518 -103 25 -6 28 -29 7 -57 -8 -10 -19 -44 -25 -75 -21 -101 -12 -95
-229 -137 -88 -17 -131 -32 -131 -45 0 -5 19 -6 43 -3 31 5 75 -3 161 -26 126
-34 179 -35 238 -4 15 8 29 10 32 6 3 -5 -38 -78 -90 -163 -52 -85 -135 -233
-185 -329 -106 -207 -227 -391 -286 -436 -23 -18 -66 -40 -95 -49 -95 -31
-154 -63 -167 -91 -6 -15 -16 -63 -22 -108 -14 -116 -21 -133 -110 -253 -92
-126 -115 -176 -100 -216 26 -67 61 -40 511 407 389 386 533 521 814 761 161
138 191 159 212 151 24 -9 11 -59 -31 -123 -19 -29 -31 -55 -26 -58 5 -3 33
14 63 38 132 107 266 180 387 212 98 25 102 15 15 -44 -223 -152 -444 -336
-444 -369 0 -4 96 39 213 98 116 58 313 150 435 205 314 138 595 312 760 469
34 32 64 57 67 54 2 -2 -8 -38 -24 -79 -16 -41 -27 -76 -24 -79 3 -3 28 20 57
51 112 124 309 496 390 740 82 246 116 472 136 914 6 127 13 246 16 265 3 19
25 76 49 125 98 206 235 585 235 651 0 35 -78 113 -315 314 -87 74 -170 145
-184 157 -14 12 -21 23 -15 23 20 0 367 -269 650 -506 72 -60 157 -122 188
-138 54 -27 62 -28 164 -24 104 4 114 6 392 101 157 53 363 117 458 142 224
59 250 70 350 141 l83 59 -100 3 c-90 2 -101 5 -101 21 0 22 26 58 89 124 25
26 41 47 37 47 -5 0 -50 -21 -100 -47 -75 -39 -108 -65 -187 -144 -71 -73
-106 -100 -135 -108 -86 -24 -605 -100 -731 -108 -92 -5 -105 -4 -143 16 -67
35 -190 133 -323 256 -176 164 -657 641 -622 616 124 -87 194 -139 239 -179
29 -26 106 -94 171 -152 150 -134 260 -222 355 -285 104 -68 270 -155 299
-155 54 0 155 69 306 211 247 232 471 409 519 409 12 0 55 -10 96 -21 80 -23
252 -30 299 -12 22 9 18 12 -50 40 -41 16 -95 38 -121 47 -27 10 -48 20 -48
22 0 10 86 44 113 44 51 0 27 20 -25 21 -112 2 -216 -16 -354 -62 -107 -35
-254 -134 -555 -373 -74 -59 -143 -109 -155 -112 -29 -8 -499 225 -634 314
-82 54 -127 93 -206 180 -87 95 -104 119 -114 163 -13 54 -9 142 10 195 l11
31 27 -27 c35 -35 104 -50 225 -50 66 0 99 4 114 15 12 8 41 50 64 93 24 42
60 105 81 140 21 34 38 68 38 75 0 8 -12 24 -26 38 -52 48 -68 114 -43 176 7
15 28 89 48 163 35 129 38 135 61 133 14 -2 53 -6 86 -9 36 -4 64 -3 67 3 4 5
-19 68 -51 139 -72 163 -103 196 -232 249 -51 22 -111 55 -134 74 -78 66 -160
111 -255 143 -125 40 -299 49 -396 19z"/>
</g>
</svg>
