<?xml version="1.0" standalone="no"?>
<!DOCTYPE svg PUBLIC "-//W3C//DTD SVG 20010904//EN"
 "http://www.w3.org/TR/2001/REC-SVG-20010904/DTD/svg10.dtd">
<svg version="1.0" xmlns="http://www.w3.org/2000/svg"
 width="1024.000000pt" height="1024.000000pt" viewBox="0 0 1024.000000 1024.000000"
 preserveAspectRatio="xMidYMid meet">

<g transform="translate(0.000000,1024.000000) scale(0.100000,-0.100000)"
fill="#000000" stroke="none">
<path d="M8255 8660 c23 -118 28 -167 32 -325 9 -305 -19 -543 -88 -750 -101
-301 -290 -560 -539 -737 -161 -114 -240 -146 -419 -168 -96 -11 -120 -27
-164 -109 -48 -88 -71 -193 -71 -326 0 -204 48 -331 173 -455 102 -102 166
-134 259 -128 62 3 78 9 151 53 238 144 464 359 630 600 159 229 291 598 332
930 19 153 17 476 -4 620 -24 156 -76 359 -128 493 -40 103 -121 266 -154 307
-15 20 -15 19 -10 -5z"/>
<path d="M1925 8575 c-113 -207 -196 -467 -236 -740 -20 -134 -17 -510 4 -660
79 -543 307 -959 699 -1276 204 -164 320 -230 419 -237 72 -5 118 12 192 72
48 38 127 136 156 194 87 172 85 467 -5 632 -46 85 -66 97 -192 120 -177 32
-288 86 -461 224 -306 245 -513 655 -546 1086 -14 177 -10 441 9 553 10 60 15
111 13 114 -3 2 -26 -34 -52 -82z"/>
<path d="M5092 7397 c-47 -131 -184 -271 -336 -345 -165 -80 -490 -168 -736
-199 -151 -18 -211 -14 -262 20 l-33 23 0 87 c0 48 -4 86 -9 84 -19 -6 -114
-94 -145 -134 -41 -53 -80 -134 -85 -175 -4 -37 -16 -42 -136 -59 -105 -14
-104 -13 -86 -48 9 -16 32 -78 53 -137 l38 -109 0 -170 c0 -167 -1 -172 -33
-265 -18 -52 -46 -117 -62 -145 -40 -68 -126 -162 -215 -234 l-74 -59 70 -66
70 -67 -38 -17 c-57 -25 -337 -30 -441 -7 -187 40 -330 96 -435 172 -27 19
-51 32 -53 30 -11 -11 131 -173 275 -317 86 -85 289 -275 451 -422 367 -331
457 -419 466 -453 5 -20 -5 -51 -41 -127 l-48 -100 10 -68 c10 -65 22 -93 111
-264 51 -98 62 -148 62 -286 0 -83 -5 -122 -19 -159 l-19 -50 96 65 c52 35
101 64 107 64 42 0 77 -26 120 -88 74 -109 88 -156 93 -312 4 -125 -4 -201
-34 -341 -5 -23 -1 -28 25 -37 18 -6 70 -36 116 -66 91 -60 151 -126 212 -236
210 -377 323 -558 445 -707 129 -158 169 -174 443 -180 151 -4 226 -1 303 11
169 26 176 29 278 130 120 121 252 318 454 681 133 238 180 289 344 372 59 30
67 37 62 56 -26 93 -38 213 -34 338 l4 137 46 94 c47 97 93 154 134 164 31 8
99 -25 171 -84 56 -46 56 -46 48 -16 -15 59 -23 152 -20 239 3 108 24 171 99
305 30 52 59 112 66 134 21 65 8 141 -38 240 -23 49 -42 96 -42 106 0 24 97
116 360 341 515 441 750 670 855 832 17 26 13 25 -46 -16 -125 -87 -270 -146
-446 -182 -117 -24 -436 -18 -475 8 l-27 18 74 71 74 70 -79 59 c-107 81 -174
158 -220 254 -68 142 -82 196 -88 342 -6 174 19 305 85 436 13 27 23 50 21 51
-2 1 -43 10 -92 20 -49 9 -97 21 -106 26 -10 5 -20 27 -23 48 -9 54 -78 155
-155 230 -65 62 -103 82 -82 43 5 -11 10 -51 10 -90 0 -58 -4 -74 -21 -90 -47
-43 -137 -46 -334 -10 -284 52 -617 153 -735 223 -109 64 -228 188 -283 292
l-42 83 -23 -62z m-1165 -2878 c251 -151 359 -206 526 -264 59 -21 108 -43
108 -49 5 -49 -30 -90 -118 -133 l-77 -38 -146 1 c-123 0 -155 4 -209 23 -116
40 -149 72 -234 222 -50 88 -152 370 -139 384 15 14 69 -13 289 -146z m2683
142 c0 -5 -15 -58 -34 -118 -41 -136 -91 -232 -165 -320 -103 -123 -210 -176
-378 -189 -106 -8 -188 6 -263 44 -46 22 -59 35 -78 76 -13 27 -21 54 -19 61
3 6 61 31 129 55 67 23 152 57 188 75 96 47 343 185 439 245 105 65 181 95
181 71z m-1408 -539 c4 -4 8 -203 8 -442 l1 -435 -43 -17 c-45 -18 -60 -17
-120 9 -44 18 -42 11 -28 183 5 63 12 245 15 404 2 160 8 293 12 297 20 18
137 19 155 1z m-431 -543 c80 -40 143 -145 137 -230 -3 -39 -6 -44 -29 -47
-14 -2 -54 11 -90 28 -63 29 -101 36 -146 24 -54 -15 -26 -34 276 -194 151
-80 178 -91 209 -86 84 13 481 231 482 263 0 19 -64 26 -106 13 -21 -7 -52
-21 -70 -32 -22 -13 -47 -18 -76 -16 -39 3 -43 6 -46 31 -5 38 62 169 111 218
88 88 233 58 295 -62 51 -97 11 -192 -121 -295 -75 -58 -365 -226 -429 -250
-53 -18 -100 -3 -256 87 -303 171 -374 225 -416 313 -19 40 -20 67 -5 121 34
122 161 174 280 114z m1099 -751 c0 -37 -42 -116 -134 -255 -62 -94 -95 -134
-116 -143 -33 -14 -90 -9 -170 14 -44 13 -107 16 -325 16 -264 0 -272 0 -358
-26 -79 -25 -91 -26 -130 -15 -26 8 -58 29 -82 55 -42 44 -195 289 -195 312 0
27 120 17 198 -16 81 -34 119 -37 206 -14 52 14 103 15 336 11 188 -4 302 -10
360 -21 120 -22 138 -21 216 21 68 36 172 82 187 83 4 0 7 -10 7 -22z"/>
</g>
</svg>
