<?xml version="1.0" standalone="no"?>
<!DOCTYPE svg PUBLIC "-//W3C//DTD SVG 20010904//EN"
 "http://www.w3.org/TR/2001/REC-SVG-20010904/DTD/svg10.dtd">
<svg version="1.0" xmlns="http://www.w3.org/2000/svg"
 width="1024.000000pt" height="1024.000000pt" viewBox="0 0 1024.000000 1024.000000"
 preserveAspectRatio="xMidYMid meet">

<g transform="translate(0.000000,1024.000000) scale(0.100000,-0.100000)"
fill="#000000" stroke="none">
<path d="M5020 9291 c0 -13 73 -106 128 -163 l44 -46 -68 -7 c-38 -4 -134 -20
-214 -37 -127 -26 -176 -31 -395 -38 -243 -8 -374 -20 -463 -42 l-44 -11 59
-31 c67 -36 212 -137 213 -148 0 -5 -5 -8 -11 -8 -6 0 -102 -45 -213 -99 -193
-96 -372 -201 -452 -267 l-38 -31 81 -48 81 -47 -132 -68 c-148 -76 -242 -113
-337 -131 -35 -6 -70 -15 -77 -19 -23 -12 121 -145 185 -171 30 -12 50 -26 46
-30 -12 -12 -197 -49 -243 -49 -20 0 -59 7 -86 15 -27 8 -52 15 -55 15 -17 0
81 -257 123 -323 l31 -48 -33 -34 c-18 -18 -59 -48 -92 -65 -33 -18 -62 -38
-65 -46 -9 -23 57 -143 86 -159 l26 -13 -25 -10 c-141 -52 -159 -57 -190 -45
-28 11 -30 10 -25 -10 2 -12 9 -49 15 -82 15 -80 70 -296 81 -317 7 -13 3 -18
-21 -23 -47 -10 -63 -44 -64 -133 -1 -104 17 -162 70 -221 42 -47 43 -49 21
-55 -12 -3 -45 -6 -73 -6 -67 0 -77 -12 -64 -79 5 -28 14 -60 20 -71 5 -10 10
-21 10 -24 0 -9 -294 -99 -344 -105 l-50 -6 65 -71 c119 -132 172 -166 288
-186 39 -7 68 -15 63 -19 -4 -4 -36 -19 -72 -33 -36 -15 -87 -41 -113 -59 -61
-41 -127 -136 -127 -183 0 -37 6 -40 34 -19 31 23 115 44 222 54 98 9 125 7
88 -5 -113 -37 -200 -109 -245 -199 -52 -107 -50 -197 4 -147 56 53 161 70
286 48 45 -8 85 -16 87 -18 2 -2 -8 -33 -22 -68 -24 -58 -26 -71 -21 -174 9
-179 26 -345 42 -410 25 -99 80 -203 124 -232 l39 -25 4 -147 c6 -178 39 -313
119 -498 105 -243 184 -383 310 -550 63 -84 190 -214 210 -214 4 0 -1 20 -11
43 -34 77 -69 225 -76 325 l-7 97 49 -45 c27 -26 76 -64 109 -87 33 -23 94
-73 136 -111 l75 -70 59 -154 c102 -269 180 -416 280 -527 l49 -54 21 64 c23
68 27 68 45 -1 28 -108 169 -342 244 -406 46 -39 57 -39 71 2 5 16 10 31 12
33 1 2 52 -48 113 -112 77 -81 139 -134 208 -180 100 -67 290 -172 297 -165 2
2 -3 37 -11 77 -8 40 -13 75 -10 78 2 2 30 -16 61 -42 90 -73 292 -205 315
-205 15 0 22 8 27 30 l6 30 46 -26 c99 -58 320 -201 389 -252 40 -30 74 -53
75 -51 2 2 34 49 72 104 119 175 204 270 315 353 41 31 121 102 177 158 56 56
104 99 107 96 10 -10 6 -143 -5 -165 -18 -38 59 55 116 138 194 288 297 664
280 1020 -6 120 -15 238 -30 390 -6 56 -5 59 9 41 9 -11 16 -25 17 -30 0 -6 4
-1 9 11 6 14 -1 92 -21 225 -16 111 -29 227 -29 256 l0 52 45 0 c25 0 45 3 45
6 0 3 -9 19 -21 35 -59 83 -150 340 -193 547 -67 321 -92 658 -61 834 15 86
62 232 96 299 18 36 18 37 -2 55 -63 57 -96 158 -105 322 l-7 127 27 32 c15
18 89 82 166 143 l140 112 -60 70 c-154 183 -224 341 -313 708 -31 124 -68
259 -82 300 -47 132 -113 232 -182 277 l-23 15 34 42 c38 47 72 111 117 223
26 64 33 96 37 178 5 115 -9 184 -59 292 -31 66 -32 67 -39 38 -11 -50 -92
-195 -108 -195 -4 0 -8 19 -9 43 -14 250 -244 547 -549 707 -31 17 -58 29 -60
28 -1 -2 2 -27 7 -56 12 -63 8 -144 -7 -149 -5 -2 -113 64 -239 147 -333 219
-534 310 -770 349 -149 25 -245 34 -245 22z m330 -386 c164 -44 417 -157 579
-258 201 -124 401 -306 486 -441 l49 -77 19 53 c10 29 27 93 39 142 17 75 22
86 32 70 26 -44 5 -408 -30 -523 -3 -9 -20 9 -44 46 -22 33 -73 98 -113 144
-75 85 -328 332 -334 325 -12 -12 50 -132 127 -247 49 -74 87 -136 84 -138 -2
-2 -63 57 -136 133 -187 195 -397 369 -654 541 -148 99 -252 153 -374 194 -91
31 -91 31 10 50 83 16 162 12 260 -14z m-465 -336 c151 -18 419 -90 526 -142
167 -80 353 -212 574 -408 139 -123 203 -189 185 -189 -8 0 -46 25 -85 56
-258 206 -679 421 -976 498 -204 52 -278 61 -539 60 -188 0 -270 -5 -350 -18
-162 -28 -170 -28 -95 -1 141 52 271 78 543 111 52 7 50 11 -15 29 l-48 13 95
1 c52 1 136 -4 185 -10z m326 -803 c26 -14 98 -59 160 -100 62 -42 116 -76
121 -76 5 0 7 12 4 28 -12 62 -18 154 -10 151 5 -3 90 -45 189 -95 176 -89
307 -144 345 -144 16 0 17 4 9 32 -5 17 -7 33 -5 36 3 2 67 -43 143 -100 76
-57 159 -119 185 -137 l46 -33 34 25 c71 54 275 137 334 137 71 0 131 -57 186
-178 25 -54 78 -233 78 -262 0 -4 -11 -12 -24 -18 -45 -20 -104 -83 -157 -165
-69 -107 -212 -391 -247 -489 -15 -43 -31 -77 -36 -75 -5 2 -15 18 -21 36 -10
31 -12 32 -25 15 -20 -24 -19 -255 1 -339 18 -73 15 -89 -17 -103 -39 -18
-195 -36 -247 -28 -68 10 -78 35 -43 104 34 68 33 109 -3 159 -29 39 -77 83
-91 83 -5 0 -6 -9 -3 -20 15 -55 -43 -240 -74 -240 -52 0 -283 194 -713 599
-91 86 -177 166 -191 178 l-25 23 -94 -87 c-205 -186 -348 -286 -447 -312 -23
-7 -45 -16 -48 -21 -3 -5 0 -7 8 -4 22 8 77 -18 156 -76 71 -52 175 -166 165
-182 -3 -4 -20 -8 -37 -9 -18 -1 -43 -4 -56 -8 l-24 -6 29 -13 c39 -18 193
-117 329 -213 61 -42 138 -91 173 -108 l63 -32 -18 -30 c-10 -17 -33 -44 -50
-60 -18 -15 -33 -31 -33 -34 0 -3 18 -5 41 -5 77 0 244 41 467 116 123 41 239
74 260 74 l37 -1 -45 -40 -45 -41 80 5 c57 4 110 16 185 43 137 50 225 53 312
12 69 -32 101 -77 147 -205 17 -46 37 -97 45 -112 22 -42 121 -128 157 -136
64 -14 90 -148 42 -214 -32 -42 -90 -68 -228 -102 -157 -39 -218 -42 -265 -12
-205 129 -252 147 -365 140 -57 -3 -100 -13 -145 -31 -142 -59 -146 -59 -135
20 6 43 15 57 67 107 137 135 334 158 410 47 15 -22 35 -40 45 -40 9 0 28 -10
42 -22 14 -13 1 6 -29 41 -30 35 -55 71 -55 80 0 29 -117 60 -225 61 -343 1
-546 -189 -1036 -969 -24 -39 -28 -41 -38 -25 -7 12 -11 85 -10 199 0 153 4
200 26 310 15 71 25 131 24 133 -2 1 -16 -2 -31 -8 -15 -6 -30 -8 -33 -6 -3 3
18 40 46 83 48 73 92 160 107 210 8 28 -12 37 -125 59 -95 19 -130 33 -130 51
0 7 -8 25 -17 40 l-17 26 74 -5 75 -6 -179 175 c-194 190 -313 293 -419 362
-79 53 -74 35 -82 288 l-7 182 39 19 c21 11 88 40 148 66 193 81 350 198 507
379 38 44 48 61 39 70 -6 6 -11 19 -11 29 0 26 -11 23 -106 -28 -69 -38 -88
-44 -95 -33 -22 36 -112 279 -149 404 -23 77 -43 147 -46 155 -3 11 49 49 173
130 169 109 181 116 253 126 116 18 147 16 201 -10z m1859 -908 c7 -29 46
-155 86 -279 41 -124 74 -237 74 -252 0 -20 -14 -35 -67 -73 -38 -26 -131
-109 -208 -184 -158 -153 -207 -189 -231 -169 -25 21 -61 91 -75 147 -12 51
-12 56 25 165 46 137 116 295 185 419 55 98 178 278 191 278 5 0 14 -24 20
-52z m-3766 -168 c183 -123 402 -289 469 -355 20 -21 40 -49 43 -62 17 -68
-14 -523 -35 -523 -4 0 -12 35 -19 79 -18 114 -60 267 -88 323 -31 61 -74 109
-189 211 -83 74 -119 113 -168 182 -26 36 -31 26 -11 -21 14 -33 17 -75 16
-261 -2 -230 9 -325 22 -203 9 89 28 160 41 160 16 0 41 -29 56 -65 7 -17 15
-97 19 -180 7 -137 11 -160 45 -263 22 -65 59 -149 87 -195 26 -44 48 -90 48
-102 0 -12 -23 -47 -53 -80 l-53 -59 -31 55 c-62 108 -243 507 -277 609 -45
136 -64 252 -81 518 -9 138 -20 233 -29 261 -19 53 -20 91 -3 91 7 0 93 -54
191 -120z m1693 -411 c41 -20 83 -64 83 -88 0 -15 -192 -6 -228 11 -29 14 -49
56 -39 82 10 25 128 22 184 -5z m472 -304 c62 -30 143 -63 179 -72 37 -9 75
-22 85 -28 16 -11 16 -13 1 -26 -12 -10 -45 -14 -118 -13 -88 1 -114 5 -204
37 -57 19 -112 43 -123 53 -19 17 -27 83 -12 97 20 20 87 4 192 -48z m1597
-192 c3 -21 17 -74 29 -118 37 -131 39 -162 15 -227 -29 -79 -39 -85 -106 -64
-39 12 -69 32 -108 69 -49 48 -116 148 -116 173 0 6 38 34 83 62 46 28 106 71
133 96 27 25 52 45 56 46 4 0 10 -17 14 -37z m-2736 -788 c0 -8 -15 -52 -34
-97 -35 -84 -57 -177 -55 -232 l1 -31 18 40 c11 22 29 62 40 88 12 27 23 47
25 45 11 -10 -29 -175 -57 -234 -30 -63 -33 -79 -36 -187 -5 -134 -16 -142
-48 -34 -28 93 -26 285 4 391 39 137 142 319 142 251z m1942 -251 c108 -34
153 -76 144 -132 -12 -64 -35 -84 -147 -128 -57 -22 -145 -61 -195 -87 -134
-70 -438 -304 -654 -503 -116 -107 -195 -174 -255 -214 -54 -37 -176 -90 -206
-90 -47 0 -130 64 -170 130 -28 46 -77 174 -99 260 -32 121 -38 314 -13 394
10 32 22 58 28 58 5 0 21 -37 36 -81 44 -136 135 -262 199 -276 81 -18 149 25
364 234 228 220 340 305 509 387 163 79 312 94 459 48z m482 -18 c113 -47 205
-216 281 -515 50 -201 82 -468 55 -459 -8 2 -20 35 -28 74 -41 206 -175 466
-306 595 -40 40 -79 66 -132 89 -85 37 -88 45 -50 125 43 93 103 123 180 91z
m-3464 -166 c-4 -66 -6 -72 -17 -53 -17 28 -17 140 -1 184 l13 34 5 -45 c3
-25 3 -79 0 -120z m3353 -340 c49 -18 61 -28 74 -58 8 -19 15 -53 16 -75 2
-36 -1 -41 -28 -48 -16 -5 -168 -15 -338 -24 -351 -17 -527 -39 -669 -81 -35
-10 -17 13 50 63 151 115 338 204 502 239 101 21 319 13 393 -16z m-25 -549
c124 -115 252 -273 304 -374 16 -32 46 -107 66 -165 35 -102 37 -113 37 -234
0 -143 -14 -182 -33 -96 -15 64 -80 201 -168 355 -62 110 -143 228 -150 220
-2 -2 9 -37 24 -78 25 -68 27 -85 26 -229 0 -136 -3 -167 -26 -255 -36 -135
-90 -288 -136 -382 l-37 -78 -6 110 c-16 293 -158 574 -409 810 l-42 40 7 -35
c4 -19 18 -62 31 -94 13 -33 22 -61 20 -63 -2 -2 -38 33 -81 77 -50 51 -89
102 -107 140 -16 32 -51 84 -78 114 -28 29 -50 58 -50 63 0 17 60 44 127 58
179 38 369 -4 501 -112 49 -40 53 -34 14 28 -31 49 -88 101 -167 154 -27 18
-58 42 -68 53 -17 19 -16 20 32 41 27 11 80 25 118 30 135 17 121 23 251 -98z
m-971 -183 c11 -13 36 -48 55 -78 20 -30 47 -66 61 -79 20 -18 24 -28 17 -41
-6 -11 -7 -101 -3 -226 l6 -207 -26 19 c-28 21 -76 129 -102 235 -21 85 -29
97 -49 80 -26 -22 -45 -102 -52 -218 -4 -62 -10 -113 -13 -113 -4 0 -19 25
-34 56 -24 49 -29 75 -37 198 -6 77 -15 181 -20 230 -8 65 -8 92 1 102 9 11
144 61 170 64 3 0 15 -10 26 -22z"/>
<path d="M5125 7398 c4 -13 10 -63 12 -113 l5 -90 61 -63 c34 -35 130 -118
212 -185 258 -209 394 -327 570 -492 l169 -160 -78 100 c-199 252 -393 458
-703 747 -140 130 -188 181 -205 218 -24 52 -57 80 -43 38z"/>
</g>
</svg>
