<svg version="1.1" id="Layer_1" xmlns="http://www.w3.org/2000/svg" xmlns:xlink="http://www.w3.org/1999/xlink" x="0px" y="0px"
	 width="100%" viewBox="0 0 1024 1024" enable-background="new 0 0 1024 1024" xml:space="preserve">
<path fill="#000000" opacity="1.000000" stroke="none" 
	d="
M774.525879,523.531372 
	C781.342834,533.273926 787.550781,542.840698 788.772644,554.816711 
	C789.660645,563.520752 787.934265,571.705383 784.891785,579.676331 
	C779.480164,593.854187 770.564941,606.062622 761.557007,617.971008 
	C740.621460,645.647644 721.653381,674.580444 703.538513,704.140991 
	C696.411743,715.770630 688.259583,726.773193 680.521423,738.024963 
	C679.609314,739.351257 678.660645,740.816772 676.540344,741.163391 
	C675.360840,739.315308 676.661255,737.759399 677.241028,736.219666 
	C689.383667,703.974060 700.727478,671.473450 708.952698,637.962341 
	C711.138306,629.057922 712.618469,620.065735 712.777039,610.884277 
	C712.804688,609.282410 713.123352,607.594849 711.993835,605.826355 
	C709.404175,607.122253 709.279602,609.660034 708.527344,611.669250 
	C699.951477,634.575623 693.883545,658.355591 684.267639,680.907715 
	C675.517944,701.428345 666.776306,721.951599 658.256775,742.572937 
	C651.256287,759.517639 639.791382,773.837830 627.505920,787.245422 
	C598.752991,818.624512 563.811890,842.138489 527.868835,864.286499 
	C523.333923,867.080872 518.538025,869.457214 514.050537,872.321045 
	C510.168182,874.798706 506.680939,874.511292 502.892334,872.178467 
	C488.843903,863.528076 474.856598,854.736328 461.831177,844.629639 
	C446.043335,832.379517 429.342712,821.288818 414.403473,807.968567 
	C396.623657,792.115479 378.247009,776.661560 366.052917,755.747620 
	C355.726227,738.036560 347.878937,719.057068 339.719696,700.270569 
	C326.910645,670.778137 315.710022,640.692688 306.530945,609.863892 
	C306.037872,608.207764 305.990936,606.169434 303.738678,605.094360 
	C302.132812,606.841858 302.290741,608.966248 302.504364,611.054749 
	C304.369659,629.289551 308.050385,647.147583 313.568634,664.633423 
	C320.881439,687.805786 328.225189,710.964966 336.853180,733.695435 
	C338.002655,736.723755 338.647034,739.943787 338.734314,743.475525 
	C335.435059,738.264465 331.236542,733.888123 328.092896,728.763123 
	C310.406647,699.929993 291.859741,671.685486 271.975433,644.299927 
	C259.550049,627.187134 247.063644,610.097351 235.565826,592.323608 
	C232.660767,587.832886 230.079117,583.174500 227.936172,578.291992 
	C220.743439,561.904053 221.936157,546.695801 233.929825,532.682556 
	C246.634827,517.838257 260.662415,504.330475 274.831116,490.939636 
	C308.785431,458.849487 345.109772,429.632599 382.586060,401.795349 
	C417.000671,376.232391 452.902344,352.970123 490.143555,331.756714 
	C493.327545,329.943054 496.824829,328.524689 499.646088,326.261414 
	C505.343750,321.690552 510.668121,322.138916 516.967468,325.278076 
	C538.478516,335.997803 558.974182,348.424835 579.140442,361.416351 
	C622.327087,389.238220 664.233154,418.935577 702.801208,452.869843 
	C727.887085,474.941650 753.371460,496.851013 774.525879,523.531372 
M620.750427,524.377991 
	C609.058594,526.906311 597.426270,529.536133 585.433472,530.625671 
	C563.159363,532.649231 540.911743,533.070496 518.615906,531.468140 
	C511.990845,530.992004 505.361786,529.960876 498.747711,530.060181 
	C481.290558,530.322205 463.922638,532.265442 446.374023,531.535889 
	C419.833710,530.432434 393.684875,527.403015 368.094543,520.139587 
	C366.213470,519.605652 364.358215,518.684387 361.325317,520.337036 
	C369.164154,562.767334 377.238953,605.389771 391.481201,646.572937 
	C384.359955,607.112183 375.268433,568.041016 368.583099,528.477844 
	C378.287750,527.029419 410.994965,545.255920 415.132019,554.126709 
	C408.906311,554.947571 403.909882,551.076721 397.748077,550.239868 
	C399.404633,552.110413 400.776184,553.692993 402.183563,555.243103 
	C419.544769,574.364746 436.353027,593.964600 452.742554,613.921448 
	C456.592529,618.609497 459.874634,623.701477 461.442505,630.030640 
	C447.181946,625.081055 434.752350,616.949280 421.845856,609.533264 
	C433.386627,624.494751 443.882843,639.966492 453.367645,656.559265 
	C449.545776,658.294678 447.360687,655.803040 445.038147,654.218140 
	C439.797882,650.642395 434.652710,646.927429 429.468903,643.269104 
	C429.134827,643.673096 428.800781,644.077087 428.466736,644.481079 
	C439.701477,662.948059 454.705170,678.700500 468.229767,696.937622 
	C458.440094,696.966736 452.210327,691.191345 443.868164,688.430847 
	C446.137726,703.035767 451.496674,715.699341 454.958252,728.698120 
	C452.206757,729.840942 450.896637,728.803101 449.584503,727.733093 
	C447.132416,725.733459 444.706665,723.699158 442.206329,721.761414 
	C411.665100,698.092224 384.137665,671.315918 359.503113,641.558838 
	C357.919678,639.646240 356.365448,637.729614 355.622040,635.229797 
	C346.657104,605.083984 339.378113,574.564514 334.564514,543.456787 
	C333.358276,535.661377 333.248657,527.639099 330.400604,520.095581 
	C330.076111,521.048889 330.040588,521.975952 330.081268,522.899536 
	C331.475006,554.545227 336.589203,585.687805 343.422729,616.533752 
	C352.171234,656.023621 363.470886,694.796326 377.978882,732.587158 
	C380.895813,740.185242 384.553467,747.435974 389.689117,755.158508 
	C380.626404,723.122009 373.321350,691.857544 363.502991,660.681396 
	C367.135345,661.341064 368.304718,663.538696 369.898132,665.129883 
	C393.116608,688.316528 415.737457,712.148560 442.030243,732.015503 
	C460.729919,746.145081 480.746002,757.971619 502.641449,766.501892 
	C506.238770,767.903381 509.563141,768.098267 513.186707,766.274902 
	C528.081482,758.780334 542.785767,750.928650 556.632629,741.638367 
	C591.431091,718.290955 621.958496,690.125427 649.403687,658.543396 
	C650.261719,657.556030 650.953308,656.266724 652.886353,657.018982 
	C653.005615,657.679626 653.427612,658.540161 653.251221,659.252563 
	C644.714539,693.742004 637.079956,728.473938 624.764771,763.406738 
	C648.047607,734.774170 686.682007,563.990662 683.981628,534.502319 
	C682.607544,536.044495 682.667786,537.904968 682.387634,539.620483 
	C677.346985,570.487793 671.200012,601.111389 662.456421,631.174500 
	C661.890747,633.119263 661.442932,635.103638 660.104004,636.616394 
	C648.960327,649.206970 637.782288,661.767334 626.556030,674.284180 
	C625.524109,675.434631 624.436218,677.020203 622.227905,676.125061 
	C620.830627,672.280518 622.485291,668.637573 623.361877,665.010559 
	C634.798218,617.690674 645.374817,570.178650 655.343262,522.529968 
	C655.672546,520.955994 656.230408,519.274292 654.641663,517.646423 
	C643.698608,519.844421 632.647034,522.064148 620.750427,524.377991 
M588.289734,450.709686 
	C599.833557,444.366425 611.377441,438.023132 622.921265,431.679840 
	C622.674316,431.176880 622.427368,430.673889 622.180481,430.170898 
	C581.672913,436.759735 545.693298,456.875092 507.543427,469.880463 
	C505.764343,467.822479 505.795013,465.972168 505.756256,464.148285 
	C505.490875,451.664337 505.131165,439.181366 504.994659,426.695984 
	C504.785217,407.538940 504.716248,388.380280 504.624512,369.222137 
	C504.608582,365.896271 504.048706,362.721954 502.591522,358.705261 
	C475.433380,375.832520 448.710815,392.685059 421.841309,409.630280 
	C428.538422,415.312988 437.815094,415.591309 444.970154,421.069092 
	C441.320618,423.393250 437.692352,420.985992 434.822357,423.894989 
	C439.589752,426.449310 444.045135,428.622681 448.288177,431.152222 
	C458.666504,437.339386 458.627014,437.405640 458.892059,440.227264 
	C447.224640,437.809418 436.103943,433.926025 424.764679,430.884308 
	C411.138092,427.229095 395.839447,426.100647 389.956146,428.602570 
	C396.755188,431.708191 403.302521,434.553528 409.724945,437.657318 
	C439.548401,452.070099 468.546814,468.191132 499.467133,480.347778 
	C505.222351,482.610504 510.168030,483.369293 516.120850,481.499451 
	C540.975708,473.692261 565.183105,464.457550 588.289734,450.709686 
M461.358246,491.274353 
	C433.271790,481.596039 404.755188,473.176422 376.796844,461.791168 
	C377.017609,464.582092 377.171265,466.699524 377.354553,468.814392 
	C378.787323,485.344513 390.490448,500.931549 405.299225,504.967163 
	C415.781158,507.823700 426.665222,508.028229 437.460022,507.192413 
	C449.474670,506.262177 460.886658,502.535034 472.256653,498.776001 
	C473.308563,498.428192 474.654022,498.477234 474.819275,496.612366 
	C471.018036,493.969330 466.245117,493.474518 461.358246,491.274353 
M638.826904,473.534485 
	C639.686218,470.464325 640.877197,466.951721 638.373230,464.567230 
	C636.392639,462.681122 633.631104,464.853180 631.418640,465.729279 
	C611.149353,473.755554 590.660278,481.136414 569.828674,487.588074 
	C560.762634,490.395874 551.465759,492.603027 542.227966,496.773163 
	C561.152466,506.429596 580.680115,508.907593 600.898438,507.765503 
	C621.669556,506.592133 635.410095,491.085968 638.826904,473.534485 
z"/>
<path fill="#000000" opacity="1.000000" stroke="none" 
	d="
M566.717285,157.374878 
	C547.902161,152.856308 529.486023,148.412827 511.071960,143.960999 
	C505.476379,142.608200 499.964325,144.074081 494.880402,145.664490 
	C467.753296,154.150681 439.790680,160.390610 414.300690,173.484192 
	C384.151154,188.971283 358.183716,209.364792 340.957275,239.299332 
	C330.579193,257.333374 324.467163,277.194397 322.797791,297.554169 
	C320.435486,326.364075 309.962036,352.451569 300.311707,378.989716 
	C290.112335,407.037811 278.492065,434.453308 264.261719,460.724152 
	C262.998108,463.056915 262.086700,465.582062 261.045380,468.032166 
	C260.863861,468.459320 260.850800,468.958038 260.447296,471.025574 
	C287.776581,448.549164 317.196716,431.523285 346.540283,413.891296 
	C347.271332,416.208771 345.691803,416.863739 344.609955,417.677338 
	C319.010620,436.928589 295.951385,459.179565 271.395203,479.662659 
	C261.292084,488.089874 251.072739,496.404236 241.360809,505.267944 
	C226.199081,519.105591 215.334808,535.497009 213.276993,556.604675 
	C213.118164,558.234070 212.995163,559.909241 211.099411,561.370605 
	C206.346878,546.700562 206.954605,532.500183 213.913681,519.128357 
	C226.832108,494.305511 239.343933,469.292786 251.486862,444.083801 
	C261.396393,423.511475 270.199402,402.507324 277.922394,381.021423 
	C287.602539,354.090668 298.293640,327.514679 306.250214,299.983765 
	C310.266907,286.085358 313.768402,272.024139 318.214630,258.266571 
	C329.666046,222.833817 350.814301,194.667679 381.715179,173.586929 
	C403.559540,158.684586 427.600586,148.704895 452.164490,139.611588 
	C469.180695,133.312347 486.160858,126.912849 503.093811,120.393707 
	C507.313019,118.769325 511.286682,118.284470 515.697327,119.645386 
	C546.571594,129.171722 577.364380,138.820541 606.222778,153.766098 
	C644.951904,173.823608 674.496155,202.734024 692.724792,242.609482 
	C699.477295,257.380829 702.324646,273.396423 705.888916,289.103058 
	C711.760925,314.979279 720.709106,339.834961 729.531189,364.771606 
	C744.991699,408.472412 763.203186,450.991425 783.675598,492.557098 
	C786.322388,497.930786 789.108337,503.266235 792.250183,508.360077 
	C801.769653,523.793579 805.158020,540.627502 804.293579,558.518127 
	C804.212158,560.201355 804.042969,561.846863 802.594177,563.159607 
	C799.886658,563.004944 799.246521,560.910645 798.709961,558.806641 
	C797.888367,555.585022 797.033264,552.364319 796.403809,549.102478 
	C792.044373,526.511353 779.653381,508.636597 762.991943,493.591858 
	C733.194519,466.685822 703.659546,439.469574 672.478699,414.134735 
	C671.376160,413.238922 669.871704,412.577484 669.979431,410.105927 
	C697.780762,426.891632 724.239258,445.073059 750.821411,463.878357 
	C752.431702,459.956421 750.390015,457.437103 749.228760,454.934723 
	C742.150818,439.682312 734.566101,424.668762 728.246887,409.062225 
	C715.940308,378.668457 703.377075,348.369049 693.379578,317.109375 
	C689.610779,305.325073 690.389160,292.738739 687.713745,280.721069 
	C679.557922,244.085770 663.207275,212.109940 633.950928,187.808716 
	C618.194275,174.720673 599.309937,167.477402 580.024170,161.311539 
	C575.747131,159.944107 571.420776,158.730942 566.717285,157.374878 
z"/>
<path fill="#000000" opacity="1.000000" stroke="none" 
	d="
M696.250549,752.693848 
	C697.747864,755.520447 699.450867,756.105530 702.159546,754.808411 
	C735.358582,738.910889 770.713989,735.512207 806.875305,736.966492 
	C810.134155,737.097534 813.375427,737.666565 816.630493,738.804810 
	C808.516968,740.153076 800.388123,741.415771 792.292480,742.863770 
	C748.533936,750.690308 710.446350,769.885010 677.439941,799.617188 
	C645.811279,828.108215 610.389038,851.041321 572.523560,870.389771 
	C552.949036,880.391907 533.741028,891.111511 514.376526,901.523865 
	C511.971710,902.816895 509.788300,903.723022 506.905334,902.271423 
	C467.026825,882.192627 427.429382,861.579773 389.205444,838.475891 
	C368.033783,825.679077 349.657990,809.064819 330.557922,793.503113 
	C303.634918,771.567566 274.186707,754.487366 240.652069,744.946655 
	C230.123703,741.951294 219.223999,740.643921 207.085510,738.826172 
	C211.423691,736.893799 214.832855,736.923401 218.132568,736.756714 
	C249.174881,735.188416 279.181763,739.708801 307.827942,752.158447 
	C310.267212,753.218567 312.833069,753.983582 315.305756,754.971680 
	C318.838318,756.383484 321.901520,757.511353 324.743622,753.189575 
	C326.835907,750.008057 329.870911,751.997986 332.092438,753.879761 
	C338.956329,759.693665 345.729004,765.615295 352.532959,771.499817 
	C385.693665,800.179443 419.730530,827.744141 455.868011,852.630920 
	C470.417664,862.650940 485.392853,871.975098 500.713684,880.790894 
	C506.908386,884.355347 512.003906,884.280884 518.294922,880.960022 
	C535.129395,872.073425 550.906677,861.514771 567.072205,851.554504 
	C595.800232,833.853760 620.080627,810.752808 645.012207,788.408264 
	C658.780945,776.068176 671.736755,762.820801 686.259094,751.324951 
	C691.026611,747.550964 692.234070,747.768311 696.250549,752.693848 
z"/>
<path fill="#000000" opacity="1.000000" stroke="none" 
	d="
M641.159668,318.800232 
	C629.796082,299.714081 618.028442,281.308350 605.507202,263.370239 
	C605.933777,263.043640 606.360352,262.717072 606.786926,262.390472 
	C613.260132,268.443481 619.804443,274.422546 626.192993,280.563599 
	C644.177551,297.851288 657.389771,318.453766 669.034424,340.401123 
	C683.466125,367.601318 696.778320,395.424561 713.008545,421.656403 
	C713.227539,422.010315 713.143616,422.551697 713.295044,423.748169 
	C671.627563,390.126099 628.857239,358.913483 587.655090,324.444550 
	C592.017212,322.977081 595.134888,324.651642 598.200623,325.836456 
	C626.075439,336.609253 650.389099,352.997009 672.361816,373.055573 
	C673.793213,374.362305 675.338257,375.544556 677.336426,376.404785 
	C665.404846,357.224854 652.424255,338.760742 641.159668,318.800232 
z"/>
<path fill="#000000" opacity="1.000000" stroke="none" 
	d="
M341.865479,375.405640 
	C341.370544,376.377350 341.047974,377.084290 340.725403,377.791229 
	C367.885864,356.016144 395.484406,335.403198 429.777863,326.223633 
	C388.781342,357.360016 349.206177,390.218903 307.474731,421.747833 
	C307.845642,417.974670 309.853821,416.047241 311.043976,413.789276 
	C325.872772,385.655762 340.415680,357.363068 355.761292,329.513123 
	C367.667908,307.904327 383.337036,289.125885 402.305145,273.225739 
	C403.594208,272.145203 404.844696,270.397552 407.586609,271.684662 
	C384.074432,305.232727 367.085999,342.713348 341.865479,375.405640 
z"/>
<path fill="#000000" opacity="1.000000" stroke="none" 
	d="
M283.474915,684.566284 
	C294.794098,700.293823 304.091461,716.831421 313.374756,733.440247 
	C275.341064,702.115295 248.266815,662.548584 224.959869,618.530640 
	C230.903152,620.653809 265.360748,660.163025 283.474915,684.566284 
z"/>
<path fill="#000000" opacity="1.000000" stroke="none" 
	d="
M781.988525,632.818542 
	C760.431641,671.010559 733.986267,704.852600 702.528870,734.713196 
	C701.851074,734.199219 701.173279,733.685303 700.495544,733.171387 
	C725.509827,691.219299 755.787231,653.121094 788.009338,616.257690 
	C787.647949,622.316589 784.230896,627.164368 781.988525,632.818542 
z"/>
<path fill="#000000" opacity="1.000000" stroke="none" 
	d="
M339.501373,316.187866 
	C336.386047,314.214905 338.752655,311.556366 338.829956,309.296722 
	C339.532166,288.772644 343.665161,269.090485 353.840820,250.933258 
	C361.100311,237.979630 370.442017,226.792175 381.868530,217.430893 
	C387.454224,212.854782 392.750854,207.792160 399.039917,204.126785 
	C400.263794,205.588196 399.427094,206.411743 398.849762,207.126297 
	C373.538605,238.453568 355.804596,273.914307 341.858124,311.449066 
	C341.280426,313.003815 340.491119,314.479980 339.501373,316.187866 
z"/>
<path fill="#000000" opacity="1.000000" stroke="none" 
	d="
M642.969849,223.067352 
	C667.988098,253.773300 668.346802,273.406982 673.915955,308.190063 
	C671.200195,306.433685 670.698425,303.817139 669.849670,301.533173 
	C662.537842,281.856964 654.566162,262.444366 645.344910,243.596725 
	C639.130493,230.894821 632.499023,218.350479 623.538940,207.249619 
	C623.256470,206.899643 623.219482,206.351501 623.055298,205.857269 
	C626.696594,206.109360 633.741211,212.196869 642.969849,223.067352 
z"/>
<path fill="#000000" opacity="1.000000" stroke="none" 
	d="
M624.603760,610.458862 
	C619.815796,636.023315 614.945007,661.137512 609.307678,686.096497 
	C608.182678,691.077515 605.897400,695.302612 602.053101,698.877991 
	C575.044922,723.997253 545.437500,745.331726 512.037048,761.196838 
	C507.707123,763.253540 506.759888,762.670715 506.718719,757.874573 
	C506.637146,748.377258 506.817291,738.876282 506.643036,729.381348 
	C505.557892,670.262817 505.939941,611.136780 505.682098,552.014160 
	C505.664703,548.032715 505.784271,544.062195 506.248627,540.065063 
	C506.796082,535.352295 509.308502,534.270691 513.361389,534.739319 
	C529.805115,536.640808 546.316467,536.003235 562.780701,535.574341 
	C587.067200,534.941589 611.222778,532.508972 635.168152,528.266296 
	C636.641785,528.005188 638.050537,527.520752 640.048096,528.461731 
	C634.939148,555.651367 629.828674,582.849792 624.603760,610.458862 
z"/>
</svg>