<svg version="1.1" id="Layer_1" xmlns="http://www.w3.org/2000/svg" xmlns:xlink="http://www.w3.org/1999/xlink" x="0px" y="0px"
	 width="100%" viewBox="0 0 1024 1024" enable-background="new 0 0 1024 1024" xml:space="preserve">
<path fill="#000000" opacity="1.000000" stroke="none" 
	d="
M437.820953,847.086487 
	C434.195221,836.870178 430.902771,835.091614 421.230682,838.690613 
	C417.241669,840.174927 413.598602,839.996094 409.563934,839.276489 
	C401.390259,837.818726 393.100250,837.213135 384.778809,837.458008 
	C381.355072,837.558777 379.174591,839.287231 378.422821,842.696106 
	C377.855499,845.268555 377.276733,847.838562 376.667816,850.567627 
	C372.449219,850.459106 369.930115,847.573120 367.271729,845.256104 
	C359.168091,838.193115 355.074615,829.565430 358.477386,818.729187 
	C360.679108,811.717957 357.402496,805.812683 354.621460,800.189697 
	C347.244965,785.275085 339.873688,770.326599 330.993591,756.202454 
	C326.300049,748.737244 321.578003,741.285400 320.391876,732.228882 
	C319.327728,724.103699 321.033936,720.939148 327.937439,716.934631 
	C338.652222,710.719421 348.601196,703.525391 356.244904,693.510376 
	C359.837860,688.802673 361.271667,683.579102 361.791779,677.785828 
	C363.163513,662.506958 358.741150,648.109497 355.401855,633.555176 
	C351.025421,614.480408 350.522186,595.393066 354.491730,576.203003 
	C354.720093,575.099060 354.521271,573.906677 354.521271,572.316284 
	C351.349854,573.068665 349.077576,574.295898 348.308105,577.703857 
	C345.392120,590.618835 345.419556,591.175354 332.151672,592.708496 
	C307.498688,595.557373 285.299225,589.557861 267.966949,570.996887 
	C254.795212,556.891357 248.734253,539.414368 246.613556,520.356567 
	C243.935394,496.289154 250.250320,473.521210 256.066833,450.655243 
	C259.916748,435.520447 264.765991,420.603851 266.182770,404.939667 
	C268.127441,383.439545 262.909515,363.877625 249.215942,347.080292 
	C240.916275,336.899414 224.541611,334.532959 211.050415,340.637360 
	C199.823395,345.717377 193.735977,357.304474 195.367661,370.776398 
	C195.957611,375.647217 198.451736,379.599457 202.438416,382.381073 
	C208.730362,386.771118 215.906281,384.483215 218.709427,377.321075 
	C219.359222,375.660858 219.703201,373.880920 220.218552,372.047028 
	C224.475952,377.394684 224.186691,382.080139 219.461792,386.463684 
	C209.560013,395.649963 190.118729,391.909821 184.415680,379.256500 
	C175.157120,358.714508 182.753265,329.791504 205.836441,319.866638 
	C217.805420,314.720398 229.710922,316.924652 241.467896,320.465393 
	C261.803833,326.589813 272.478729,342.206665 280.432648,360.547302 
	C290.388367,383.503845 289.031830,406.907898 283.764709,430.535797 
	C279.427826,449.990509 273.904938,469.218689 271.863861,489.119934 
	C270.429688,503.103638 269.832397,517.138977 276.847412,530.104248 
	C287.702820,550.167358 299.573822,551.953857 317.744446,550.313965 
	C319.063812,550.194885 320.359344,549.830017 321.672455,549.619873 
	C329.535156,548.361633 336.617645,546.435974 340.701843,538.190369 
	C343.485626,532.570129 348.748505,528.498108 353.333313,524.124451 
	C354.383942,523.122253 355.872559,522.415588 356.051270,520.362122 
	C353.599304,517.950928 349.824310,518.080322 345.877686,516.085449 
	C359.802551,507.946777 373.822815,501.904419 388.523590,496.705017 
	C385.859375,490.764496 380.206726,489.051239 375.974976,485.557343 
	C377.878021,482.986786 380.584442,483.226990 382.855133,482.715027 
	C395.823944,479.790833 409.004028,477.687439 421.465210,472.817413 
	C426.596222,470.812134 431.737213,468.635956 435.099731,463.953308 
	C443.335510,452.483948 436.291870,436.833893 421.267242,433.420929 
	C410.213593,430.909973 399.469116,432.054688 389.069000,436.724518 
	C385.994843,438.104858 383.110657,440.312714 378.910217,440.159607 
	C380.228394,434.684814 383.386810,430.591400 385.936584,426.227753 
	C390.533112,418.361267 393.083984,410.181580 390.855042,400.957855 
	C389.051758,393.495483 384.653137,388.592377 377.354401,386.272644 
	C365.655762,382.554565 353.799438,382.362671 341.847931,384.771729 
	C339.551086,385.234741 337.304382,385.757935 334.756989,384.720551 
	C335.429230,380.837799 338.048950,377.912323 339.691498,374.570770 
	C346.893677,359.918610 343.577606,346.865784 330.081329,337.548950 
	C322.637421,332.410217 314.458679,329.570465 305.362854,329.194977 
	C299.641235,328.958801 293.938232,328.270569 286.962952,327.677704 
	C293.091064,321.526794 297.253326,315.649506 301.295105,309.611176 
	C311.861603,293.825134 311.898193,277.068115 306.508026,259.832489 
	C296.460907,227.705673 273.737061,207.182999 244.136871,193.486771 
	C225.640152,184.928177 206.143127,180.260941 185.550919,181.332657 
	C184.723526,181.375717 183.885162,181.306595 183.058868,181.221848 
	C182.750854,181.190247 182.462814,180.963989 181.332870,180.441147 
	C186.407059,177.927094 191.340012,176.873047 196.190338,175.726273 
	C217.371857,170.718246 238.701157,171.279999 260.208374,173.477173 
	C308.354736,178.395813 355.339294,188.925690 401.843964,201.883240 
	C448.164490,214.789459 492.427612,233.193100 536.342529,252.520142 
	C544.877808,256.276550 553.686584,259.423370 563.011780,260.579559 
	C569.813171,261.422760 570.453064,260.415283 568.555786,253.999512 
	C564.066406,238.818268 553.590149,227.904129 542.607178,217.346664 
	C539.563110,214.420456 536.382446,211.636261 533.083679,208.621704 
	C535.807800,207.186081 537.582214,208.490814 539.364502,209.190201 
	C553.694031,214.813080 565.713684,224.054718 577.093628,234.074600 
	C597.707703,252.225021 615.792847,272.650909 630.162659,296.140991 
	C638.337097,309.503662 643.802856,324.259247 650.873901,338.198395 
	C652.249451,340.910095 651.024475,341.958038 648.394714,342.727295 
	C627.946167,348.708923 612.595459,361.676208 601.072449,379.047791 
	C591.683044,393.202850 590.550232,408.589355 598.080261,424.111298 
	C600.086853,428.247406 601.893677,432.650635 605.768982,436.019379 
	C610.487427,433.125214 612.904968,428.433990 615.926086,424.117645 
	C624.025513,412.545898 633.515686,402.483856 647.209839,397.294556 
	C652.567688,395.264282 658.029114,395.772217 663.499573,395.726318 
	C667.807739,395.690155 672.116516,395.719055 677.045349,395.719055 
	C674.392273,391.351410 670.378540,390.339447 666.474854,389.422821 
	C657.898132,387.408936 649.276367,387.728973 640.742615,389.736023 
	C637.984497,390.384735 635.527222,390.273041 632.576538,388.378052 
	C637.419434,386.244446 642.095520,384.673096 646.274109,382.245514 
	C656.123718,376.523254 666.239075,371.677673 677.689392,370.273712 
	C684.980103,369.379761 692.172058,370.176605 699.487000,370.743866 
	C709.877258,371.549622 717.978760,377.828064 727.606384,380.047638 
	C727.893066,380.113708 728.223267,379.990784 729.077393,379.894928 
	C725.615051,374.937225 721.064697,371.803711 716.305725,368.753143 
	C701.611877,359.334198 686.474365,350.491699 674.090393,337.916107 
	C672.747375,336.552307 671.011414,335.363373 670.571472,333.157440 
	C672.864563,332.031647 674.562683,333.538544 676.089417,334.506165 
	C685.059204,340.191559 694.984009,343.615662 705.024536,346.628815 
	C712.216309,348.787079 719.268738,351.355042 726.045959,354.420013 
	C733.408752,357.749786 740.249084,362.234833 748.548035,366.909424 
	C742.784119,356.716614 733.493713,351.206970 727.797852,342.511932 
	C737.432861,344.169220 746.183289,347.728088 754.289124,352.949524 
	C767.980408,361.768921 779.996094,372.293213 789.210388,385.923615 
	C792.232117,390.393616 794.215759,390.199341 797.648560,386.024628 
	C801.020081,381.924500 804.386780,377.680908 802.828003,371.633301 
	C806.958496,373.547455 809.568054,381.030273 807.972229,386.688995 
	C806.881836,390.555389 805.233948,394.186829 801.596680,396.526276 
	C797.808228,398.962982 796.019653,403.007599 793.529846,406.831512 
	C799.131897,411.357239 804.562073,415.938599 810.197083,420.252472 
	C819.486694,427.364227 825.293274,435.732819 821.117737,448.068359 
	C820.640625,449.477936 821.016907,450.775757 821.710938,451.892792 
	C825.221863,457.543823 827.727417,463.781891 831.796448,469.104553 
	C838.713989,478.153381 838.808533,481.476318 832.306396,490.709930 
	C831.401489,491.994995 831.040222,493.398285 830.723938,494.863770 
	C829.809692,499.101013 827.186829,501.593353 822.910034,502.121582 
	C821.015808,502.355530 819.421448,502.975067 817.877258,504.066498 
	C815.180786,505.972382 812.755432,506.246185 809.837952,503.781158 
	C807.797668,502.057343 804.768860,501.472839 802.144226,500.478302 
	C797.911133,498.874359 794.172119,496.598785 790.684265,493.637085 
	C785.172852,488.956940 778.394470,487.866913 771.424500,488.565521 
	C767.777893,488.931030 767.135437,491.462097 769.217773,494.581726 
	C775.017151,503.270142 784.686401,504.154541 793.493652,506.760071 
	C796.830200,507.747070 801.515808,506.207336 802.999207,510.632263 
	C804.506958,515.130066 800.001648,516.778320 797.582520,519.296204 
	C795.505920,521.457520 793.027893,523.324158 794.265076,526.956482 
	C794.584351,527.893738 794.037048,528.872925 793.373657,529.703796 
	C788.970581,535.218628 782.556458,535.782227 775.843933,537.497681 
	C781.096924,527.919189 779.788330,522.330261 770.975647,515.685913 
	C761.371582,508.444916 752.907043,499.981415 744.468506,491.485626 
	C740.517761,487.508057 737.723999,486.879395 734.510132,491.072662 
	C730.921204,495.755310 725.575867,497.868195 721.501831,501.735779 
	C712.482788,510.297668 705.524902,519.743958 705.171021,532.930054 
	C704.908142,542.723999 705.302490,552.521912 703.693176,562.317505 
	C701.656067,574.716614 693.848633,583.057983 685.391663,591.171936 
	C684.199097,592.316162 683.070496,592.131165 681.899353,591.035583 
	C680.707214,589.920410 680.037598,588.223267 677.411011,587.467468 
	C668.409851,600.016418 653.426941,606.444031 642.701477,618.434204 
	C658.373169,633.305481 672.694458,649.116516 689.976746,661.770874 
	C695.482178,665.802063 700.653137,670.289490 705.985413,674.557861 
	C709.979431,677.755005 712.025696,682.253784 712.946045,686.961914 
	C715.272583,698.862610 717.551270,710.790100 715.437622,723.076721 
	C713.576416,733.895447 708.471252,742.334839 698.807922,747.727051 
	C697.327637,748.553101 696.804504,749.464417 696.308594,751.019226 
	C693.860291,758.695984 683.500671,763.980286 675.682922,761.136292 
	C681.085388,754.675354 688.842712,749.030945 684.427551,738.831909 
	C676.331177,742.091858 673.655090,749.956055 669.101868,756.010132 
	C660.609619,749.990173 659.287659,739.618774 665.951538,732.121704 
	C660.564209,732.625183 656.991272,737.786133 651.081848,737.164490 
	C650.237488,732.657288 650.917664,728.946899 654.685303,725.648926 
	C659.527222,721.410583 664.687683,717.872253 670.967773,716.429626 
	C675.951294,715.284912 679.394470,712.055237 683.244812,708.835083 
	C681.080200,705.234009 678.608826,702.110718 675.594360,699.546753 
	C667.653198,692.792725 658.052551,688.931152 648.978088,684.056458 
	C638.488220,678.421387 626.667419,676.133850 616.592407,669.733093 
	C606.260132,663.168945 604.805542,659.139221 606.187439,646.869568 
	C607.594727,634.373657 614.486816,624.205261 621.985657,615.808960 
	C628.848511,608.124756 636.409790,600.742554 643.240723,592.867432 
	C658.687805,575.058960 667.159668,554.526978 665.569946,530.617615 
	C664.943237,521.191223 661.736877,512.284973 656.477966,504.484161 
	C652.707458,498.891266 648.815002,493.276337 643.681458,488.650543 
	C629.946594,476.274078 617.324524,462.743164 603.654419,450.264069 
	C589.736877,437.558990 580.582397,421.667603 580.072876,402.307404 
	C579.798218,391.872681 583.459595,382.031189 589.134521,373.160645 
	C597.094910,360.717590 607.599060,350.929718 620.406677,343.575104 
	C622.100647,342.602356 623.587219,341.268311 625.315063,339.994476 
	C622.849854,335.256500 618.792603,332.501953 615.159973,329.468597 
	C602.768677,319.121490 590.176453,309.015472 577.732727,298.730530 
	C565.068665,288.263519 550.618530,280.656616 536.532349,272.406525 
	C503.284027,252.933441 467.373016,239.620834 431.392639,226.492813 
	C415.808014,220.806488 400.113770,215.324615 383.940796,211.393204 
	C446.455688,238.782104 510.266541,263.489380 567.604370,301.475189 
	C530.581665,288.370544 494.861450,271.739166 456.189972,263.563690 
	C507.869934,284.630585 559.965881,304.841522 606.229797,338.585876 
	C601.883972,342.457642 598.101624,345.100830 594.664917,348.089844 
	C581.246460,359.760345 572.170471,374.123535 568.875671,391.442719 
	C565.461365,409.390198 570.266052,425.845062 581.791931,440.062958 
	C593.786072,454.858582 608.109375,467.396332 621.682922,480.669067 
	C632.482727,491.229492 644.092651,501.101776 651.739258,514.549500 
	C659.832397,528.782593 660.709045,543.533752 655.429810,558.727722 
	C649.831299,574.840515 638.425964,587.207825 627.861877,600.045959 
	C618.029053,611.995422 607.642456,623.482056 599.637573,636.857056 
	C597.337585,640.700073 596.760437,644.046326 598.833374,648.047668 
	C604.194153,658.395081 609.482422,668.781921 614.643982,679.229980 
	C617.754883,685.526978 619.614441,692.307068 621.092224,699.129700 
	C622.687744,706.495239 625.928833,712.795166 630.920471,718.446228 
	C639.181213,727.798340 644.623962,738.759583 648.690002,750.526489 
	C650.197266,754.888611 652.667725,758.944519 654.938843,763.005920 
	C656.247253,765.345764 656.793274,767.745483 656.094116,770.199768 
	C653.676697,778.685974 650.995239,787.109680 646.852905,794.935608 
	C643.883667,800.545349 638.884338,803.566895 632.388672,805.217590 
	C630.917664,795.919006 641.511597,788.580078 635.461975,777.962952 
	C629.802246,796.679077 622.274353,812.213684 599.587219,811.271606 
	C600.179016,808.160217 602.578857,807.171997 604.660889,806.028687 
	C610.532837,802.804443 614.364319,797.969849 616.129028,791.570618 
	C617.253845,787.491699 616.137939,783.840698 612.964966,779.645142 
	C608.196594,789.272461 601.294678,795.628235 591.529846,798.211914 
	C589.494507,798.750366 586.915466,799.129272 584.203247,796.549683 
	C590.259888,794.114319 593.146057,789.502747 594.027161,783.532471 
	C592.864319,782.292114 591.024109,784.108643 589.452637,781.953430 
	C594.438660,772.468628 590.434570,761.590515 592.574036,751.231812 
	C592.975342,749.288696 593.127563,747.170105 594.038513,745.479492 
	C596.794067,740.365845 595.491333,736.651672 591.421814,732.712219 
	C580.008911,721.664062 567.419006,712.082581 554.897827,702.401794 
	C545.141174,694.858398 536.192871,686.727966 533.044312,672.976868 
	C531.894409,675.179443 531.221558,676.468262 530.406860,678.028748 
	C526.746826,675.864441 525.076294,672.733643 524.755615,669.004211 
	C524.044617,660.736938 524.359192,652.343750 529.350952,645.437500 
	C540.502625,630.008972 541.247437,612.266479 541.594299,594.405518 
	C541.786621,584.498779 543.278748,574.932617 546.449829,565.535217 
	C548.348633,559.907959 551.403870,555.021057 554.639160,550.170654 
	C555.910461,548.264648 557.182068,546.358826 558.793274,543.943726 
	C550.535461,547.036499 542.618835,558.336548 537.283875,574.171753 
	C533.195251,586.307434 534.954224,599.199646 532.809570,611.547974 
	C530.553284,612.398560 529.652649,610.587952 528.490295,609.589966 
	C512.315125,595.701538 493.587189,593.563721 473.531708,597.630005 
	C470.134247,598.318848 467.739044,599.788513 468.627960,604.139832 
	C474.071167,630.784790 464.566010,652.415283 447.063080,672.130737 
	C430.338745,690.969116 411.084442,706.756348 391.336517,722.062256 
	C382.951050,728.561523 380.084869,736.590637 380.973358,746.931824 
	C382.434265,763.935120 387.072571,779.875793 395.035400,794.915894 
	C399.828339,803.968689 407.642487,807.881287 417.528473,807.914062 
	C421.661621,807.927734 425.838531,807.934265 429.950806,806.939148 
	C435.764709,805.532532 440.772980,807.611206 445.296783,811.116150 
	C450.818390,815.394226 456.570038,818.189026 464.028992,817.891479 
	C471.014343,817.612854 478.621368,826.054138 480.841888,834.977112 
	C473.940796,833.849121 469.453217,825.218384 460.960175,828.550659 
	C461.572876,835.241516 466.822418,840.223083 467.199829,846.789062 
	C464.320099,847.543274 463.663422,845.363708 462.478577,844.209290 
	C459.120728,840.937805 455.676331,837.894836 451.217834,836.086792 
	C448.586151,835.019592 447.220306,835.619141 446.210480,838.169128 
	C444.342010,842.887268 442.503143,847.609070 441.537964,853.128235 
	C438.934326,851.574219 438.755707,849.301514 437.820953,847.086487 
M587.425781,481.056915 
	C603.437683,496.185028 620.215759,510.534943 634.246521,527.758606 
	C632.732239,519.647766 628.789124,512.911987 623.792969,506.940765 
	C607.082886,486.969269 587.011536,470.354950 568.506409,452.172760 
	C567.326233,451.013123 566.090027,450.306946 564.577454,451.525879 
	C562.552734,453.157562 563.655151,454.789246 564.718506,456.325806 
	C571.009705,465.417145 578.852661,473.093658 587.425781,481.056915 
M688.314575,499.558472 
	C688.305176,508.297913 687.799561,517.137695 693.356018,525.347168 
	C696.635071,520.654968 697.971863,515.833679 697.533691,510.831665 
	C696.935120,503.999634 698.966614,498.045227 702.248474,492.327454 
	C703.740784,489.727325 705.170044,487.167145 704.416931,484.047119 
	C702.490295,483.566193 701.373413,484.689209 700.091431,485.409088 
	C698.039001,486.561584 696.011902,489.727539 693.687805,487.728882 
	C691.440247,485.796082 692.522034,482.446533 693.490723,479.755280 
	C694.050598,478.199738 694.876892,476.740387 695.578613,475.235535 
	C697.738159,470.604187 700.153442,466.114441 703.447449,462.153961 
	C700.366150,459.706390 697.686401,460.395447 695.950134,462.636719 
	C692.050110,467.671082 688.031738,473.370972 688.803101,479.760345 
	C689.581360,486.206848 687.882324,492.320282 688.314575,499.558472 
M515.052490,491.487610 
	C503.238251,487.368713 491.378693,483.472351 478.511230,484.056854 
	C506.161346,491.592957 530.143250,506.313995 553.958130,521.545898 
	C545.003418,506.670898 530.775391,498.723785 515.052490,491.487610 
M508.670624,380.671997 
	C518.809875,381.040802 528.948303,381.435455 539.089172,381.751617 
	C540.685181,381.801422 543.172424,383.289520 543.460693,380.292480 
	C543.742004,377.367645 541.137817,377.610474 539.212952,377.393982 
	C515.056458,374.677124 490.820892,373.781189 466.527222,374.307892 
	C463.933319,374.364136 461.242157,373.968719 457.941620,375.857910 
	C475.012238,378.464996 491.379028,379.420929 508.670624,380.671997 
M718.638977,403.867889 
	C714.046814,398.216583 707.807190,394.931580 701.702820,391.203918 
	C695.959229,404.329407 696.483093,416.949463 708.973694,421.833374 
	C708.593628,418.021729 705.511230,415.315491 704.901367,411.746674 
	C704.286621,408.149353 704.282288,404.462433 707.943787,401.133423 
	C714.515381,407.736908 718.785522,416.051331 725.877686,423.832153 
	C725.022644,415.873505 723.703979,409.596344 718.638977,403.867889 
M643.160950,469.147736 
	C644.960449,470.828583 646.934814,472.177399 649.902710,472.943542 
	C651.133789,461.297516 653.563904,450.432465 663.164673,441.352112 
	C653.111633,441.796631 647.400452,446.580841 642.687317,453.141815 
	C638.957764,458.333588 640.165161,463.451965 643.160950,469.147736 
M796.919250,440.575439 
	C793.175781,436.659912 788.875244,433.642426 783.603088,432.106812 
	C781.824707,431.588806 779.938477,430.623352 778.764343,432.799744 
	C777.673218,434.822418 778.365295,436.809692 780.161011,438.093140 
	C782.135193,439.504211 783.399353,441.365845 784.568970,443.402740 
	C785.672302,445.324097 787.194824,446.948914 789.436523,447.431915 
	C794.214417,448.461334 799.026794,449.331207 805.303528,450.554626 
	C802.038147,446.626953 799.730896,443.851746 796.919250,440.575439 
M643.978821,423.398529 
	C637.788025,426.360840 630.673889,427.854614 627.386963,435.130341 
	C625.298218,439.753906 625.927856,445.146271 629.822205,447.170349 
	C631.370728,443.328888 633.441772,439.783417 636.062988,436.565247 
	C638.718933,433.304413 642.318787,431.068634 645.157593,428.109558 
	C647.901367,425.249573 652.944763,426.006104 655.693787,421.038055 
	C651.161560,421.917114 647.948608,422.540283 643.978821,423.398529 
M506.502289,328.503540 
	C480.152863,322.320801 453.487518,318.148895 426.507111,315.968781 
	C453.749115,321.459625 481.014038,326.804108 508.785431,329.577484 
	C508.237457,329.284271 507.689514,328.991058 506.502289,328.503540 
M684.435181,448.842316 
	C684.111572,449.789673 683.718689,450.741364 685.024536,452.050537 
	C689.843628,448.548889 694.865295,445.040283 701.065552,444.047150 
	C703.441711,443.666534 705.585022,443.033325 705.716980,439.884521 
	C705.805237,437.777313 705.194641,436.411835 703.278198,435.495087 
	C700.874573,434.345276 698.780273,433.791595 696.521057,436.072510 
	C692.549805,440.082001 688.335266,443.850220 684.435181,448.842316 
M510.895325,420.415619 
	C505.686401,421.091431 500.527893,421.978577 495.638092,424.378571 
	C507.337555,421.712708 519.316040,425.147217 532.386353,422.449829 
	C524.727783,420.182312 518.271606,420.281891 510.895325,420.415619 
M813.421570,484.182068 
	C814.644897,485.300537 815.801147,486.506500 817.111450,487.511627 
	C818.304810,488.427094 819.827820,489.340302 821.101685,487.903290 
	C822.279663,486.574493 821.533203,485.000549 820.553711,483.835999 
	C818.690735,481.621094 815.987427,480.887573 813.594543,479.885162 
	C812.047668,481.199127 812.262268,482.406982 813.421570,484.182068 
z"/>
<path fill="#000000" opacity="1.000000" stroke="none" 
	d="
M238.614655,690.584351 
	C254.794098,678.088867 273.046204,670.462524 291.728455,663.682861 
	C295.012634,662.491028 298.232880,661.116882 301.539581,659.994690 
	C318.689850,654.174194 323.612946,640.058228 325.570404,624.168579 
	C326.144653,619.507324 327.745056,614.727783 325.518951,609.903687 
	C324.804474,608.355347 325.926178,606.317505 327.724396,605.966370 
	C333.072601,604.922058 338.189606,603.026306 343.424622,601.439819 
	C346.426483,608.022034 345.441315,614.691345 345.952637,621.033936 
	C347.220978,636.767944 348.653412,652.500671 348.429810,668.356873 
	C348.092773,692.252869 334.081177,704.880005 315.107208,713.602661 
	C313.838806,714.185791 312.529419,714.342529 311.236511,713.757507 
	C293.336060,705.657471 277.650391,712.414612 262.761932,721.657349 
	C249.594803,729.831421 243.178558,742.548645 241.486938,757.800171 
	C241.146408,760.870361 241.876465,763.808228 242.412094,766.704346 
	C246.760254,790.214233 272.155945,817.972534 304.400818,804.678894 
	C310.672760,802.093140 316.414368,798.315796 318.145142,790.642334 
	C319.920227,782.772217 314.907074,775.612915 306.884766,775.385254 
	C303.753265,775.296265 300.617096,775.370667 297.493134,775.370667 
	C298.561310,769.423828 303.573578,766.182068 310.258759,767.064453 
	C330.114868,769.685425 336.130676,793.253113 326.147003,807.478943 
	C318.597321,818.236633 307.042328,822.734497 294.929871,825.734619 
	C253.435120,836.012817 216.790680,811.034485 208.430466,774.221802 
	C201.610977,744.193420 209.009171,717.438477 232.371674,696.124756 
	C234.340408,694.328735 236.352997,692.580811 238.614655,690.584351 
z"/>
</svg>