<svg version="1.1" id="Layer_1" xmlns="http://www.w3.org/2000/svg" xmlns:xlink="http://www.w3.org/1999/xlink" x="0px" y="0px"
	 width="100%" viewBox="0 0 1024 1024" enable-background="new 0 0 1024 1024" xml:space="preserve">
<path fill="#000000" opacity="1.000000" stroke="none" 
	d="
M440.701721,774.019897 
	C439.875977,755.266602 440.081055,736.913818 435.723541,718.977905 
	C433.064606,708.033630 428.697784,697.745728 422.628265,688.330078 
	C410.645081,669.740417 386.564850,671.009644 376.516266,690.618164 
	C373.222260,697.045898 371.625427,703.871887 371.189270,711.207275 
	C369.724030,735.851013 370.442047,760.508911 370.082977,785.157593 
	C370.039459,788.143250 369.662109,791.132812 369.298676,794.103333 
	C368.498535,800.642395 363.863770,804.514404 357.290283,804.243286 
	C351.031494,803.985107 346.822571,799.881165 346.711609,793.272400 
	C346.524139,782.109741 346.510529,770.939331 346.689819,759.776489 
	C347.013702,739.612366 346.345764,719.465698 345.545624,699.332153 
	C345.085297,687.747986 342.155548,676.639771 336.003326,666.608215 
	C332.202515,660.410828 326.412170,656.808594 319.483795,655.513611 
	C310.522858,653.838745 303.586151,660.550171 303.374420,670.737671 
	C303.135559,682.232117 303.124329,693.731140 302.950500,705.227234 
	C302.915344,707.551575 302.568665,709.869873 302.413544,712.194214 
	C302.137054,716.335815 300.120941,718.665710 295.804382,718.683960 
	C291.194336,718.703430 289.061066,715.945496 288.888092,711.805786 
	C288.644958,705.985901 288.888367,700.146484 288.892303,694.315430 
	C288.896362,688.319214 289.022552,682.317139 288.803528,676.328308 
	C288.550934,669.422913 284.965179,667.459595 279.394196,671.675720 
	C269.178009,679.407288 263.918488,690.276001 262.364532,702.772766 
	C260.116180,720.853821 261.774017,739.053650 261.354828,757.196045 
	C261.246887,761.867554 261.106598,766.519043 260.220795,771.106201 
	C259.267700,776.041687 256.387848,778.229004 250.977676,778.347656 
	C244.421860,778.491455 240.953354,776.421326 239.792862,771.472229 
	C238.914825,767.727539 238.803513,763.893677 238.750381,760.052124 
	C238.418701,736.066956 238.589401,712.066895 240.891083,688.196960 
	C242.252579,674.077393 248.361710,661.361694 256.220764,649.566589 
	C259.915344,644.021667 263.447418,638.366333 267.229309,632.882507 
	C269.271027,629.921997 268.357849,628.168152 265.321442,627.289429 
	C251.693069,623.345093 238.986633,616.953735 225.580124,612.431885 
	C222.544952,611.408264 219.398209,611.244507 216.210953,611.296326 
	C209.252426,611.409485 205.914261,613.922791 204.256668,620.880554 
	C202.262085,629.252747 203.614471,637.808350 203.170090,646.271057 
	C202.926132,650.916748 203.246780,655.568237 202.412628,660.212158 
	C201.644577,664.488098 199.009857,666.231506 195.105118,666.185242 
	C191.243790,666.139465 189.090408,663.937622 188.580215,660.005554 
	C187.180115,649.214844 188.016953,638.374634 187.753235,627.560181 
	C187.511642,617.651733 180.638611,612.883911 171.280975,616.390808 
	C166.991104,617.998535 163.310410,620.568787 160.523438,624.254395 
	C150.229980,637.866577 143.798706,652.884521 143.323776,670.227478 
	C142.745026,691.360962 141.948746,712.488770 141.156311,733.615723 
	C140.869476,741.263550 140.476776,748.915222 139.809555,756.536865 
	C139.576080,759.203796 139.272064,763.035583 135.508530,762.784363 
	C131.750366,762.533447 130.739517,759.119812 130.680862,755.690430 
	C130.162704,725.391968 130.422623,695.106506 131.480713,664.815491 
	C131.960205,651.088867 132.594894,637.346680 137.919876,624.641602 
	C149.956177,595.923828 170.612213,577.642944 202.634232,574.712830 
	C223.813690,572.774780 238.092117,559.889282 242.587097,537.399353 
	C246.388290,518.380615 241.392487,502.528625 225.124573,490.911011 
	C214.694855,483.462616 203.632385,476.879211 194.126083,468.159851 
	C168.083008,444.272614 153.021286,415.099731 150.535965,379.537476 
	C148.661346,352.713898 154.265778,328.269775 171.830307,307.332703 
	C180.670853,296.794678 191.967545,289.487274 204.402496,283.851868 
	C205.143127,283.516205 205.979431,283.361938 206.788391,283.223541 
	C207.055145,283.177917 207.376038,283.448700 207.720230,283.595276 
	C207.904678,285.756531 206.076706,286.735779 204.973297,288.075897 
	C193.564972,301.931641 185.195801,317.333099 181.869080,335.086548 
	C172.807709,383.443726 213.694107,430.190002 266.131378,420.681122 
	C268.415497,420.266907 269.649414,419.062469 270.465363,417.083954 
	C284.284851,383.574066 307.161621,356.644989 332.576996,331.550232 
	C340.769989,323.460602 349.354858,315.816498 358.474792,308.799988 
	C361.053833,306.815796 361.659607,305.148956 359.870575,302.227966 
	C349.425507,285.173828 346.232941,266.322327 346.726990,246.685608 
	C347.399078,219.972549 357.568115,197.947464 379.347534,181.798218 
	C386.589630,176.428284 394.361908,171.901443 402.094299,167.297424 
	C414.421448,159.957611 425.048676,151.116760 428.148041,136.072006 
	C428.965271,132.105103 429.544708,128.089218 430.399780,123.130600 
	C434.102570,128.281342 434.635284,133.445068 435.133942,138.390427 
	C436.177917,148.744507 434.421967,158.713348 428.727234,167.603790 
	C422.438629,177.421310 416.116302,187.236725 409.343109,196.720581 
	C391.272064,222.023819 401.123169,261.046417 428.802155,278.346466 
	C430.403839,279.347534 431.976013,280.068024 433.948608,279.246857 
	C446.126617,274.177521 459.206909,273.417725 472.032867,271.921814 
	C487.726959,270.091400 503.561859,269.302521 519.386047,269.800781 
	C544.531433,270.592651 569.521240,272.739624 593.907776,279.498840 
	C598.418457,280.749023 602.757996,282.385345 607.058350,284.203766 
	C613.688904,287.007507 619.918335,285.165100 624.177368,279.303741 
	C632.531494,267.806580 632.727112,254.707703 624.776428,242.994492 
	C620.411621,236.564072 614.770508,231.424255 608.642151,226.757446 
	C605.328125,224.233765 601.999207,221.729294 598.706726,219.177811 
	C578.652649,203.636932 571.712097,182.935516 578.229919,158.450104 
	C583.228577,139.671997 594.900085,125.766899 610.119263,114.414429 
	C610.646912,114.020866 611.250854,113.711853 611.856201,113.448265 
	C612.122986,113.332085 612.482422,113.428673 613.042175,113.428673 
	C613.527161,115.836792 611.843140,117.504799 610.940674,119.317764 
	C605.723328,129.799454 601.763489,140.572357 599.985596,152.299133 
	C597.270325,170.208557 607.841858,186.350403 621.547119,193.182861 
	C629.185303,196.990707 637.302856,199.503616 645.183594,202.649780 
	C661.723938,209.252991 676.067749,218.808807 684.603577,234.858658 
	C697.611511,259.317474 696.157043,284.212708 684.528870,308.707031 
	C682.212341,313.586761 682.628967,316.315674 686.612061,319.730347 
	C710.285706,340.025513 731.126282,362.812286 746.971313,389.861145 
	C748.053650,391.708771 749.335449,393.188446 751.465515,393.449493 
	C772.957153,396.083221 793.441406,393.960083 811.034058,379.818787 
	C824.443359,369.040070 831.367737,354.546722 833.633362,337.756927 
	C835.545593,323.585266 833.030396,310.262909 824.921814,298.234711 
	C824.552124,297.686340 824.228088,297.096375 823.969482,296.488892 
	C823.852905,296.214905 823.949707,295.850128 823.949707,295.192505 
	C826.284790,294.664429 828.020020,296.108398 829.690491,297.248535 
	C849.489319,310.761719 860.019165,329.800049 861.200012,353.464630 
	C862.839417,386.317291 846.472107,411.032654 823.250549,432.024231 
	C816.727905,437.920532 809.272461,442.792847 802.187317,448.057343 
	C783.906860,461.640228 780.825500,485.375610 789.849548,501.630615 
	C794.899597,510.727173 801.994141,517.313232 813.456604,515.908081 
	C834.445129,513.335327 851.338806,522.029541 867.001526,534.659790 
	C888.494934,551.992065 900.446716,574.036804 902.596802,601.823181 
	C903.871643,618.298462 904.551086,634.744202 904.260559,651.219849 
	C904.034607,664.038330 906.238831,676.838074 904.399292,689.650085 
	C904.304810,690.308350 904.409668,691.016968 904.211670,691.634766 
	C903.304932,694.463928 902.684021,698.088257 898.980164,698.000244 
	C895.549622,697.918701 895.592285,694.202942 895.081970,691.806274 
	C894.290100,688.086731 893.846252,684.223511 893.833984,680.419250 
	C893.769531,660.426941 892.559387,640.477234 891.484009,620.532654 
	C890.948669,610.604431 890.112610,600.630920 887.858643,590.858521 
	C886.286316,584.041870 882.905884,578.181458 878.833130,572.649719 
	C877.322510,570.598083 875.223389,569.219360 872.887207,568.212952 
	C866.343384,565.393921 862.231018,567.320374 860.426453,574.234009 
	C858.332275,582.257385 859.695801,590.487183 859.169861,598.607666 
	C858.922607,602.425659 858.819519,606.260376 858.384827,610.057007 
	C857.881958,614.449219 855.097900,616.497864 850.796753,616.220398 
	C846.552490,615.946655 844.858398,613.303589 844.577881,609.217346 
	C844.109253,602.391052 844.190857,595.582520 844.619934,588.766479 
	C844.925049,583.918457 844.475342,579.118408 843.642944,574.350098 
	C842.876709,569.960632 840.570740,566.696167 836.470032,564.788513 
	C828.439087,561.052307 820.221069,560.024048 811.771545,563.228638 
	C801.966553,566.947388 793.210632,572.294434 786.437744,580.438232 
	C782.017761,585.753052 782.097778,586.693542 786.742798,591.781677 
	C798.736572,604.919373 809.355530,618.888367 814.849182,636.163025 
	C819.175415,649.766846 820.724121,663.798584 821.146362,677.934143 
	C821.443909,687.896484 822.114868,697.920593 820.477905,707.861572 
	C818.995300,716.865295 816.658569,718.847046 808.113525,718.363159 
	C802.323242,718.035339 799.046936,713.982117 798.706604,706.432007 
	C798.346741,698.448914 798.091858,690.460266 797.879150,682.471619 
	C797.502563,668.333374 795.847717,654.615906 787.033386,642.723145 
	C782.519897,636.633301 777.360291,631.199463 771.391724,626.662964 
	C759.482117,617.610779 746.382202,623.051819 744.095215,637.930847 
	C742.391174,649.017212 743.686035,660.219910 743.320923,671.363586 
	C743.089844,678.417480 738.967102,681.642212 733.056885,679.375549 
	C728.960388,677.804504 728.787720,674.127075 728.741150,670.648010 
	C728.616089,661.317078 728.711304,651.983215 728.709351,642.650513 
	C728.708862,640.484192 728.753235,638.312988 728.628845,636.152588 
	C728.437805,632.836060 727.318787,629.832764 724.288269,628.173950 
	C721.066040,626.410461 718.652405,629.028503 716.053955,630.290649 
	C715.335510,630.639587 714.711304,631.298706 714.199341,631.939697 
	C700.684448,648.863159 691.685608,667.811035 690.376953,689.620911 
	C687.311707,740.705017 688.277710,791.866943 688.041382,843.004211 
	C688.023010,846.985840 687.719543,850.992798 687.189087,854.939636 
	C686.200073,862.298950 680.319763,867.146667 672.561829,867.308838 
	C665.222900,867.462280 658.954590,862.424438 657.834717,855.054138 
	C657.212952,850.961792 656.696716,846.843384 656.708191,842.644592 
	C656.771484,819.479919 657.330750,796.289307 656.440247,773.156860 
	C655.530334,749.520447 656.817627,725.817444 654.523926,702.258179 
	C653.341980,690.117798 650.976624,677.996216 640.710999,669.559753 
	C628.551514,659.566956 611.810791,661.539429 602.309387,674.256165 
	C595.072693,683.941650 591.212891,695.040527 590.297119,707.108093 
	C588.365356,732.566284 589.729919,758.071411 589.257324,783.550598 
	C589.211121,786.041016 589.221008,788.571594 588.784851,791.008301 
	C587.581665,797.730591 583.756348,800.686462 577.365723,800.133545 
	C570.714478,799.558105 567.716431,796.353333 567.656555,789.265198 
	C567.482056,768.619568 567.653992,747.968140 567.222229,727.328796 
	C566.969421,715.247559 566.948792,703.127747 560.954285,691.828857 
	C553.542236,677.857971 542.679810,672.384827 527.545227,676.992615 
	C511.351105,681.922913 500.340729,693.347778 492.134949,707.613464 
	C484.613037,720.690308 481.110901,735.001404 480.282104,750.014038 
	C478.610229,780.298157 479.165802,810.628601 478.370789,840.931274 
	C478.052582,853.058472 471.531830,860.187622 460.286133,860.320007 
	C454.251953,860.390991 449.727478,857.852051 446.602692,852.711365 
	C444.211517,848.777527 442.956512,844.448303 442.749695,839.929504 
	C442.262512,829.284607 442.017181,818.628601 441.692596,807.976501 
	C441.352722,796.822754 441.034515,785.668396 440.701721,774.019897 
M541.925171,579.394470 
	C535.995850,581.124023 531.741028,584.685547 529.153870,590.403320 
	C527.929138,593.109985 526.227112,595.649170 524.447266,598.045898 
	C520.727417,603.055054 515.927917,603.246399 511.965057,598.497681 
	C508.658813,594.535889 505.491486,590.440918 502.514893,586.226746 
	C500.062469,582.754639 496.824097,580.857971 492.816864,579.723755 
	C485.099854,577.539490 477.125763,576.880127 469.282654,575.458923 
	C466.106262,574.883362 463.372131,576.085815 461.166443,578.404907 
	C457.494263,582.265991 453.734741,586.052856 450.224304,590.057068 
	C443.479614,597.750305 437.776825,597.266541 432.915222,588.146790 
	C430.889801,584.347412 429.535278,580.192261 427.845154,576.211853 
	C425.131287,569.820557 419.862061,567.161865 413.344116,566.366333 
	C406.896790,565.579468 402.543060,568.282532 399.680420,574.081299 
	C398.219635,577.040405 396.226898,579.783813 394.180786,582.394531 
	C391.876282,585.334900 389.108734,587.961182 384.894012,586.957336 
	C380.633606,585.942627 378.794586,582.580322 377.875275,578.657471 
	C377.041473,575.099792 376.325256,571.511292 375.666748,567.916321 
	C373.970520,558.655823 369.023590,551.969604 360.029236,548.837769 
	C350.449158,545.501953 340.728302,542.572571 331.106293,539.354004 
	C327.235321,538.059082 325.933075,539.260498 326.270874,543.254639 
	C327.279053,555.175964 330.452087,566.347473 336.217712,576.923950 
	C339.137695,582.280396 342.963043,584.674500 348.914948,584.737549 
	C359.666107,584.851257 364.418884,588.812988 367.356598,599.355530 
	C369.244751,606.131470 371.646851,612.693298 376.607880,617.944214 
	C382.327881,623.998474 386.709137,624.226196 392.927124,618.583130 
	C395.633179,616.127319 397.918915,613.213623 400.568085,610.688904 
	C407.350433,604.225159 411.922577,604.963196 415.962769,613.313538 
	C418.132446,617.797852 419.591736,622.630798 421.829712,627.075867 
	C424.993164,633.358948 430.242493,636.667053 437.416046,637.022217 
	C444.271484,637.361694 448.778534,634.141663 451.919189,628.380554 
	C452.953796,626.482727 454.100983,624.633850 455.336975,622.860413 
	C460.615021,615.287659 467.326019,615.605713 471.493225,623.696472 
	C473.012634,626.646423 474.110565,629.811462 475.446777,632.858154 
	C478.219666,639.180664 482.529358,642.340637 489.959869,642.907654 
	C501.117493,643.759094 508.770447,640.443542 512.465576,629.545471 
	C512.622681,629.082153 512.953979,628.675964 513.216064,628.250488 
	C517.922302,620.611267 524.362671,620.538574 529.206909,628.128296 
	C531.261353,631.347046 532.780579,634.894043 535.534485,637.673523 
	C544.439819,646.661316 561.044556,643.343201 565.797241,631.646301 
	C567.172852,628.260803 568.555298,624.814941 570.462280,621.721985 
	C574.247314,615.583008 580.377136,615.016663 585.605591,619.982422 
	C588.425476,622.660522 590.458923,625.889282 592.214294,629.312073 
	C598.063171,640.716736 608.409058,637.591003 613.465942,629.800598 
	C616.885437,624.532776 618.545044,618.626404 620.766174,612.896667 
	C623.803406,605.061523 628.896973,603.644531 635.510132,608.856567 
	C638.503235,611.215576 641.237000,613.948792 643.845581,616.739258 
	C646.962830,620.073792 649.912292,619.543030 652.928467,616.826721 
	C657.999634,612.259766 661.292664,606.523804 663.598877,600.181702 
	C666.925476,591.033264 673.221741,585.713806 683.042786,584.607727 
	C689.285339,583.904846 693.976196,581.331177 697.233704,575.240417 
	C702.922363,564.603943 705.788757,553.288452 707.550781,541.569153 
	C708.335205,536.352234 706.717285,535.173462 701.628357,537.221558 
	C691.744812,541.199219 682.049316,545.672119 672.055420,549.338867 
	C663.639465,552.426697 659.242615,558.319641 657.261536,566.679932 
	C656.229614,571.034851 655.858765,575.589355 653.843811,579.673157 
	C650.928101,585.582275 646.034790,586.442139 641.506042,581.684509 
	C638.757324,578.796997 636.431091,575.511780 633.834839,572.473877 
	C624.765015,561.861206 607.291687,565.104492 602.596252,578.276428 
	C601.031799,582.665039 599.790710,587.206726 597.114563,591.087952 
	C593.293030,596.630371 587.139648,596.791626 582.983643,591.527771 
	C580.713257,588.652161 578.499084,585.728821 576.349548,582.761780 
	C571.808716,576.493958 565.877136,573.820801 558.160278,575.423706 
	C552.954346,576.505005 547.644287,577.139893 541.925171,579.394470 
M689.013855,452.393219 
	C686.252136,443.048645 681.851501,434.493042 676.432861,426.441864 
	C668.817261,415.126556 668.798340,415.139313 677.581909,404.540344 
	C680.794067,400.664276 680.256409,398.916351 675.409241,397.827942 
	C674.133057,397.541382 672.763733,397.456085 671.457275,397.552307 
	C661.552002,398.281738 653.369934,402.343201 646.576538,409.710144 
	C636.310974,420.842346 625.814880,431.766266 615.259644,442.626068 
	C602.266113,455.994629 589.092102,469.187622 576.034668,482.494415 
	C570.294922,488.343781 570.305908,488.409973 575.223755,495.123993 
	C580.562439,502.412445 586.702759,508.976379 593.776367,514.593262 
	C608.150696,526.007385 624.440063,530.379150 642.466614,526.582703 
	C677.980713,519.103333 698.992310,483.591888 689.013855,452.393219 
M337.482788,473.026855 
	C337.758270,474.496521 338.091736,475.958038 338.300812,477.437073 
	C343.176514,511.930359 380.667877,535.590332 413.817993,525.114136 
	C431.864258,519.411133 444.630280,507.187775 455.153076,492.058533 
	C457.431061,488.783295 455.626373,486.839569 453.605042,484.760590 
	C428.637756,459.080688 403.724731,433.347473 378.640930,407.781830 
	C371.732269,400.740356 362.849823,398.172455 353.114258,398.427399 
	C351.119324,398.479614 348.804932,398.538849 347.836060,400.552246 
	C346.803192,402.698517 349.164154,403.650238 350.220642,405.010864 
	C351.036530,406.061615 351.979706,407.012390 352.832336,408.035858 
	C360.650818,417.421631 360.606689,417.393677 353.509613,427.398376 
	C343.995544,440.810364 337.090729,455.186432 337.482788,473.026855 
z"/>
<path fill="#000000" opacity="1.000000" stroke="none" 
	d="
M618.575073,496.813354 
	C608.255615,494.434662 601.921082,487.111267 601.956055,477.971558 
	C601.988708,469.431305 607.969116,461.696259 616.305969,459.745758 
	C624.484131,457.832367 631.670593,459.945648 636.817017,466.589844 
	C641.739197,472.944550 641.958862,480.206543 638.211426,487.255432 
	C634.158142,494.879547 627.330261,497.549164 618.575073,496.813354 
z"/>
<path fill="#000000" opacity="1.000000" stroke="none" 
	d="
M424.957794,483.548492 
	C421.087189,493.280548 412.429199,498.580048 403.751770,496.822357 
	C393.159271,494.676727 387.336578,487.409027 387.633606,476.703979 
	C387.904938,466.923645 397.353821,458.499725 407.477051,459.012909 
	C418.352509,459.564178 426.847443,468.955231 425.745514,479.238495 
	C425.604126,480.557861 425.313904,481.861328 424.957794,483.548492 
z"/>
</svg>