<svg version="1.1" id="Layer_1" xmlns="http://www.w3.org/2000/svg" xmlns:xlink="http://www.w3.org/1999/xlink" x="0px" y="0px"
	 width="100%" viewBox="0 0 1024 1024" enable-background="new 0 0 1024 1024" xml:space="preserve">
<path fill="#000000" opacity="1.000000" stroke="none" 
	d="
M502.723145,176.808502 
	C501.717133,183.138687 502.578949,188.839676 504.937958,194.296738 
	C507.032349,199.141754 511.134644,201.479813 515.590942,200.564713 
	C519.823425,199.695572 523.554199,195.049576 523.686646,190.477066 
	C523.826172,185.661041 523.262268,180.801575 524.616882,176.060379 
	C524.844299,175.264297 524.919678,174.418228 527.014526,173.689774 
	C526.758118,182.238968 531.020142,191.066696 526.625854,198.428543 
	C520.322571,208.988571 522.225037,219.091812 524.718384,229.607376 
	C525.772827,234.054489 525.751831,238.800110 528.064453,243.419342 
	C531.001038,241.196320 531.904480,238.423553 531.602783,235.400238 
	C530.471375,224.059814 536.447021,215.663284 542.983215,207.526535 
	C545.769653,204.057739 550.114746,203.892014 554.000671,203.808014 
	C562.429504,203.625824 570.861389,202.982788 579.188416,205.874603 
	C585.385742,208.026825 591.706848,206.364532 597.592041,203.639481 
	C601.664795,201.753662 603.964844,198.553757 604.710205,194.057861 
	C605.415100,189.805908 605.874634,185.476059 607.503601,181.422577 
	C608.225159,179.627075 608.630310,177.475845 611.618164,177.578796 
	C613.073608,181.230682 612.465515,185.078751 612.164368,188.751129 
	C611.744812,193.868515 610.537781,198.916092 609.890625,204.021790 
	C609.398926,207.900711 607.157227,209.881332 603.613220,210.842407 
	C598.672058,212.182358 593.744507,213.572739 588.456909,215.039825 
	C589.972900,219.756210 593.961365,222.514923 596.597595,226.416733 
	C593.702209,230.196655 590.423950,229.936172 586.950562,227.829208 
	C581.683960,224.634384 576.442200,221.396698 571.241699,218.095474 
	C564.935669,214.092468 558.402771,215.158325 552.048157,217.538361 
	C547.837952,219.115219 544.996094,222.284744 544.076233,227.049362 
	C542.941650,232.926193 541.888855,238.883713 539.997803,244.537872 
	C533.322937,264.495758 525.271667,283.733032 509.779449,298.852722 
	C504.917664,303.597626 500.523621,308.818390 495.830658,313.740417 
	C487.058380,322.940735 484.995819,334.017578 486.575958,346.154236 
	C487.274170,351.517151 486.266541,357.080658 489.586914,362.098755 
	C493.425385,367.900024 499.983704,369.336853 505.343109,364.998291 
	C509.616730,361.538696 511.090149,361.937439 512.447937,367.101868 
	C513.584656,371.425507 515.505493,375.047363 519.372498,377.680084 
	C524.668640,381.285767 526.618958,386.575104 527.531006,392.937744 
	C528.887207,402.399323 529.853271,412.129700 535.570312,420.437469 
	C540.618835,427.773712 547.062195,428.968628 553.541321,422.769257 
	C568.313660,408.634552 572.365173,392.095978 560.385010,373.962952 
	C553.383240,363.365173 546.271484,352.896881 544.471497,339.898224 
	C544.292419,338.605133 543.640320,337.331146 544.809692,335.611420 
	C550.238525,336.650757 552.162170,343.733795 558.512451,344.065002 
	C561.137939,339.304840 561.030334,333.485840 563.558655,328.706482 
	C568.047058,320.221985 566.191101,313.243378 560.348206,305.980652 
	C554.263916,298.417969 552.892700,289.573700 556.580872,280.106598 
	C559.780212,271.894379 562.039490,263.314392 566.071777,255.425888 
	C566.769958,254.060013 566.955872,252.129593 569.368164,251.613556 
	C571.038147,254.509995 569.642273,257.505829 569.126221,260.181061 
	C567.553467,268.332794 566.401001,276.627808 563.342285,284.410278 
	C562.053772,287.688721 562.363098,290.592926 564.101440,293.446594 
	C566.352539,297.142059 568.381653,301.039001 571.089661,304.375763 
	C576.210205,310.685028 577.098694,317.429810 574.694641,324.985596 
	C573.471069,328.830963 572.678833,332.813568 571.674561,336.801910 
	C573.933289,337.110779 574.597046,335.947327 575.091797,335.011383 
	C580.969849,323.890778 591.697632,321.508789 602.686218,319.602844 
	C606.784302,318.892059 610.951843,318.518494 615.002625,317.611328 
	C623.069397,315.804871 628.037170,309.565948 628.677124,301.271454 
	C629.477783,290.892548 629.158325,280.661438 625.507812,270.762848 
	C623.063721,264.135712 623.917236,256.914948 621.729492,250.211594 
	C620.795593,247.350174 622.658447,245.578949 625.486511,244.425369 
	C628.304199,248.225677 627.818665,253.078003 630.434509,257.971069 
	C636.571289,246.602493 645.679382,249.296371 656.124207,251.808151 
	C652.190979,254.586472 648.915466,254.243652 645.720337,254.206223 
	C637.768311,254.113052 632.745361,261.350494 634.904724,268.893372 
	C638.580383,281.733368 641.076721,294.775238 638.534973,308.237305 
	C638.388245,309.014343 638.515991,309.843170 638.515991,310.519867 
	C640.098145,311.588013 640.895813,310.539062 641.660828,309.730133 
	C644.096680,307.154388 646.186829,304.216644 647.061279,300.828186 
	C649.159668,292.697479 654.900940,288.317108 662.146973,285.414581 
	C667.086243,283.436035 672.096008,281.607086 677.155151,279.959717 
	C689.257385,276.018890 698.620483,263.314423 698.651245,250.547989 
	C698.659241,247.214752 698.729187,243.879333 698.633850,240.548813 
	C698.521423,236.618973 700.096802,233.454361 702.720520,230.686447 
	C707.552246,225.589157 719.933472,221.902267 725.099670,224.232697 
	C723.577515,226.019089 721.441833,226.492706 719.520020,227.169617 
	C716.657166,228.177979 713.970703,229.473282 711.592773,231.327240 
	C707.426392,234.575638 704.750610,238.311981 706.164612,244.167618 
	C707.233459,248.594040 707.425232,253.232285 708.028809,257.943512 
	C718.485596,254.136597 728.331787,250.551956 738.536377,246.836868 
	C739.149536,250.670609 737.065308,251.862411 735.102112,252.951782 
	C728.261353,256.747681 721.244690,260.241760 714.529175,264.243774 
	C708.347595,267.927551 703.224182,272.948792 698.442078,278.732269 
	C704.992798,281.481293 711.980225,280.946503 718.553833,282.534973 
	C723.290466,283.679626 727.491455,285.099060 731.494080,288.317139 
	C737.438293,293.096100 744.462158,293.433960 748.711243,285.604919 
	C751.084045,281.232971 754.047119,277.166321 756.926025,273.090515 
	C758.309265,271.132263 759.602905,268.807312 763.549927,268.548462 
	C761.760254,277.117126 756.474304,283.734222 753.549683,291.166534 
	C753.760864,291.611084 753.819824,292.042603 754.053284,292.182251 
	C761.739502,296.778870 761.846252,297.397522 753.916321,301.613922 
	C750.895996,303.219849 751.838379,305.716797 751.496521,307.735138 
	C749.829834,308.757233 749.014038,307.619263 748.153687,306.972473 
	C743.967651,303.825470 740.181152,300.288055 734.479858,299.521179 
	C731.969421,299.183502 729.268921,297.001373 727.519043,294.927368 
	C723.569397,290.246124 718.551880,289.858795 712.946472,288.941742 
	C699.450500,286.733734 687.299561,291.107422 674.871521,294.668121 
	C671.555786,295.618073 668.825867,297.489471 666.713135,300.173279 
	C660.143372,308.518829 656.618591,318.900574 648.450684,326.138672 
	C651.116272,328.909546 653.939026,329.367920 656.727600,329.525085 
	C661.047607,329.768524 665.389709,329.601562 669.714172,329.793640 
	C674.071838,329.987183 677.998657,329.297760 680.919739,325.661591 
	C681.318176,325.165619 681.976868,324.863342 682.545776,324.522552 
	C684.296326,323.473907 685.695007,323.746796 686.663330,325.645508 
	C687.570923,327.425232 687.247681,328.585175 685.425049,329.747833 
	C680.168152,333.101013 674.706238,335.688049 668.358154,336.105743 
	C664.048035,336.389374 659.751282,337.216370 655.450989,337.199463 
	C652.175720,337.186615 650.636536,338.537720 649.587891,341.373779 
	C648.534546,344.222351 648.008118,347.485016 644.640930,349.475555 
	C642.476868,345.278564 644.435547,341.426422 645.081482,337.762665 
	C645.689880,334.312042 644.809143,333.459991 641.545471,333.055939 
	C632.790466,331.972015 624.318909,332.677032 615.987366,335.633698 
	C611.523132,337.217957 606.756165,336.720367 602.122925,337.130951 
	C593.923157,337.857544 587.355103,343.508667 585.554810,351.431641 
	C585.028687,353.746857 584.817139,356.137939 585.840698,358.311920 
	C590.897644,369.052460 594.003418,380.366486 595.793762,392.554596 
	C597.201111,389.043854 597.097656,387.958496 596.818604,383.784637 
	C596.620972,380.829010 594.074402,378.405212 595.058655,374.675110 
	C602.952087,377.039948 606.782532,382.984253 609.088501,389.804779 
	C612.361206,399.484955 609.275208,408.525604 604.816223,417.147034 
	C601.813782,422.952271 597.862488,428.109100 593.395020,432.871918 
	C587.015259,439.673492 580.590271,446.433441 574.275696,453.295105 
	C567.545471,460.608521 558.319214,462.748016 549.346191,465.041901 
	C531.014282,469.728302 517.609619,480.747620 507.718903,496.391083 
	C501.994446,505.445190 503.876434,514.620239 508.570038,523.442017 
	C512.827881,531.444702 520.185608,533.878479 528.686157,534.022949 
	C536.909607,534.162781 544.542480,531.875488 551.614990,527.950623 
	C567.695984,519.026489 581.437256,507.322296 592.449951,492.521729 
	C594.471863,489.804443 596.480286,487.170715 600.406555,488.040680 
	C600.560120,488.350708 600.686462,488.490448 600.692505,488.635162 
	C600.798096,491.173737 597.524780,493.929077 600.112793,496.016174 
	C602.536377,497.970703 605.473938,495.606812 608.138916,494.939270 
	C616.878601,492.750122 621.940979,485.865417 627.153198,479.434601 
	C634.064270,470.907776 640.379456,461.961060 648.022339,453.952576 
	C651.321594,450.495453 654.252258,445.912201 656.529602,441.433899 
	C658.702026,437.161987 661.756348,434.943665 666.128784,433.507477 
	C672.601807,431.381256 679.516296,430.659332 685.632568,427.442474 
	C689.334595,425.495422 692.653198,423.372589 694.374146,419.036713 
	C696.645386,413.314178 699.678833,412.969177 704.007141,417.657013 
	C707.176331,421.089508 709.834595,425.069916 715.138916,425.301392 
	C715.776123,425.329193 716.418335,425.242218 717.596802,425.180023 
	C717.649353,416.388397 716.591309,408.000366 710.639221,401.356171 
	C704.830383,394.871826 700.984436,387.530365 698.075867,379.446289 
	C696.024292,373.744019 691.269409,370.039581 686.641479,366.497955 
	C681.486450,362.552856 676.122681,358.870209 670.738403,355.238403 
	C666.905945,352.653381 663.169006,349.766296 658.009827,350.313812 
	C656.218140,350.503967 654.368896,349.844971 653.413940,347.084961 
	C659.062805,345.104889 664.520508,344.694550 670.008850,347.266479 
	C674.829590,349.525635 678.877747,353.215973 683.991028,354.936554 
	C685.690247,355.508331 687.324036,356.481598 689.511475,356.115143 
	C689.808411,355.490936 690.326599,354.798279 690.461487,354.037659 
	C690.767273,352.313843 690.996521,350.680115 693.336121,350.765045 
	C695.538208,350.844940 696.631531,352.186005 697.117249,354.113953 
	C697.563843,355.886444 697.897583,357.691254 698.199829,359.495453 
	C698.883850,363.579132 701.261230,366.369019 704.854797,368.573700 
	C711.416443,364.669342 714.631104,357.552551 720.242615,352.025635 
	C722.325562,356.500397 720.735352,359.759521 719.490601,362.851471 
	C712.369080,380.541016 712.522278,374.883331 720.759888,392.451538 
	C722.920288,397.059052 725.225525,401.229950 729.424805,404.374298 
	C732.252502,406.491577 733.388184,410.088287 734.918701,413.214417 
	C736.325012,416.086945 737.828674,416.936920 740.654236,414.784668 
	C747.280945,409.736847 753.955444,404.760254 760.175842,399.201111 
	C761.752869,397.791687 762.943176,396.247711 762.915344,394.104645 
	C762.781555,383.792084 763.239197,373.466064 761.936584,363.181152 
	C761.228821,357.593140 757.995972,354.024445 753.730957,350.678223 
	C741.664429,341.210999 729.031494,332.615540 715.923767,324.677368 
	C714.295044,323.691010 712.446899,322.610962 711.969055,320.313812 
	C713.688843,317.926941 715.895691,317.570038 718.519958,318.650360 
	C721.156921,319.735962 723.668518,321.051331 725.808472,322.940948 
	C727.738953,324.645508 730.000671,325.728821 732.399414,326.387665 
	C738.004395,327.927185 739.749084,326.894592 741.982849,321.192383 
	C742.222778,320.579803 742.579712,320.001526 742.957886,319.460052 
	C743.126404,319.218781 743.482239,319.108398 744.073303,318.737915 
	C745.872437,321.743561 746.272095,325.194672 747.335083,328.386871 
	C748.997986,333.380768 751.070496,337.997742 756.117676,340.597473 
	C758.263855,341.702881 759.948181,341.544037 761.333679,339.587708 
	C766.098267,332.860046 772.895813,328.550140 779.869690,324.682129 
	C783.751465,322.529175 785.262573,319.677094 785.694275,315.600372 
	C786.325684,309.639038 786.795898,303.684357 786.851868,297.681732 
	C786.877319,294.951477 787.169250,292.096558 789.092712,289.918030 
	C791.237976,290.218079 791.184143,291.699677 791.255859,292.974792 
	C791.811584,302.857300 790.069946,312.533234 788.559570,322.228546 
	C787.811035,327.033417 785.215088,330.637573 780.898315,332.670563 
	C770.800476,337.426117 769.129456,345.983032 770.407837,355.713501 
	C771.205872,361.788177 773.345825,367.559204 775.542480,373.731720 
	C783.395935,370.933441 791.440735,368.848175 793.829590,360.148743 
	C796.235535,351.387115 802.006836,347.500641 810.261719,345.987183 
	C816.815979,344.785522 822.111877,340.793213 827.870972,337.855988 
	C832.493347,335.498474 834.776306,331.491302 835.714417,326.366486 
	C836.554138,321.779572 836.956360,316.941925 840.414368,313.067963 
	C841.458435,322.066101 842.357788,331.396851 835.981689,338.734222 
	C829.765747,345.887238 822.110596,351.648956 812.455933,353.913574 
	C807.767944,355.013245 804.442627,357.445007 803.106079,362.503693 
	C802.223999,365.842377 800.384949,368.930054 798.956726,372.122223 
	C796.702087,377.161316 793.443542,381.104797 788.039429,383.145294 
	C785.637207,384.052307 783.140869,385.353516 782.500305,388.308807 
	C783.517273,390.178619 785.211853,389.851257 786.523376,389.421722 
	C794.430176,386.832397 802.208008,387.479126 810.095825,389.638947 
	C818.253845,391.872711 826.252625,391.463257 833.752380,387.012238 
	C834.725708,386.434631 835.836304,385.894135 837.058228,386.478455 
	C837.968750,391.370972 834.670715,396.404449 828.786011,398.066681 
	C822.299805,399.898804 815.597168,400.367920 809.110229,398.035797 
	C801.169983,395.181183 794.021729,395.330719 787.251953,401.256378 
	C783.016724,404.963562 777.954590,407.711273 773.398743,411.072754 
	C770.918274,412.902893 768.720154,415.115753 766.414734,417.138428 
	C768.147156,419.272217 769.948792,418.619629 771.523376,418.830902 
	C773.993896,419.162415 776.884827,418.713287 778.877380,419.853546 
	C788.347290,425.272766 797.733765,422.507721 807.321777,420.548859 
	C812.833313,419.422852 818.538452,418.888031 824.168579,418.790924 
	C831.005920,418.672974 835.881836,415.917694 839.474731,410.193207 
	C841.357666,407.193146 842.656921,403.618103 846.061584,401.666046 
	C849.451599,409.464447 848.286499,414.262604 842.159546,418.948822 
	C840.489929,420.225800 837.986938,421.603546 838.693726,423.934906 
	C839.449341,426.427216 842.387634,426.195496 844.638489,426.684540 
	C854.213745,428.765076 863.935547,425.836029 873.511597,427.606964 
	C875.077942,427.896667 876.939331,427.477539 877.837585,429.802277 
	C874.460449,433.068085 869.856018,432.616791 865.785400,433.174835 
	C854.877747,434.670258 844.136047,434.880737 833.213562,431.547455 
	C822.987610,428.426758 812.433594,430.161743 802.352112,433.840149 
	C800.475220,434.524963 798.586182,435.186768 796.673279,435.761108 
	C790.778137,437.531250 789.774170,440.726746 793.741760,445.603516 
	C796.091431,448.491455 799.222351,449.758636 802.977722,449.731903 
	C805.210144,449.716064 807.647400,449.187225 809.604797,451.026306 
	C804.306274,457.069977 796.447754,457.881409 790.466797,453.152618 
	C788.805664,451.839294 788.038025,450.176910 787.829041,448.020111 
	C787.040894,439.885132 781.895447,435.323883 774.674683,432.705322 
	C766.895813,429.884491 759.301514,427.818604 751.532043,433.516541 
	C748.610352,435.659271 744.375488,436.020294 740.729736,437.163391 
	C738.535889,437.851288 736.219604,438.311188 734.483276,441.465057 
	C744.102783,445.631927 747.845703,455.808929 756.185181,461.770050 
	C746.075317,460.116333 738.250793,453.586517 728.295959,451.712036 
	C718.203491,449.811615 708.902222,453.182800 698.797180,452.364594 
	C699.230103,455.545776 701.343384,456.496887 703.057983,457.443054 
	C709.442871,460.966461 712.523010,466.864502 715.518982,473.141632 
	C721.440491,485.548126 732.236816,492.955841 745.466248,484.450897 
	C753.111389,479.535950 760.731140,477.893158 769.607910,479.460358 
	C774.461609,480.317261 779.580933,479.670349 784.580444,479.701202 
	C787.086243,479.716644 789.483765,480.046021 791.455811,481.694763 
	C790.993225,484.643463 788.918518,484.268738 787.192810,484.354523 
	C784.865173,484.470154 782.511841,484.291718 780.206482,484.558411 
	C778.554504,484.749451 776.704773,485.456757 776.623047,487.445068 
	C776.535034,489.587799 778.613586,490.120514 780.140198,490.338196 
	C785.654114,491.124420 791.031128,489.564789 796.471130,489.020203 
	C799.308167,488.736176 802.336609,487.716339 804.785217,490.911285 
	C801.895203,493.426971 798.702576,494.054321 795.419250,494.289398 
	C793.096252,494.455688 790.737305,494.195648 788.426636,494.436096 
	C786.106445,494.677490 782.909058,493.122009 781.735352,496.174194 
	C780.565552,499.216431 782.627075,502.241425 784.935608,503.435516 
	C795.184998,508.736969 803.378235,517.900513 815.509583,519.692200 
	C819.320801,520.255066 823.210693,521.149414 823.477173,526.496216 
	C819.194092,528.736694 815.286499,523.691650 810.833130,525.961243 
	C810.865234,530.430481 816.566284,533.978149 813.600830,539.161560 
	C810.687073,539.700989 809.686584,537.595276 808.720154,535.724304 
	C803.554932,525.724548 795.611389,518.662231 785.673645,513.670593 
	C782.565857,512.109558 780.342529,509.692261 778.944214,506.554077 
	C777.503479,503.320374 775.197510,500.670837 773.314697,497.738708 
	C769.490723,491.783417 763.773499,490.912933 757.561462,491.454163 
	C752.517639,491.893585 751.134399,494.800049 753.372437,499.241760 
	C754.566162,501.610992 755.532715,504.095215 756.586487,506.534210 
	C758.828125,511.722443 760.743347,517.107422 765.975952,520.289673 
	C766.901794,520.852722 767.865967,521.713074 767.786194,523.080994 
	C764.232605,524.432739 759.131714,522.260559 756.055115,517.640259 
	C754.318542,515.032471 752.994812,512.102844 751.813599,509.185181 
	C750.611511,506.216034 748.828735,504.504211 745.217590,504.769714 
	C744.362854,511.933838 750.668091,517.938171 748.810669,525.752258 
	C745.257751,524.227661 744.565002,521.399536 743.830566,518.797241 
	C742.612488,514.481262 741.623352,510.097595 740.640198,505.719452 
	C739.942749,502.613861 737.812988,501.403564 735.081360,500.031830 
	C725.566101,495.253601 718.143188,498.266541 711.463440,505.358124 
	C710.583191,506.292633 709.838379,507.504242 708.261047,507.578522 
	C706.759338,506.534576 707.403809,504.998962 707.965881,504.041107 
	C710.330933,500.010742 708.777710,496.756775 706.363647,493.517242 
	C701.463623,486.941681 696.570068,480.909790 687.718079,478.749847 
	C677.009155,476.136810 673.526550,479.960236 669.197021,486.268036 
	C665.029785,492.339417 662.908020,499.467102 661.461365,506.692688 
	C660.752747,510.231659 661.978516,512.911865 665.666931,514.102722 
	C669.304749,515.277283 672.939087,516.465149 676.551819,517.714172 
	C680.008362,518.909241 683.556580,519.933105 686.848938,521.488647 
	C693.232849,524.504883 695.190002,528.958923 694.637573,536.052307 
	C694.094910,543.020691 693.586609,549.970886 692.386963,556.866394 
	C692.076660,558.650024 692.249084,560.525269 692.269714,562.357605 
	C692.402527,574.174072 700.775940,579.232117 711.547729,573.643799 
	C720.009216,569.254089 728.119507,564.617065 738.306641,565.523499 
	C746.299255,566.234558 752.319031,571.205139 753.287781,579.339783 
	C753.921875,584.664001 756.406738,587.335144 761.854004,587.568848 
	C772.172913,588.011475 782.648865,588.830200 791.544800,581.032959 
	C793.559875,585.024231 791.436401,587.585938 789.263367,589.588501 
	C785.194336,593.338379 784.540527,596.708008 788.630371,600.930786 
	C791.020691,603.398682 790.575562,606.767639 789.895081,609.961792 
	C788.303589,617.431030 786.771545,624.912964 785.211548,632.388916 
	C784.970032,633.546448 784.589783,634.623352 783.346680,635.226929 
	C781.090942,634.088379 780.812012,631.991516 780.684692,629.774902 
	C780.452026,625.724304 781.350342,621.831787 782.345703,617.969604 
	C784.769592,608.564575 778.724060,600.344299 769.122314,597.989380 
	C759.638367,595.663269 755.081726,601.712830 749.126770,607.531494 
	C754.984253,613.710022 762.876709,618.782837 761.419495,629.111450 
	C759.923462,629.987549 758.627502,628.617676 758.192261,627.433838 
	C755.468262,620.025330 748.327209,617.412476 742.842285,613.057678 
	C737.641052,608.928162 737.359497,607.813354 741.672302,602.732910 
	C746.742981,596.759644 746.960693,593.534729 742.650696,588.247070 
	C738.003052,582.545288 732.539673,581.328674 726.386414,584.691711 
	C718.658997,588.915161 710.889954,593.000916 701.146240,593.579285 
	C706.630920,597.240417 712.399719,599.299622 717.247803,603.063354 
	C722.817383,607.387207 724.932251,612.924133 725.272888,619.472778 
	C725.620056,626.145935 724.944763,632.765503 723.685425,639.334717 
	C721.712097,649.629150 723.650879,654.152344 732.935608,658.861328 
	C740.195068,662.543152 745.534729,668.007202 749.873108,674.667908 
	C752.310608,678.410339 752.536377,682.574646 751.872437,687.059509 
	C749.393982,681.160889 745.767151,676.173035 741.568848,671.507385 
	C738.219666,667.785461 734.191528,665.321106 729.575378,663.687805 
	C720.947144,660.634949 717.319153,654.070312 716.497253,645.426270 
	C716.318115,643.541931 717.149353,641.342041 714.788086,639.683167 
	C707.369812,644.911926 702.111572,651.434937 701.148071,660.975586 
	C699.965576,672.683716 698.784119,684.405273 697.050903,696.038818 
	C696.224243,701.587891 692.463074,705.630737 687.614380,708.976501 
	C686.254944,705.783020 687.884216,703.814026 688.979553,701.915588 
	C691.729614,697.149292 692.876526,692.137939 692.708740,686.631348 
	C692.323059,673.967224 692.285706,661.357666 697.459290,649.325073 
	C699.759888,643.974487 702.783325,639.367981 707.355896,635.815247 
	C710.140198,633.651917 711.844543,631.022949 712.052551,627.401001 
	C712.278564,623.466675 711.021667,620.774292 707.106140,619.209106 
	C700.018860,616.376221 692.991089,613.487366 686.435303,609.364868 
	C681.216614,606.083130 676.791199,602.344971 673.477417,597.205139 
	C672.869324,596.262085 672.415710,595.076599 670.266541,594.720703 
	C668.266663,600.275940 664.241333,605.279602 666.253784,612.128906 
	C668.735474,620.575378 670.972900,629.093567 672.542603,637.770447 
	C672.849915,639.469482 674.043091,641.166443 671.609131,643.842346 
	C666.024902,629.698120 658.371338,617.027100 657.885071,601.287903 
	C649.065063,601.553223 640.330261,601.645020 632.794189,596.335632 
	C633.470276,594.687378 634.601685,594.981812 635.500427,595.169678 
	C643.339661,596.808105 650.671387,594.773560 657.968506,592.250671 
	C660.830078,591.261353 662.887512,589.551331 663.981079,586.702209 
	C668.174011,575.778076 669.524841,564.563721 667.746399,552.950684 
	C667.013306,548.163269 664.547180,545.693359 659.737488,544.858704 
	C656.983459,544.380798 655.720886,544.854431 655.081726,547.597351 
	C653.835388,552.945984 652.553162,558.273560 652.341797,563.794800 
	C652.155884,568.651794 650.637207,573.123962 648.351746,578.557373 
	C643.426819,572.693909 643.877747,566.452515 643.882263,559.749756 
	C638.383972,563.206726 635.756409,569.247803 629.057007,570.364319 
	C627.895325,563.828796 633.032959,559.015015 633.217224,552.840637 
	C622.871582,549.465637 612.789978,546.286194 603.020447,554.380371 
	C600.352356,556.591003 597.195007,558.260132 594.128418,559.932556 
	C577.901489,568.782104 569.954712,582.570923 569.065491,600.869080 
	C568.560608,611.257507 570.099060,621.068359 575.107056,630.298340 
	C579.617981,638.612183 585.804138,644.609131 595.410095,646.552368 
	C600.396545,647.561096 601.285828,649.402222 598.778259,653.785706 
	C596.303223,658.112183 593.435303,662.172607 591.703857,666.942627 
	C590.421265,670.476135 590.673584,673.586243 591.955383,677.042358 
	C594.211548,683.125183 598.285950,687.988586 602.044312,693.049744 
	C606.813171,699.471802 608.016418,706.417175 606.922424,714.260315 
	C605.324402,725.716187 606.129272,737.199158 608.693420,748.453552 
	C610.309692,755.547241 614.600342,761.151489 620.756714,765.029236 
	C624.886597,767.630554 627.905212,770.930725 629.590149,775.489258 
	C631.524780,780.723206 635.107666,784.346985 639.959717,787.142273 
	C649.199463,792.465576 658.124207,798.315613 666.634583,804.763367 
	C669.144897,806.665222 672.080505,807.288757 675.057068,807.564514 
	C690.661438,809.010254 705.523193,812.708496 718.964600,821.179199 
	C727.644409,826.649231 736.415771,827.581665 745.795349,822.195251 
	C752.231750,818.499023 758.955139,814.834656 766.930847,815.638428 
	C770.235657,815.971497 773.481384,816.354492 776.050354,819.137329 
	C774.810181,820.781494 773.228333,820.108276 771.877869,820.148315 
	C769.521179,820.218201 767.226501,820.396790 765.177490,821.749817 
	C762.572021,823.470398 761.213928,826.009644 761.603149,828.965698 
	C761.973511,831.778442 764.527588,832.848694 767.018738,833.501343 
	C775.442505,835.708069 784.175781,835.448120 792.729431,836.650269 
	C806.439636,838.577026 818.754822,843.937378 830.170654,852.213257 
	C619.913574,852.213257 409.656525,852.213257 197.899826,852.213257 
	C208.324936,845.201111 218.011887,840.501648 228.990692,838.707642 
	C242.455399,836.507446 255.823639,833.933105 268.792847,829.510681 
	C277.623810,826.499329 286.686432,825.597534 295.730621,828.654846 
	C299.462524,829.916321 302.904022,829.498779 306.380951,828.026306 
	C320.561218,822.020874 335.210876,817.804260 350.608948,816.457275 
	C354.061249,816.155273 355.578308,814.757935 355.914612,810.851135 
	C356.611633,802.753723 358.112976,794.719666 360.938965,787.006775 
	C362.331085,783.207275 364.198700,779.721191 366.814880,776.633301 
	C372.324463,770.130310 380.220062,769.482666 386.634460,775.192627 
	C394.170471,781.900879 397.760040,790.807373 400.139862,800.313171 
	C400.576721,802.058167 400.457336,803.985901 402.135590,805.169128 
	C403.710693,805.345825 404.627228,804.267578 405.661926,803.483704 
	C421.551178,791.446350 438.699158,781.641907 457.262177,774.338379 
	C459.124023,773.605835 461.081635,772.328552 462.985260,772.881348 
	C467.621216,774.227356 469.050507,771.623962 470.378967,767.999512 
	C474.741577,756.096741 481.696808,745.787720 490.244141,736.495483 
	C492.160675,734.411987 493.838104,732.100220 495.825836,730.091797 
	C510.148407,715.620422 505.908997,685.477478 486.874512,674.419006 
	C485.009460,673.335449 483.085876,672.268799 481.061798,671.557495 
	C471.891937,668.334961 467.400024,670.623718 464.370270,679.908142 
	C463.965302,681.149170 463.949524,682.586670 461.950897,683.545471 
	C457.902557,679.243652 456.425812,673.749878 455.699371,668.047241 
	C454.564911,659.141663 456.325836,651.229492 463.788086,645.203735 
	C466.480316,643.029785 468.338531,639.835693 470.991943,637.598877 
	C483.963959,626.663818 481.520111,607.531738 471.558655,596.955444 
	C462.634277,587.480225 451.985901,580.412292 440.877380,573.964111 
	C434.980896,570.541382 428.710297,567.768982 422.663971,564.597473 
	C413.035461,559.546997 402.783203,558.355469 392.124390,559.367615 
	C388.077637,559.751892 384.790161,561.261169 382.585907,564.868347 
	C376.072876,575.526855 369.230347,585.994873 363.042206,596.837280 
	C358.607910,604.606689 352.525909,610.994446 346.937805,617.777710 
	C341.056885,624.916443 340.214264,633.071655 340.602417,641.663635 
	C340.726868,644.418030 342.200348,646.645081 344.265381,648.540833 
	C346.925415,650.982788 349.499481,653.543640 351.007690,657.091125 
	C344.332062,658.131897 333.715546,651.747559 331.786316,645.511536 
	C329.238068,637.274780 328.586304,628.864075 330.821777,620.427673 
	C331.416595,618.183105 331.893494,616.148010 329.648163,614.631958 
	C327.428375,613.133179 325.093292,612.704895 322.609741,614.141418 
	C320.826599,615.172668 319.635620,616.668701 318.450409,618.334900 
	C312.306213,626.972656 308.873474,635.955078 313.227844,646.605652 
	C314.528778,649.787781 314.920624,653.363525 315.555420,656.791138 
	C316.688904,662.911682 319.702057,667.479187 325.458099,670.277893 
	C328.677124,671.843018 330.149719,674.794556 330.344055,678.434387 
	C330.687286,684.862549 332.802216,691.191467 331.337128,697.725220 
	C330.946747,699.466064 330.592865,701.164856 328.910736,702.995483 
	C327.294861,699.782959 326.713379,696.937561 326.737610,694.008789 
	C326.776794,689.270447 325.460358,684.802673 324.339325,680.284302 
	C323.701721,677.714294 322.368378,675.283508 319.922638,674.567078 
	C308.916595,671.343323 307.649292,661.492615 304.896179,652.779907 
	C303.444031,648.184387 302.243927,643.504944 300.438049,639.026489 
	C299.957245,637.834106 299.553375,636.475098 297.833466,635.720642 
	C292.901031,639.066345 289.084595,643.422546 287.322693,649.420288 
	C285.774719,654.689758 283.989929,659.905029 282.750916,665.246521 
	C280.545349,674.754761 286.460205,681.666382 291.007172,688.883484 
	C292.581940,691.383118 294.972015,693.362427 296.942139,695.620911 
	C302.051025,701.477600 303.817474,707.925781 302.709778,715.920959 
	C301.201965,726.804138 302.121826,737.871277 303.532532,748.780640 
	C303.915619,751.743103 305.579559,754.539917 306.854523,757.943665 
	C303.264191,757.440491 302.196320,755.202271 301.190948,753.004150 
	C298.028229,746.089111 295.982452,738.730225 296.831970,731.221985 
	C298.671936,714.960266 295.126495,701.144836 283.208282,689.045410 
	C275.526367,681.246826 271.478851,671.606567 275.437531,659.465515 
	C279.280609,647.679077 280.478424,635.081604 287.646088,624.366699 
	C290.856934,619.566833 294.281860,615.201721 299.252747,612.213745 
	C301.302887,610.981262 303.157898,609.525879 304.100922,607.324707 
	C305.342041,604.427612 305.312958,601.804688 301.776337,600.341309 
	C296.066559,597.978638 290.646912,595.050598 285.469818,591.675476 
	C281.746216,589.247925 278.732330,589.929871 276.980133,594.035156 
	C274.957977,598.773010 273.316406,603.615601 268.640167,606.664001 
	C267.306061,607.533752 266.902374,609.473450 267.158142,611.239929 
	C268.350342,619.473083 265.490112,627.387390 265.230682,635.544495 
	C264.986053,643.237366 254.676941,650.101990 246.967224,649.139465 
	C239.735886,648.236633 232.438431,647.735413 225.154388,647.422791 
	C219.199249,647.167175 214.327820,650.280273 209.583755,653.452942 
	C205.507355,656.179260 201.432175,658.907288 197.319351,661.659363 
	C195.964676,659.471558 197.028152,658.188232 197.911118,657.513123 
	C206.153397,651.210327 213.442566,642.980042 224.571167,641.941528 
	C229.965775,641.438049 235.526001,642.033569 240.950607,642.658203 
	C255.396164,644.321594 260.906372,631.987671 259.556549,620.591431 
	C259.217438,617.728088 257.277069,617.307190 254.898056,617.261292 
	C248.044632,617.129211 241.295456,617.555725 234.669159,619.610901 
	C230.793091,620.813049 227.268433,620.139343 224.527481,615.542053 
	C230.486679,614.678711 235.854935,613.047546 241.130066,613.307373 
	C253.654465,613.923950 259.204163,606.523865 262.830505,596.266541 
	C263.274384,595.011108 263.590759,593.694214 264.171051,592.505920 
	C269.487885,581.619324 267.326996,583.952942 258.230255,579.658447 
	C249.979874,575.763428 242.915070,576.084961 236.091736,582.651550 
	C229.165558,589.317078 219.927505,589.919983 211.616867,587.862854 
	C202.343155,585.567383 193.068130,584.477112 183.692596,583.435120 
	C182.013947,583.248535 182.028198,583.120300 179.999924,581.501587 
	C180.744156,579.000793 182.929031,579.013855 184.846848,578.995667 
	C193.145493,578.916992 201.380630,578.672607 209.706512,580.094482 
	C220.878143,582.002380 231.219513,578.964844 239.915680,571.482239 
	C245.196259,566.938538 245.122177,563.134583 239.909546,558.746338 
	C237.569733,556.776550 235.935913,554.284546 234.016281,551.993347 
	C230.082520,547.298218 225.110733,546.381897 219.866608,549.428040 
	C215.836258,551.769104 211.982574,554.417175 207.928680,556.713989 
	C203.541397,559.199768 201.572403,558.645508 200.742554,553.917908 
	C199.819473,548.659363 197.296997,548.127136 192.744659,549.131592 
	C178.784790,552.211609 168.209961,546.083801 159.212402,536.130676 
	C158.660751,535.520447 158.168747,534.823303 157.805801,534.089050 
	C157.617401,533.707947 157.772629,533.157043 157.772629,532.540039 
	C161.343063,531.698181 163.391525,534.007324 165.513901,536.029419 
	C169.904434,540.212524 174.525604,543.765686 180.795441,544.918701 
	C189.361389,546.493835 192.982376,544.074951 193.802582,535.190063 
	C197.155457,534.591553 199.269745,536.344788 201.196304,538.833008 
	C206.202591,545.298889 217.355484,544.984436 222.037094,538.292236 
	C222.988129,536.932739 222.640060,535.416016 222.310806,533.946472 
	C221.543228,530.520386 220.387054,527.235168 218.883423,524.054199 
	C217.981644,522.146484 216.971085,520.170044 218.003021,517.773071 
	C221.570160,517.771301 222.472885,520.632751 223.371857,522.903625 
	C225.309036,527.796875 228.775391,531.093933 232.925903,534.098450 
	C241.117691,540.028381 249.988800,545.198059 255.452972,554.284302 
	C257.386627,557.499756 261.105072,558.880127 264.392822,560.471069 
	C272.782379,564.530823 281.410889,568.091248 288.896698,573.858948 
	C293.218567,577.188843 298.613434,577.057007 303.749023,577.313293 
	C310.795593,577.664856 317.092682,580.039246 322.822205,583.982483 
	C326.752716,586.687561 330.085175,586.323120 333.530518,583.009277 
	C338.022980,578.688354 342.002136,574.117188 344.295197,568.191772 
	C346.058167,563.636169 349.106628,559.853821 352.246002,556.149353 
	C356.718231,550.872009 356.548157,550.228210 350.721832,546.260803 
	C349.543701,545.458618 347.744629,545.405090 347.259735,543.622009 
	C347.668365,541.973206 349.104248,541.923462 350.367981,541.695984 
	C359.422943,540.066345 367.912384,536.661987 376.593018,533.760986 
	C391.215881,528.874146 405.953583,529.487976 420.667969,534.383972 
	C429.540833,537.336182 438.081909,541.026550 446.740784,544.470215 
	C448.666382,545.236023 450.960602,546.716614 452.799683,544.774841 
	C454.663849,542.806580 453.744873,540.257812 452.678619,538.210449 
	C443.067017,519.755615 436.418854,499.850006 425.232635,482.169403 
	C419.667816,473.373840 411.487640,466.885986 405.110565,458.557098 
	C400.973053,461.248657 398.521301,464.699524 396.433594,468.507172 
	C391.060181,478.307312 386.209198,488.360352 382.633514,498.951538 
	C380.922699,504.018890 377.835297,506.882294 372.550446,506.988159 
	C367.485565,507.089630 362.469696,508.847473 356.476837,507.805450 
	C358.844299,502.978119 362.951996,502.593475 366.592377,501.829468 
	C373.059875,500.472198 374.163452,499.172577 373.796326,492.899353 
	C373.635651,490.153442 372.246796,489.424866 369.903076,488.141510 
	C363.124664,484.429779 354.944763,481.872925 352.908386,472.152161 
	C345.612762,474.967712 341.296783,480.444885 337.614777,486.566803 
	C336.678436,488.123657 335.797455,489.842255 335.441315,491.598145 
	C333.543030,500.956329 327.215973,505.017944 318.407471,506.375214 
	C314.917999,506.912903 311.678345,508.872864 307.299530,508.535706 
	C309.918579,505.087494 313.369934,504.082550 316.420593,502.804993 
	C321.312073,500.756531 324.699646,497.415253 327.215729,492.899933 
	C329.729523,488.388672 332.517578,484.026489 334.936218,479.466827 
	C338.642517,472.479614 344.688782,468.151428 351.487213,464.810516 
	C357.862976,461.677307 361.625061,463.129974 365.055389,469.385559 
	C368.237335,475.188232 372.048248,475.463654 375.997437,469.954529 
	C381.144043,462.775055 384.922699,454.799408 389.088959,447.204620 
	C388.031982,445.137848 386.120209,444.728821 384.575928,443.835999 
	C376.211487,438.999939 369.353302,432.583130 363.900909,424.596008 
	C359.961823,418.825745 357.843719,418.542511 352.043396,422.595581 
	C351.497772,422.976868 351.043365,423.520905 350.457703,423.807800 
	C344.856964,426.551086 340.625244,429.559235 344.957275,436.826935 
	C346.377197,439.208984 344.126587,442.232025 343.324921,444.930481 
	C342.141998,448.912262 339.366821,452.274567 338.973511,456.564606 
	C338.840729,458.012665 337.680267,459.068359 336.347351,459.293304 
	C329.342133,460.475342 322.941589,464.004730 315.434875,464.266418 
	C318.639343,460.352295 322.337524,457.063354 326.721649,454.600616 
	C333.363098,450.869904 337.476715,442.957489 336.637177,435.204224 
	C336.108704,430.323700 331.814911,428.098846 326.982697,430.536682 
	C322.422821,432.837097 318.075653,435.559143 313.248901,438.316254 
	C312.144012,434.266968 314.331207,432.024780 316.428131,430.205109 
	C320.007050,427.099335 319.403290,425.024658 315.790131,422.501831 
	C311.843323,419.746094 308.613617,416.064240 304.526031,413.408295 
	C301.591492,411.501556 298.337677,410.811035 295.059174,410.592896 
	C290.593872,410.295868 288.377167,413.691559 286.239105,416.957031 
	C284.379791,419.796844 285.966431,422.031433 287.485565,424.255402 
	C288.140411,425.214111 288.952728,426.066833 289.709167,426.954346 
	C296.703735,435.160980 293.899811,443.427155 282.838806,446.578888 
	C281.456299,443.490112 283.693970,441.730103 285.291565,439.770172 
	C288.858795,435.393860 288.439331,432.922577 283.342255,427.277740 
	C279.944855,423.515198 277.370483,426.552460 274.695007,428.262085 
	C269.870605,431.344879 267.135529,435.656738 267.282471,441.550018 
	C267.326416,443.313019 266.691040,444.894806 265.431610,446.048523 
	C262.119568,449.082550 258.869873,452.227112 255.276978,454.899689 
	C251.946091,457.377319 248.531982,456.965393 245.340805,453.556519 
	C245.928192,453.127350 246.278229,452.693665 246.711807,452.580811 
	C257.813141,449.690613 261.420471,440.852753 263.695435,431.054108 
	C264.677490,426.824158 268.060852,424.933777 271.202850,422.886261 
	C273.601959,421.322876 275.997925,419.972778 277.305634,417.227448 
	C279.998077,411.575226 279.004303,409.031647 273.581421,405.842499 
	C269.891449,403.672455 266.630280,400.780304 263.131470,398.275116 
	C261.519775,397.121124 259.883698,395.932739 257.846252,395.785095 
	C257.626678,395.891083 257.387024,395.926300 257.339203,396.041260 
	C253.526718,405.211456 246.254715,407.993652 236.924637,407.470581 
	C234.509995,407.335205 231.986221,408.155884 229.593948,408.827423 
	C225.196747,410.061707 223.490173,413.435242 223.847855,417.638794 
	C224.810303,428.948730 208.618622,435.527618 200.508591,433.215851 
	C199.635315,432.966919 199.035797,432.493439 198.964050,430.840729 
	C203.099701,431.115173 207.138428,431.656494 210.928513,428.546234 
	C215.553604,424.750610 217.267197,420.110138 217.394287,414.631195 
	C217.569931,407.060059 222.163605,403.362213 228.558777,401.039734 
	C229.808151,400.585999 231.114502,400.288757 232.362823,399.832489 
	C239.202484,397.332336 240.493317,392.925415 235.863037,387.376465 
	C232.625229,383.496185 231.799820,379.425079 233.701660,374.488617 
	C235.968109,375.851410 235.563370,377.968048 236.260345,379.535278 
	C238.550201,384.684448 244.572601,388.784271 250.046326,388.659058 
	C253.155334,388.587891 253.893295,385.870331 255.437042,384.011993 
	C256.757660,382.422241 257.253448,379.543488 259.841949,379.770172 
	C262.661499,380.017090 262.883179,382.867371 263.713501,385.008179 
	C266.627777,392.521729 278.804810,400.856506 287.584808,400.512024 
	C299.096741,400.060333 308.789185,403.908997 315.954132,412.543365 
	C323.369354,421.479248 338.628845,421.775208 346.310669,412.736633 
	C349.547333,408.928284 354.168335,406.296478 357.984528,403.269073 
	C357.374542,401.544403 356.314636,401.340790 355.396912,401.062256 
	C344.301788,397.694977 337.359131,390.077118 333.547821,379.434601 
	C332.052856,375.260162 330.152344,374.332458 325.468536,375.306335 
	C315.687103,377.340149 305.863953,380.890045 295.564728,377.490051 
	C292.501343,376.478790 289.003662,377.958069 285.542328,376.551239 
	C286.613525,373.316406 288.264832,371.337067 291.717743,372.327179 
	C298.298248,374.214172 304.414612,374.504944 309.855194,369.212555 
	C311.925964,367.198242 314.872589,368.437714 317.515472,368.488068 
	C320.923187,368.552887 326.439697,370.414398 327.018463,366.024353 
	C327.575897,361.796082 321.987213,361.890015 318.809631,362.054565 
	C301.297760,362.961273 289.820862,351.040802 276.706635,342.649780 
	C271.576416,339.367188 266.581573,337.380737 260.414551,339.784546 
	C253.270920,342.569031 246.455429,342.063385 240.318359,336.781006 
	C235.455994,332.595795 229.676758,330.208252 223.536270,328.275024 
	C214.369675,325.389069 207.440430,319.340240 201.923813,310.999207 
	C204.591919,309.854218 206.031036,311.326630 207.457733,312.502655 
	C210.673935,315.153717 213.778137,317.980408 217.561737,319.804382 
	C221.696960,321.797852 225.689362,323.376068 229.803757,319.138092 
	C231.990799,316.885345 234.465561,318.572174 236.067947,320.775055 
	C238.456665,324.058960 241.317703,326.716949 244.835815,328.806305 
	C249.568756,331.617188 254.131287,332.238495 259.564270,330.379761 
	C266.512695,328.002563 273.321167,329.973633 279.795349,333.093750 
	C284.349823,335.288666 288.671051,338.312256 295.048920,337.843018 
	C290.107422,331.145081 287.403656,323.632477 278.961243,320.905701 
	C274.086212,319.331146 269.541748,316.716339 264.879059,314.505249 
	C258.791840,311.618622 254.053375,307.517883 251.935898,300.775177 
	C250.415466,295.933655 246.714767,292.417297 243.317596,288.569733 
	C248.066452,288.000275 255.093384,292.810211 257.240784,297.820099 
	C260.827118,306.186981 271.537842,313.057648 280.618378,312.816254 
	C284.751190,312.706390 286.099579,311.000427 284.735901,307.081512 
	C283.256500,302.829926 281.776245,298.608643 281.192780,294.114258 
	C280.968018,292.383209 280.678711,290.476685 282.590118,289.798035 
	C284.866882,288.989655 285.676178,291.263336 285.817841,292.664001 
	C287.535461,309.646027 300.640442,321.105835 306.730164,335.968597 
	C308.712708,340.807343 313.780731,342.284607 318.533661,343.496643 
	C323.528259,344.770355 328.584717,345.809845 333.553406,347.173035 
	C335.734711,347.771515 337.497925,347.473145 339.081390,345.992004 
	C340.418396,344.741455 341.566681,343.273834 342.975891,342.118713 
	C347.232086,338.629791 348.330597,334.822418 344.662750,330.208221 
	C343.959442,329.323456 343.366211,328.148132 343.233032,327.045166 
	C342.119904,317.827820 335.116180,315.324799 327.715881,313.210785 
	C325.474976,312.570679 323.211700,311.970551 321.038391,311.142761 
	C318.763062,310.276031 317.261841,308.346130 318.200348,306.071289 
	C319.220795,303.597870 321.397797,305.175659 322.916199,305.877472 
	C329.132111,308.750519 335.389618,311.291870 342.312408,312.085724 
	C348.075409,312.746552 352.947083,311.354736 354.029205,307.193481 
	C355.198242,302.698181 353.126007,298.376434 349.710388,295.651398 
	C341.233521,288.888458 334.464569,280.324615 325.831360,273.748749 
	C317.195435,267.170807 308.764282,260.962372 296.904419,261.091309 
	C288.583710,261.181763 281.705597,256.435791 275.371674,250.734482 
	C277.898956,249.083496 279.430542,250.608353 281.061279,251.153229 
	C286.269867,252.893661 291.359711,255.093094 296.673248,256.382172 
	C300.737518,257.368195 305.481720,258.396515 307.199097,252.514526 
	C309.890961,253.122177 311.362030,254.966827 312.138550,256.847473 
	C313.625610,260.449158 316.390289,262.521851 319.714539,263.585052 
	C327.507477,266.077606 332.866791,271.818848 338.710815,276.966370 
	C340.959686,278.947235 343.396790,280.731750 345.512848,282.841736 
	C348.069153,285.390747 349.977203,284.633698 352.245605,282.389771 
	C357.965118,276.732056 358.177490,275.808350 352.919647,270.132660 
	C349.187561,266.103943 345.289307,262.210114 341.251923,258.487396 
	C334.293701,252.071625 329.509857,238.609711 330.984741,228.180496 
	C334.572235,230.930817 335.388153,234.837173 336.218048,238.500977 
	C338.259918,247.515640 350.017639,259.120575 359.017975,260.672607 
	C362.341644,261.245728 364.882233,260.366364 366.582275,257.279449 
	C367.405396,255.784775 367.813782,253.667831 370.275055,253.839966 
	C372.342010,255.855804 369.906830,257.942230 370.659210,260.960236 
	C375.840179,260.960236 381.264801,260.996979 386.688629,260.945221 
	C389.528442,260.918121 390.304810,258.704956 390.564697,256.537384 
	C391.388611,249.665085 390.352051,243.007477 385.602600,237.787811 
	C379.670044,231.267899 373.285126,225.146347 366.909973,219.046738 
	C361.920654,214.273102 354.870300,214.628235 348.842377,212.415237 
	C344.951202,210.986679 340.842529,210.161514 336.888611,208.888077 
	C335.239441,208.356934 333.366241,207.862381 332.372101,205.417007 
	C335.795776,204.209641 338.919769,204.480774 342.083069,205.504807 
	C345.569061,206.633286 349.076233,207.727859 352.780182,207.790314 
	C357.113770,207.863403 358.189941,206.404114 356.854431,202.277817 
	C355.060516,196.735428 353.182739,191.220184 351.389893,185.677460 
	C351.209290,185.119080 351.365692,184.451721 351.891632,183.595276 
	C354.374969,189.592010 359.656067,193.880981 361.281982,200.317047 
	C362.929901,206.840317 365.734772,212.200974 373.418335,213.018600 
	C375.768585,213.268692 377.024719,215.224899 378.392456,216.919357 
	C381.103821,220.278519 383.446564,223.960373 387.159302,226.426575 
	C390.108643,228.385727 392.221222,227.576309 392.476349,224.283356 
	C392.973053,217.872772 393.595825,211.685516 387.152710,206.753418 
	C378.278107,199.960098 375.876190,190.090088 376.976471,179.131500 
	C379.543518,179.235306 379.169434,181.046448 379.289917,182.368393 
	C379.988190,190.028839 382.434509,196.911224 387.798859,202.626511 
	C389.066498,203.977020 390.101013,205.533493 392.122986,205.730133 
	C396.100037,206.116928 397.255829,208.481308 397.363586,212.216034 
	C397.620392,221.115982 401.267090,229.346252 402.859863,238.001236 
	C403.879242,243.540253 404.359985,249.224701 406.490662,254.514343 
	C407.095337,256.015503 407.604370,257.970093 409.512115,258.195892 
	C411.651581,258.449066 412.742920,256.577972 413.618866,255.039078 
	C417.328094,248.522400 420.949554,241.964188 425.253876,235.801376 
	C429.863922,229.200867 435.555481,224.060638 443.335632,221.490219 
	C445.241394,220.860611 447.098694,220.164902 449.105042,220.979095 
	C449.721008,222.671967 448.423370,223.169434 447.413086,223.484467 
	C435.770782,227.114761 430.927856,237.081375 426.447784,246.887955 
	C423.894104,252.477798 419.494598,257.455109 419.943085,264.418671 
	C420.219604,268.711731 421.309479,272.176910 424.462708,275.047150 
	C428.183807,278.434296 432.213867,281.430054 436.731262,283.592194 
	C446.325684,288.184357 455.060272,293.797394 461.390991,302.594360 
	C461.967896,303.395996 462.748657,304.063385 463.494843,304.725403 
	C463.851044,305.041473 464.348267,305.198608 465.423920,305.767365 
	C469.487488,298.256561 477.386993,293.875427 481.738922,286.817596 
	C485.058228,281.434479 483.241119,274.465942 481.264160,268.474182 
	C479.868500,264.244171 477.490295,260.323669 475.408020,256.339569 
	C473.783020,253.230484 473.195190,250.146194 474.397583,246.736282 
	C476.801208,239.919785 475.892731,233.734085 471.004425,228.133163 
	C468.085114,224.788315 467.068146,220.426514 466.099365,216.224228 
	C465.312622,212.811569 464.518341,209.449142 463.257172,206.165863 
	C462.687317,204.682373 462.759186,202.907364 462.757111,201.264328 
	C462.755280,199.811356 463.511841,198.618454 465.064362,198.450089 
	C466.495056,198.294907 466.949493,199.541611 467.448212,200.603256 
	C470.082153,206.210037 471.856689,212.111618 473.184875,218.132080 
	C473.769806,220.783630 474.972839,222.765411 477.359375,223.984818 
	C481.877258,226.293243 484.976807,224.342285 485.706055,219.352371 
	C487.302704,208.427750 484.630157,197.417831 486.590820,186.521545 
	C486.896973,184.820236 486.222839,182.745789 488.537201,181.913574 
	C490.434265,182.461594 490.594574,184.226959 490.694214,185.559479 
	C491.350464,194.332932 493.852509,202.796524 494.363007,211.656555 
	C494.992218,222.577484 491.137390,231.893387 486.519043,241.142685 
	C483.617950,246.952759 482.858734,252.450485 487.009247,257.924957 
	C490.959625,263.135468 491.621399,269.601776 493.760437,276.091522 
	C499.597412,272.456329 503.604279,267.574921 507.652374,262.504333 
	C514.604126,253.796646 516.185120,244.492050 512.980774,233.970352 
	C511.728485,229.858322 510.881378,225.537750 510.531006,221.256409 
	C510.023987,215.060623 506.877594,210.391083 503.172913,205.796265 
	C495.922577,196.803879 495.483398,186.256256 496.928040,175.488693 
	C497.371216,172.185623 499.700592,170.031754 503.369598,169.800507 
	C504.561981,172.421860 503.092743,174.349976 502.723145,176.808502 
M362.472321,313.943817 
	C360.647888,315.881989 358.963623,317.980743 356.968079,319.722961 
	C353.449738,322.794617 352.460876,326.084137 355.093628,330.229034 
	C359.975372,337.914734 358.440460,344.993286 353.123688,351.858398 
	C350.559570,355.169189 348.668121,358.834015 349.348602,363.388245 
	C350.442902,370.712067 356.326355,377.495148 361.484131,376.395599 
	C367.020691,375.215271 372.524017,373.404114 375.945770,368.283844 
	C378.657501,364.225983 382.473755,361.679657 386.889008,359.920776 
	C392.457825,357.702393 398.053589,355.550995 403.652374,353.409058 
	C404.987183,352.898376 406.343048,351.933502 408.122986,353.348938 
	C407.509338,355.926666 405.360352,357.234833 403.350922,358.593140 
	C397.974243,362.227631 392.289551,365.464874 387.222534,369.484344 
	C380.861053,374.530670 380.930573,375.391602 383.932251,382.500031 
	C384.125214,382.957031 384.259003,383.445343 384.367035,383.930969 
	C385.701141,389.928375 387.254242,395.889465 388.271942,401.940521 
	C388.955658,406.005585 390.458160,408.883942 394.280945,410.951935 
	C398.651794,413.316376 402.596466,416.471985 406.711670,419.305084 
	C416.001831,425.700714 424.683441,432.934814 435.663086,436.730408 
	C445.637238,440.178467 453.073029,446.563202 456.553162,457.282318 
	C458.812286,464.240570 463.332184,465.071289 469.470764,461.029541 
	C477.993988,455.417694 483.947266,447.351196 490.171112,439.540924 
	C496.167755,432.015717 498.742889,423.481232 497.652496,413.871429 
	C497.016327,408.264954 495.306641,403.527100 489.175354,401.662354 
	C486.804230,400.941223 484.535492,399.790283 482.333038,398.622284 
	C464.555298,389.194244 451.854584,376.047363 450.716339,354.676208 
	C449.908752,339.513153 446.760681,325.094421 438.856506,311.849945 
	C436.131989,307.284546 432.770813,304.011993 427.809570,302.350922 
	C422.274475,300.497711 416.834381,298.444824 411.701569,295.619324 
	C405.539917,292.227509 399.881714,288.123169 394.560394,283.559906 
	C388.639984,278.482880 381.944336,274.803192 374.460815,272.802795 
	C366.895569,270.780548 363.483490,273.454224 363.334137,281.039795 
	C363.292633,283.147827 362.707001,284.824066 361.280518,286.449707 
	C357.054230,291.266113 358.249756,298.561401 363.553864,302.546539 
	C365.343536,303.891174 368.973419,302.775208 369.083984,305.867523 
	C369.180573,308.569366 365.861481,309.413086 364.443146,311.417725 
	C363.963074,312.096222 363.410645,312.723511 362.472321,313.943817 
z"/>
</svg>