<svg version="1.1" id="Layer_1" xmlns="http://www.w3.org/2000/svg" xmlns:xlink="http://www.w3.org/1999/xlink" x="0px" y="0px"
	 width="100%" viewBox="0 0 1024 1024" enable-background="new 0 0 1024 1024" xml:space="preserve">
<path fill="#000000" opacity="1.000000" stroke="none" 
	d="
M612.563965,680.406555 
	C611.099121,682.195312 609.901672,683.750549 608.719055,685.286377 
	C600.464600,679.898438 600.881958,678.882019 591.310730,687.940063 
	C581.066650,682.595276 580.507812,681.740540 570.742432,691.838501 
	C569.370483,692.089233 568.655457,691.016235 567.761292,690.331177 
	C560.937317,685.102661 555.025940,684.975464 548.307922,690.586060 
	C545.332092,693.071472 543.517822,693.327393 540.341553,690.673828 
	C533.109131,684.631714 523.115784,685.260437 516.134766,691.508728 
	C515.163391,692.378052 514.499084,693.656128 512.641235,693.992065 
	C502.607605,684.073120 492.102600,684.341125 481.686646,694.124023 
	C480.375488,693.045471 479.346527,692.231384 478.352692,691.376404 
	C471.831818,685.766663 465.982361,685.231934 458.851593,690.167358 
	C456.208557,691.996643 454.663605,691.709839 452.499176,689.584900 
	C445.760406,682.969177 444.924561,682.893860 436.893494,687.684631 
	C434.864441,688.895020 433.956635,687.861633 432.702301,686.606079 
	C426.768005,680.665955 426.631409,680.594421 419.819885,684.558289 
	C417.489899,685.914124 416.450592,684.846802 415.486694,683.059326 
	C414.190094,680.654968 412.600067,679.325928 409.500183,679.796753 
	C405.769470,680.363159 405.722748,677.403687 405.766602,674.819031 
	C405.910553,666.333069 406.413849,657.833069 404.644775,649.434998 
	C401.748505,635.685974 394.657562,625.444885 380.384796,621.915955 
	C375.600830,620.733093 370.485168,620.469482 365.525543,620.500366 
	C351.874695,620.585266 338.225372,621.017090 324.577026,621.372559 
	C315.057465,621.620483 307.736206,618.156250 301.946869,610.231628 
	C295.526855,601.443665 289.459137,592.581177 285.329468,582.458252 
	C282.705170,576.025513 283.170593,570.277649 287.657013,564.721741 
	C290.680298,560.977722 293.154449,556.786438 295.827881,552.764404 
	C301.472565,544.272400 303.573425,534.973816 303.050201,524.768494 
	C302.333954,510.798889 302.607483,496.774902 301.759033,482.816589 
	C300.555817,463.022308 305.932983,445.459778 317.414886,429.402405 
	C324.354889,419.696777 329.702881,409.100739 330.013397,396.784637 
	C330.253113,387.277313 328.664673,377.942444 326.770935,368.636719 
	C323.291443,351.538818 320.037415,334.395050 316.697113,317.268890 
	C316.482300,316.167511 316.634430,314.894073 314.550903,314.219849 
	C312.792297,339.307770 318.850739,363.777130 319.109558,388.657104 
	C310.750549,381.063232 305.394348,371.621979 298.146484,362.394012 
	C298.364136,368.593567 300.610840,373.325317 302.412842,378.114960 
	C305.352600,385.928833 308.687408,393.582245 314.737762,399.618439 
	C316.363129,401.239990 315.857605,402.893921 315.393860,404.696411 
	C313.573151,411.773224 309.604889,417.786011 305.698456,423.767242 
	C298.184998,435.271210 291.489838,447.089111 289.076233,460.860596 
	C289.002808,461.279480 288.536713,461.629608 288.246216,462.021912 
	C286.120850,461.990479 286.021545,460.198181 285.475098,458.945007 
	C276.630310,438.661774 271.580475,417.371735 268.628845,395.515167 
	C267.046631,383.798889 265.779114,372.010773 266.002777,360.225250 
	C267.116943,301.516998 286.494690,249.727280 326.045654,206.010132 
	C364.232300,163.800995 411.879089,138.843033 467.891174,129.516754 
	C535.747742,118.218292 599.000000,130.570511 656.316528,168.568283 
	C711.319641,205.032455 744.882385,256.511841 756.977051,321.521271 
	C761.604736,346.395294 761.289368,371.448120 757.592468,396.517639 
	C754.495544,417.518646 749.705139,438.000885 741.362305,457.573578 
	C740.841492,458.795410 740.316467,460.020508 739.693054,461.190613 
	C739.487732,461.575928 738.965515,461.792389 738.529236,462.131958 
	C736.134094,460.143890 736.627319,457.193115 735.947693,454.748657 
	C733.418762,445.652405 729.033630,437.466858 724.165466,429.490265 
	C721.216064,424.657623 718.188477,419.872620 715.231140,415.044708 
	C710.855042,407.900818 709.323914,401.666290 716.061584,394.102631 
	C723.991211,385.201050 726.573059,373.275970 729.698914,360.968506 
	C722.559998,370.898834 716.405396,380.434906 707.548279,388.284088 
	C708.110657,361.646759 713.073364,335.499207 711.814270,308.887573 
	C710.219971,316.290985 708.542419,323.677643 707.047913,331.101166 
	C703.476013,348.844025 700.065552,366.611755 697.024536,384.462097 
	C694.483765,399.375702 698.473022,412.430359 705.858093,424.944489 
	C708.652100,429.678864 711.457458,434.411041 714.418701,439.041229 
	C721.439209,450.018433 724.548279,461.868317 724.445251,474.997131 
	C724.313171,491.825928 723.679626,508.635345 723.155762,525.443542 
	C722.846436,535.369690 725.295532,544.204590 730.456909,552.442627 
	C733.285217,556.956909 736.155762,561.470215 739.363892,565.714355 
	C743.026794,570.559998 743.720459,575.631409 741.625366,581.183716 
	C736.793274,593.989258 729.172485,605.120667 720.198608,615.262146 
	C716.348511,619.613159 710.747986,621.419739 704.807617,621.296570 
	C693.156006,621.054993 681.507446,620.596069 669.855225,620.483765 
	C663.882874,620.426270 657.904663,620.909607 651.930054,621.171448 
	C635.975342,621.870483 627.450012,632.234863 623.528076,644.532104 
	C621.087891,652.183350 620.528748,660.178528 620.316528,668.189392 
	C620.216309,671.969604 620.933167,675.820190 619.712158,679.486694 
	C617.386536,680.577454 614.913635,678.382202 612.563965,680.406555 
M471.143036,503.623230 
	C487.881531,470.480774 470.332245,435.861328 437.434448,424.913239 
	C425.414062,420.912933 413.037720,419.865356 400.502441,420.401672 
	C382.452118,421.173920 365.075012,424.591278 349.932037,435.206879 
	C333.402130,446.794678 323.480377,461.908447 324.192200,483.027252 
	C324.618347,495.670471 325.041656,508.303589 326.414948,520.868958 
	C329.689758,550.832520 349.538879,560.352722 372.869263,559.418335 
	C386.345032,558.878601 399.612335,555.972839 412.367279,551.447876 
	C437.328308,542.592590 458.039459,528.328064 471.143036,503.623230 
M593.500244,541.990784 
	C598.781311,544.455139 603.908813,547.347839 609.371460,549.305481 
	C627.447571,555.783386 645.795288,561.127441 665.371277,558.670654 
	C683.008972,556.457153 695.263855,545.046997 698.655334,527.579346 
	C702.231567,509.159882 702.078308,490.509521 701.641357,471.860748 
	C701.614563,470.716095 701.321533,469.555756 701.008606,468.443146 
	C696.732727,453.239502 687.170715,442.065552 674.109985,433.712830 
	C661.475891,425.632996 647.423401,422.123169 632.577759,420.909271 
	C618.343384,419.745270 604.271912,420.029419 590.607971,424.457153 
	C553.418579,436.508270 538.147583,474.231750 557.159851,506.727295 
	C565.873474,521.620361 578.127136,532.896179 593.500244,541.990784 
M549.608582,605.022583 
	C551.005310,596.406921 550.905945,587.831238 549.099060,579.268555 
	C544.479187,557.375610 533.247437,538.823853 519.757996,521.464844 
	C514.152222,514.250916 511.802948,514.372986 505.758087,521.231140 
	C505.317902,521.730469 504.861420,522.223389 504.483215,522.768372 
	C490.031097,543.592773 477.364838,565.211243 475.599335,591.332458 
	C475.023102,599.857910 475.817169,608.359741 480.288147,615.954346 
	C484.946045,623.866638 492.759003,625.429932 500.212006,620.159912 
	C503.902313,617.550415 507.092590,614.365967 510.080841,610.995361 
	C512.059326,608.763855 513.749390,608.682373 515.835327,610.973267 
	C519.422241,614.912476 523.102234,618.795044 527.860840,621.405518 
	C533.472473,624.483887 538.128784,623.816956 542.908142,619.592407 
	C547.081909,615.903198 547.997070,610.770142 549.608582,605.022583 
z"/>
<path fill="#000000" opacity="1.000000" stroke="none" 
	d="
M636.135376,733.103760 
	C648.267639,714.685852 655.013306,694.718750 657.702881,673.248291 
	C659.278687,660.668762 659.960388,648.063782 659.666199,635.404663 
	C659.588562,632.062073 660.711365,630.484253 664.271973,630.651550 
	C668.428284,630.846924 672.614624,630.878296 676.764282,630.612122 
	C681.483093,630.309570 682.212708,632.490723 681.910583,636.686279 
	C680.746887,652.849487 676.862915,668.525696 673.793884,684.345520 
	C669.127197,708.400269 665.738708,732.578064 666.355408,757.160461 
	C666.560608,765.341125 665.798218,773.465576 665.257507,781.602051 
	C664.729187,789.551819 660.682007,795.293091 653.785400,799.198181 
	C646.829895,803.136597 639.915039,807.150269 633.052979,811.249084 
	C625.166504,815.959961 620.568298,823.520203 616.016357,831.140930 
	C604.705811,850.076660 590.632996,866.254272 570.090149,875.607727 
	C556.759033,881.677551 542.792603,883.356140 528.164978,881.790649 
	C519.124695,880.822998 509.947388,880.257751 500.788513,881.495728 
	C471.576630,885.444458 447.487366,875.529175 427.716370,854.172607 
	C420.781097,846.681030 414.749390,838.469360 409.777985,829.591125 
	C404.125214,819.496033 396.160004,812.058655 386.069580,806.653137 
	C381.519562,804.215637 377.050171,801.623596 372.590912,799.021667 
	C365.160645,794.686218 361.230621,788.393738 360.487640,779.607727 
	C359.586151,768.947266 359.683350,758.299622 359.674561,747.644592 
	C359.653809,722.545044 355.302979,698.025696 350.214081,673.576843 
	C347.641479,661.216980 345.202087,648.826111 344.617889,636.146179 
	C344.429535,632.057556 345.791870,630.297302 349.976624,630.639221 
	C355.089478,631.056946 361.482300,628.630066 365.022980,631.701172 
	C368.749512,634.933472 366.102966,641.459351 366.344971,646.528442 
	C367.721527,675.361755 371.147675,703.706482 387.647339,728.508179 
	C393.725555,737.644775 400.683289,746.484070 409.797882,752.666138 
	C415.119324,756.275391 420.492828,759.697388 425.399139,763.892334 
	C427.532043,765.716003 430.362732,767.272888 433.214478,766.649963 
	C438.061340,765.591248 441.299194,767.955505 444.845612,770.545776 
	C449.213623,773.736267 453.922058,776.394348 459.598480,773.244995 
	C461.246918,772.330383 462.432526,773.473389 463.545929,774.511414 
	C470.145416,780.663940 477.314697,783.145142 485.696625,778.000671 
	C487.152222,777.107239 488.471497,777.293579 489.794220,778.432800 
	C496.484039,784.194519 503.451477,785.907288 510.911621,779.754456 
	C512.249878,778.650696 513.509399,778.795288 514.955139,779.856934 
	C522.754150,785.583801 530.143494,784.528320 537.138733,778.303772 
	C538.476379,777.113464 539.669312,776.556274 541.539978,777.735046 
	C549.433594,782.708679 556.745422,781.067566 563.528748,775.343506 
	C564.796448,774.273804 565.847534,772.856812 567.831421,773.578857 
	C574.868408,776.140015 580.095581,772.693054 584.883240,768.236084 
	C586.741089,766.506409 588.307556,765.960022 591.010315,766.456604 
	C597.963501,767.733887 603.295471,764.272461 607.389343,759.024475 
	C608.793213,757.224854 610.178833,756.046509 612.288513,755.180237 
	C618.447266,752.651245 623.031128,747.920349 627.303406,743.064453 
	C630.154297,739.824097 632.825439,736.420837 636.135376,733.103760 
z"/>
<path fill="#000000" opacity="1.000000" stroke="none" 
	d="
M539.405884,731.699951 
	C534.713684,728.354858 530.178101,727.565735 525.027161,729.750977 
	C521.041382,731.441895 518.052124,729.470825 516.664185,725.769287 
	C513.322449,716.857056 514.126953,707.992249 519.055969,699.977173 
	C523.041199,693.496826 532.424377,693.255554 538.269592,698.816650 
	C542.904846,703.226624 544.268433,709.071594 545.037659,715.027527 
	C545.502563,718.627319 545.425781,722.339966 545.184998,725.974915 
	C544.973877,729.163635 543.643188,731.796692 539.405884,731.699951 
z"/>
<path fill="#000000" opacity="1.000000" stroke="none" 
	d="
M487.104828,730.824707 
	C483.633606,732.002319 482.614258,729.969543 481.725433,727.621948 
	C478.614410,719.405212 482.327148,704.274231 488.899048,698.516357 
	C495.097412,693.085754 504.153931,694.832031 507.810822,702.242493 
	C510.823090,708.346680 511.936920,714.855896 511.276489,721.611877 
	C510.615265,728.375977 507.072479,731.112244 500.600922,729.448730 
	C495.946808,728.252380 491.890930,730.892029 487.104828,730.824707 
z"/>
<path fill="#000000" opacity="1.000000" stroke="none" 
	d="
M380.774353,657.993286 
	C381.181671,652.144714 380.043182,646.682068 381.613190,640.295471 
	C386.957550,643.828125 390.501984,648.090515 391.097290,653.190430 
	C393.271362,671.815125 396.975494,690.165222 399.976074,708.640320 
	C400.826416,713.875977 401.016937,719.387634 398.343597,725.746399 
	C385.005035,704.428772 380.639435,682.058655 380.774353,657.993286 
z"/>
<path fill="#000000" opacity="1.000000" stroke="none" 
	d="
M634.239502,715.071167 
	C631.907898,718.581360 631.413269,722.889893 627.008179,725.688110 
	C626.347229,716.957825 626.212524,708.937622 627.728210,700.974182 
	C630.770203,684.991577 633.722839,669.002014 635.667053,652.835083 
	C636.294922,647.614258 640.153320,644.331787 644.011292,640.950439 
	C646.475830,666.412964 646.043335,691.295654 634.239502,715.071167 
z"/>
<path fill="#000000" opacity="1.000000" stroke="none" 
	d="
M538.479736,743.016235 
	C539.670105,752.283936 539.795959,761.024231 534.481934,768.791565 
	C532.030762,772.374207 528.689636,774.902588 524.011963,774.246033 
	C519.490662,773.611389 518.124084,769.814636 516.742432,766.224182 
	C513.975708,759.034546 514.314941,751.498962 514.853210,744.065918 
	C515.247864,738.616211 517.821594,737.219604 523.223022,738.669861 
	C526.004578,739.416748 528.754211,739.822632 531.528687,738.815552 
	C535.289429,737.450439 537.650818,738.532776 538.479736,743.016235 
z"/>
<path fill="#000000" opacity="1.000000" stroke="none" 
	d="
M502.474548,774.392578 
	C496.025604,774.814819 492.495514,771.109497 490.229828,766.268799 
	C486.757996,758.850891 486.310242,750.914795 487.861389,742.935913 
	C488.585022,739.213623 490.497742,736.890869 494.882904,738.758545 
	C498.253571,740.194153 501.717957,739.950562 505.037964,738.438354 
	C507.699036,737.226196 509.343842,738.346863 509.919739,740.816040 
	C512.187744,750.539795 512.452637,760.207825 508.182220,769.535828 
	C507.133057,771.827576 505.611328,773.836304 502.474548,774.392578 
z"/>
<path fill="#000000" opacity="1.000000" stroke="none" 
	d="
M455.675079,727.825073 
	C452.415924,719.338074 454.120819,711.380310 456.793335,703.635254 
	C458.752380,697.957764 464.882629,694.682800 470.279694,695.689331 
	C475.083130,696.585144 478.893066,701.851257 478.845032,708.813538 
	C478.808685,714.082520 478.160736,719.410583 475.922272,724.361145 
	C474.245880,728.068726 471.834808,730.279053 467.375336,729.470825 
	C465.644867,729.157166 463.630829,728.809143 462.068512,730.076111 
	C458.964905,732.592957 457.304169,730.766541 455.675079,727.825073 
z"/>
<path fill="#000000" opacity="1.000000" stroke="none" 
	d="
M549.302673,721.225342 
	C547.903931,715.297974 547.024719,709.783264 548.622437,704.099976 
	C549.715942,700.210327 551.258728,696.727417 555.466064,695.667664 
	C559.952087,694.537964 564.047607,696.225037 566.463623,699.852722 
	C572.200928,708.467346 573.484985,718.018372 570.411804,727.945984 
	C569.499512,730.893005 567.376892,732.395996 564.264099,730.253052 
	C563.089844,729.444702 561.813599,729.320374 560.461304,729.332581 
	C553.007019,729.399902 552.548645,729.072693 549.302673,721.225342 
z"/>
<path fill="#000000" opacity="1.000000" stroke="none" 
	d="
M543.838013,764.716797 
	C542.062500,758.116455 542.370544,751.787109 542.749695,745.504578 
	C543.171875,738.510071 546.689209,736.287415 553.453003,738.337891 
	C554.936157,738.787476 556.412964,738.795959 557.857056,738.278992 
	C561.930054,736.820679 563.511414,739.271484 563.987671,742.558899 
	C565.207886,750.981567 564.191284,759.195862 560.051270,766.700073 
	C558.069763,770.291687 554.095764,771.567810 550.266602,771.673218 
	C546.269531,771.783081 544.757080,768.566895 543.838013,764.716797 
z"/>
<path fill="#000000" opacity="1.000000" stroke="none" 
	d="
M481.469910,739.798828 
	C485.054230,748.839722 484.661316,757.745544 482.726044,766.613892 
	C481.677826,771.417358 478.742706,772.783691 474.111145,771.169983 
	C470.522186,769.919495 467.686951,767.548401 465.880554,764.255005 
	C461.947327,757.083923 461.680969,749.358276 463.084900,741.506714 
	C463.273956,740.449280 464.096771,739.436462 464.819641,738.563110 
	C465.502838,737.737671 466.863129,737.417725 467.562286,737.945984 
	C471.868683,741.200195 477.319427,733.593689 481.469910,739.798828 
z"/>
<path fill="#000000" opacity="1.000000" stroke="none" 
	d="
M588.853149,698.372009 
	C593.022034,706.517456 593.107605,714.689636 591.242737,723.019226 
	C590.184204,727.747803 586.370850,729.458618 582.166565,727.123352 
	C581.304626,726.644470 580.492920,726.020813 579.779907,725.336853 
	C573.987549,719.780884 571.857727,704.101013 575.918884,697.140808 
	C579.400879,691.173218 583.868469,691.487183 588.853149,698.372009 
z"/>
<path fill="#000000" opacity="1.000000" stroke="none" 
	d="
M440.801880,728.081299 
	C437.804230,728.143799 436.382080,726.428894 435.764252,724.294556 
	C433.151245,715.268005 432.391235,706.312866 437.651794,697.818970 
	C439.214447,695.295837 441.259369,693.045410 444.351257,693.317932 
	C447.614044,693.605652 449.522278,696.060608 450.477081,699.156677 
	C453.168732,707.884888 452.508392,716.152893 447.184296,723.825256 
	C445.683716,725.987671 443.713043,727.366211 440.801880,728.081299 
z"/>
<path fill="#000000" opacity="1.000000" stroke="none" 
	d="
M441.936707,737.090820 
	C443.355469,736.444946 444.461487,736.063049 445.511719,735.563782 
	C451.020599,732.945068 452.537048,733.297546 455.235870,738.998901 
	C458.666321,746.245789 459.725922,753.776733 457.435760,761.728882 
	C456.335938,765.547791 454.273438,766.121948 451.149017,764.772278 
	C443.754242,761.577942 440.679413,755.289124 439.823547,747.807007 
	C439.418152,744.263367 438.883392,740.435608 441.936707,737.090820 
z"/>
<path fill="#000000" opacity="1.000000" stroke="none" 
	d="
M583.434265,758.178101 
	C581.187500,761.694336 578.263550,763.763550 574.836792,765.298584 
	C572.276367,766.445618 570.674377,765.844299 569.872253,763.174927 
	C567.715942,755.999084 567.335938,748.735718 569.909424,741.658264 
	C571.177551,738.170959 573.014282,733.649597 577.757812,734.904602 
	C585.809082,737.034790 586.245117,736.513062 586.379333,743.901001 
	C586.467957,748.781982 586.390503,753.563538 583.434265,758.178101 
z"/>
<path fill="#000000" opacity="1.000000" stroke="none" 
	d="
M594.839172,696.348877 
	C596.253357,693.420532 597.544617,690.464050 600.820129,690.540466 
	C604.270508,690.620789 605.770142,693.728149 606.923523,696.438049 
	C609.669617,702.889954 610.142822,709.601257 608.342285,716.429749 
	C607.703064,718.854248 607.275269,721.808350 604.246277,721.985413 
	C601.358459,722.154175 598.920532,720.616882 597.305725,717.920471 
	C593.291016,711.216309 593.035645,704.107910 594.839172,696.348877 
z"/>
<path fill="#000000" opacity="1.000000" stroke="none" 
	d="
M431.357605,705.399353 
	C431.766937,710.259216 430.977936,714.379517 428.735687,718.294006 
	C427.295471,720.808289 424.959595,721.691162 422.527222,721.834778 
	C419.821289,721.994568 419.234344,719.314392 418.575378,717.363708 
	C416.065399,709.933838 416.915894,702.615295 419.985321,695.550598 
	C421.149109,692.872009 423.194550,690.399353 426.431488,691.101562 
	C429.449432,691.756226 430.840820,694.576843 431.225586,697.495911 
	C431.548828,699.947998 431.337036,702.470642 431.357605,705.399353 
z"/>
<path fill="#000000" opacity="1.000000" stroke="none" 
	d="
M605.270813,746.740417 
	C604.025146,750.725220 601.798584,753.633301 598.999084,756.001648 
	C595.771545,758.732239 592.699158,757.641113 591.628357,753.545898 
	C590.048218,747.502319 590.096436,741.420959 591.690674,735.395508 
	C592.595764,731.974792 594.722717,729.136841 598.386108,729.149536 
	C603.201843,729.166199 606.140137,732.726257 606.303711,737.492188 
	C606.406738,740.491760 606.308899,743.457214 605.270813,746.740417 
z"/>
<path fill="#000000" opacity="1.000000" stroke="none" 
	d="
M426.692200,729.538452 
	C430.934631,728.252380 433.002960,730.687927 434.378265,733.592285 
	C437.269379,739.697510 436.964600,746.273438 435.810669,752.637207 
	C434.866791,757.842407 431.190430,758.671814 427.062500,755.183411 
	C422.341949,751.194031 419.514648,739.163818 421.876129,733.424255 
	C422.731445,731.345398 424.602570,730.644165 426.692200,729.538452 
z"/>
<path fill="#000000" opacity="1.000000" stroke="none" 
	d="
M609.257507,732.516235 
	C608.197937,723.178284 615.015320,722.688782 621.587097,721.466980 
	C623.645264,722.653503 623.294800,725.175049 622.984802,727.639038 
	C622.244873,733.521545 619.809387,738.753296 616.789734,743.775391 
	C615.726196,745.544312 614.341309,746.511902 612.294312,746.095764 
	C610.325195,745.695557 609.974182,744.007812 609.579224,742.346497 
	C608.838684,739.231140 608.723877,736.106140 609.257507,732.516235 
z"/>
<path fill="#000000" opacity="1.000000" stroke="none" 
	d="
M611.638794,698.216064 
	C612.037964,693.949036 612.046448,689.230896 616.755493,688.669495 
	C621.863708,688.060547 622.085449,693.227783 623.277161,696.641174 
	C625.161560,702.038574 623.910828,707.228943 620.867310,711.782410 
	C618.152893,715.843628 615.190857,715.337646 613.227417,710.923096 
	C611.480042,706.994385 611.592651,702.830688 611.638794,698.216064 
z"/>
<path fill="#000000" opacity="1.000000" stroke="none" 
	d="
M417.375854,734.645020 
	C417.684631,737.037170 418.488922,738.959229 417.853638,740.970581 
	C417.232941,742.935669 417.483948,745.506531 414.686310,746.071472 
	C412.072510,746.599304 410.793213,744.737732 409.517181,742.961243 
	C404.915070,736.554321 403.356812,729.517700 405.169220,721.491943 
	C408.129089,721.728943 410.687836,724.363342 414.017456,722.819885 
	C415.438324,722.161255 416.172516,723.890076 416.338165,725.323303 
	C416.680267,728.283447 417.013916,731.244690 417.375854,734.645020 
z"/>
<path fill="#000000" opacity="1.000000" stroke="none" 
	d="
M404.417877,692.944641 
	C406.082886,690.955811 406.847168,688.041504 409.780212,688.753723 
	C412.471436,689.407227 413.441956,691.952148 414.198029,694.348328 
	C415.924988,699.821594 415.066956,705.179321 413.087738,710.388916 
	C412.401489,712.195374 411.679169,714.449768 409.322113,714.566406 
	C407.045105,714.679199 405.968842,712.610657 404.890839,710.977417 
	C401.103668,705.239807 402.534271,699.254089 404.417877,692.944641 
z"/>
</svg>