<?xml version="1.0" standalone="no"?>
<!DOCTYPE svg PUBLIC "-//W3C//DTD SVG 20010904//EN"
 "http://www.w3.org/TR/2001/REC-SVG-20010904/DTD/svg10.dtd">
<svg version="1.0" xmlns="http://www.w3.org/2000/svg"
 width="500.000000pt" height="500.000000pt" viewBox="0 0 500.000000 500.000000"
 preserveAspectRatio="xMidYMid meet">

<g transform="translate(0.000000,500.000000) scale(0.100000,-0.100000)"
fill="#000000" stroke="none">
<path d="M1264 4117 c-2 -8 -3 -326 -1 -708 3 -771 -2 -709 77 -1019 202 -801
581 -1366 1085 -1619 l79 -40 97 50 c494 254 874 830 1069 1624 72 293 70 262
70 1031 l0 694 -1235 0 c-1016 0 -1237 -2 -1241 -13z m2436 -701 c0 -631 -1
-671 -21 -773 -170 -890 -573 -1559 -1098 -1824 -72 -37 -75 -38 -110 -23
-129 54 -318 192 -442 321 -307 323 -531 784 -677 1395 l-36 153 -3 708 -4
707 1196 0 1195 0 0 -664z"/>
<path d="M1367 3993 c-4 -3 -7 -286 -7 -627 0 -676 -1 -667 61 -926 153 -647
451 -1162 825 -1429 116 -82 243 -146 275 -138 36 9 195 103 264 155 357 272
636 756 789 1367 77 307 76 298 74 985 l-3 615 -1136 3 c-624 1 -1139 -1
-1142 -5z m343 -20 c0 -11 -143 -153 -155 -153 -11 0 -155 141 -155 152 0 5
70 8 155 8 85 0 155 -3 155 -7z m1640 -89 l95 -95 -59 -52 c-76 -67 -217 -169
-282 -203 l-51 -27 -60 37 c-150 92 -298 131 -498 130 -172 0 -262 -21 -414
-95 l-105 -51 -45 22 c-94 46 -351 227 -351 248 0 4 39 46 87 94 l88 88 750 0
750 0 95 -96z m260 89 c0 -5 -34 -44 -75 -88 l-74 -80 -80 80 c-45 44 -81 83
-81 87 0 5 70 8 155 8 85 0 155 -3 155 -7z m-2170 -134 l52 -92 -56 -56 -56
-56 0 148 c0 81 2 147 4 147 2 0 27 -41 56 -91z m2190 -56 l0 -148 -56 56 -56
56 17 34 c25 49 86 149 91 149 2 0 4 -66 4 -147z m-2127 49 c34 -34 36 -40 22
-52 -8 -7 -17 -11 -18 -9 -19 24 -56 99 -49 99 4 0 25 -17 45 -38z m2036 6
c-29 -54 -42 -69 -52 -59 -8 8 -1 22 23 46 40 41 45 43 29 13z m-1860 -155
c45 -34 124 -88 177 -119 l96 -58 -44 -35 c-23 -19 -69 -62 -100 -95 -32 -33
-59 -58 -61 -55 -2 2 -38 69 -80 149 -42 80 -92 174 -111 210 -32 60 -34 66
-19 82 15 17 17 17 38 0 13 -9 59 -45 104 -79z m1798 75 c7 -9 -13 -56 -68
-158 -42 -80 -94 -176 -114 -214 l-37 -68 -86 83 c-48 46 -88 87 -90 91 -2 3
6 9 17 13 51 16 281 183 335 244 22 24 30 26 43 9z m-1915 -140 c31 -57 82
-154 113 -216 l56 -112 -42 -70 c-94 -159 -133 -301 -133 -490 0 -246 73 -441
237 -632 114 -134 311 -253 479 -290 29 -6 56 -14 61 -18 19 -17 95 -338 121
-515 9 -60 19 -122 21 -137 l5 -28 -168 0 -167 0 -82 85 c-266 274 -475 679
-603 1169 -79 305 -80 315 -80 804 l0 436 57 58 c32 32 60 58 63 58 3 0 31
-46 62 -102z m2010 45 l58 -57 0 -426 c0 -321 -3 -445 -14 -505 -81 -460 -243
-887 -457 -1208 -84 -128 -195 -261 -270 -326 l-37 -31 -161 0 -162 0 6 48
c30 228 113 605 138 628 7 5 44 18 82 28 88 21 220 84 299 140 160 115 304
312 358 491 47 158 53 354 13 510 -22 90 -85 235 -132 308 l-18 28 62 122 c91
177 163 307 171 307 3 0 32 -26 64 -57z m-1104 -85 l-21 -61 -28 54 c-15 30
-28 57 -29 62 0 4 22 7 49 7 l50 0 -21 -62z m158 56 c20 -5 19 -8 -15 -75 -20
-38 -39 -69 -42 -69 -4 0 -14 28 -24 62 -9 34 -19 68 -22 75 -4 9 7 13 38 13
24 0 53 -3 65 -6z m-267 -16 c0 -7 -6 -44 -13 -83 l-12 -70 -47 64 c-26 35
-47 67 -47 71 0 4 21 12 48 18 66 14 72 14 71 0z m184 -191 c-10 -17 -23 -32
-29 -34 -6 -2 -21 21 -34 51 l-22 55 23 68 23 68 28 -89 c28 -87 28 -89 11
-119z m-132 131 l31 -62 -16 -53 c-19 -59 -35 -66 -61 -26 -16 24 -16 34 -5
115 7 48 14 88 16 88 2 0 18 -28 35 -62z m351 44 c4 -4 -10 -29 -30 -57 l-37
-49 -6 29 c-4 17 -7 45 -8 64 -1 33 -1 33 37 26 20 -3 40 -10 44 -13z m-91
-62 c10 -62 9 -64 -23 -112 -18 -26 -37 -46 -43 -45 -5 2 -14 21 -19 42 -8 34
-5 46 29 112 21 40 40 72 42 70 2 -3 8 -33 14 -67z m-461 -17 l0 -67 -45 44
c-57 56 -60 41 -3 -17 45 -46 35 -58 -22 -28 -24 12 -30 22 -30 48 0 17 5 39
10 47 8 12 59 37 83 39 4 1 7 -29 7 -66z m651 46 c27 -12 49 -24 49 -28 0 -4
-25 -31 -55 -61 l-55 -54 0 82 c0 45 3 82 6 82 3 0 28 -10 55 -21z m-578 -60
c52 -75 58 -106 17 -101 -14 2 -36 9 -50 15 -23 11 -25 19 -28 85 -2 39 1 72
5 72 4 0 30 -32 56 -71z m495 -104 c-2 -2 -19 -5 -38 -7 -34 -3 -35 -2 -38 35
-3 31 4 49 35 94 l38 56 3 -88 c2 -48 2 -89 0 -90z m-684 103 c3 -17 4 -33 2
-35 -2 -3 -19 3 -37 12 l-32 17 24 19 c32 25 35 24 43 -13z m828 -23 c-5 -38
-17 -49 -72 -60 l-35 -7 50 51 c27 28 52 51 55 51 3 0 4 -16 2 -35z m66 17
l24 -18 -42 -17 c-42 -16 -42 -16 -36 6 3 12 6 28 6 35 0 17 21 15 48 -6z
m-880 -66 c2 -2 2 -15 0 -29 -3 -25 -3 -25 -65 20 -34 26 -60 50 -57 54 4 7
109 -32 122 -45z m-7 -69 c9 -7 20 -31 24 -55 8 -50 -1 -53 -60 -19 -41 23
-59 51 -81 125 l-13 43 57 -41 c31 -22 64 -46 73 -53z m372 58 l17 -35 -31 0
c-28 0 -31 3 -25 23 3 12 6 28 6 35 0 23 16 12 33 -23z m534 -51 c-27 -77 -34
-87 -68 -105 l-39 -19 1 32 c3 69 13 90 69 134 30 24 58 43 61 44 3 0 -8 -38
-24 -86z m-1032 25 c9 -28 15 -53 12 -56 -3 -3 -29 8 -57 23 l-52 28 31 28
c17 15 35 28 40 28 5 0 17 -23 26 -51z m1133 14 l45 -36 -74 -38 c-41 -20 -75
-36 -77 -35 -2 2 23 78 43 134 7 18 14 15 63 -25z m-418 3 c0 -17 -7 -25 -25
-28 -29 -6 -30 -5 -9 27 21 32 34 32 34 1z m280 20 c0 -2 -11 -11 -25 -20 -14
-9 -25 -12 -25 -6 0 6 10 15 23 20 27 11 27 11 27 6z m-799 -18 c38 -11 39
-13 39 -55 0 -49 -11 -54 -51 -20 -25 20 -50 87 -33 87 3 0 24 -5 45 -12z
m406 -34 c-3 -4 -13 -4 -22 0 -13 5 -14 10 -4 28 l12 23 10 -23 c6 -12 7 -25
4 -28z m-222 26 c3 -5 1 -10 -4 -10 -6 0 -11 5 -11 10 0 6 2 10 4 10 3 0 8 -4
11 -10z m546 -18 c-10 -18 -80 -72 -94 -72 -4 0 -7 15 -7 34 0 31 3 35 38 44
61 16 74 15 63 -6z m-637 -17 c15 -23 15 -25 -4 -35 -26 -14 -40 -5 -40 24 0
42 20 47 44 11z m56 -6 c0 -11 -3 -11 -24 -3 -23 9 -20 23 4 17 11 -3 20 -9
20 -14z m457 -35 c-2 -3 -12 -2 -21 2 -16 6 -16 8 1 26 18 20 18 20 21 -2 2
-12 2 -24 -1 -26z m-882 -34 c19 -38 32 -70 28 -70 -16 0 -143 44 -143 50 0 7
70 90 76 90 2 0 20 -31 39 -70z m53 41 c54 -27 59 -32 76 -86 10 -31 16 -59
13 -61 -2 -2 -21 2 -43 9 -33 12 -44 23 -76 83 -37 68 -43 84 -33 84 3 0 31
-13 63 -29z m787 19 c-3 -5 -10 -10 -16 -10 -5 0 -9 5 -9 10 0 6 7 10 16 10 8
0 12 -4 9 -10z m-80 -26 c171 -41 337 -176 410 -334 l21 -44 -69 -156 c-71
-161 -160 -380 -217 -535 -19 -49 -38 -96 -43 -102 -5 -7 -39 -22 -76 -34 -94
-30 -259 -28 -360 3 l-72 23 -58 155 c-66 175 -132 335 -215 522 l-56 128 31
62 c49 98 174 217 280 268 140 67 272 81 424 44z m239 -1 c-14 -66 -13 -64
-40 -47 -13 9 -24 19 -24 23 0 5 58 48 68 50 1 1 0 -11 -4 -26z m224 -44 c-31
-57 -38 -64 -88 -81 -29 -10 -56 -16 -58 -13 -3 3 0 22 6 44 11 35 20 43 90
78 42 21 79 37 81 36 2 -1 -12 -30 -31 -64z m87 25 c15 -19 25 -37 24 -38 -6
-5 -102 -36 -111 -36 -4 0 4 25 19 55 15 30 30 55 34 55 4 0 19 -16 34 -36z
m-1036 2 c10 -12 8 -17 -8 -26 -19 -9 -21 -8 -21 15 0 28 12 32 29 11z m-96
-44 c26 -18 27 -19 9 -35 -10 -9 -21 -17 -24 -17 -5 0 -28 55 -28 66 0 9 17 3
43 -14z m-190 -47 c49 -16 62 -25 78 -57 10 -20 19 -40 19 -43 0 -8 -90 5
-112 16 -15 8 -88 100 -88 112 0 6 12 2 103 -28z m1080 14 c-4 -12 -11 -18
-20 -15 -8 3 -17 6 -19 6 -2 0 -4 4 -4 9 0 8 15 15 42 20 3 0 4 -8 1 -20z
m258 4 c-5 -10 -28 -43 -51 -73 -33 -44 -48 -56 -78 -62 -20 -3 -40 -3 -44 0
-4 4 5 29 20 56 24 43 34 52 87 72 73 28 78 29 66 7z m-1443 -48 l22 -46 -37
7 c-21 3 -42 10 -47 14 -8 8 22 70 34 70 3 0 16 -20 28 -45z m1517 -9 c11 -20
17 -37 15 -40 -10 -10 -110 -23 -110 -14 0 5 11 31 26 59 28 56 37 55 69 -5z
m-241 -20 c-21 -43 -26 -44 -48 -11 -16 24 -16 26 1 31 10 3 27 9 38 14 28 11
28 8 9 -34z m-1046 15 c10 -6 10 -11 -3 -21 -14 -12 -18 -11 -26 1 -17 28 -1
40 29 20z m-205 -48 c7 -4 57 -98 57 -108 0 -19 -35 4 -90 61 l-65 66 45 -7
c25 -4 48 -9 53 -12z m-3 -105 c0 -9 -105 -9 -137 0 l-23 7 26 54 25 55 54
-54 c30 -30 55 -58 55 -62z m1370 102 c0 -5 -5 -10 -11 -10 -5 0 -7 5 -4 10 3
6 8 10 11 10 2 0 4 -4 4 -10z m-1283 -53 c30 -41 33 -57 11 -57 -6 0 -58 95
-58 107 0 10 18 -9 47 -50z m1373 -7 c-38 -34 -64 -49 -83 -50 -25 0 -27 3
-22 23 16 51 32 64 92 74 32 5 60 7 63 5 2 -2 -20 -25 -50 -52z m-1302 35 c2
-2 -4 -15 -14 -30 l-17 -26 -23 28 c-13 15 -23 32 -24 36 0 7 69 -1 78 -8z
m1393 -34 l17 -39 -30 -6 c-39 -8 -98 -8 -98 0 0 6 83 83 90 84 3 0 12 -18 21
-39z m-253 3 c-16 -16 -38 -12 -38 6 0 8 41 19 49 13 3 -2 -2 -11 -11 -19z
m52 21 c0 -17 -36 -75 -47 -75 -18 0 -16 9 10 47 19 29 37 42 37 28z m-1296
-117 c14 -18 22 -36 18 -39 -4 -4 -30 -9 -58 -12 -47 -5 -55 -3 -107 34 -32
23 -57 42 -57 45 0 2 40 4 89 4 89 0 90 0 115 -32z m21 21 c11 -17 -1 -21 -15
-4 -8 9 -8 15 -2 15 6 0 14 -5 17 -11z m1288 -21 c-36 -35 -53 -32 -35 7 8 18
19 25 39 25 l28 0 -32 -32z m192 24 c-6 -5 -40 -30 -77 -56 -54 -38 -72 -46
-95 -41 -58 13 -58 14 -13 60 l44 45 75 0 c42 0 71 -4 66 -8z m-1669 -44 c24
-17 41 -35 37 -39 -5 -3 -32 -10 -62 -13 l-53 -7 7 38 c7 40 13 53 21 53 3 0
26 -14 50 -32z m1703 -5 c6 -21 11 -49 11 -62 0 -20 -4 -22 -25 -17 -14 4 -45
9 -70 13 -25 3 -48 9 -51 14 -4 7 102 87 118 88 4 1 12 -16 17 -36z m-1524
-60 c-9 -38 -10 -38 -46 -12 l-33 23 24 7 c53 15 63 11 55 -18z m145 -200
c105 -245 204 -503 196 -511 -3 -2 -16 2 -28 10 -191 126 -298 317 -298 534 0
86 16 184 30 184 4 0 49 -98 100 -217z m1112 131 c30 -194 -40 -405 -180 -538
-58 -55 -132 -109 -139 -102 -7 7 19 81 97 277 99 246 192 451 202 441 5 -5
14 -40 20 -78z m-1314 46 c23 -17 42 -34 42 -38 0 -4 -18 -13 -41 -20 -39 -12
-43 -11 -121 32 -81 44 -81 44 -47 49 97 11 125 8 167 -23z m1377 21 c3 -6 -4
-15 -15 -21 -11 -6 -20 -9 -20 -6 0 2 -3 11 -6 20 -4 11 0 16 14 16 12 0 23
-4 27 -9z m203 -36 c2 -2 -24 -18 -58 -35 l-62 -31 -51 17 c-29 9 -56 20 -60
24 -5 4 7 19 27 32 36 25 37 25 118 11 46 -8 84 -16 86 -18z m-1648 -59 c0 -6
-121 -46 -137 -46 -14 0 -17 37 -7 88 l6 31 69 -35 c38 -19 69 -36 69 -38z
m1674 -45 c-5 -6 -114 28 -114 35 0 3 24 16 53 29 l52 25 6 -43 c4 -23 5 -44
3 -46z m-1564 39 c0 -21 -8 -24 -34 -14 -29 11 -17 26 27 33 4 0 7 -8 7 -19z
m1378 -15 c-7 -6 -25 -17 -40 -23 -27 -11 -28 -11 -28 22 l0 33 40 -10 c31 -9
37 -14 28 -22z m-1418 -10 c17 -9 30 -20 30 -26 0 -5 -23 -20 -51 -33 l-50
-24 -65 21 c-35 12 -64 24 -64 28 0 7 125 46 153 48 10 1 31 -6 47 -14z m1523
-10 c26 -8 53 -18 59 -22 13 -7 -112 -51 -150 -52 -22 -1 -82 24 -82 34 0 8
94 54 110 54 8 1 37 -6 63 -14z m-1677 -61 c30 -8 54 -17 54 -20 0 -9 -102
-54 -110 -49 -11 7 -14 85 -4 85 3 0 30 -7 60 -16z m194 -14 c0 -33 -1 -34
-50 -16 l-35 13 30 16 c44 24 55 21 55 -13z m1562 -27 c-2 -32 -6 -59 -7 -61
-2 -2 -36 13 -76 34 l-74 37 65 23 c98 34 97 34 92 -33z m-216 22 c10 -8 14
-15 7 -15 -6 0 -18 -3 -27 -6 -12 -4 -16 0 -16 15 0 25 9 26 36 6z m-1349 -51
c1 -5 -12 -19 -30 -31 -30 -21 -38 -22 -97 -13 -124 19 -123 19 -46 55 l69 33
51 -17 c27 -10 51 -22 53 -27z m1540 -51 c-2 -1 -33 -7 -70 -13 l-68 -10 -42
32 c-24 18 -45 37 -48 43 -2 5 14 15 36 21 38 11 44 9 117 -30 42 -22 76 -42
75 -43z m-1524 7 c4 -16 0 -20 -19 -20 -26 0 -30 10 -12 28 17 17 25 15 31 -8z
m1335 -8 c28 -18 13 -32 -35 -32 -31 0 -32 1 -22 30 7 18 15 27 22 23 7 -4 22
-13 35 -21z m-1457 -11 c18 -6 13 -13 -40 -50 -34 -23 -65 -40 -70 -37 -5 3
-12 22 -15 42 -4 19 -10 43 -13 51 -6 14 2 15 56 9 34 -4 71 -10 82 -15z
m1649 -50 c-6 -23 -14 -41 -19 -41 -4 0 -29 15 -55 34 l-48 34 63 9 c35 5 65
8 67 7 2 -1 -2 -20 -8 -43z m-1530 29 c12 -8 8 -16 -26 -50 l-40 -41 -73 3
-73 3 63 47 c65 47 115 60 149 38z m1444 -45 l59 -40 -88 -3 c-87 -3 -89 -2
-119 27 -16 17 -27 33 -24 36 6 6 98 24 108 21 3 0 32 -19 64 -41z m-1409 -15
l16 -30 -48 0 -47 0 29 30 c16 17 30 30 32 30 1 0 9 -13 18 -30z m1250 -10
c18 -20 17 -20 -14 -20 -29 0 -31 2 -21 20 6 11 12 20 14 20 2 0 11 -9 21 -20z
m-1381 -38 c5 -9 -82 -87 -89 -80 -11 11 -33 76 -28 82 9 9 111 7 117 -2z
m150 -1 c3 -4 -9 -24 -27 -44 -29 -32 -40 -36 -107 -46 -41 -5 -77 -8 -79 -5
-3 3 19 27 49 54 51 45 59 49 107 50 28 0 54 -4 57 -9z m1322 -57 c35 -37 64
-67 64 -69 0 -3 -143 24 -145 28 -1 1 -16 21 -33 43 -18 23 -32 47 -32 53 0 6
18 11 41 11 37 0 46 -6 105 -66z m124 52 c0 -8 -9 -36 -20 -62 l-21 -48 -54
54 c-30 30 -55 58 -55 62 0 4 34 8 75 8 58 0 75 -3 75 -14z m-1430 -60 c-27
-12 -34 -3 -18 23 12 20 14 20 26 4 11 -15 10 -19 -8 -27z m1180 4 l21 -30
-28 0 c-43 0 -57 13 -44 39 16 28 26 27 51 -9z m-1168 -73 c-26 -46 -36 -54
-88 -74 -32 -12 -65 -22 -72 -22 -10 -1 47 85 89 133 9 10 80 25 92 18 4 -2
-5 -27 -21 -55z m-92 37 c0 -7 -90 -124 -95 -124 -5 0 -67 102 -63 105 2 1 35
7 73 12 39 6 73 11 78 12 4 0 7 -2 7 -5z m1262 -12 c29 -5 46 -18 77 -61 23
-30 40 -56 38 -57 -2 -2 -40 8 -84 23 -71 23 -83 31 -97 60 -21 45 -20 54 7
48 12 -3 39 -8 59 -13z m-1107 -22 c14 -16 15 -21 4 -24 -8 -3 -26 -10 -41
-15 -32 -12 -33 -10 -13 29 18 35 26 37 50 10z m1035 -33 c0 -4 -3 -6 -7 -4
-5 2 -16 7 -27 11 -15 5 -16 9 -5 22 12 14 14 14 26 -2 7 -10 13 -22 13 -27z
m223 28 c20 -4 37 -9 37 -11 0 -8 -45 -74 -50 -73 -7 0 -70 86 -70 95 0 3 10
4 23 1 12 -3 39 -9 60 -12z m-1234 -75 c-12 -38 -19 -45 -91 -81 -42 -21 -79
-39 -82 -39 -2 0 12 29 30 64 35 65 47 74 134 99 22 6 23 3 9 -43z m1062 -51
c21 -43 39 -81 39 -84 0 -3 -27 9 -61 25 -62 32 -81 57 -95 130 l-6 28 41 -10
c39 -10 45 -16 82 -89z m-1015 59 c4 -6 -1 -17 -11 -24 -23 -17 -29 -12 -20
15 7 23 20 27 31 9z m888 -12 c3 -13 9 -32 12 -41 6 -14 1 -14 -36 5 l-44 22
25 19 c31 24 36 24 43 -5z m196 -11 c30 -9 58 -20 62 -24 4 -4 -10 -27 -31
-51 -22 -25 -41 -43 -44 -40 -7 8 -67 129 -67 136 0 3 6 4 13 2 6 -3 37 -13
67 -23z m-1279 -22 c-11 -21 -26 -46 -33 -57 -14 -17 -16 -17 -41 14 -15 17
-27 35 -27 38 0 7 85 39 108 41 9 1 7 -10 -7 -36z m224 -25 c-4 -29 -10 -58
-14 -65 -5 -10 -110 -93 -117 -93 -1 0 10 37 25 83 25 73 32 84 67 104 21 13
41 23 42 23 2 0 1 -24 -3 -52z m834 7 c45 -22 51 -29 70 -87 12 -34 21 -66 21
-70 0 -13 -137 90 -144 108 -7 19 -8 74 -1 74 3 0 28 -11 54 -25z m-776 1 c17
-13 16 -15 -15 -39 -18 -14 -34 -25 -35 -23 -1 1 0 19 4 39 6 39 17 45 46 23z
m707 -22 c0 -24 -2 -25 -17 -13 -10 7 -20 14 -22 16 -8 5 11 23 25 23 8 0 14
-10 14 -26z m-870 -2 c0 -21 -43 -132 -51 -132 -5 0 -27 17 -50 37 l-41 37 64
32 c67 35 78 39 78 26z m210 -45 c0 -39 -5 -48 -65 -107 -36 -35 -65 -60 -65
-54 0 6 5 37 11 70 9 50 17 65 53 96 54 50 66 49 66 -5z m638 18 c21 -17 31
-37 35 -67 3 -24 9 -63 13 -88 l6 -45 -51 50 c-51 49 -51 50 -51 112 0 35 4
63 9 63 5 0 23 -11 39 -25z m-68 -27 c0 -31 -3 -39 -11 -31 -7 7 -8 24 -4 42
9 43 15 39 15 -11z m-540 12 c0 -11 -4 -20 -10 -20 -5 0 -10 9 -10 20 0 11 5
20 10 20 6 0 10 -9 10 -20z m830 -5 c28 -14 50 -29 50 -33 0 -4 -15 -19 -34
-34 l-34 -28 -21 60 c-11 33 -18 60 -15 60 3 0 27 -11 54 -25z m-766 -55 l6
-55 -20 50 c-11 28 -18 56 -15 64 10 25 22 -2 29 -59z m436 60 c0 -5 -2 -10
-4 -10 -3 0 -8 5 -11 10 -3 6 -1 10 4 10 6 0 11 -4 11 -10z m-384 -10 c21 0
16 -21 -11 -55 -17 -21 -25 -25 -25 -14 0 9 -3 31 -7 49 -5 29 -4 32 11 27 10
-4 24 -7 32 -7z m367 -11 c13 -21 -19 -97 -34 -82 -7 7 -9 28 -5 58 7 46 20
54 39 24z m-53 -16 c0 -25 -1 -26 -20 -8 -21 19 -18 35 6 35 9 0 14 -10 14
-27z m-251 -24 c12 -38 10 -44 -26 -115 -21 -41 -41 -74 -44 -74 -4 0 -10 31
-14 68 -6 67 -6 70 26 115 18 26 36 47 39 47 4 0 12 -18 19 -41z m39 5 c-8
-18 -14 -21 -20 -12 -15 25 -9 46 11 41 17 -4 18 -8 9 -29z m112 -15 l-14 -41
-17 34 c-10 18 -18 36 -19 40 0 7 51 16 59 11 2 -2 -2 -21 -9 -44z m68 16 c23
-33 23 -37 12 -107 -18 -107 -23 -110 -55 -34 l-28 67 17 54 c9 30 20 55 24
55 4 0 18 -16 30 -35z m330 -18 c28 -22 52 -43 52 -47 0 -6 -91 -60 -102 -60
-3 0 -8 29 -12 65 -4 36 -9 72 -13 82 -8 20 0 15 75 -40z m-695 -21 l17 -48
-33 -45 -32 -45 -3 87 c-2 57 1 92 9 101 15 19 23 10 42 -50z m252 11 l25 -54
-23 -69 -24 -69 -28 84 c-27 82 -27 83 -10 122 10 21 22 39 26 39 5 0 20 -24
34 -53z m-449 -19 c-4 -28 -9 -55 -12 -60 -6 -9 -76 33 -75 45 0 10 72 65 85
66 5 1 5 -22 2 -51z m702 -55 l-3 -66 -28 41 c-27 38 -28 43 -17 79 18 54 20
57 37 34 9 -14 13 -41 11 -88z m-572 -71 c-3 -2 -31 6 -61 18 l-56 23 58 59
58 59 3 -77 c2 -42 1 -79 -2 -82z m484 90 c0 -9 -9 -44 -20 -77 l-20 -60 5 50
c10 87 17 115 26 109 5 -3 9 -13 9 -22z m168 -74 c-53 -28 -58 -25 -58 44 l0
62 45 -44 45 -44 -32 -18z m-392 2 l22 -70 -53 0 c-30 0 -57 5 -61 11 -7 11
57 142 65 133 3 -2 14 -36 27 -74z m-158 1 c18 -59 17 -61 -25 -49 -21 5 -39
11 -41 13 -5 4 42 75 49 75 3 0 11 -17 17 -39z m280 -6 c12 -25 22 -50 22 -55
0 -6 -21 -10 -46 -10 -35 0 -45 3 -41 14 3 8 11 32 18 55 7 23 15 41 19 41 3
0 16 -20 28 -45z m173 -28 c-4 -4 -24 -10 -44 -14 l-37 -6 11 34 c6 19 13 41
16 49 3 11 12 6 33 -20 16 -19 25 -39 21 -43z m-126 -92 c-43 -148 -115 -504
-127 -625 -2 -25 -7 -9 -16 55 -18 124 -78 415 -102 500 -11 38 -20 74 -20 80
0 6 52 10 136 10 130 0 135 -1 129 -20z m-150 -766 c4 -49 4 -93 1 -96 -4 -4
-28 3 -54 16 -53 25 -238 146 -247 161 -4 6 49 10 143 10 l150 0 7 -91z m324
75 c-26 -32 -220 -154 -266 -168 -22 -7 -23 -5 -23 66 0 126 -11 118 157 118
133 0 144 -1 132 -16z"/>
<path d="M2065 3900 c22 -23 32 -27 42 -19 11 9 13 -1 13 -56 0 -59 -2 -66
-15 -55 -13 11 -20 8 -41 -15 -29 -31 -24 -47 6 -20 19 17 21 17 38 2 10 -10
22 -17 25 -17 4 0 7 47 7 105 0 58 -3 105 -7 105 -3 0 -15 -7 -25 -17 -17 -15
-19 -15 -36 0 -32 29 -37 18 -7 -13z"/>
<path d="M2210 3893 l0 -36 -25 23 c-36 33 -44 16 -10 -20 l29 -30 -24 -25
-24 -25 29 -30 c16 -17 32 -30 37 -30 4 0 8 47 8 105 0 63 -4 105 -10 105 -5
0 -10 -17 -10 -37z m0 -115 c0 -16 -3 -19 -11 -11 -6 6 -8 16 -5 22 11 17 16
13 16 -11z"/>
<path d="M2240 3922 c0 -5 14 -21 30 -37 l30 -29 -32 -33 -32 -33 37 -37 37
-37 40 39 40 39 -32 33 -32 33 34 35 c41 43 28 47 -15 5 l-31 -30 -29 30 c-28
30 -45 38 -45 22z m100 -107 l23 -25 -23 -25 -24 -25 -23 22 c-27 26 -28 35
-6 60 21 23 25 23 53 -7z"/>
<path d="M2470 3838 l0 -92 -30 29 c-16 16 -32 26 -35 24 -2 -3 13 -23 35 -44
l40 -39 37 36 c20 21 34 41 30 45 -5 4 -19 -6 -32 -22 l-24 -30 -1 93 c0 54
-4 92 -10 92 -6 0 -10 -37 -10 -92z"/>
<path d="M2572 3826 l-2 -110 30 29 30 29 28 -27 c16 -15 31 -24 35 -20 11 10
8 191 -3 198 -6 4 -10 -25 -10 -81 l0 -87 -24 22 -25 23 -23 -22 -23 -21 -6
88 -5 88 -2 -109z"/>
<path d="M2872 3841 l-2 -95 -30 29 c-16 16 -32 26 -35 24 -2 -3 13 -23 35
-44 l40 -39 37 36 c43 44 37 65 -7 23 l-29 -28 -4 94 -3 94 -2 -94z"/>
<path d="M2710 3892 c0 -5 14 -21 30 -37 l30 -29 -32 -33 c-17 -18 -29 -35
-27 -38 3 -2 23 13 44 35 l39 40 -34 35 c-33 34 -50 43 -50 27z"/>
<path d="M1769 1911 c-8 -26 -17 -40 -25 -37 -32 12 -87 18 -81 9 4 -6 23 -14
43 -17 19 -4 42 -10 49 -12 9 -4 18 8 26 35 13 44 19 47 68 30 18 -6 34 -9 37
-6 8 8 -26 24 -68 32 -36 7 -37 6 -49 -34z"/>
<path d="M1830 1873 c-84 -48 -122 -74 -117 -80 3 -3 31 9 61 27 31 17 56 27
56 23 0 -30 -34 -103 -51 -108 -10 -4 -19 -11 -19 -17 0 -6 8 -7 18 -3 13 5
14 3 5 -6 -18 -18 -4 -38 33 -45 42 -8 47 -15 34 -49 -17 -44 -5 -61 54 -75
30 -7 59 -16 64 -19 7 -4 4 -30 -8 -74 l-19 -68 66 37 c115 64 123 69 123 75
0 3 -24 11 -52 18 -79 17 -80 18 -63 81 19 69 19 73 -1 66 -14 -5 -15 -4 -4 9
19 23 3 18 -66 -20 -34 -19 -65 -35 -69 -35 -4 0 -4 14 0 30 6 26 4 30 -14 30
-38 0 -31 19 16 46 86 48 98 57 85 62 -7 2 -10 8 -6 13 3 5 0 9 -6 9 -6 0 -8
5 -5 10 11 18 -17 11 -62 -16 -25 -14 -47 -23 -50 -21 -11 12 20 83 45 104 37
31 9 29 -48 -4z m80 -88 c0 -2 -10 -9 -22 -15 -22 -11 -22 -10 -4 4 21 17 26
19 26 11z m80 -140 c0 -2 -10 -9 -22 -15 -22 -11 -22 -10 -4 4 21 17 26 19 26
11z m15 -32 c-3 -10 -9 -31 -12 -46 -5 -27 -8 -28 -42 -22 -66 12 -67 20 -10
53 63 36 74 38 64 15z m54 -117 l35 -12 -59 -32 c-32 -18 -60 -31 -61 -29 -2
1 2 22 8 45 11 46 20 49 77 28z"/>
<path d="M2006 1358 c-8 -29 -13 -54 -12 -56 2 -2 46 20 96 49 51 29 88 55 81
57 -6 2 -43 -14 -81 -37 l-70 -40 6 39 c9 56 -2 50 -20 -12z"/>
<path d="M3195 1964 c11 -8 28 -20 38 -27 10 -7 19 -25 20 -41 3 -40 -38 -52
-82 -25 -34 21 -56 25 -46 9 3 -5 0 -10 -7 -10 -7 -1 0 -12 17 -25 27 -22 28
-25 10 -30 -11 -4 -29 -11 -40 -15 -11 -5 -26 -10 -34 -12 -8 -3 6 -16 35 -33
l48 -28 -32 -11 c-46 -16 -30 -26 19 -13 53 13 75 -5 27 -23 -47 -17 -22 -22
37 -6 l50 13 -32 19 c-17 10 -53 32 -80 48 l-48 29 38 10 c45 11 67 4 67 -22
0 -28 10 -31 59 -19 l42 11 -6 48 -7 48 36 6 c20 4 36 10 36 14 0 9 -156 101
-172 101 -8 -1 -6 -6 7 -16z m109 -67 c18 -13 18 -14 1 -21 -11 -4 -22 -1 -27
6 -18 29 -4 37 26 15z m-31 -67 c6 -23 3 -24 -25 -9 -17 9 -18 13 -7 20 21 13
26 11 32 -11z m-39 -46 c20 -8 21 -24 2 -24 -8 0 -16 7 -20 15 -6 17 -4 18 18
9z"/>
<path d="M3021 1715 c-1 -11 4 -37 10 -59 l11 -38 43 7 44 6 11 -40 c16 -59
28 -51 16 10 l-10 50 -48 -6 c-42 -6 -48 -5 -48 12 -1 10 -7 32 -15 48 -10 24
-14 26 -14 10z"/>
<path d="M2966 1624 c-4 -9 -1 -44 5 -76 13 -65 7 -77 -36 -79 -11 0 -35 -6
-52 -12 l-33 -12 95 -57 c52 -32 95 -56 95 -53 0 2 -7 31 -16 64 -8 34 -13 65
-10 70 3 4 32 14 65 21 34 7 59 16 56 20 -2 4 -40 29 -84 55 -45 27 -79 51
-76 53 3 4 76 -38 153 -86 13 -8 22 -10 22 -4 0 9 -159 112 -173 112 -3 0 -8
-7 -11 -16z m83 -78 l53 -33 -45 -12 c-25 -6 -48 -11 -50 -11 -3 0 -8 12 -11
28 -4 15 -9 35 -12 45 -7 24 3 21 65 -17z m-43 -140 l7 -39 -39 23 c-73 44
-79 49 -63 54 85 27 82 28 95 -38z"/>
<path d="M2119 3071 c-66 -21 -99 -61 -99 -121 0 -93 98 -142 160 -80 22 22
26 56 10 80 -8 11 -9 8 -4 -13 5 -21 1 -34 -17 -53 -56 -60 -146 9 -119 92 16
48 87 81 140 65 41 -12 55 -35 65 -106 3 -22 10 -52 16 -67 13 -31 99 -94 149
-108 57 -16 69 -10 18 9 -97 38 -158 108 -158 181 0 94 -72 147 -161 121z"/>
<path d="M2809 3051 c-51 -51 -35 -118 31 -135 24 -7 24 -6 -2 9 -55 31 -57
86 -4 121 32 20 68 13 103 -22 22 -22 25 -32 21 -76 -4 -36 -12 -57 -31 -75
-31 -31 -64 -32 -130 -4 -27 12 -58 21 -70 21 -39 0 -123 -46 -181 -99 -69
-63 -60 -67 14 -6 53 44 122 75 166 75 12 0 41 -9 65 -20 54 -24 117 -26 148
-4 29 21 51 72 51 121 0 104 -112 162 -181 94z"/>
<path d="M2517 2695 c19 -113 0 -203 -50 -234 -18 -11 -45 -34 -62 -51 -54
-56 -35 -133 45 -187 107 -74 241 58 151 148 -37 36 -70 37 -102 2 -16 -18
-17 -22 -4 -11 34 28 66 27 95 -2 27 -27 25 -62 -6 -99 -50 -60 -147 -29 -174
55 -14 43 1 71 60 110 21 14 46 42 55 61 22 45 22 154 1 208 l-16 40 7 -40z"/>
<path d="M1426 1648 c-74 -76 -99 -123 -103 -203 -7 -118 67 -188 201 -189 74
0 183 31 207 60 9 11 -10 48 -91 176 -57 90 -110 175 -119 190 -9 16 -20 28
-24 28 -5 0 -37 -28 -71 -62z m150 -90 c43 -68 93 -147 111 -176 l34 -53 -58
-26 c-114 -52 -249 -32 -300 46 -29 43 -30 119 -3 179 18 40 114 152 130 152
5 0 43 -55 86 -122z"/>
<path d="M1439 1459 l-50 -101 110 4 c60 2 113 6 116 10 6 6 -110 188 -120
188 -3 0 -28 -46 -56 -101z m114 4 c37 -58 45 -78 35 -84 -14 -9 -178 -12
-178 -4 0 13 81 165 88 164 4 0 29 -34 55 -76z"/>
<path d="M3484 1668 c-15 -24 -69 -109 -121 -190 -51 -81 -93 -150 -93 -153 0
-3 30 -20 66 -37 55 -26 78 -31 142 -31 78 0 122 13 166 52 50 44 63 145 28
225 -21 47 -86 123 -133 157 l-28 20 -27 -43z m71 -14 c44 -33 101 -118 115
-171 32 -126 -72 -226 -219 -209 -59 7 -151 43 -151 59 0 9 212 347 218 347 2
0 18 -11 37 -26z"/>
<path d="M3468 1493 c-90 -136 -84 -123 -57 -123 15 0 19 3 12 8 -8 5 3 31 38
85 27 42 52 77 54 77 5 0 71 -123 79 -148 7 -20 4 -21 -76 -25 l-83 -3 93 -2
c50 -1 92 0 92 3 0 11 -95 195 -101 195 -3 0 -26 -30 -51 -67z"/>
</g>
</svg>
