<?xml version="1.0" standalone="no"?>
<!DOCTYPE svg PUBLIC "-//W3C//DTD SVG 20010904//EN"
 "http://www.w3.org/TR/2001/REC-SVG-20010904/DTD/svg10.dtd">
<svg version="1.0" xmlns="http://www.w3.org/2000/svg"
 width="500.000000pt" height="500.000000pt" viewBox="0 0 500.000000 500.000000"
 preserveAspectRatio="xMidYMid meet">

<g transform="translate(0.000000,500.000000) scale(0.100000,-0.100000)"
fill="#000000" stroke="none">
<path d="M2427 4266 c-136 -49 -218 -188 -188 -318 6 -28 10 -52 9 -53 -2 -1
-93 -69 -203 -150 -110 -82 -249 -185 -310 -230 -60 -45 -173 -128 -250 -185
-77 -57 -174 -129 -215 -160 -41 -30 -80 -59 -87 -63 -6 -4 -35 5 -64 20 -45
24 -66 28 -134 28 -69 0 -86 -4 -127 -27 -123 -73 -175 -206 -132 -335 32 -96
110 -163 214 -185 l56 -11 213 -633 213 -634 -37 -41 c-111 -123 -104 -295 15
-402 56 -51 103 -67 192 -67 108 0 216 72 250 167 l12 33 191 0 c106 0 407 3
671 7 l480 6 19 -43 c43 -96 145 -160 255 -160 108 1 197 56 247 154 21 41 26
65 26 122 0 84 -23 140 -82 198 l-39 38 17 52 c10 28 100 314 201 636 101 322
184 586 185 588 1 1 28 7 60 12 134 22 228 133 229 270 1 167 -132 291 -298
278 -34 -3 -80 -15 -104 -27 l-43 -22 -327 233 c-180 129 -425 303 -545 388
l-217 155 6 61 c5 43 2 77 -10 119 -42 142 -211 230 -349 181z m188 -35 c112
-50 174 -180 141 -293 -35 -120 -123 -188 -243 -188 -74 0 -115 15 -167 60
-137 121 -107 338 58 420 53 26 155 27 211 1z m694 -739 c289 -206 528 -376
530 -378 2 -2 -9 -22 -24 -44 -18 -26 -32 -37 -39 -32 -6 5 -168 121 -361 257
-398 283 -699 497 -703 500 -7 6 54 82 62 78 4 -3 245 -174 535 -381z m-1013
282 c-26 -26 -1022 -763 -1041 -770 -10 -4 -55 54 -55 72 0 4 116 91 729 546
l334 247 27 -37 28 -37 -22 -21z m141 -141 c2 -6 -5 -30 -17 -53 l-21 -42 -61
84 c-33 45 -65 88 -69 94 -6 7 4 20 28 37 l37 26 49 -67 c27 -37 51 -72 54
-79z m299 126 l34 -21 -56 -81 c-88 -127 -86 -125 -111 -74 l-21 43 54 77 c30
42 57 77 61 77 3 0 21 -9 39 -21z m-263 -73 l-16 -30 -24 29 c-48 59 -48 63 7
46 l49 -15 -16 -30z m131 15 c-14 -23 -30 -41 -34 -41 -8 0 -33 51 -27 56 5 5
82 30 85 28 2 -1 -9 -21 -24 -43z m228 -10 l38 -28 -88 -126 c-48 -69 -89
-126 -93 -127 -3 0 -15 23 -27 51 l-21 51 72 103 c40 57 74 104 77 104 3 0 22
-12 42 -28z m-519 -76 c37 -52 67 -100 67 -105 0 -21 -41 -91 -50 -85 -12 8
-160 212 -160 222 0 8 61 63 70 62 3 0 35 -43 73 -94z m379 -302 l175 -358
-350 -3 c-193 -1 -352 0 -355 3 -3 3 72 161 166 351 95 190 172 350 172 355 0
35 37 -32 192 -348z m285 263 c-8 -20 -210 -306 -216 -306 -4 0 -19 24 -33 54
l-27 54 95 136 95 136 45 -32 c25 -17 43 -37 41 -42z m-743 -68 l88 -122 -29
-59 -29 -58 -107 148 -107 148 38 32 c20 18 42 32 48 33 5 0 50 -55 98 -122z
m827 19 l46 -32 -136 -193 -136 -192 -31 62 -32 63 56 80 c116 167 174 245
180 245 4 0 28 -15 53 -33z m-923 -125 c54 -75 101 -142 105 -148 7 -12 -41
-134 -52 -134 -5 1 -183 243 -249 339 -12 17 -8 23 34 55 25 20 50 33 55 30 5
-2 53 -67 107 -142z m1030 51 c20 -15 41 -30 45 -34 8 -6 -73 -126 -246 -368
l-60 -84 -29 58 -30 58 54 76 c146 212 223 320 226 321 2 0 20 -12 40 -27z
m-1110 -195 l122 -167 -28 -55 c-15 -31 -30 -55 -34 -53 -8 3 -297 400 -298
409 0 3 19 20 42 37 51 38 33 54 196 -171z m1278 70 c4 -6 -207 -316 -258
-380 -11 -14 -22 -15 -80 -6 -49 7 -66 14 -60 22 4 7 74 108 156 224 l148 212
45 -32 c24 -18 47 -36 49 -40z m-1383 -165 c81 -112 147 -205 147 -207 0 -4
-102 -20 -132 -21 -7 0 -268 356 -268 367 0 13 93 79 100 71 4 -5 73 -99 153
-210z m1482 101 c24 -18 29 -7 -113 -209 l-103 -146 -52 7 c-29 4 -55 9 -59
13 -4 4 52 90 124 193 l132 187 25 -15 c14 -9 35 -22 46 -30z m-1631 -153 c89
-123 123 -177 114 -181 -7 -4 -34 -10 -60 -13 l-47 -7 -111 151 c-60 83 -110
155 -110 159 0 8 82 72 86 67 1 -1 59 -80 128 -176z m1718 89 c21 -14 38 -29
38 -33 0 -4 -43 -69 -96 -143 l-96 -136 -52 7 c-28 4 -54 10 -57 14 -7 6 212
322 221 318 3 -1 22 -13 42 -27z m-1847 -145 c57 -77 100 -143 96 -147 -3 -3
-30 -8 -60 -10 l-54 -3 -88 120 c-49 66 -88 123 -89 126 0 9 74 59 84 56 5 -2
55 -66 111 -142z m2485 69 c85 -46 130 -123 130 -221 0 -174 -163 -292 -334
-241 -63 19 -140 100 -160 167 -20 69 -20 86 1 152 49 151 222 220 363 143z
m-530 0 c22 -15 40 -28 40 -31 0 -2 -35 -53 -77 -114 l-78 -111 -55 7 c-30 4
-57 8 -58 10 -4 4 179 265 185 265 2 0 21 -12 43 -26z m-2536 -12 c162 -72
198 -280 71 -407 -56 -56 -102 -75 -184 -75 -65 0 -107 17 -161 67 -57 50 -82
110 -82 189 0 181 187 300 356 226z m452 -108 c47 -64 84 -117 82 -119 -2 -2
-28 -6 -59 -10 l-56 -7 -66 91 c-37 51 -68 96 -70 101 -2 9 61 60 75 60 4 0
47 -52 94 -116z m2191 44 c18 -13 33 -26 33 -30 0 -4 -26 -44 -57 -89 l-58
-81 -50 7 c-27 3 -52 8 -54 11 -3 2 15 32 39 67 24 34 55 79 69 99 15 21 30
37 35 38 6 0 25 -10 43 -22z m-2316 -94 c33 -47 60 -87 58 -88 -2 -2 -27 -7
-56 -11 l-52 -7 -50 69 -51 68 37 32 c21 17 41 29 45 27 4 -3 35 -43 69 -90z
m-112 -62 c19 -24 32 -44 30 -46 -2 -2 -19 -6 -36 -9 -32 -6 -33 -6 -33 31 0
20 -3 48 -6 62 -8 29 -2 24 45 -38z m2454 -10 l4 -54 -36 7 c-20 4 -38 9 -40
11 -2 2 11 26 30 53 19 27 35 46 36 43 1 -4 3 -31 6 -60z m-1293 11 c-67 -88
-85 -113 -110 -163 -36 -72 -54 -151 -46 -202 15 -92 76 -157 151 -161 41 -2
45 -20 10 -43 -42 -27 -147 -15 -223 26 -69 37 -232 183 -232 208 0 9 25 94
55 189 l56 173 180 0 181 0 -22 -27z m477 -142 c29 -91 51 -167 49 -169 -2 -2
-21 5 -43 16 -96 48 -175 67 -283 67 -90 0 -112 -3 -153 -24 -65 -32 -101 -86
-100 -152 1 -53 -12 -63 -39 -31 -30 34 -40 65 -40 123 0 70 34 151 113 265
l52 74 195 -2 196 -3 53 -164z m-847 155 c0 -2 -27 -87 -60 -188 -33 -100 -81
-249 -107 -330 -26 -82 -50 -148 -54 -148 -5 0 -113 103 -241 228 -128 125
-255 249 -283 274 -27 26 -48 49 -45 52 3 2 115 21 250 41 135 19 299 44 365
54 122 19 175 24 175 17z m1265 -56 c192 -29 351 -53 352 -54 5 -5 -561 -551
-571 -551 -5 0 -22 38 -37 85 -15 47 -55 171 -90 275 -34 105 -70 216 -80 249
l-18 59 47 -6 c26 -3 204 -29 397 -57z m448 -112 l27 -37 -52 16 c-71 21 -72
21 -40 48 15 13 29 21 33 17 3 -4 17 -24 32 -44z m-2523 17 c13 -14 22 -26 19
-28 -2 -2 -30 -13 -61 -25 l-56 -21 30 50 c17 27 34 49 38 49 3 0 17 -11 30
-25z m2512 -69 l87 -26 -11 -33 c-6 -17 -14 -36 -19 -41 -7 -8 -127 24 -208
55 l-26 11 40 33 c21 19 42 32 45 30 3 -1 44 -14 92 -29z m-2409 -47 c-5 -3
-53 -21 -108 -39 -55 -18 -105 -35 -111 -37 -12 -4 -41 64 -32 73 3 2 47 19
99 38 l94 34 33 -31 c17 -17 29 -34 25 -38z m2597 -25 c0 -7 -20 -74 -44 -151
-24 -76 -90 -284 -146 -463 -207 -661 -200 -642 -224 -635 -11 4 -31 9 -43 12
-13 3 -23 12 -23 20 0 8 24 92 54 186 30 95 84 264 119 377 36 113 99 316 142
451 l78 246 43 -16 c24 -9 44 -21 44 -27z m-1120 1 c144 -46 132 -32 194 -228
31 -95 56 -176 56 -179 0 -8 -280 -212 -284 -207 -1 2 2 47 7 99 16 154 -18
284 -99 379 -52 60 -105 84 -181 84 -35 0 -63 3 -63 7 0 3 11 17 25 30 59 55
198 61 345 15z m-1539 -610 c115 -341 209 -623 209 -627 0 -3 -20 -13 -45 -22
-35 -11 -47 -12 -50 -3 -20 54 -415 1240 -415 1246 0 8 68 30 84 27 5 -1 103
-281 217 -621z m2400 585 c57 -18 108 -35 112 -40 11 -10 -13 -90 -26 -90 -13
0 -280 81 -286 86 -8 8 73 84 85 80 6 -2 58 -19 115 -36z m-2267 -9 l38 -39
-150 -50 -151 -50 -16 46 c-12 37 -13 48 -3 52 66 24 225 78 233 79 6 0 28
-16 49 -38z m801 -262 c60 -29 80 -34 145 -34 90 0 143 22 172 72 25 41 38 34
38 -18 0 -94 -105 -204 -290 -305 -121 -66 -99 -70 -267 51 -81 59 -151 111
-156 115 -6 5 84 306 100 332 2 4 45 -35 96 -86 70 -71 108 -101 162 -127z
m1410 155 c66 -20 124 -40 128 -44 13 -12 -18 -105 -34 -103 -30 6 -341 101
-347 107 -3 4 14 26 37 50 38 39 47 43 70 36 14 -5 80 -25 146 -46z m-2105 6
c29 -25 41 -42 35 -48 -12 -11 -355 -126 -359 -121 -7 9 -36 103 -32 106 5 5
289 101 301 102 6 0 30 -17 55 -39z m1126 -25 c71 -54 124 -216 124 -381 l0
-90 -154 -112 -155 -112 -138 100 c-76 56 -139 104 -140 108 -2 4 30 19 70 34
216 81 367 234 367 371 0 26 -7 61 -15 77 -20 38 -4 39 41 5z m-1006 -90 c24
-24 41 -47 38 -50 -6 -6 -418 -145 -430 -145 -8 0 -44 108 -37 114 6 6 362
125 374 126 6 0 31 -20 55 -45z m1895 -10 c98 -30 180 -56 182 -59 4 -4 -25
-105 -33 -114 -1 -2 -102 27 -224 64 l-221 68 48 48 c26 26 52 48 59 48 6 0
91 -25 189 -55z m-1776 -109 l43 -44 -249 -82 c-136 -45 -252 -83 -257 -84 -4
0 -17 23 -27 52 -13 39 -15 54 -6 58 68 25 426 143 437 143 9 1 35 -19 59 -43z
m1674 -17 c277 -84 249 -68 229 -128 -9 -28 -21 -51 -27 -51 -6 0 -71 18 -145
41 -74 22 -164 50 -200 61 -36 11 -89 27 -118 35 l-53 16 43 44 c23 23 49 43
57 43 8 0 104 -27 214 -61z m-1636 -133 l-12 -58 -224 -74 c-124 -41 -225 -73
-226 -71 -10 12 -35 110 -30 115 16 16 500 168 502 158 2 -6 -3 -37 -10 -70z
m1493 30 c85 -26 199 -61 252 -77 l96 -30 -20 -60 c-12 -35 -25 -59 -32 -56
-6 2 -111 35 -233 72 l-221 68 -7 55 c-4 30 -9 62 -13 70 -4 11 -1 14 9 10 8
-3 84 -27 169 -52z m-1141 -169 c146 -105 266 -197 268 -202 2 -6 -16 -21 -39
-33 -43 -21 -152 -78 -463 -243 -217 -114 -199 -110 -191 -47 7 52 111 657
122 710 5 23 9 26 22 18 9 -6 136 -97 281 -203z m936 156 c9 -68 81 -488 105
-617 11 -60 18 -111 16 -114 -3 -2 -116 55 -253 126 -136 72 -294 154 -350
184 -57 29 -101 57 -100 61 4 13 561 415 568 411 4 -2 10 -25 14 -51z m-1311
-150 c-3 -27 -10 -55 -14 -63 -9 -16 -367 -143 -380 -135 -10 6 -34 94 -28
101 6 5 407 142 421 143 5 1 5 -20 1 -46z m1596 -19 c118 -36 216 -67 217 -68
1 -1 -5 -25 -13 -54 -12 -41 -19 -52 -32 -48 -115 35 -324 99 -348 107 -26 8
-33 17 -39 47 -3 20 -9 47 -12 60 -3 12 -1 22 3 22 5 0 105 -30 224 -66z
m-1624 -146 l-11 -61 -157 -53 -157 -52 -17 50 c-9 27 -14 51 -13 52 5 4 351
124 360 125 3 1 1 -27 -5 -61z m1593 13 c86 -28 169 -53 184 -57 17 -4 26 -12
23 -19 -2 -7 -10 -32 -17 -54 -7 -23 -17 -40 -23 -38 -6 2 -78 25 -161 51 -82
26 -153 51 -157 54 -10 10 -22 112 -13 112 5 0 78 -22 164 -49z m-1614 -143
c-3 -24 -8 -50 -11 -58 -4 -16 -240 -107 -250 -97 -3 3 -11 25 -19 50 l-13 45
141 50 c78 27 146 50 150 51 5 0 6 -18 2 -41z m725 -121 c0 -90 3 -212 7 -270
l6 -107 -66 0 -67 0 0 243 0 243 53 26 c28 15 55 27 60 27 4 1 7 -73 7 -162z
m85 136 l55 -27 0 -61 c0 -34 3 -144 7 -243 l6 -182 -61 0 -62 0 0 188 c0 103
-3 224 -7 270 -3 45 -3 82 0 82 4 0 31 -12 62 -27z m823 -18 c80 -25 147 -47
149 -49 5 -5 -28 -96 -35 -96 -4 0 -64 18 -134 40 l-127 40 -6 38 c-4 20 -9
45 -12 55 -2 9 1 17 7 17 7 0 77 -20 158 -45z m-618 -150 c0 -33 3 -124 7
-202 l6 -143 -65 0 -66 0 -4 228 c-2 125 -3 230 -1 235 3 4 31 -8 64 -25 l59
-33 0 -60z m-436 -112 c4 -131 3 -230 -2 -235 -5 -5 -31 -8 -58 -6 l-49 3 -3
207 -2 207 47 25 c27 14 51 25 54 26 3 0 9 -102 13 -227z m1056 125 c52 -17
98 -32 101 -34 7 -4 -12 -78 -23 -89 -7 -7 -195 52 -202 63 -2 4 -7 29 -11 56
-7 47 -7 48 16 41 13 -4 67 -21 119 -37z m-1660 15 c0 -10 -3 -34 -6 -55 -6
-36 -8 -37 -97 -68 -69 -24 -92 -28 -98 -19 -9 16 -22 80 -16 85 5 5 197 72
210 73 4 1 7 -7 7 -16z m465 -115 c4 -73 5 -162 3 -198 l-3 -65 -52 -3 -53 -3
0 153 c0 84 -3 162 -6 173 -4 16 5 26 43 47 26 15 51 28 54 28 4 0 10 -60 14
-132z m719 19 c3 -33 6 -109 6 -168 l0 -109 -60 0 -60 0 0 195 0 195 54 -27
53 -26 7 -60z m-854 -91 c0 -73 3 -148 6 -165 l7 -31 -57 0 -56 0 0 103 c0 56
-3 119 -6 139 -6 35 -5 37 42 62 27 14 52 25 57 26 4 0 7 -60 7 -134z m935
101 l40 -23 3 -132 3 -133 -48 3 -48 3 -3 153 c-1 83 1 152 5 152 5 0 26 -11
48 -23z m354 -48 l63 -21 -49 -18 c-26 -9 -56 -20 -65 -25 -14 -6 -18 -2 -18
16 0 13 -3 34 -6 47 -8 27 -3 27 75 1z m-1639 2 c0 -5 -3 -22 -6 -39 l-6 -30
-40 14 c-22 8 -52 14 -67 15 -18 0 -7 8 39 24 75 27 80 28 80 16z m220 -121
l0 -130 -50 0 -50 0 0 108 0 108 43 21 c23 12 45 22 50 22 4 1 7 -57 7 -129z
m1184 104 l46 -26 0 -93 0 -92 -31 -7 c-60 -12 -58 -16 -61 119 -2 69 -2 125
-2 125 1 0 22 -12 48 -26z m-1306 -136 c-2 -13 -12 -8 -39 23 l-37 41 32 19
31 19 8 -43 c4 -23 6 -50 5 -59z m1415 10 c-19 -29 -37 -55 -39 -57 -2 -2 -4
30 -4 73 l0 76 39 -20 40 -20 -36 -52z m299 82 c57 -16 119 -69 150 -129 102
-196 -81 -419 -293 -358 -192 56 -247 297 -99 430 27 24 63 48 82 54 44 14
114 15 160 3z m-1868 -20 c138 -52 203 -218 136 -349 -49 -96 -143 -148 -251
-138 -212 19 -304 271 -156 425 75 79 169 100 271 62z m1516 -218 l0 -49 -472
-6 c-260 -4 -560 -7 -665 -7 l-193 0 0 50 0 50 393 3 c215 1 515 3 665 5 l272
2 0 -48z"/>
<path d="M2450 4169 c-32 -13 -78 -56 -96 -91 -21 -40 -18 -124 7 -167 33 -59
81 -86 154 -86 49 0 69 5 99 25 38 25 76 85 76 117 -1 10 -7 1 -15 -20 -47
-134 -213 -158 -296 -44 -62 85 -26 212 70 251 49 19 71 20 123 4 44 -13 95
-65 104 -106 10 -46 24 -72 17 -32 -9 60 -48 116 -96 139 -46 22 -106 26 -147
10z"/>
<path d="M2503 4092 c-24 -21 -43 -42 -43 -48 0 -5 16 -25 35 -44 l35 -34 -37
-41 -38 -40 40 35 c57 50 57 51 19 88 l-35 34 36 39 c30 34 41 50 33 49 -2 -1
-22 -18 -45 -38z"/>
<path d="M2405 3254 c-55 -113 -101 -209 -103 -214 -2 -6 78 -10 207 -10 116
0 211 3 211 8 0 12 -204 422 -210 421 -3 0 -50 -92 -105 -205z m102 51 l8 -60
5 74 5 74 78 -157 c42 -86 77 -159 77 -162 0 -3 -28 14 -62 36 -61 40 -52 28
28 -37 l39 -32 -167 0 c-93 -1 -168 3 -168 7 0 5 29 30 65 56 36 26 65 50 65
52 0 6 -11 0 -84 -49 -32 -22 -57 -35 -55 -29 17 46 154 311 156 301 1 -8 5
-41 10 -74z"/>
<path d="M3955 3056 c-121 -74 -110 -258 19 -317 53 -24 86 -24 145 2 52 22
86 60 96 105 5 23 2 20 -13 -12 -63 -131 -240 -132 -308 -2 -33 63 -10 157 51
203 93 72 232 27 265 -84 6 -17 9 -20 9 -8 2 30 -27 74 -65 104 -53 40 -143
44 -199 9z"/>
<path d="M4000 3013 c0 -5 11 -20 25 -33 20 -18 28 -21 37 -12 23 23 28 11 28
-75 0 -86 0 -86 -20 -68 -20 18 -21 18 -45 -5 -14 -13 -25 -28 -25 -33 0 -6
11 0 25 13 l25 23 25 -23 25 -23 0 123 0 123 -25 -23 -25 -23 -25 23 c-14 13
-25 19 -25 13z"/>
<path d="M4222 2900 c0 -14 2 -19 5 -12 2 6 2 18 0 25 -3 6 -5 1 -5 -13z"/>
<path d="M915 3047 c-68 -31 -113 -112 -102 -183 3 -21 4 -17 6 16 5 155 184
225 294 115 78 -79 50 -217 -57 -269 -17 -9 -24 -16 -15 -16 9 0 34 13 56 29
97 70 95 213 -3 287 -43 33 -130 43 -179 21z"/>
<path d="M982 2956 c-2 -48 -2 -49 -22 -31 -30 27 -34 12 -5 -15 21 -20 25
-33 27 -89 2 -64 2 -64 5 -13 4 57 7 60 35 35 28 -25 22 0 -7 27 -19 18 -25
35 -28 79 l-3 56 -2 -49z"/>
<path d="M820 2821 c0 -36 83 -112 122 -111 7 1 0 7 -17 15 -42 20 -59 35 -84
75 -11 19 -21 29 -21 21z"/>
<path d="M973 2703 c9 -2 25 -2 35 0 9 3 1 5 -18 5 -19 0 -27 -2 -17 -5z"/>
<path d="M1765 2759 c-104 -15 -206 -31 -225 -34 l-35 -7 85 -80 c47 -43 126
-120 176 -170 l92 -91 60 184 c33 101 63 194 67 207 8 27 24 27 -220 -9z m135
-27 c-71 -56 -83 -72 -25 -34 89 58 86 56 76 30 -5 -13 -28 -83 -51 -157 -46
-147 -46 -147 -81 -43 -28 84 -36 73 -10 -14 12 -37 20 -68 19 -70 -2 -1 -62
53 -133 121 -72 68 -128 124 -125 125 3 0 36 -9 74 -20 90 -25 97 -19 11 10
-36 12 -63 25 -60 29 7 6 270 48 315 50 24 1 24 0 -10 -27z"/>
<path d="M3050 2803 c1 -25 128 -394 136 -393 5 1 84 75 175 166 141 139 163
165 145 169 -20 4 -441 65 -451 65 -3 0 -5 -3 -5 -7z m263 -48 c75 -10 137
-21 137 -24 0 -4 -30 -17 -66 -30 -82 -29 -78 -38 7 -12 35 11 64 19 66 17 1
-1 -52 -57 -120 -124 -67 -67 -123 -118 -125 -114 -1 4 7 39 17 77 11 38 18
71 16 73 -1 2 -15 -33 -30 -77 -15 -45 -28 -81 -30 -81 -6 0 -97 280 -93 290
2 6 35 -10 73 -35 54 -36 61 -38 31 -13 -22 18 -51 43 -65 56 l-26 23 35 -4
c19 -2 97 -12 173 -22z"/>
<path d="M1985 1998 c-9 -30 -76 -450 -72 -454 3 -3 20 4 38 14 19 10 114 61
212 112 98 51 175 96 170 99 -26 23 -332 241 -338 241 -3 0 -7 -6 -10 -12z
m229 -166 l78 -57 -71 -3 c-84 -3 -96 -22 -14 -22 51 0 55 -1 38 -13 -42 -29
-275 -147 -275 -140 0 5 18 34 40 66 22 31 38 57 36 57 -3 0 -26 -27 -52 -60
-26 -33 -49 -58 -52 -56 -5 6 49 329 57 338 4 4 17 -24 30 -62 30 -89 39 -84
12 5 -12 37 -21 71 -21 77 0 5 26 -10 58 -32 31 -23 92 -67 136 -98z"/>
<path d="M2898 1906 c-92 -66 -166 -125 -165 -129 1 -4 94 -56 207 -116 147
-77 206 -104 208 -94 5 18 -68 446 -77 454 -3 4 -81 -48 -173 -115z m131 13
c-22 -69 -24 -102 -4 -49 29 78 36 93 39 89 5 -4 56 -308 56 -329 0 -7 -21 13
-46 46 -81 105 -84 98 -6 -13 24 -35 41 -63 38 -63 -3 0 -77 37 -163 82 -118
62 -152 84 -133 86 14 1 45 5 70 9 44 8 44 8 -27 13 l-72 5 127 92 c70 51 130
93 133 93 4 0 -2 -27 -12 -61z"/>
<path d="M3380 1249 c-101 -58 -121 -198 -41 -278 48 -48 97 -65 158 -56 59 9
138 82 148 138 14 75 -18 150 -84 194 -45 30 -131 31 -181 2z m169 -9 c101
-51 117 -201 30 -274 -67 -57 -151 -56 -219 0 -86 73 -80 198 13 265 49 36
118 39 176 9z"/>
<path d="M3470 1143 l0 -67 -31 30 c-23 21 -29 23 -21 9 5 -11 20 -29 31 -39
12 -11 21 -30 21 -44 l0 -26 -30 29 c-16 16 -30 24 -30 19 0 -11 62 -74 73
-74 4 0 7 52 7 115 0 70 -4 115 -10 115 -6 0 -10 -29 -10 -67z"/>
<path d="M1483 1241 c-53 -39 -76 -82 -76 -146 0 -145 156 -232 273 -152 53
36 73 70 78 135 8 114 -54 184 -168 190 -60 3 -69 1 -107 -27z m188 -4 c81
-54 103 -149 54 -232 -58 -99 -209 -107 -275 -14 -83 116 -6 269 136 269 37 0
61 -6 85 -23z"/>
<path d="M1590 1165 c0 -47 -4 -59 -32 -90 l-31 -36 36 -37 37 -37 0 128 c0
70 -2 127 -5 127 -3 0 -5 -25 -5 -55z m-5 -153 c-3 -3 -13 2 -22 11 -16 15
-15 18 3 38 l19 21 3 -32 c2 -17 1 -35 -3 -38z"/>
</g>
</svg>
