<?xml version="1.0" standalone="no"?>
<!DOCTYPE svg PUBLIC "-//W3C//DTD SVG 20010904//EN"
 "http://www.w3.org/TR/2001/REC-SVG-20010904/DTD/svg10.dtd">
<svg version="1.0" xmlns="http://www.w3.org/2000/svg"
 width="500.000000pt" height="500.000000pt" viewBox="0 0 500.000000 500.000000"
 preserveAspectRatio="xMidYMid meet">

<g transform="translate(0.000000,500.000000) scale(0.100000,-0.100000)"
fill="#000000" stroke="none">
<path d="M2392 4133 c-56 -98 -173 -302 -260 -453 l-159 -275 -506 -5 -507 -5
39 -65 c205 -348 462 -803 458 -814 -3 -7 -116 -205 -251 -439 -135 -234 -246
-428 -246 -431 0 -3 228 -6 508 -6 l507 0 62 -108 c284 -497 455 -787 464
-787 5 0 120 191 255 425 135 234 252 435 260 448 l14 22 506 0 c449 0 505 2
500 15 -3 9 -116 207 -251 440 -135 234 -245 427 -245 430 0 2 49 89 109 192
60 103 172 298 250 433 l141 245 -504 5 c-277 3 -506 7 -509 10 -2 3 -62 106
-133 230 -317 550 -388 670 -394 670 -3 0 -52 -80 -108 -177z m346 -307 c127
-221 232 -408 232 -414 0 -9 -121 -12 -471 -12 -405 0 -470 2 -467 14 4 19
461 815 468 816 3 0 110 -182 238 -404z m-798 -471 c0 -3 -71 -128 -157 -278
-86 -150 -185 -321 -220 -382 -35 -60 -66 -112 -71 -116 -4 -4 -98 151 -209
344 -112 194 -214 371 -229 395 l-25 42 455 0 c251 0 456 -2 456 -5z m1118
-84 c28 -49 116 -201 195 -339 l144 -250 -84 64 c-139 106 -286 171 -490 216
-135 30 -493 32 -623 4 -231 -49 -420 -134 -541 -243 -22 -20 -41 -34 -44 -32
-2 3 70 133 161 289 91 157 177 306 191 333 l26 47 507 0 506 0 52 -89z m888
47 c-222 -387 -365 -635 -394 -685 -20 -35 -39 -60 -43 -55 -9 8 -449 772
-449 778 0 2 205 4 455 4 l456 0 -25 -42z m-1456 -356 c0 -18 -33 -108 -44
-118 -6 -6 -26 -16 -43 -22 l-33 -11 0 61 0 62 35 -50 c19 -27 35 -45 35 -40
0 5 -16 31 -35 58 -24 32 -31 50 -23 52 7 3 20 7 28 9 25 9 80 8 80 -1z m131
-7 c5 -4 -6 -28 -27 -56 -20 -28 -34 -52 -32 -54 2 -3 19 16 37 42 26 37 35
43 43 32 8 -11 9 -11 5 3 -3 9 -3 19 0 22 7 7 103 -42 103 -52 0 -8 -95 -82
-105 -82 -3 0 -6 17 -7 38 l-1 37 -4 -37 c-4 -36 -4 -36 -36 -26 -42 14 -51
25 -66 77 -7 23 -15 50 -18 59 -5 13 1 14 46 9 28 -3 56 -9 62 -12z m-311 0
c0 -2 -17 -13 -37 -24 -209 -107 -297 -388 -191 -610 36 -75 130 -176 191
-205 54 -25 41 -29 -29 -7 -183 55 -351 193 -444 362 l-28 53 20 40 c67 131
191 253 331 326 42 21 70 41 64 44 -7 3 -3 4 8 1 11 -2 40 2 65 10 25 7 46 14
48 14 1 1 2 -1 2 -4z m50 -75 c0 -38 -3 -70 -6 -70 -10 0 -103 74 -104 82 0 7
88 57 103 58 4 0 7 -31 7 -70z m165 3 l14 -43 -36 0 c-33 0 -35 2 -30 28 10
47 29 88 34 72 3 -8 11 -34 18 -57z m259 47 c176 -60 326 -187 415 -351 l30
-53 -31 -57 c-88 -167 -264 -309 -447 -363 -70 -20 -75 -20 -29 4 118 63 219
208 240 348 27 173 -56 358 -203 453 -71 46 -65 50 25 19z m149 -35 c43 -18
104 -48 135 -67 68 -40 238 -207 270 -264 l22 -41 -39 -59 c-73 -112 -191
-215 -328 -285 -43 -22 -67 -37 -53 -34 40 11 149 73 209 120 71 54 138 125
186 199 l38 57 -19 33 c-69 121 -211 251 -349 320 -41 21 -75 39 -75 41 0 7
102 -31 174 -64 146 -66 324 -209 369 -297 16 -30 15 -33 -12 -75 -40 -64
-169 -179 -258 -229 -99 -57 -233 -111 -286 -115 -23 -2 -51 -6 -62 -10 -11
-4 13 12 53 35 120 68 263 218 317 331 l17 36 -41 72 c-75 128 -186 232 -326
305 -81 43 -54 39 58 -9z m-819 1 c-149 -80 -261 -192 -332 -332 l-21 -41 26
-49 c76 -142 223 -282 356 -338 64 -26 40 -27 -29 -1 -98 37 -180 81 -244 130
-71 54 -178 169 -207 222 l-22 39 43 65 c52 77 171 191 250 238 56 33 211 101
231 101 6 0 -18 -15 -51 -34z m-107 -16 c-128 -65 -234 -151 -306 -249 -79
-108 -78 -99 -21 -184 78 -116 210 -226 353 -293 64 -30 28 -22 -74 17 -160
61 -355 204 -419 308 l-28 44 25 41 c71 114 231 235 408 308 108 44 142 49 62
8z m245 -58 c21 -66 20 -78 -8 -117 l-21 -28 -31 46 c-18 25 -32 48 -32 51 0
3 16 -2 35 -10 19 -7 40 -14 47 -13 7 0 -9 9 -37 20 -27 11 -52 23 -54 25 -5
5 69 84 79 84 3 0 13 -26 22 -58z m605 -28 c-7 -7 -121 -43 -125 -40 -4 4 25
101 35 119 3 5 25 -10 49 -34 24 -23 43 -44 41 -45z m-517 8 c0 -5 -44 -41
-51 -42 -3 0 -11 18 -18 41 -7 23 -15 48 -19 57 -3 10 13 3 41 -18 26 -18 47
-35 47 -38z m395 9 c-9 -28 -20 -51 -23 -51 -12 1 -55 40 -50 46 17 16 83 62
86 59 2 -2 -4 -26 -13 -54z m-95 -27 c208 -113 206 -412 -4 -522 -44 -23 -63
-27 -136 -27 -77 0 -90 3 -140 31 -175 99 -205 332 -60 473 89 86 230 105 340
45z m-462 -60 c18 -23 32 -45 32 -48 0 -3 -29 -6 -65 -6 -36 0 -65 2 -65 5 0
18 53 106 59 99 4 -5 22 -28 39 -50z m729 -13 c8 -18 12 -35 10 -38 -3 -2 -32
-3 -66 -1 l-61 3 37 53 c35 49 38 52 51 35 8 -10 21 -33 29 -52z m-76 42 c-6
-10 -20 -30 -33 -45 l-23 -27 -23 29 -22 28 42 15 c60 21 71 21 59 0z m-621
-102 c0 -5 -4 -22 -10 -36 l-10 -26 -31 18 c-17 10 -37 26 -46 36 -15 16 -13
17 40 17 32 0 57 -4 57 -9z m655 -26 c-22 -19 -43 -35 -47 -35 -5 0 -28 54
-28 66 0 2 26 4 58 4 l57 -1 -40 -34z m-740 -5 c24 -17 46 -34 50 -39 3 -5
-19 -17 -47 -27 -29 -9 -59 -19 -67 -22 -10 -4 -12 4 -6 39 8 55 15 79 21 79
3 0 25 -14 49 -30z m818 -29 c5 -29 7 -54 5 -57 -3 -2 -33 6 -67 17 -34 12
-59 25 -54 30 25 24 89 67 98 65 6 -1 14 -26 18 -55z m-753 -67 c0 -34 -2 -36
-26 -30 -15 4 -41 13 -58 20 l-31 13 50 16 c67 21 65 22 65 -19z m695 17 l50
-18 -57 -16 c-31 -10 -58 -17 -60 -17 -2 0 -4 16 -4 35 0 40 2 40 71 16z
m-742 -52 c20 -7 37 -15 37 -18 -1 -10 -100 -74 -106 -68 -7 7 -23 76 -24 99
0 18 -2 18 93 -13z m802 -26 c-11 -74 -14 -75 -74 -30 l-55 41 50 17 c82 29
87 27 79 -28z m-1320 -218 c70 -121 170 -293 221 -382 52 -90 94 -167 94 -173
0 -7 -153 -10 -455 -10 l-456 0 17 33 c9 17 81 142 159 277 78 135 173 300
211 367 38 66 72 118 76 115 3 -4 63 -106 133 -227z m1967 100 c41 -71 143
-248 227 -392 83 -144 151 -265 151 -268 0 -3 -205 -5 -456 -5 -430 0 -456 1
-449 18 9 25 447 783 450 780 2 -2 36 -61 77 -133z m-1387 73 l7 -28 -56 0
c-31 0 -56 2 -56 4 0 11 85 65 91 59 4 -5 11 -20 14 -35z m669 0 l39 -28 -61
0 c-34 0 -62 2 -62 4 0 1 5 17 11 34 12 34 11 34 73 -10z m-664 -44 c0 -14
-72 -104 -80 -99 -7 5 -50 89 -50 100 0 3 29 5 65 5 36 0 65 -3 65 -6z m710
-6 c0 -23 -45 -93 -60 -94 -21 0 -101 23 -111 33 -5 5 0 21 10 37 l19 28 32
-46 c19 -25 35 -44 38 -41 2 2 -10 22 -27 43 -17 22 -31 43 -31 46 0 3 29 6
65 6 45 0 65 -4 65 -12z m-658 -59 c-10 -9 -102 -39 -102 -33 0 3 14 26 32 50
l32 45 22 -28 c12 -15 19 -31 16 -34z m969 -231 c-93 -161 -182 -315 -198
-343 l-29 -50 -502 -3 -501 -2 -54 92 c-132 228 -315 545 -326 566 -9 17 8 8
61 -32 213 -164 486 -246 814 -246 350 0 632 87 839 259 33 27 61 50 62 50 1
1 -74 -131 -166 -291z m-976 152 c-10 -33 -21 -60 -25 -60 -10 0 -84 79 -78
85 8 8 113 43 117 39 2 -2 -4 -31 -14 -64z m595 21 c0 -4 -18 -24 -40 -46 -29
-28 -41 -35 -44 -24 -20 54 -36 103 -36 110 0 4 27 -1 60 -13 33 -11 60 -23
60 -27z m-530 18 l25 -21 -30 -25 c-17 -13 -39 -29 -49 -35 -15 -8 -18 -7 -13
5 3 8 11 33 18 56 7 23 15 41 18 41 3 -1 17 -10 31 -21z m423 -82 c2 -38 0
-41 -43 -63 -48 -24 -60 -24 -55 4 1 9 0 11 -2 5 -7 -20 -16 -15 -45 28 -28
39 -35 59 -20 59 4 0 17 3 29 6 19 5 22 1 26 -28 l4 -33 1 38 c1 20 5 37 8 37
3 0 24 -14 46 -31 21 -17 41 -29 44 -27 2 3 -15 18 -38 33 l-42 28 29 25 29
25 14 -33 c7 -18 14 -51 15 -73z m-387 -84 c-6 -6 -106 46 -106 55 0 4 24 24
53 45 l52 38 3 -67 c2 -36 1 -68 -2 -71z m52 121 c29 -8 28 -21 -8 -68 l-30
-40 0 57 c0 59 1 61 38 51z m186 -72 c21 -29 36 -56 33 -58 -7 -7 -117 -18
-117 -12 0 2 7 26 16 52 9 26 14 49 12 52 -3 2 -12 -17 -20 -43 l-16 -48 -12
30 c-6 17 -14 43 -17 58 -6 28 -5 29 38 26 40 -3 47 -8 83 -57z m-125 6 c7
-24 15 -52 18 -62 5 -18 1 -19 -52 -13 -31 3 -59 8 -62 11 -5 5 68 106 78 106
3 0 11 -19 18 -42z m425 -665 c-48 -82 -154 -266 -237 -410 -83 -145 -153
-263 -156 -263 -4 0 -15 17 -27 38 -11 20 -116 202 -232 404 -117 201 -212
369 -212 372 0 3 214 6 475 6 l474 0 -85 -147z"/>
<path d="M2495 4025 c-52 -215 -139 -373 -273 -496 -31 -29 -48 -49 -37 -45
95 37 176 49 315 49 139 0 223 -13 314 -49 11 -4 -12 24 -51 62 -121 119 -214
287 -248 449 -12 55 -13 58 -20 30z m80 -255 c37 -73 79 -134 135 -194 l45
-49 -35 7 c-148 29 -310 30 -419 1 l-51 -13 59 71 c87 106 121 169 186 342 6
16 12 7 30 -45 12 -36 35 -90 50 -120z"/>
<path d="M1238 3223 c124 -125 212 -286 243 -442 l12 -62 23 88 c44 168 119
300 240 422 41 40 66 70 56 66 -91 -39 -151 -48 -312 -49 -162 -1 -223 8 -322
49 -9 4 18 -29 60 -72z m102 7 c69 -15 256 -12 329 5 35 9 65 14 66 13 2 -2
-25 -38 -60 -81 -73 -91 -115 -166 -155 -275 l-28 -77 -12 45 c-28 105 -99
232 -189 338 -40 48 -42 53 -20 48 13 -3 44 -10 69 -16z"/>
<path d="M2493 3288 c-8 -10 -95 -158 -130 -220 -2 -5 59 -8 137 -8 l141 0
-38 68 c-81 146 -100 173 -110 160z m117 -208 c0 -6 -47 -10 -110 -10 -60 0
-110 3 -110 6 0 7 50 98 88 158 l24 39 54 -92 c30 -51 54 -96 54 -101z"/>
<path d="M3223 3250 c71 -65 134 -145 181 -231 38 -69 96 -234 97 -277 0 -15
12 14 25 63 46 170 123 304 241 422 l72 72 -53 -19 c-174 -60 -416 -53 -605
18 -9 3 10 -18 42 -48z m112 -15 c76 -19 260 -19 345 -1 36 8 66 13 68 11 2
-1 -20 -29 -48 -61 -77 -88 -139 -201 -180 -329 l-13 -40 -22 65 c-35 104 -90
203 -160 290 -35 44 -61 80 -57 80 4 -1 34 -7 67 -15z"/>
<path d="M2419 2657 c-72 -48 -98 -154 -51 -216 38 -52 82 -73 142 -69 68 5
102 27 131 86 37 75 14 148 -61 200 -45 30 -115 30 -161 -1z m145 -1 c50 -21
80 -70 80 -132 0 -86 -57 -144 -144 -144 -61 0 -106 29 -131 85 -56 126 66
245 195 191z"/>
<path d="M2485 2610 c-6 -26 -10 -29 -32 -24 -23 6 -24 5 -14 -14 10 -18 7
-22 -27 -33 l-37 -12 37 -16 c30 -13 35 -19 28 -31 -15 -24 -12 -32 9 -20 27
14 29 14 36 -20 6 -28 25 -52 25 -31 0 5 4 21 10 36 8 22 13 24 30 15 22 -12
25 -7 10 20 -8 16 -5 19 20 25 42 9 45 21 9 34 -25 8 -30 15 -26 31 4 17 2 20
-14 15 -16 -5 -23 0 -32 24 -14 39 -24 39 -32 1z"/>
<path d="M1481 2269 c-32 -162 -121 -322 -249 -448 -41 -41 -66 -71 -56 -66
10 5 60 19 109 32 149 39 380 29 504 -23 18 -8 35 -14 37 -14 2 0 -29 33 -70
73 -124 123 -196 249 -240 420 l-23 88 -12 -62z m103 -256 c16 -29 57 -88 91
-130 35 -43 62 -79 61 -79 0 -1 -32 4 -71 12 -114 22 -301 16 -398 -12 -11 -4
7 26 48 78 71 90 136 208 161 296 l16 56 32 -85 c18 -46 45 -108 60 -136z"/>
<path d="M3488 2249 c-39 -161 -118 -299 -239 -421 -42 -43 -75 -78 -72 -78 2
0 19 6 38 14 122 51 352 62 500 23 50 -13 99 -27 110 -31 11 -5 0 9 -24 30
-115 100 -230 290 -271 448 -11 44 -21 80 -23 82 -1 1 -10 -29 -19 -67z m58
-124 c35 -92 94 -190 155 -260 28 -32 48 -59 46 -61 -2 -2 -19 1 -38 7 -85 26
-336 22 -432 -7 -11 -3 9 28 48 75 69 87 131 199 161 295 14 44 20 54 26 40 4
-11 19 -50 34 -89z"/>
<path d="M2370 1960 c0 -13 123 -229 130 -230 5 0 129 208 138 232 2 4 -57 8
-132 8 -88 0 -136 -4 -136 -10z m240 -16 c0 -9 -104 -184 -110 -184 -5 0 -10
8 -74 123 l-38 67 111 0 c61 0 111 -3 111 -6z"/>
<path d="M2222 1521 c117 -108 215 -272 257 -435 22 -85 31 -103 31 -65 0 36
33 146 68 220 42 94 105 182 185 263 38 38 61 66 51 62 -141 -56 -383 -69
-531 -28 -45 12 -90 25 -100 29 -10 4 8 -17 39 -46z m136 -17 c111 -18 186
-18 291 1 47 8 87 13 89 10 3 -2 -13 -24 -34 -47 -77 -84 -138 -188 -179 -308
-18 -52 -24 -61 -30 -45 -65 175 -99 236 -188 345 -34 41 -56 71 -49 66 7 -4
52 -14 100 -22z"/>
<path d="M1660 3973 c-203 -104 -171 -395 50 -453 86 -23 179 7 240 76 44 51
60 93 60 161 0 69 -24 125 -71 171 -49 49 -86 64 -159 69 -57 4 -72 1 -120
-24z m212 -25 c157 -88 153 -311 -8 -389 -190 -92 -389 115 -288 301 60 110
189 148 296 88z"/>
<path d="M1682 3889 c-41 -27 -72 -86 -72 -137 0 -75 78 -152 154 -152 80 0
145 55 160 136 9 47 -26 120 -73 151 -45 31 -123 31 -169 2z m165 -9 c42 -25
63 -68 63 -125 0 -81 -49 -135 -129 -142 -152 -13 -219 179 -92 264 43 29 113
31 158 3z"/>
<path d="M1740 3771 c0 -66 3 -127 6 -136 12 -29 24 5 24 66 0 48 4 59 30 84
l30 29 -37 38 c-20 21 -41 38 -45 38 -4 0 -8 -54 -8 -119z m49 55 c9 -10 8
-16 -4 -26 -13 -11 -15 -8 -15 14 0 30 3 32 19 12z"/>
<path d="M3150 3987 c-53 -17 -133 -102 -149 -160 -16 -55 -10 -131 15 -179
88 -174 331 -181 431 -11 37 63 39 165 6 228 -58 109 -184 160 -303 122z m184
-37 c88 -42 136 -144 115 -242 -16 -73 -94 -152 -164 -166 -95 -20 -186 17
-236 96 -49 78 -48 167 3 242 64 94 176 122 282 70z"/>
<path d="M3152 3890 c-102 -62 -95 -223 11 -274 175 -82 316 163 157 272 -43
29 -121 30 -168 2z m185 -33 c31 -30 37 -44 41 -89 3 -44 0 -59 -20 -88 -62
-93 -191 -91 -248 2 -36 59 -20 149 33 187 37 27 50 31 105 27 46 -2 59 -8 89
-39z"/>
<path d="M3220 3754 c0 -87 4 -133 10 -129 6 4 10 60 10 136 0 79 -4 129 -10
129 -6 0 -10 -52 -10 -136z"/>
<path d="M965 2755 c-56 -21 -111 -69 -137 -118 -31 -58 -31 -166 -1 -222 75
-141 255 -178 373 -77 61 52 84 103 84 187 0 76 -15 117 -63 168 -59 65 -174
92 -256 62z m125 -16 c199 -45 240 -296 67 -403 -96 -59 -231 -30 -292 62 -85
130 -23 299 124 338 57 16 48 15 101 3z"/>
<path d="M966 2657 c-54 -31 -78 -78 -73 -145 6 -88 66 -142 157 -142 88 0
150 64 150 155 0 122 -127 194 -234 132z m152 -7 c92 -56 96 -188 6 -249 -28
-20 -43 -23 -90 -19 -47 4 -61 10 -91 41 -31 30 -37 44 -40 89 -3 41 1 60 16
86 28 43 77 72 126 72 22 0 54 -9 73 -20z"/>
<path d="M1038 2647 c-5 -10 -8 -35 -8 -54 0 -36 0 -36 -20 -18 -31 28 -37 8
-7 -23 23 -23 27 -37 27 -83 0 -29 5 -61 10 -69 7 -11 10 0 10 38 0 56 4 61
32 35 32 -29 33 -4 0 30 -27 28 -31 40 -34 97 -2 41 -6 58 -10 47z"/>
<path d="M3871 2753 c-62 -22 -124 -88 -146 -153 -67 -201 140 -386 330 -296
151 71 193 253 87 376 -66 78 -178 108 -271 73z m143 -17 c103 -31 160 -107
160 -211 0 -129 -90 -218 -220 -219 -75 0 -141 35 -182 96 -24 37 -27 51 -27
122 0 71 3 86 26 118 35 51 74 80 128 94 60 16 60 16 115 0z"/>
<path d="M3883 2663 c-100 -56 -111 -200 -20 -265 44 -32 131 -36 175 -9 37
24 72 76 71 106 -1 15 -3 14 -9 -7 -21 -69 -73 -108 -145 -108 l-49 0 49 50
49 50 -39 40 -38 39 44 48 c24 26 49 47 54 45 22 -7 66 -58 74 -87 5 -16 10
-22 10 -12 2 31 -28 75 -66 102 -45 30 -113 34 -160 8z m117 3 c0 -3 -24 -27
-52 -55 l-53 -50 40 -40 39 -41 -39 -42 c-22 -24 -41 -45 -43 -47 -4 -8 -54
43 -68 71 -48 92 27 208 134 208 23 0 42 -2 42 -4z"/>
<path d="M3150 1548 c-50 -17 -133 -104 -148 -154 -45 -153 51 -302 206 -321
95 -11 194 41 242 127 20 36 25 59 25 115 -1 101 -43 173 -130 217 -47 24
-145 32 -195 16z m151 -23 c95 -34 152 -111 152 -209 0 -65 -21 -113 -69 -160
-99 -96 -260 -76 -335 42 -78 124 -24 277 117 327 51 18 82 18 135 0z"/>
<path d="M3152 1450 c-101 -62 -96 -220 8 -272 137 -69 283 77 211 212 -40 77
-145 105 -219 60z m156 -10 c18 -11 41 -34 52 -52 40 -66 17 -155 -52 -199
-26 -15 -45 -19 -86 -16 -45 3 -59 9 -89 40 -31 30 -37 44 -40 89 -3 39 1 62
15 87 36 67 133 91 200 51z"/>
<path d="M3220 1314 c0 -87 4 -133 10 -129 6 4 10 60 10 136 0 79 -4 129 -10
129 -6 0 -10 -52 -10 -136z"/>
<path d="M1699 1526 c-60 -21 -105 -54 -133 -96 -67 -102 -51 -240 37 -317
152 -133 391 -41 405 155 6 85 -11 135 -66 192 -68 70 -161 95 -243 66z m171
-40 c135 -70 157 -255 43 -355 -75 -66 -155 -78 -240 -36 -79 40 -123 109
-123 196 0 127 92 218 220 219 39 0 69 -7 100 -24z"/>
<path d="M1689 1427 c-76 -51 -98 -130 -59 -206 40 -79 148 -107 221 -58 47
31 82 104 73 151 -21 113 -146 173 -235 113z m21 -32 l-44 -45 42 -43 42 -43
-40 -39 c-45 -44 -60 -40 -81 22 -22 67 4 137 64 173 55 34 63 22 17 -25z
m128 26 c20 -11 45 -33 55 -49 24 -42 22 -118 -4 -161 l-20 -34 -45 44 -44 43
42 43 42 43 -44 45 c-47 48 -42 57 18 26z m-33 -41 l29 -30 -29 -30 c-16 -16
-34 -30 -40 -30 -6 0 -24 14 -40 30 l-29 30 29 30 c16 17 34 30 40 30 6 0 24
-13 40 -30z m26 -217 c-18 -16 -95 -17 -123 -2 -19 10 -19 12 18 50 l37 38 42
-37 c36 -32 40 -39 26 -49z"/>
</g>
</svg>
