<?xml version="1.0" standalone="no"?>
<!DOCTYPE svg PUBLIC "-//W3C//DTD SVG 20010904//EN"
 "http://www.w3.org/TR/2001/REC-SVG-20010904/DTD/svg10.dtd">
<svg version="1.0" xmlns="http://www.w3.org/2000/svg"
 width="500.000000pt" height="500.000000pt" viewBox="0 0 500.000000 500.000000"
 preserveAspectRatio="xMidYMid meet">

<g transform="translate(0.000000,500.000000) scale(0.100000,-0.100000)"
fill="#000000" stroke="none">
<path d="M2416 4265 c-54 -19 -106 -63 -141 -120 -28 -45 -30 -56 -30 -140 0
-86 2 -95 32 -143 l32 -51 -57 -16 c-224 -62 -428 -178 -597 -339 l-90 -86 60
36 c172 107 470 230 656 270 116 26 352 26 468 0 191 -41 449 -147 619 -253
40 -25 75 -43 78 -40 7 7 -159 151 -239 208 -101 71 -252 145 -383 188 -103
34 -113 39 -98 52 10 8 28 37 40 64 66 141 -10 317 -159 372 -44 16 -144 15
-191 -2z m212 -31 c98 -49 147 -136 140 -245 -5 -69 -23 -109 -72 -162 l-25
-27 42 -10 c174 -42 369 -131 505 -231 46 -34 82 -63 80 -65 -2 -2 -46 17 -96
42 -304 148 -584 207 -829 173 -165 -22 -346 -79 -542 -171 -57 -26 -105 -47
-107 -45 -5 5 146 111 214 151 87 50 237 112 321 132 36 9 72 18 79 20 10 3 5
15 -17 39 -44 50 -61 98 -61 170 0 34 7 79 15 98 56 135 222 196 353 131z"/>
<path d="M2423 4149 c-38 -24 -73 -93 -72 -140 1 -31 2 -29 9 12 4 26 13 56
19 67 14 26 68 68 96 75 l20 5 -20 1 c-11 0 -34 -9 -52 -20z"/>
<path d="M2551 4160 c70 -21 109 -75 109 -152 0 -60 -30 -105 -87 -130 -75
-33 -140 -12 -190 62 -13 18 -23 27 -23 20 0 -7 11 -28 25 -46 31 -40 101 -69
151 -61 43 7 99 47 119 87 21 42 19 118 -5 158 -22 36 -75 72 -105 71 -16 -1
-15 -2 6 -9z"/>
<path d="M2330 3751 c-103 -21 -194 -49 -295 -92 -105 -43 -89 -47 20 -4 218
86 433 115 625 85 81 -13 266 -70 355 -110 37 -16 70 -30 73 -30 12 1 -70 42
-133 67 -243 97 -449 124 -645 84z"/>
<path d="M2405 3660 c-306 -28 -581 -153 -797 -364 -40 -39 -84 -84 -96 -100
-12 -16 -24 -27 -25 -25 -2 2 -13 18 -25 36 -30 43 -113 83 -173 83 -88 0
-158 -45 -195 -124 -32 -68 -31 -119 4 -187 34 -68 91 -110 160 -117 l49 -4
-23 -62 c-49 -135 -69 -260 -69 -431 0 -174 20 -294 72 -439 151 -421 506
-732 948 -832 44 -10 81 -19 83 -20 2 -1 -4 -26 -13 -55 -54 -184 135 -342
305 -257 106 54 147 180 96 299 -6 13 6 18 61 28 170 31 375 123 524 235 227
171 394 414 473 688 69 238 59 542 -24 782 -11 33 -20 63 -20 68 0 4 16 8 35
8 101 0 195 104 195 215 0 198 -247 290 -378 141 -17 -20 -32 -42 -32 -48 0
-7 -32 23 -71 66 -270 292 -676 451 -1064 416z m275 -22 c83 -10 228 -45 248
-61 6 -5 12 -7 12 -4 0 16 230 -96 238 -115 2 -4 10 -8 18 -8 8 0 17 -7 20
-15 4 -8 12 -15 19 -15 21 0 113 -76 196 -160 210 -214 336 -492 364 -802 8
-82 8 -83 -40 -79 -17 2 -17 0 -5 -8 8 -6 23 -8 32 -5 16 5 17 -2 12 -83 -3
-48 -10 -108 -15 -133 -6 -25 -12 -58 -14 -75 -18 -110 -91 -280 -181 -417
-68 -103 -209 -262 -225 -252 -5 3 -9 -1 -9 -8 0 -18 -132 -113 -231 -166
-173 -92 -377 -147 -566 -151 -101 -2 -101 -2 -97 21 l5 23 -11 -23 c-9 -21
-14 -22 -67 -17 -144 14 -299 58 -423 119 -63 31 -143 76 -150 85 -3 3 -18 13
-34 21 -16 8 -51 35 -78 61 -26 25 -48 43 -48 40 -1 -17 -150 156 -201 232
-58 87 -64 107 -31 107 15 1 15 2 -1 11 -9 6 -15 14 -13 18 3 5 -5 6 -17 4
-19 -4 -26 4 -49 56 -31 69 -75 206 -83 254 -3 18 -9 57 -14 87 -5 30 -11 88
-14 128 l-6 72 27 -5 c25 -5 25 -5 5 4 -20 9 -23 18 -23 63 0 75 17 170 32
180 9 5 10 8 1 8 -8 0 -6 21 8 72 41 147 143 358 163 338 6 -6 14 -10 20 -10
5 0 1 6 -10 14 -19 14 -19 15 4 38 12 14 22 28 22 34 1 16 132 161 198 218 84
72 199 149 212 141 5 -3 10 -1 10 4 0 30 268 130 402 150 40 6 84 13 98 15 45
7 213 4 290 -6z m1107 -370 c88 -22 155 -123 140 -213 -14 -84 -86 -151 -175
-162 -57 -6 -74 10 -21 21 111 22 163 162 91 248 -64 76 -175 76 -239 0 -31
-36 -40 -21 -13 22 26 42 63 71 110 84 47 14 54 14 107 0z m-2429 -13 c61 -26
128 -104 102 -120 -6 -3 -13 1 -16 9 -11 29 -69 56 -121 56 -113 0 -185 -111
-135 -210 20 -40 74 -80 108 -80 15 0 24 -6 24 -15 0 -36 -111 -7 -163 43 -43
40 -57 75 -57 137 0 62 14 97 57 137 58 55 132 71 201 43z m2426 -76 c101 -80
52 -251 -71 -248 -24 0 -35 11 -80 89 -56 95 -59 106 -40 130 42 54 141 69
191 29z m-2379 -20 c19 -17 35 -37 35 -43 0 -7 -22 -50 -50 -96 -27 -46 -50
-87 -50 -92 0 -13 -49 -9 -81 7 -88 46 -92 183 -6 235 50 31 109 26 152 -11z
m-5 -1399 c0 -5 -4 -10 -9 -10 -6 0 -13 5 -16 10 -3 6 1 10 9 10 9 0 16 -4 16
-10z m963 -752 c-4 -54 -2 -68 19 -97 107 -158 343 -35 273 142 -13 31 14 18
31 -15 46 -88 5 -206 -88 -252 -61 -31 -108 -33 -163 -7 -97 45 -139 151 -99
251 9 22 20 40 24 40 4 0 6 -28 3 -62z m277 42 c5 -8 10 -35 10 -59 0 -174
-249 -190 -277 -17 -3 20 0 49 6 64 l12 29 120 -1 c94 -1 122 -5 129 -16z"/>
<path d="M2536 3625 c-3 -9 0 -15 9 -15 16 0 20 16 6 24 -5 3 -11 -1 -15 -9z"/>
<path d="M2420 3620 c0 -5 5 -10 11 -10 5 0 7 5 4 10 -3 6 -8 10 -11 10 -2 0
-4 -4 -4 -10z"/>
<path d="M2466 3604 c-9 -24 -2 -26 12 -4 7 11 8 20 3 20 -5 0 -12 -7 -15 -16z"/>
<path d="M2592 3590 c0 -19 2 -27 5 -17 2 9 2 25 0 35 -3 9 -5 1 -5 -18z"/>
<path d="M2279 3603 c-17 -4 -15 -43 2 -43 5 0 6 7 3 15 -4 8 -2 15 4 15 6 0
13 -6 15 -12 3 -7 6 -3 6 10 1 22 -1 23 -30 15z"/>
<path d="M2688 3603 c7 -3 16 -2 19 1 4 3 -2 6 -13 5 -11 0 -14 -3 -6 -6z"/>
<path d="M2731 3581 c1 -18 3 -20 6 -8 4 14 8 15 18 7 9 -8 14 -7 18 4 4 9 -3
16 -19 19 -21 4 -24 1 -23 -22z"/>
<path d="M2157 3579 c7 -7 15 -10 18 -7 3 3 -2 9 -12 12 -14 6 -15 5 -6 -5z"/>
<path d="M2208 3583 c7 -3 16 -2 19 1 4 3 -2 6 -13 5 -11 0 -14 -3 -6 -6z"/>
<path d="M2801 3574 c0 -11 3 -14 6 -6 3 7 2 16 -1 19 -3 4 -6 -2 -5 -13z"/>
<path d="M2843 3573 c4 -3 2 -12 -4 -19 -8 -10 -6 -11 15 -1 16 8 21 14 13 19
-15 9 -33 10 -24 1z"/>
<path d="M2122 3546 c7 -8 15 -12 17 -11 5 6 -10 25 -20 25 -5 0 -4 -6 3 -14z"/>
<path d="M2907 3539 c4 -16 8 -17 14 -7 13 19 11 28 -5 28 -9 0 -12 -7 -9 -21z"/>
<path d="M2050 3535 c-17 -10 -20 -14 -9 -15 9 0 22 7 29 15 15 18 12 18 -20
0z"/>
<path d="M2355 3526 c-395 -55 -727 -297 -900 -658 -342 -715 109 -1553 897
-1664 352 -50 705 63 964 308 258 244 396 606 364 952 -53 556 -468 989 -1016
1061 -133 17 -185 17 -309 1z m153 -56 c-83 -97 -158 -206 -195 -287 -21 -46
-43 -83 -48 -83 -6 0 -44 -16 -84 -35 l-73 -35 7 47 c12 85 45 186 102 305
l56 117 51 9 c28 5 91 10 139 11 l89 1 -44 -50z m257 24 c33 -8 66 -17 74 -20
10 -3 -10 -21 -54 -50 -111 -73 -194 -143 -252 -213 l-54 -66 -89 -16 c-50 -8
-90 -11 -90 -7 0 5 15 39 34 76 38 76 103 167 185 261 l55 63 66 -6 c36 -4 92
-14 125 -22z m-517 -11 c-2 -5 -22 -46 -45 -93 -50 -104 -90 -224 -101 -309
-6 -39 -15 -67 -24 -72 -9 -5 -40 -29 -69 -53 -66 -55 -67 -52 -68 90 -1 94
16 227 40 316 11 41 41 59 174 104 74 24 99 29 93 17z m772 -80 c52 -27 95
-52 95 -56 0 -5 -32 -19 -72 -32 -95 -30 -245 -104 -310 -153 -50 -37 -55 -39
-100 -31 -27 4 -67 8 -91 8 -40 1 -42 2 -32 21 23 43 163 170 257 234 115 79
113 79 253 9z m-1054 -40 c-25 -88 -37 -191 -35 -329 l1 -153 -35 -43 c-19
-24 -40 -53 -46 -65 -18 -36 -28 -28 -50 40 -34 104 -50 187 -57 304 l-7 111
63 48 c63 50 148 104 163 104 5 0 6 -8 3 -17z m1258 -87 c39 -30 86 -70 105
-89 l33 -35 -78 -7 c-171 -14 -341 -50 -392 -84 -9 -5 -38 2 -80 20 -37 16
-75 29 -84 29 -10 0 -18 5 -18 10 0 14 127 96 198 127 59 26 220 82 236 83 5
0 41 -24 80 -54z m-1495 -157 c1 -81 28 -221 57 -303 14 -39 26 -80 26 -91 0
-24 -52 -165 -61 -165 -4 0 -27 30 -51 67 -49 75 -107 204 -138 305 -23 78
-28 66 82 197 78 93 84 92 85 -10z m1709 -62 c29 -39 64 -91 78 -115 l26 -43
-24 6 c-144 33 -185 38 -328 39 l-156 1 -49 36 c-28 20 -61 42 -75 49 l-25 13
41 18 c43 18 205 56 264 62 19 2 71 5 115 5 l80 2 53 -73z m-978 53 c0 -13
-29 -24 -112 -43 -55 -11 -68 -12 -68 -1 0 17 15 26 75 40 63 15 105 17 105 4z
m169 4 c24 -5 29 -10 21 -19 -8 -10 -33 -12 -93 -8 -90 6 -92 7 -82 22 7 12
104 15 154 5z m159 -45 c51 -21 64 -33 41 -41 -9 -3 -145 37 -168 49 -1 1 0 7
4 13 9 15 52 7 123 -21z m-518 1 c0 -14 -18 -26 -92 -64 -63 -32 -68 -33 -68
-15 0 15 18 29 73 54 79 37 87 40 87 25z m140 -65 l-12 -36 -31 20 c-18 11
-33 24 -35 30 -3 8 77 32 86 25 2 -1 -1 -19 -8 -39z m104 0 l37 -44 -23 -45
-23 -45 -48 46 -48 45 17 44 c22 57 41 57 88 -1z m86 38 c0 -5 -10 -21 -23
-37 l-23 -28 -27 36 -28 36 50 0 c28 0 51 -3 51 -7z m77 -57 l26 -54 -33 -40
-34 -39 -33 55 c-18 30 -33 57 -33 60 0 14 53 72 66 72 8 0 26 -24 41 -54z
m56 28 l47 -16 -29 -24 c-16 -13 -32 -24 -35 -24 -5 0 -36 66 -36 76 0 6 3 5
53 -12z m206 -25 c68 -45 78 -57 59 -64 -16 -6 -159 85 -152 97 10 16 32 8 93
-33z m-573 -16 c24 -15 25 -20 19 -67 -4 -28 -8 -52 -10 -54 -1 -1 -27 12 -58
30 -52 31 -56 36 -57 70 0 21 7 44 16 53 18 17 10 20 90 -32z m-116 -14 c0
-44 1 -44 -70 -17 -25 10 -24 10 20 33 25 13 46 24 48 25 1 0 2 -18 2 -41z
m-216 -52 c-67 -62 -74 -65 -74 -38 0 28 124 132 128 108 2 -10 -19 -38 -54
-70z m785 66 c5 -10 12 -38 16 -63 6 -44 5 -46 -34 -78 -28 -22 -42 -29 -45
-20 -2 7 -10 37 -19 65 l-15 53 34 30 c40 35 50 37 63 13z m-1260 -76 c34
-106 94 -230 146 -302 l45 -64 -9 -81 c-5 -45 -12 -84 -15 -87 -10 -10 -117
89 -175 162 -31 39 -75 100 -99 136 l-43 66 21 54 c27 67 90 189 99 189 3 0
17 -33 30 -73z m1335 37 l39 -27 -34 -18 c-38 -19 -42 -16 -52 39 -8 39 -3 40
47 6z m-676 -21 c30 -12 32 -16 32 -64 0 -45 -2 -50 -17 -44 -10 3 -39 11 -64
17 -44 10 -47 13 -53 51 -11 67 13 77 102 40z m241 -17 l43 -44 -12 -52 -12
-51 -44 46 c-44 45 -44 47 -38 95 4 28 10 50 13 50 4 0 26 -20 50 -44z m136 1
c31 -53 31 -66 4 -112 l-22 -36 -29 53 c-29 52 -29 53 -13 95 9 24 21 43 25
43 5 0 21 -20 35 -43z m800 17 c144 -24 154 -28 180 -89 28 -62 69 -194 63
-200 -2 -3 -44 15 -94 40 -97 48 -224 92 -288 101 -23 3 -50 7 -61 9 -19 4
-132 133 -128 145 5 10 100 17 168 13 39 -2 111 -11 160 -19z m-272 -104 c17
-29 17 -30 0 -29 -23 1 -127 126 -110 132 14 5 85 -61 110 -103z m-1016 24
c-1 -1 -22 0 -47 3 l-44 6 40 33 39 33 8 -36 c4 -20 6 -37 4 -39z m624 12 c12
-54 12 -54 -22 -94 l-34 -41 -12 47 c-7 26 -13 56 -13 66 0 23 48 88 60 81 5
-3 14 -30 21 -59z m-422 24 c59 -29 71 -46 71 -96 0 -24 -2 -44 -5 -44 -2 0
-20 10 -38 23 -19 12 -42 27 -51 32 -16 10 -36 105 -22 105 4 0 24 -9 45 -20z
m659 -35 c3 -60 -8 -76 -65 -98 l-43 -17 0 68 c0 67 1 69 33 85 55 28 72 20
75 -38z m-1018 9 c0 -9 -18 -43 -40 -76 -22 -33 -40 -64 -40 -69 0 -15 -17
-10 -23 6 -6 14 80 155 95 155 4 0 8 -7 8 -16z m1100 -60 c0 -6 -16 -14 -35
-16 l-35 -4 0 50 0 50 35 -34 c19 -19 35 -39 35 -46z m-200 -3 c0 -56 -2 -62
-32 -84 -59 -43 -58 -44 -58 25 1 61 2 64 37 91 20 15 40 27 45 27 4 0 8 -27
8 -59z m-719 -13 l18 -46 -66 -4 c-69 -3 -70 -3 -93 56 -14 39 6 53 70 46 52
-5 53 -6 71 -52z m421 -13 c13 -36 13 -45 -3 -95 -9 -30 -19 -48 -22 -40 -3 8
-12 36 -21 61 -9 26 -14 59 -11 73 18 86 15 81 29 60 7 -10 19 -37 28 -59z
m-319 36 c17 -7 30 -24 41 -57 9 -26 15 -49 13 -50 -1 -2 -21 3 -42 11 -22 8
-47 14 -56 15 -9 0 -19 6 -22 13 -3 6 -13 30 -22 51 l-16 39 40 -7 c22 -3 51
-10 64 -15z m212 -31 c21 -28 25 -45 25 -99 l-1 -66 -16 30 c-8 17 -24 40 -35
51 -12 14 -21 43 -25 79 -5 51 -4 57 10 49 9 -5 28 -25 42 -44z m204 -33 c1
-35 -6 -58 -28 -94 l-29 -46 -4 64 c-3 53 0 73 20 114 22 43 26 47 33 30 4
-11 8 -41 8 -68z m-664 22 c9 -17 15 -32 13 -34 -8 -8 -78 -16 -78 -10 0 9 40
75 46 75 2 0 11 -14 19 -31z m376 -36 c16 -15 29 -40 33 -63 3 -21 9 -46 13
-56 4 -10 -13 1 -37 24 -24 23 -47 42 -51 42 -7 0 -39 85 -39 103 0 11 45 -16
81 -50z m825 -8 c44 -83 50 -105 27 -98 -15 4 -30 30 -91 156 -2 5 4 7 14 5
11 -2 32 -28 50 -63z m-440 -2 c-5 -52 -11 -62 -47 -96 -23 -20 -43 -36 -45
-35 -1 2 3 28 9 58 10 53 58 130 80 130 6 0 7 -23 3 -57z m334 32 c0 -13 -7
-42 -16 -64 -13 -33 -21 -39 -52 -45 -72 -12 -73 -11 -57 35 8 23 15 50 15 61
0 22 31 36 78 37 28 1 32 -2 32 -24z m268 -6 c37 -11 119 -46 184 -76 134 -64
124 -48 134 -223 8 -131 16 -127 -81 -41 -79 69 -165 127 -252 170 -75 37 -81
42 -98 88 -10 26 -27 63 -38 82 l-21 34 52 -7 c29 -4 83 -16 120 -27z m-394
-16 c-21 -87 -28 -98 -72 -112 -24 -7 -45 -11 -47 -9 -2 2 3 28 11 57 14 47
21 55 58 72 54 24 58 24 50 -8z m172 -44 l26 -52 -39 8 c-21 4 -39 8 -41 10
-4 4 20 85 24 85 2 0 15 -23 30 -51z m-1657 -61 c64 -94 153 -192 219 -243 48
-36 49 -38 56 -104 3 -36 9 -76 12 -89 l7 -23 -39 16 c-72 29 -194 109 -277
180 -77 66 -82 74 -85 114 -3 37 17 166 34 225 7 22 7 22 73 -76z m355 -17
c-15 -44 -31 -78 -37 -74 -14 8 -3 71 23 132 17 39 25 49 32 38 5 -10 -2 -45
-18 -96z m215 65 l30 -43 -61 -17 -61 -17 -29 28 c-41 39 -34 65 22 80 66 17
66 17 99 -31z m146 4 c14 -22 25 -42 25 -44 0 -2 -28 -2 -62 1 -63 5 -80 15
-109 66 -9 15 -4 17 56 17 65 0 65 0 90 -40z m81 13 c25 -12 43 -32 60 -65 13
-26 24 -49 24 -51 0 -2 -25 9 -56 23 -34 17 -64 41 -80 63 -13 20 -24 38 -24
41 0 12 40 5 76 -11z m557 -49 c-16 -41 -26 -53 -68 -76 -27 -15 -51 -26 -52
-24 -2 1 8 26 22 54 24 50 106 125 113 104 1 -5 -5 -31 -15 -58z m-310 -53 c1
-35 -2 -55 -10 -58 -10 -4 -13 16 -12 79 0 66 2 78 10 58 6 -14 11 -49 12 -79z
m-52 -2 c21 -56 26 -100 8 -82 -13 13 -59 138 -59 161 0 25 29 -19 51 -79z
m115 34 c-8 -64 -24 -115 -36 -108 -7 4 2 87 15 138 13 51 28 30 21 -30z m65
-8 c-12 -43 -58 -125 -71 -125 -12 0 13 69 46 125 30 53 40 53 25 0z m-210
-83 c12 -24 19 -45 17 -48 -7 -6 -60 63 -93 121 l-28 50 42 -40 c23 -22 51
-59 62 -83z m-529 91 c26 -24 22 -37 -17 -55 -39 -17 -39 -18 -24 35 11 42 15
44 41 20z m1119 -30 c-32 -62 -43 -70 -99 -76 l-54 -6 16 22 c9 12 24 36 33
54 18 35 28 40 86 42 l37 1 -19 -37z m137 15 c2 -10 -11 -38 -28 -62 -31 -45
-31 -46 -78 -39 -26 3 -48 7 -50 8 -2 2 10 28 25 59 l28 57 50 -3 c38 -2 51
-7 53 -20z m-1035 -23 c20 -20 37 -37 37 -39 0 -2 -19 -6 -42 -9 -24 -3 -52
-9 -63 -12 -14 -4 -32 4 -60 28 l-40 35 45 11 c25 7 50 14 55 16 21 8 31 3 68
-30z m99 27 c9 -4 33 -26 53 -49 l35 -42 -32 10 c-18 5 -44 9 -58 9 -15 0 -43
16 -70 40 l-45 39 50 0 c28 0 58 -3 67 -7z m477 -32 c-38 -67 -129 -149 -98
-87 10 20 108 127 117 127 2 0 -7 -18 -19 -40z m211 24 c0 -21 -65 -95 -88
-100 -15 -3 -42 -10 -60 -14 l-32 -8 45 52 c26 31 59 57 77 64 39 12 58 14 58
6z m329 -13 c12 -22 34 -152 27 -159 -11 -11 -36 22 -36 47 0 15 -6 50 -14 79
-11 43 -11 52 0 52 7 0 18 -8 23 -19z m-861 -65 c19 -17 38 -40 44 -51 11 -19
11 -19 -18 0 -51 32 -115 88 -126 108 -10 19 -8 19 28 -3 22 -13 54 -37 72
-54z m971 30 c76 -39 180 -114 265 -193 l57 -53 -11 -77 c-10 -74 -34 -180
-43 -189 -2 -2 -33 40 -70 94 -40 60 -103 133 -159 188 l-93 89 -16 88 c-8 48
-11 87 -7 87 5 0 39 -15 77 -34z m-1356 -19 l29 -24 -35 -20 c-18 -11 -45 -28
-58 -37 -24 -15 -26 -14 -62 15 -44 36 -40 52 22 83 49 25 54 25 104 -17z
m1193 -12 c3 -25 4 -48 2 -51 -6 -5 -68 16 -68 23 0 12 42 73 50 73 5 0 12
-20 16 -45z m-451 -6 c-37 -38 -114 -84 -124 -73 -3 2 4 11 15 20 29 23 136
94 143 94 3 0 -13 -19 -34 -41z m-944 -91 c-1 -45 -4 -85 -6 -87 -3 -2 -12 2
-21 10 -14 11 -15 25 -10 80 7 81 15 104 29 90 5 -5 9 -47 8 -93z m435 76 c24
-14 46 -29 48 -32 2 -4 -24 -8 -58 -10 -46 -2 -73 3 -110 20 l-48 23 28 12
c46 19 92 15 140 -13z m79 2 c28 -9 64 -28 80 -42 l30 -26 -30 7 c-37 8 -125
52 -145 72 -13 14 -13 15 0 11 8 -3 38 -13 65 -22z m-215 -31 l45 -23 -40 -17
c-22 -9 -47 -23 -56 -31 -14 -13 -22 -12 -63 5 -25 11 -46 23 -46 26 0 7 93
65 105 64 6 0 30 -11 55 -24z m483 -33 l57 -58 -60 -59 -60 -59 -55 54 c-30
30 -55 59 -55 64 0 11 100 116 110 116 3 0 31 -26 63 -58z m378 44 c-6 -7 -29
-26 -50 -40 -33 -23 -47 -27 -96 -24 l-57 3 54 36 c44 30 62 37 107 38 44 1
52 -1 42 -13z m128 -1 c3 -3 -15 -25 -39 -50 l-45 -43 -52 11 -53 11 48 43
c44 40 50 43 91 38 25 -3 47 -7 50 -10z m-274 -5 c-17 -27 -159 -78 -170 -60
-6 9 54 36 120 55 28 7 51 14 53 14 2 1 0 -4 -3 -9z m355 -16 c22 -9 40 -22
40 -29 0 -17 -79 -85 -97 -85 -12 0 -71 26 -82 36 -6 5 80 94 91 94 4 0 26 -7
48 -16z m-1291 -13 l25 -19 -30 -26 c-36 -32 -48 -33 -40 -3 3 12 6 32 6 45 0
27 7 27 39 3z m472 -12 c19 -7 39 -16 44 -22 14 -13 -88 -2 -145 16 l-45 15
56 1 c31 1 71 -4 90 -10z m-123 -15 l57 -17 -67 -20 c-65 -19 -158 -18 -158 2
0 8 86 50 103 51 5 0 34 -7 65 -16z m-788 -63 c92 -80 178 -137 267 -178 41
-19 77 -42 80 -51 3 -9 18 -46 34 -81 l29 -64 -54 7 c-29 3 -84 15 -122 27
-99 30 -283 119 -289 139 -15 49 -31 260 -19 260 3 0 36 -27 74 -59z m527 42
c24 -10 43 -20 43 -23 0 -3 -20 -26 -45 -50 l-44 -43 -41 13 c-53 18 -54 47
-3 89 21 17 40 31 43 31 2 0 24 -8 47 -17z m1311 -19 c2 -16 1 -58 -3 -93 -6
-57 -8 -62 -22 -48 -12 12 -14 30 -8 96 5 54 11 81 19 78 6 -2 13 -17 14 -33z
m-452 17 c-7 -11 -134 -34 -146 -26 -17 10 -11 23 13 28 43 8 138 7 133 -2z
m153 -17 c7 -7 -32 -32 -71 -45 -30 -9 -47 -9 -85 1 -71 19 -71 21 -12 41 48
16 153 18 168 3z m227 -70 l-6 -24 -34 22 -34 22 36 32 37 32 3 -30 c2 -17 1
-41 -2 -54z m-836 66 c0 -15 -39 -21 -110 -18 -64 3 -65 3 -30 15 44 14 140
16 140 3z m1059 -105 c93 -98 194 -250 185 -279 -10 -37 -104 -226 -112 -226
-4 0 -20 39 -36 88 -33 101 -103 242 -152 307 -35 45 -35 46 -24 102 5 31 10
72 10 91 l0 33 28 -20 c16 -11 61 -54 101 -96z m-1300 78 c2 -1 -16 -21 -40
-42 -44 -41 -74 -49 -127 -34 -23 6 -22 7 23 53 l46 47 47 -10 c26 -6 49 -12
51 -14z m936 -2 l40 -18 -49 -31 c-59 -38 -67 -39 -117 -10 l-39 21 48 28 c56
33 65 34 117 10z m-285 -15 l45 -14 -56 -1 c-60 -1 -119 14 -119 31 0 13 66 5
130 -16z m-501 10 c-2 -2 -27 -20 -54 -39 -36 -25 -65 -35 -103 -39 -63 -6
-63 3 -3 50 37 28 50 32 103 32 34 0 59 -2 57 -4z m106 -10 c-22 -15 -156 -59
-162 -52 -4 4 47 36 87 54 14 6 41 11 60 11 32 1 33 0 15 -13z m-574 -92 c22
-100 22 -97 1 -85 -30 16 -59 178 -30 169 6 -2 20 -40 29 -84z m581 54 c-35
-37 -132 -95 -132 -79 0 14 68 68 115 91 53 26 54 26 17 -12z m338 -10 c70
-38 85 -52 45 -42 -51 11 -123 45 -142 66 -17 19 -17 19 12 12 17 -3 55 -20
85 -36z m439 3 c40 -33 37 -43 -30 -76 l-49 -26 -41 33 c-36 29 -39 34 -24 43
10 5 31 20 49 32 41 28 55 28 95 -6z m-459 -66 c24 -25 39 -45 34 -45 -31 0
-144 97 -144 124 0 12 68 -36 110 -79z m205 63 c25 -12 45 -25 45 -29 0 -8
-53 -19 -94 -19 -18 0 -50 13 -75 29 l-44 30 44 4 c24 2 52 4 61 5 10 1 38 -8
63 -20z m-1007 -14 c2 -1 -8 -19 -21 -39 l-25 -37 -11 38 c-17 61 -16 65 22
52 17 -6 34 -12 35 -14z m521 4 c-15 -28 -111 -130 -116 -124 -13 12 97 146
119 146 5 0 3 -10 -3 -22z m-179 -47 c-28 -33 -53 -52 -81 -60 -23 -7 -44 -10
-47 -7 -3 4 8 25 24 49 23 33 40 45 74 54 71 18 74 16 30 -36z m175 -49 c-39
-81 -60 -84 -29 -4 20 54 57 108 62 92 2 -6 -13 -45 -33 -88z m227 14 c44 -68
49 -90 13 -56 -32 30 -71 88 -80 120 -7 23 -7 24 10 10 10 -8 36 -42 57 -74z
m-641 55 c14 -5 13 -13 -13 -58 -29 -51 -31 -53 -74 -53 -54 0 -65 18 -39 64
38 66 56 73 126 47z m113 -48 c-15 -26 -33 -51 -39 -55 -13 -10 -95 -10 -94 0
0 4 13 27 28 52 25 42 31 45 77 50 27 3 51 4 52 3 2 -1 -9 -23 -24 -50z m356
-45 c-16 -91 -35 -102 -28 -17 7 74 28 137 36 104 2 -11 -1 -50 -8 -87z m119
13 c25 -76 26 -93 5 -66 -25 31 -54 104 -54 133 0 23 2 24 14 12 7 -8 23 -44
35 -79z m430 48 c48 -36 45 -41 -31 -60 -46 -11 -49 -10 -88 21 -23 18 -39 34
-37 37 4 3 76 25 108 32 3 0 24 -13 48 -30z m-489 -72 c-1 -56 -4 -77 -10 -66
-13 22 -24 124 -16 144 14 36 26 -1 26 -78z m280 73 c20 -5 51 -25 70 -45 33
-34 34 -35 9 -35 -58 1 -103 20 -143 61 l-41 41 34 -6 c19 -3 51 -11 71 -16z
m-517 -49 c-17 -33 -42 -65 -67 -83 -48 -34 -55 -25 -31 38 14 36 27 50 68 74
28 16 52 28 54 27 1 -2 -10 -27 -24 -56z m938 -23 c-27 -78 -41 -102 -52 -91
-7 7 0 39 18 91 23 66 30 79 41 69 10 -11 9 -24 -7 -69z m-51 69 c0 -14 -33
-97 -39 -97 -4 0 -17 13 -29 30 l-22 29 37 20 c36 19 53 25 53 18z m-375 -114
c14 -21 25 -41 25 -45 0 -9 -87 17 -104 31 -7 6 -25 34 -40 61 l-28 51 61 -30
c39 -20 69 -44 86 -68z m-445 46 c-6 -18 -10 -44 -10 -57 0 -23 -57 -101 -74
-102 -5 0 -6 25 -3 57 5 49 11 62 48 99 24 24 44 42 46 41 1 -2 -2 -19 -7 -38z
m953 -21 c59 -91 100 -181 143 -316 l23 -72 -58 -73 c-32 -39 -74 -87 -93
-105 l-35 -33 -6 108 c-8 121 -36 260 -67 329 l-20 46 33 84 c17 46 35 84 39
84 3 0 22 -24 41 -52z m-207 7 c14 -19 24 -41 21 -49 -5 -12 -115 -44 -121
-34 -1 1 -14 20 -29 40 -32 43 -33 48 -9 49 9 0 33 6 52 13 52 20 57 19 86
-19z m-921 8 c-3 -10 -11 -36 -17 -59 -10 -36 -17 -43 -56 -58 -25 -9 -47 -14
-49 -12 -6 6 18 100 29 111 10 11 65 33 87 34 8 1 11 -5 6 -16z m224 -164
c-24 -49 -35 -41 -45 33 -5 37 -2 51 27 97 l34 54 3 -71 c2 -57 -1 -79 -19
-113z m294 101 c12 -11 37 -100 28 -100 -4 0 -28 15 -53 34 -30 23 -47 45 -51
64 -3 16 -9 43 -13 58 l-7 29 44 -39 c24 -21 48 -42 52 -46z m-188 -114 l-12
-51 -27 57 -27 56 18 61 18 60 21 -66 c19 -58 20 -71 9 -117z m-652 98 c20
-43 35 -79 33 -82 -13 -12 -35 12 -64 71 -35 70 -39 87 -19 87 7 0 29 -34 50
-76z m761 -73 c7 -56 0 -63 -31 -28 -46 50 -54 73 -47 125 l6 50 33 -48 c20
-30 35 -66 39 -99z m334 101 c38 -42 31 -52 -40 -52 -50 0 -67 11 -100 67
l-17 29 62 -4 c56 -3 65 -7 95 -40z m-1328 -75 c41 -14 109 -31 150 -38 41 -7
78 -18 82 -25 5 -7 29 -38 54 -69 25 -31 43 -59 40 -63 -12 -11 -248 -6 -316
7 -167 32 -158 29 -184 79 -21 43 -57 147 -69 199 -5 21 1 19 82 -21 47 -24
120 -55 161 -69z m316 86 c-4 -8 -9 -26 -12 -39 -8 -33 -17 -30 -37 11 -23 49
-22 52 19 47 26 -3 34 -8 30 -19z m120 0 c-22 -91 -27 -101 -49 -107 -72 -19
-91 -1 -68 68 16 45 22 52 52 57 68 13 72 12 65 -18z m160 -160 c-20 -18 -40
-33 -46 -33 -6 0 -10 27 -10 63 l0 62 43 26 42 25 3 -55 c3 -53 1 -58 -32 -88z
m611 91 c12 -3 43 -66 43 -87 0 -11 -50 -5 -93 12 -26 10 -39 32 -53 86 l-6
25 48 -17 c27 -9 54 -17 61 -19z m258 -11 c-46 -71 -42 -69 -59 -28 -20 47
-21 43 12 48 66 10 66 10 47 -20z m78 12 c6 -14 -59 -121 -88 -145 -31 -26
-15 27 28 93 45 70 52 76 60 52z m-829 -160 c-14 -19 -30 -35 -35 -35 -8 0
-24 50 -31 95 -1 12 12 39 32 63 l34 43 13 -66 c14 -65 13 -66 -13 -100z m677
114 c29 -57 14 -72 -63 -63 -52 6 -56 8 -68 43 -7 20 -15 42 -17 49 -4 9 12
12 61 12 l66 0 21 -41z m-869 -31 c3 -59 2 -62 -27 -80 -16 -10 -39 -17 -50
-16 -17 3 -20 12 -23 59 -2 37 1 59 10 66 12 9 64 30 80 32 3 1 8 -27 10 -61z
m600 -49 c4 -23 6 -45 3 -47 -7 -7 -62 18 -90 40 -21 16 -25 28 -25 69 l0 49
52 -34 c47 -29 54 -39 60 -77z m-280 35 l27 -55 -21 -46 -20 -45 -19 28 c-50
73 -51 79 -27 129 12 25 24 45 27 45 4 0 18 -25 33 -56z m150 -68 c-7 -70 -10
-72 -59 -25 -40 40 -44 47 -38 79 12 72 13 72 58 23 33 -36 41 -51 39 -77z
m602 32 c28 -93 41 -171 51 -304 l6 -92 -78 -57 c-95 -69 -153 -101 -153 -83
1 7 8 40 17 73 10 41 16 116 18 236 l3 176 49 66 c26 37 51 67 55 67 4 0 19
-37 32 -82z m-1186 32 c-2 -22 -6 -40 -10 -40 -3 0 -18 14 -33 32 -28 34 -22
48 23 48 20 0 22 -4 20 -40z m-74 -30 c28 -33 55 -60 60 -60 6 0 2 -6 -9 -12
-17 -10 -25 -4 -68 43 -63 70 -74 89 -50 89 10 0 40 -27 67 -60z m879 18 c37
-9 49 -17 52 -35 3 -13 7 -34 10 -48 7 -32 -11 -40 -62 -26 -56 15 -70 30 -77
85 -5 43 -4 47 12 41 9 -3 38 -11 65 -17z m-569 -42 c21 -72 21 -71 -20 -102
-30 -24 -37 -25 -49 -13 -8 8 -18 36 -21 63 -7 47 -6 50 27 77 19 16 37 29 41
29 4 0 14 -24 22 -54z m697 24 c16 0 29 -3 28 -7 -1 -12 -69 -66 -75 -61 -3 3
-8 23 -11 43 -5 34 -4 38 11 32 10 -4 31 -7 47 -7z m-233 -64 c12 -4 22 -15
22 -25 0 -38 -13 -83 -25 -88 -19 -7 -116 59 -110 75 3 8 8 31 11 52 l6 39 37
-23 c20 -13 46 -26 59 -30z m-321 -10 l31 -54 -24 -36 c-33 -49 -55 -46 -82 9
-12 25 -22 50 -22 56 0 11 52 79 60 79 3 0 19 -25 37 -54z m643 40 c0 -15
-105 -116 -121 -116 -23 0 -5 29 48 77 61 55 73 62 73 39z m-892 -44 c6 -23 7
-42 3 -42 -3 0 -24 12 -45 26 l-39 27 34 18 c19 9 35 16 36 15 1 -1 6 -21 11
-44z m424 -88 c-10 -28 -22 -44 -33 -44 -14 0 -89 71 -89 84 0 2 9 25 21 51
l21 47 48 -47 48 -47 -16 -44z m-897 65 c55 -7 142 -9 194 -6 l94 7 59 -45
c33 -25 64 -45 69 -45 5 0 9 -5 9 -11 0 -28 -186 -75 -350 -88 -110 -8 -116
-8 -138 13 -26 23 -142 192 -142 206 0 4 24 2 52 -6 29 -7 98 -19 153 -25z
m1384 -104 c1 -77 -18 -222 -41 -313 -10 -42 -15 -46 -74 -73 -34 -16 -94 -37
-133 -48 l-71 -20 42 82 c58 116 87 199 107 299 l16 87 70 59 c70 58 70 58 76
33 4 -14 7 -62 8 -106z m-966 75 c43 -28 63 -48 57 -54 -12 -12 -46 3 -110 51
-34 25 -46 39 -37 45 15 9 9 12 90 -42z m747 14 c0 -4 -76 -44 -85 -44 -3 0
-5 18 -5 39 l0 40 45 -16 c25 -8 45 -17 45 -19z m-537 -29 c9 -20 17 -38 17
-41 0 -5 -24 1 -69 18 l-24 9 23 24 c13 14 26 25 30 25 3 0 14 -16 23 -35z
m360 -46 c-10 -3 -35 -9 -55 -13 -37 -7 -38 -6 -29 16 5 13 12 31 15 40 5 16
9 15 46 -9 34 -23 38 -28 23 -34z m-210 -17 c-25 -2 -47 -1 -50 2 -3 3 5 18
16 35 l22 30 29 -32 29 -32 -46 -3z m435 51 c-3 -19 -84 -67 -130 -78 -55 -14
-28 20 45 56 85 43 89 44 85 22z m-560 -88 c1 -16 -64 -7 -118 16 -49 21 -61
34 -38 41 16 6 155 -45 156 -57z m558 28 c-2 -10 -8 -38 -12 -63 -14 -96 -119
-347 -157 -379 -10 -7 -64 -14 -144 -18 l-128 -6 38 44 c88 103 163 209 198
284 l37 79 79 37 c91 44 96 45 89 22z m-613 -53 c81 -1 -136 -130 -320 -190
l-101 -34 -39 29 c-59 45 -163 137 -163 145 0 4 42 10 93 14 111 8 244 36 323
68 l59 24 65 -28 c36 -15 73 -28 83 -28z m438 31 c-16 -29 -178 -57 -169 -28
3 6 38 19 79 28 102 23 102 23 90 0z m-235 -11 c43 0 52 -3 48 -15 -7 -16 -92
-21 -153 -9 -26 6 -29 9 -19 21 8 10 22 13 41 9 16 -3 54 -6 83 -6z m-28 -50
l53 0 -23 -32 c-43 -62 -153 -160 -251 -226 l-98 -65 -42 13 c-23 6 -82 33
-131 58 l-88 45 105 37 c115 41 232 100 302 154 41 31 49 33 83 25 20 -5 61
-9 90 -9z m241 -7 c-48 -126 -242 -373 -292 -373 -36 0 -191 28 -223 40 l-27
11 71 47 c104 68 202 153 257 222 44 55 52 60 89 61 23 1 55 5 71 9 59 15 66
13 54 -17z"/>
<path d="M2046 3497 c3 -10 9 -15 12 -12 3 3 0 11 -7 18 -10 9 -11 8 -5 -6z"/>
<path d="M3015 3500 c-3 -6 1 -7 9 -4 18 7 21 14 7 14 -6 0 -13 -4 -16 -10z"/>
<path d="M3065 3490 c3 -6 1 -10 -6 -10 -7 0 -10 -3 -6 -6 3 -3 13 -2 22 4 16
8 16 9 1 15 -10 4 -15 3 -11 -3z"/>
<path d="M3116 3458 c3 -4 12 -8 20 -8 8 0 14 4 14 8 0 4 -9 8 -19 8 -11 0
-17 -4 -15 -8z"/>
<path d="M1854 3445 c4 -26 23 -39 21 -13 -1 12 -6 23 -12 25 -6 2 -10 -3 -9
-12z"/>
<path d="M3166 3413 c-6 -14 -5 -15 5 -6 7 7 10 15 7 18 -3 3 -9 -2 -12 -12z"/>
<path d="M1811 3374 c0 -11 3 -14 6 -6 3 7 2 16 -1 19 -3 4 -6 -2 -5 -13z"/>
<path d="M3240 3380 c0 -5 5 -10 11 -10 5 0 7 5 4 10 -3 6 -8 10 -11 10 -2 0
-4 -4 -4 -10z"/>
<path d="M3282 3338 c-19 -19 -14 -30 10 -17 18 10 20 9 15 -5 -8 -20 -3 -20
12 -2 16 19 -20 41 -37 24z"/>
<path d="M1663 3306 c2 -12 18 -26 29 -26 3 0 4 8 1 18 -5 20 -33 27 -30 8z"/>
<path d="M3353 3295 c4 -5 0 -19 -9 -33 -9 -13 -11 -21 -5 -18 21 13 32 44 19
52 -7 4 -10 3 -5 -1z"/>
<path d="M1625 3260 c-3 -5 -1 -10 4 -10 6 0 11 5 11 10 0 6 -2 10 -4 10 -3 0
-8 -4 -11 -10z"/>
<path d="M1587 3219 c7 -7 15 -10 18 -7 3 3 -2 9 -12 12 -14 6 -15 5 -6 -5z"/>
<path d="M1552 3179 c-8 -12 -9 -18 -3 -14 6 3 11 0 11 -8 0 -8 7 -17 15 -21
13 -5 13 -2 -1 19 -17 26 -8 34 16 13 8 -7 6 -3 -4 10 -11 12 -20 22 -20 22
-1 0 -7 -9 -14 -21z"/>
<path d="M3446 3162 c-11 -15 -16 -24 -11 -20 4 4 13 4 19 -1 7 -6 18 -4 28 3
17 12 17 14 0 29 -16 14 -19 13 -36 -11z m28 -13 c-3 -5 -10 -7 -15 -3 -5 3
-7 10 -3 15 3 5 10 7 15 3 5 -3 7 -10 3 -15z"/>
<path d="M1510 3125 c-7 -9 -8 -15 -2 -15 5 0 12 7 16 15 3 8 4 15 2 15 -2 0
-9 -7 -16 -15z"/>
<path d="M3545 3070 c-4 -6 -12 -7 -18 -4 -7 4 -8 3 -4 -1 13 -15 37 -14 37 1
0 16 -6 18 -15 4z"/>
<path d="M3570 3031 c0 -6 4 -13 10 -16 6 -3 7 1 4 9 -7 18 -14 21 -14 7z"/>
<path d="M1420 3016 c0 -2 7 -9 15 -16 13 -11 14 -10 9 4 -5 14 -24 23 -24 12z"/>
<path d="M1396 2955 c-3 -8 -1 -15 4 -15 6 0 10 7 10 15 0 8 -2 15 -4 15 -2 0
-6 -7 -10 -15z"/>
<path d="M3598 2963 c6 -2 18 -2 25 0 6 3 1 5 -13 5 -14 0 -19 -2 -12 -5z"/>
<path d="M1368 2903 c7 -3 16 -2 19 1 4 3 -2 6 -13 5 -11 0 -14 -3 -6 -6z"/>
<path d="M3670 2841 c0 -6 4 -13 10 -16 6 -3 7 1 4 9 -7 18 -14 21 -14 7z"/>
<path d="M1331 2813 c-1 -6 -4 -19 -7 -27 -5 -12 -2 -15 12 -9 12 4 15 3 10
-5 -4 -7 -1 -12 10 -12 15 0 16 2 2 18 -9 9 -18 24 -21 32 -3 8 -6 10 -6 3z"/>
<path d="M3660 2780 c-9 -6 -10 -10 -3 -10 6 0 15 5 18 10 8 12 4 12 -15 0z"/>
<path d="M3690 2781 c0 -8 -8 -20 -17 -28 -16 -13 -16 -13 3 -4 12 6 24 7 28
4 10 -10 7 10 -4 27 -8 12 -10 12 -10 1z"/>
<path d="M1290 2680 c-9 -6 -10 -10 -3 -10 6 0 15 5 18 10 8 12 4 12 -15 0z"/>
<path d="M3680 2676 c0 -2 11 -6 25 -8 13 -3 22 -1 19 3 -5 9 -44 13 -44 5z"/>
<path d="M1280 2630 c0 -5 5 -10 11 -10 5 0 7 5 4 10 -3 6 -8 10 -11 10 -2 0
-4 -4 -4 -10z"/>
<path d="M3733 2612 c-9 -15 -8 -19 3 -19 8 0 14 9 14 19 0 10 -1 18 -3 18 -1
0 -7 -8 -14 -18z"/>
<path d="M1270 2570 c0 -5 -3 -15 -6 -24 -5 -13 1 -16 27 -15 24 1 27 3 12 6
-27 5 -30 20 -5 25 14 3 13 5 -5 10 -13 3 -23 2 -23 -2z"/>
<path d="M1261 2494 c0 -11 3 -14 6 -6 3 7 2 16 -1 19 -3 4 -6 -2 -5 -13z"/>
<path d="M3761 2501 c-8 -5 -9 -11 -3 -15 5 -3 12 1 16 9 6 17 6 18 -13 6z"/>
<path d="M1287 2469 c7 -7 15 -10 18 -7 3 3 -2 9 -12 12 -14 6 -15 5 -6 -5z"/>
<path d="M3720 2456 c0 -2 7 -7 16 -10 8 -3 12 -2 9 4 -6 10 -25 14 -25 6z"/>
<path d="M1237 2353 c-3 -5 1 -14 9 -21 12 -11 14 -9 14 8 0 20 -14 27 -23 13z"/>
<path d="M1250 2286 c0 -2 7 -7 16 -10 8 -3 12 -2 9 4 -6 10 -25 14 -25 6z"/>
<path d="M3746 2238 c3 -5 10 -6 15 -3 13 9 11 12 -6 12 -8 0 -12 -4 -9 -9z"/>
<path d="M1255 2230 c-3 -5 -1 -10 4 -10 6 0 11 5 11 10 0 6 -2 10 -4 10 -3 0
-8 -4 -11 -10z"/>
<path d="M3718 2183 c7 -3 16 -2 19 1 4 3 -2 6 -13 5 -11 0 -14 -3 -6 -6z"/>
<path d="M3743 2175 c-6 -6 -7 -18 -3 -25 6 -9 10 -7 15 9 8 27 4 33 -12 16z"/>
<path d="M1270 2118 c0 -14 18 -17 28 -5 8 10 6 13 -9 13 -10 0 -19 -4 -19 -8z"/>
<path d="M3733 2105 c-7 -8 -9 -16 -4 -19 5 -3 12 1 15 10 8 22 4 25 -11 9z"/>
<path d="M1291 2044 c0 -11 3 -14 6 -6 3 7 2 16 -1 19 -3 4 -6 -2 -5 -13z"/>
<path d="M3715 2040 c-3 -6 1 -7 9 -4 18 7 21 14 7 14 -6 0 -13 -4 -16 -10z"/>
<path d="M3705 2000 c-3 -5 -1 -10 4 -10 6 0 11 5 11 10 0 6 -2 10 -4 10 -3 0
-8 -4 -11 -10z"/>
<path d="M1320 1958 c0 -18 20 -47 20 -30 0 6 3 11 8 11 28 -5 35 2 16 16 -24
18 -44 19 -44 3z m35 -8 c3 -6 -1 -7 -9 -4 -18 7 -21 14 -7 14 6 0 13 -4 16
-10z"/>
<path d="M3658 1953 c7 -3 16 -2 19 1 4 3 -2 6 -13 5 -11 0 -14 -3 -6 -6z"/>
<path d="M3671 1936 c-20 -11 -21 -14 -6 -19 24 -10 32 -8 15 3 -13 8 -12 10
3 10 9 0 17 5 17 10 0 12 0 12 -29 -4z"/>
<path d="M1350 1882 c0 -4 10 -9 22 -9 18 -2 20 0 8 7 -18 12 -30 13 -30 2z"/>
<path d="M1405 1810 c-3 -6 1 -7 9 -4 18 7 21 14 7 14 -6 0 -13 -4 -16 -10z"/>
<path d="M3638 1813 c7 -3 16 -2 19 1 4 3 -2 6 -13 5 -11 0 -14 -3 -6 -6z"/>
<path d="M3600 1795 c0 -5 5 -17 10 -25 5 -8 10 -10 10 -5 0 6 -5 17 -10 25
-5 8 -10 11 -10 5z"/>
<path d="M3577 1713 c3 -7 8 -13 12 -13 4 0 8 6 8 13 0 8 -6 14 -13 14 -7 0
-10 -6 -7 -14z"/>
<path d="M1440 1701 c0 -5 5 -13 10 -16 6 -3 10 -2 10 4 0 5 -4 13 -10 16 -5
3 -10 2 -10 -4z"/>
<path d="M3490 1622 c6 -12 8 -28 4 -34 -4 -7 -3 -8 4 -4 16 10 15 18 -4 42
-14 18 -15 18 -4 -4z"/>
<path d="M1540 1568 c0 -28 21 -32 44 -8 11 13 14 19 6 14 -20 -12 -34 -12
-42 1 -5 6 -8 3 -8 -7z"/>
<path d="M3456 1565 c10 -8 14 -15 8 -15 -7 0 -15 -8 -18 -17 -6 -15 -4 -15
14 2 15 14 17 21 9 32 -6 7 -16 13 -22 13 -6 0 -2 -7 9 -15z"/>
<path d="M3381 1474 c0 -11 3 -14 6 -6 3 7 2 16 -1 19 -3 4 -6 -2 -5 -13z"/>
<path d="M1665 1440 c-3 -5 -1 -10 4 -10 6 0 11 5 11 10 0 6 -2 10 -4 10 -3 0
-8 -4 -11 -10z"/>
<path d="M3327 1424 c6 -17 8 -17 21 -1 8 10 6 13 -8 14 -13 1 -17 -3 -13 -13z"/>
<path d="M1720 1415 c-10 -12 -10 -18 0 -30 14 -17 26 -12 40 18 10 19 9 20
-2 6 -7 -9 -19 -14 -26 -11 -10 3 -10 7 -1 18 6 8 9 14 6 14 -2 0 -10 -7 -17
-15z"/>
<path d="M1766 1348 c3 -4 11 -5 19 -1 21 7 19 12 -4 10 -11 0 -18 -5 -15 -9z"/>
<path d="M3202 1335 c0 -16 2 -22 5 -12 2 9 2 23 0 30 -3 6 -5 -1 -5 -18z"/>
<path d="M3235 1350 c-4 -6 3 -10 14 -10 25 0 27 6 6 13 -8 4 -17 2 -20 -3z"/>
<path d="M1903 1283 c-15 -5 -17 -23 -4 -23 5 0 11 7 15 15 3 8 4 15 3 14 -1
0 -8 -3 -14 -6z"/>
<path d="M3140 1281 c0 -6 5 -13 10 -16 6 -3 10 1 10 9 0 9 -4 16 -10 16 -5 0
-10 -4 -10 -9z"/>
<path d="M3019 1242 c-3 -20 -2 -29 4 -23 5 5 7 19 5 32 -3 20 -5 19 -9 -9z"/>
<path d="M1945 1240 c3 -5 8 -10 11 -10 2 0 4 5 4 10 0 6 -5 10 -11 10 -5 0
-7 -4 -4 -10z"/>
<path d="M2956 1224 c-3 -9 -4 -20 0 -25 3 -5 0 -9 -7 -9 -7 0 -10 -2 -7 -5 3
-3 16 -1 29 4 18 8 20 10 6 10 -14 1 -17 6 -12 21 8 24 0 27 -9 4z"/>
<path d="M1996 1217 c3 -10 9 -15 12 -12 3 3 0 11 -7 18 -10 9 -11 8 -5 -6z"/>
<path d="M2107 1186 c-3 -8 1 -17 9 -20 24 -9 27 -7 15 7 -6 8 -8 17 -4 20 3
4 2 7 -4 7 -6 0 -13 -6 -16 -14z"/>
<path d="M2877 1189 c7 -9 10 -19 6 -22 -3 -4 -1 -7 5 -7 17 0 15 16 -5 31
-16 12 -17 12 -6 -2z"/>
<path d="M2701 1174 c0 -11 3 -14 6 -6 3 7 2 16 -1 19 -3 4 -6 -2 -5 -13z"/>
<path d="M2176 1165 c-11 -8 -15 -15 -9 -15 6 0 16 7 23 15 16 19 11 19 -14 0z"/>
<path d="M2295 1160 c-4 -14 -12 -19 -22 -16 -9 4 -13 1 -11 -6 3 -7 15 -14
29 -15 13 -1 18 0 12 3 -10 4 -10 11 -2 26 6 11 8 22 6 25 -3 2 -8 -5 -12 -17z"/>
<path d="M2735 1158 c4 -20 0 -28 -12 -31 -14 -4 -12 -5 5 -6 23 -1 27 11 11
44 -8 17 -8 16 -4 -7z"/>
<path d="M2221 1144 c0 -11 3 -14 6 -6 3 7 2 16 -1 19 -3 4 -6 -2 -5 -13z"/>
<path d="M2790 1150 c0 -5 5 -10 11 -10 5 0 7 5 4 10 -3 6 -8 10 -11 10 -2 0
-4 -4 -4 -10z"/>
<path d="M2830 1156 c0 -2 7 -7 16 -10 8 -3 12 -2 9 4 -6 10 -25 14 -25 6z"/>
<path d="M2349 1133 c-13 -16 -12 -17 4 -4 16 13 21 21 13 21 -2 0 -10 -8 -17
-17z"/>
<path d="M2431 1134 c0 -11 3 -14 6 -6 3 7 2 16 -1 19 -3 4 -6 -2 -5 -13z"/>
<path d="M2491 1133 c-1 -6 -4 -20 -7 -30 -5 -17 -5 -17 6 0 6 10 9 23 6 30
-3 9 -5 9 -5 0z"/>
<path d="M2556 1123 c-6 -14 -5 -15 5 -6 7 7 10 15 7 18 -3 3 -9 -2 -12 -12z"/>
<path d="M2595 1110 c3 -5 11 -10 16 -10 6 0 7 5 4 10 -3 6 -11 10 -16 10 -6
0 -7 -4 -4 -10z"/>
<path d="M1113 2555 c-61 -249 -56 -506 12 -741 6 -20 4 -21 -43 -16 -111 10
-218 -51 -268 -155 -71 -144 -1 -321 149 -378 70 -26 177 -17 241 20 49 29
102 91 112 132 4 13 8 23 11 23 3 0 39 -32 81 -71 160 -148 389 -273 600 -329
24 -6 51 -14 60 -17 9 -3 -28 21 -84 54 -338 199 -582 434 -694 668 -50 104
-103 281 -125 415 -10 58 -21 191 -24 295 l-6 190 -22 -90z m18 -265 c49 -518
249 -842 704 -1143 109 -72 83 -67 -90 18 -144 71 -268 159 -362 258 l-63 65
-10 -39 c-16 -60 -69 -120 -133 -153 -248 -127 -492 181 -311 392 63 74 168
108 258 84 37 -11 38 -10 31 11 -49 158 -57 212 -59 397 -1 174 14 367 21 265
2 -22 8 -92 14 -155z"/>
<path d="M1116 2180 c18 -247 91 -469 207 -626 74 -100 258 -271 355 -328 32
-19 5 7 -60 57 -40 30 -110 93 -155 139 -212 214 -287 381 -343 768 l-9 65 5
-75z"/>
<path d="M976 1657 c-43 -24 -86 -92 -86 -136 0 -70 81 -162 139 -160 25 1 25
1 -4 8 -119 29 -160 165 -77 254 71 76 205 50 248 -48 7 -16 13 -24 14 -16 0
27 -43 82 -81 101 -50 26 -105 25 -153 -3z"/>
<path d="M1212 1520 c0 -14 2 -19 5 -12 2 6 2 18 0 25 -3 6 -5 1 -5 -13z"/>
<path d="M1192 1457 c-14 -40 -58 -76 -106 -87 -24 -6 -26 -8 -8 -9 51 -2 138
75 130 115 -2 11 -8 4 -16 -19z"/>
<path d="M1700 1216 c0 -2 8 -10 18 -17 15 -13 16 -12 3 4 -13 16 -21 21 -21
13z"/>
<path d="M3881 2529 c-3 -401 -96 -743 -263 -966 -131 -174 -390 -386 -616
-503 -35 -18 -61 -34 -59 -36 9 -9 241 72 327 115 148 73 255 148 372 259 l47
45 14 -35 c22 -52 78 -110 133 -137 58 -29 167 -33 225 -8 141 59 209 235 145
372 -48 104 -167 174 -273 162 -42 -4 -44 -3 -39 17 40 137 50 217 49 396 0
151 -4 202 -21 280 -37 165 -40 168 -41 39z m45 -274 c7 -152 -8 -291 -46
-415 -11 -36 -20 -68 -20 -71 0 -3 22 -1 49 5 35 7 64 6 103 -3 248 -56 270
-401 31 -491 -86 -32 -160 -22 -237 31 -39 27 -82 88 -97 139 l-10 35 -88 -85
c-105 -102 -222 -183 -362 -249 -150 -71 -166 -72 -64 -4 263 175 451 368 549
568 93 187 149 439 167 740 3 54 20 -76 25 -200z"/>
<path d="M3881 2085 c-26 -177 -102 -384 -184 -505 -46 -66 -210 -233 -294
-297 -73 -56 -97 -81 -45 -47 59 38 170 132 235 198 126 129 198 250 251 426
28 94 60 268 54 297 -2 10 -10 -22 -17 -72z"/>
<path d="M3887 1659 c-66 -35 -100 -117 -79 -188 15 -48 68 -99 112 -106 l35
-6 -38 15 c-52 19 -73 41 -93 92 -21 56 -12 104 27 149 75 86 202 66 250 -39
12 -26 19 -34 19 -21 0 30 -35 76 -77 102 -47 28 -105 29 -156 2z"/>
<path d="M4111 1485 c-3 -46 -58 -102 -115 -116 -29 -6 -29 -7 -5 -8 53 -2
137 83 126 126 -4 16 -5 15 -6 -2z"/>
</g>
</svg>
