<?xml version="1.0" standalone="no"?>
<!DOCTYPE svg PUBLIC "-//W3C//DTD SVG 20010904//EN"
 "http://www.w3.org/TR/2001/REC-SVG-20010904/DTD/svg10.dtd">
<svg version="1.0" xmlns="http://www.w3.org/2000/svg"
 width="500.000000pt" height="500.000000pt" viewBox="0 0 500.000000 500.000000"
 preserveAspectRatio="xMidYMid meet">

<g transform="translate(0.000000,500.000000) scale(0.100000,-0.100000)"
fill="#000000" stroke="none">
<path d="M2410 4093 c-57 -98 -158 -272 -225 -388 -67 -115 -227 -393 -356
-616 l-234 -406 -6 61 c-7 76 -27 123 -73 174 -50 55 -124 85 -206 85 -77 0
-122 -17 -180 -70 -159 -143 -97 -409 109 -470 72 -21 163 -7 224 33 l41 27
-23 -39 c-31 -52 -405 -698 -549 -949 -63 -110 -122 -210 -130 -222 l-14 -23
813 0 813 0 -46 -29 c-197 -125 -164 -424 54 -497 60 -20 157 -16 208 9 48 23
106 81 133 131 31 58 31 184 0 241 -24 46 -84 105 -128 128 -28 15 37 16 783
17 446 0 812 2 812 5 0 3 -40 74 -89 158 -48 84 -157 271 -241 417 -267 462
-332 574 -352 607 l-20 33 53 -27 c189 -99 409 32 409 242 0 106 -61 204 -155
250 -61 31 -184 28 -249 -5 -89 -45 -146 -141 -146 -243 0 -30 -4 -47 -9 -41
-5 5 -111 187 -237 404 -125 217 -266 463 -314 545 -47 83 -149 258 -225 390
-76 132 -139 241 -140 243 -1 1 -49 -77 -105 -175z m184 -15 c-4 -7 -3 -8 5
-4 7 5 17 -5 26 -26 9 -18 27 -51 40 -73 55 -88 65 -111 52 -124 -9 -10 -8
-11 5 -6 11 4 20 -1 28 -15 10 -18 8 -24 -7 -36 -17 -14 -16 -14 5 -4 19 9 24
7 34 -17 7 -15 15 -30 18 -33 3 -3 18 -26 33 -51 20 -36 23 -49 14 -58 -9 -10
-8 -11 5 -6 19 7 43 -28 32 -47 -4 -6 -3 -8 3 -5 5 4 23 -19 39 -51 16 -31 32
-59 35 -62 11 -10 61 -100 55 -100 -3 0 3 -9 15 -21 11 -11 18 -27 15 -35 -3
-9 -1 -12 4 -9 5 3 15 -5 22 -20 10 -22 9 -28 -8 -41 -18 -14 -18 -15 3 -4 21
9 25 6 52 -37 22 -35 27 -51 19 -60 -8 -10 -7 -12 3 -8 21 8 43 -33 28 -51
-10 -12 -9 -13 4 -8 18 6 42 -30 31 -48 -4 -7 -3 -8 4 -4 7 4 17 -4 24 -21 7
-15 19 -34 26 -42 8 -8 11 -22 9 -33 -3 -10 -1 -16 4 -13 11 8 70 -86 64 -103
-3 -7 -1 -11 4 -8 12 8 35 -40 26 -55 -5 -7 -4 -10 3 -5 17 10 36 -32 22 -49
-9 -11 -7 -12 7 -9 15 4 26 -7 47 -45 15 -28 25 -51 22 -51 -3 0 3 -9 15 -21
11 -11 18 -27 15 -35 -3 -9 -1 -12 4 -9 6 4 17 -9 26 -27 8 -18 35 -67 60
-108 43 -70 44 -75 27 -87 -16 -13 -16 -13 5 -11 18 2 28 -7 50 -47 15 -27 30
-52 33 -55 3 -3 18 -26 32 -51 21 -36 24 -48 14 -58 -9 -10 -9 -11 5 -6 19 7
43 -28 32 -47 -4 -6 -3 -8 3 -5 5 4 16 -6 24 -21 7 -15 21 -38 31 -51 17 -23
17 -24 1 -37 -17 -12 -16 -13 3 -8 16 4 25 -4 47 -44 15 -27 24 -52 20 -56 -3
-3 -1 -6 5 -6 6 0 16 -9 22 -21 9 -17 8 -23 -7 -35 -17 -14 -16 -14 5 -4 19 9
24 7 34 -17 7 -15 18 -34 25 -41 7 -7 13 -18 13 -23 0 -5 0 -11 0 -14 0 -3 9
-14 21 -26 17 -17 18 -23 7 -37 -11 -13 -11 -14 0 -8 17 10 44 -23 36 -44 -3
-8 -2 -11 2 -8 6 7 34 -35 104 -157 l31 -55 -185 1 -186 2 0 38 0 39 115 0
115 0 -30 57 c-17 31 -35 62 -41 69 -6 8 -9 21 -5 29 3 9 2 13 -4 10 -5 -3
-15 7 -22 22 -7 15 -15 30 -19 33 -3 3 -25 38 -48 78 -37 63 -41 75 -29 90 12
15 11 16 -4 4 -15 -12 -19 -9 -35 22 -10 19 -37 67 -61 107 l-43 73 23 19 23
18 -23 -11 c-29 -14 -32 -12 -62 47 -14 26 -31 54 -37 61 -12 13 -17 28 -14
45 0 4 -3 7 -8 7 -12 0 -64 90 -57 97 3 4 -3 12 -14 20 -20 14 -27 38 -12 46
4 2 2 3 -4 1 -16 -3 -34 17 -34 38 0 10 -4 18 -8 18 -5 0 -21 22 -35 48 -21
38 -24 51 -14 61 9 10 8 11 -5 6 -19 -7 -43 28 -32 47 4 7 3 8 -4 4 -7 -4 -17
4 -24 21 -7 15 -20 39 -30 52 -10 13 -15 27 -12 32 3 5 1 9 -5 9 -5 0 -21 21
-36 47 l-26 47 23 19 23 18 -23 -11 c-29 -14 -36 -9 -64 48 -13 26 -25 49 -28
52 -16 15 -91 152 -86 157 3 4 -3 12 -14 20 -25 17 -25 32 -2 50 15 13 15 13
-5 4 -18 -9 -24 -7 -37 11 -8 12 -13 25 -10 30 3 4 1 8 -4 8 -5 0 -21 22 -35
48 -21 38 -24 51 -14 61 9 10 8 11 -5 6 -19 -7 -43 28 -32 47 4 7 3 8 -4 4 -7
-4 -17 4 -24 21 -7 15 -20 39 -30 52 -15 19 -16 26 -6 33 10 6 8 8 -4 8 -24 0
-41 33 -25 49 9 10 9 11 -3 6 -15 -5 -47 32 -36 43 3 3 -3 12 -15 20 -13 9
-19 21 -16 33 3 11 1 17 -4 13 -5 -3 -14 8 -21 23 -7 15 -15 30 -19 33 -14 12
-90 152 -85 157 3 4 -3 12 -14 20 -11 8 -20 18 -20 22 0 4 -22 45 -50 91 -41
69 -48 86 -37 98 10 13 9 14 -2 7 -9 -5 -18 -2 -27 9 -12 17 -13 16 -24 -3 -9
-18 -14 -19 -33 -11 -20 10 -21 10 -4 -4 15 -12 17 -18 7 -36 -7 -14 -17 -19
-27 -16 -13 5 -14 4 -4 -8 10 -11 5 -25 -20 -68 -63 -106 -58 -99 -82 -88 -21
11 -21 10 -3 -4 17 -13 18 -19 8 -41 -7 -16 -17 -23 -24 -19 -7 4 -8 3 -4 -4
6 -10 -64 -146 -83 -162 -4 -3 -12 -18 -19 -33 -7 -15 -16 -26 -21 -23 -5 4
-7 -2 -4 -12 7 -28 -20 -46 -49 -32 l-23 11 23 -18 23 -19 -42 -75 c-24 -40
-45 -76 -49 -79 -3 -3 -11 -18 -18 -33 -7 -17 -17 -25 -24 -21 -7 4 -8 3 -4
-4 11 -18 -104 -219 -122 -215 -6 2 -9 -4 -6 -11 8 -20 -14 -58 -28 -50 -7 4
-8 3 -4 -4 7 -12 -67 -150 -88 -164 -6 -4 -8 -8 -3 -8 4 0 0 -11 -9 -25 -9
-14 -20 -23 -24 -20 -5 3 -6 -3 -3 -13 7 -28 -20 -46 -49 -32 l-23 11 23 -18
23 -19 -42 -75 c-23 -40 -44 -75 -45 -77 -1 -2 -13 1 -26 8 -22 10 -22 10 -4
-4 17 -13 18 -19 8 -41 -7 -16 -17 -23 -24 -19 -7 4 -8 3 -4 -4 5 -9 -55 -130
-80 -160 -1 -2 -13 2 -26 8 l-23 11 23 -18 c21 -17 21 -20 6 -41 -8 -12 -20
-20 -25 -17 -5 3 -6 -1 -3 -10 4 -9 0 -23 -8 -33 -8 -9 -19 -30 -26 -45 -11
-24 -15 -26 -34 -17 -21 10 -22 10 -5 -4 15 -12 16 -18 7 -35 -6 -12 -14 -21
-19 -21 -4 0 -8 -6 -8 -13 0 -7 -12 -34 -27 -60 -27 -46 -28 -46 -54 -31 l-27
16 23 -19 24 -19 -59 -107 c-32 -59 -63 -105 -69 -103 -7 3 -10 -3 -7 -13 2
-10 -1 -24 -9 -32 -7 -8 -26 -40 -43 -71 -16 -31 -33 -54 -37 -51 -5 2 -7 1
-6 -4 5 -21 -15 -54 -29 -48 -12 4 -13 2 -5 -7 8 -10 6 -20 -8 -38 -11 -14
-20 -29 -20 -34 0 -5 -6 -17 -14 -25 -7 -9 -17 -26 -20 -38 -6 -19 -3 -23 13
-23 18 0 21 -6 21 -40 l0 -40 -91 0 c-78 0 -90 2 -85 15 10 28 108 190 118
196 5 3 9 8 7 10 -7 12 15 50 26 45 9 -3 12 0 9 9 -6 13 100 203 120 217 6 4
8 8 3 8 -4 0 0 11 9 25 9 14 21 22 27 18 6 -3 7 -1 3 5 -11 18 13 54 31 48 13
-5 13 -4 4 7 -9 11 -5 25 15 61 14 25 30 46 35 46 5 0 8 3 7 8 -5 19 15 53 28
48 9 -3 12 -1 9 4 -4 6 -3 20 0 31 5 15 13 19 27 16 15 -4 17 -3 8 8 -9 10 -2
31 30 87 23 40 43 74 45 76 2 2 14 -1 27 -7 l23 -12 -22 17 c-21 15 -21 17 -7
40 9 13 20 21 25 18 5 -3 6 2 3 11 -4 8 -1 21 5 28 6 8 24 38 40 68 18 34 35
53 45 53 12 -1 14 2 7 10 -7 8 -1 28 20 65 27 46 32 51 47 39 15 -12 16 -11 4
4 -10 13 -11 22 -2 37 9 18 15 19 33 11 20 -10 20 -10 5 3 -23 18 -23 33 2 50
11 8 18 16 15 19 -5 5 71 146 84 158 3 3 18 28 33 55 16 30 34 49 43 49 12 -2
13 1 5 11 -14 17 9 58 29 50 10 -4 11 -2 4 7 -7 9 -2 26 18 58 16 25 35 60 43
78 14 30 18 32 38 22 21 -10 22 -10 5 4 -15 12 -16 18 -7 35 6 12 16 21 22 21
6 0 8 3 5 6 -5 6 37 90 53 104 3 3 15 25 28 50 67 131 90 165 113 164 19 -1
20 1 6 10 -12 9 -13 16 -4 31 5 11 13 22 16 25 3 3 17 27 31 53 30 59 33 61
62 47 l23 -11 -22 18 -23 18 45 75 c24 41 51 90 59 108 10 21 20 31 27 26 8
-4 9 -3 5 4 -4 7 21 59 55 118 l62 106 44 -76 c24 -42 41 -82 37 -88z m50
-273 l29 -51 -33 -57 c-17 -31 -35 -57 -39 -57 -3 0 -21 27 -39 60 -18 33 -37
62 -42 65 -5 3 -26 -24 -47 -60 -20 -36 -40 -65 -43 -65 -7 0 -70 109 -70 121
0 6 34 69 76 140 l77 130 52 -88 c28 -48 64 -111 79 -138z m-251 -146 l26 -46
-44 -74 c-37 -64 -42 -77 -31 -94 71 -115 146 -256 141 -265 -3 -5 -24 -10
-45 -10 -158 0 -391 -102 -537 -234 l-52 -47 141 243 c77 134 187 325 245 426
117 202 103 193 156 101z m201 -53 c42 -74 76 -138 76 -144 0 -9 -135 -249
-150 -265 -6 -7 -160 249 -160 267 0 7 152 276 156 276 1 0 36 -60 78 -134z
m198 -56 c434 -752 394 -678 327 -615 -72 68 -132 108 -231 155 -97 46 -176
68 -275 77 -40 3 -73 10 -73 15 0 5 34 69 77 141 42 73 76 137 76 143 0 6 -16
38 -36 71 -20 33 -37 67 -37 74 0 23 61 122 69 113 4 -5 51 -83 103 -174z
m-39 -424 c231 -68 411 -212 527 -421 86 -155 104 -228 104 -420 1 -136 -2
-171 -21 -235 -21 -71 -58 -162 -85 -205 -175 -278 -419 -428 -723 -442 -414
-20 -769 236 -891 642 -23 78 -27 108 -28 230 0 103 4 157 17 204 81 301 294
537 571 632 113 39 178 48 321 44 92 -3 140 -10 208 -29z m-1541 -300 l-49
-136 63 0 c35 0 64 -3 64 -7 0 -15 -87 -167 -98 -171 -18 -6 -80 58 -106 110
-61 122 -11 265 114 331 30 15 56 24 58 19 1 -5 -19 -71 -46 -146z m2614 126
c46 -24 94 -73 120 -122 27 -51 25 -162 -3 -215 -100 -190 -355 -190 -456 0
-28 53 -30 164 -3 215 35 67 95 118 166 141 40 13 133 3 176 -19z m-2316 -62
c31 -39 60 -116 60 -159 0 -44 -26 -119 -54 -156 -33 -42 -96 -81 -156 -94
-47 -10 -124 -1 -141 16 -7 7 29 56 100 142 61 72 111 136 111 142 0 7 -22 8
-65 4 -36 -4 -65 -5 -65 -3 0 3 23 46 51 97 l51 91 40 -22 c22 -13 53 -39 68
-58z m1917 -440 c28 -47 128 -220 223 -385 95 -165 181 -315 192 -332 l20 -33
-74 0 -73 0 -43 75 -44 75 -164 0 -164 0 18 38 c26 50 57 144 73 217 24 109
14 333 -19 425 -10 27 5 6 55 -80z m-1792 1 c-19 -94 -19 -251 1 -349 13 -63
45 -159 81 -239 4 -10 -34 -13 -158 -15 l-164 -3 -43 -72 -44 -73 -69 0 c-38
0 -69 2 -69 5 0 4 133 235 444 772 16 29 31 51 33 49 2 -2 -3 -35 -12 -75z
m85 -627 c0 -3 -34 -66 -77 -140 l-76 -134 -159 0 c-87 0 -158 2 -158 4 0 5
120 213 146 254 14 21 20 22 169 22 85 0 155 -3 155 -6z m1974 -127 c42 -73
76 -136 76 -140 0 -4 -71 -6 -157 -5 l-157 3 -41 70 c-23 39 -58 100 -79 138
l-37 67 160 0 160 0 75 -133z m-1865 6 c87 -109 234 -211 370 -258 42 -15 85
-31 96 -35 11 -5 -196 -9 -467 -9 -269 -1 -488 2 -488 5 0 4 15 33 32 65 l33
59 86 0 86 0 73 128 c96 167 90 161 115 127 11 -15 40 -52 64 -82z m1538 -33
l78 -135 88 -5 87 -5 36 -59 c19 -32 33 -60 31 -62 -2 -2 -222 -3 -488 -2
-423 3 -478 5 -439 16 74 22 208 89 273 136 67 48 178 159 217 218 14 21 28
37 32 35 5 -1 43 -63 85 -137z m-2077 3 c0 -3 -16 -34 -35 -69 -19 -34 -35
-65 -35 -68 0 -3 36 -6 80 -6 44 0 80 -2 80 -4 0 -3 -16 -32 -36 -65 l-36 -61
-154 0 c-85 0 -154 3 -154 7 0 4 34 67 76 140 l76 133 69 0 c38 0 69 -3 69 -7z
m2662 -131 c52 -89 73 -135 65 -138 -7 -2 -78 -3 -157 -2 l-145 3 -36 60 -36
60 83 3 84 3 -41 75 -41 75 73 -3 74 -3 77 -133z m-2892 -202 c0 -36 -2 -40
-25 -40 -22 0 -25 4 -25 40 0 36 3 40 25 40 23 0 25 -4 25 -40z m70 0 c0 -38
-2 -40 -30 -40 -28 0 -30 2 -30 40 0 38 2 40 30 40 28 0 30 -2 30 -40z m60 0
c0 -36 -2 -40 -25 -40 -22 0 -25 4 -25 40 0 36 3 40 25 40 23 0 25 -4 25 -40z
m130 1 l0 -39 -60 0 -60 0 0 39 0 39 60 0 60 0 0 -39z m130 0 l0 -40 -60 0
-60 1 0 39 0 39 60 0 60 0 0 -39z m320 0 l0 -39 -155 0 -155 0 0 39 0 39 155
0 155 0 0 -39z m130 0 l0 -39 -60 -1 -60 0 0 40 0 39 60 0 60 0 0 -39z m130 0
l0 -40 -60 0 -60 1 0 39 0 39 60 0 60 0 0 -39z m190 0 l0 -39 -90 0 -90 0 0
39 0 39 90 0 90 0 0 -39z m130 0 l0 -39 -60 -1 -60 0 0 40 0 39 60 0 60 0 0
-39z m130 0 l0 -39 -60 0 -60 0 0 39 0 39 60 0 60 0 0 -39z m60 -1 c0 -36 -2
-40 -25 -40 -22 0 -25 4 -25 40 0 36 3 40 25 40 23 0 25 -4 25 -40z m70 0 c0
-38 -2 -40 -30 -40 -28 0 -30 2 -30 40 0 38 2 40 30 40 28 0 30 -2 30 -40z
m60 0 c0 -36 -2 -40 -25 -40 -22 0 -25 4 -25 40 0 36 3 40 25 40 23 0 25 -4
25 -40z m130 1 l0 -39 -60 0 -60 0 0 39 0 39 60 0 60 0 0 -39z m130 0 l0 -39
-60 0 -60 0 0 39 0 39 60 0 60 0 0 -39z m60 -1 c0 -36 -2 -40 -25 -40 -22 0
-25 4 -25 40 0 36 3 40 25 40 23 0 25 -4 25 -40z m70 0 c0 -38 -2 -40 -30 -40
-28 0 -30 2 -30 40 0 38 2 40 30 40 28 0 30 -2 30 -40z m60 0 c0 -36 -2 -40
-25 -40 -22 0 -25 4 -25 40 0 36 3 40 25 40 23 0 25 -4 25 -40z m130 1 l0 -39
-60 0 -60 0 0 39 0 39 60 0 60 0 0 -39z m130 0 l0 -40 -60 0 -60 1 0 39 0 39
60 0 60 0 0 -39z m190 0 l0 -39 -90 0 -90 0 0 39 0 39 90 0 90 0 0 -39z m130
0 l0 -39 -60 -1 -60 0 0 40 0 39 60 0 60 0 0 -39z m130 0 l0 -39 -60 0 -60 0
0 39 0 39 60 0 60 0 0 -39z m-1238 -77 c103 -35 172 -130 171 -239 0 -70 -18
-117 -63 -169 -111 -126 -320 -106 -405 39 -118 201 78 444 297 369z"/>
<path d="M2340 3896 c0 -3 9 -10 20 -16 11 -6 20 -8 20 -6 0 3 -9 10 -20 16
-11 6 -20 8 -20 6z"/>
<path d="M2754 3724 c-18 -14 -18 -15 4 -4 12 6 22 13 22 15 0 8 -5 6 -26 -11z"/>
<path d="M2220 3666 c0 -2 7 -7 16 -10 8 -3 12 -2 9 4 -6 10 -25 14 -25 6z"/>
<path d="M2954 3394 c-18 -14 -18 -15 4 -4 12 6 22 13 22 15 0 8 -5 6 -26 -11z"/>
<path d="M2010 3346 c0 -3 9 -10 20 -16 11 -6 20 -8 20 -6 0 3 -9 10 -20 16
-11 6 -20 8 -20 6z"/>
<path d="M3404 2614 c-18 -14 -18 -15 4 -4 12 6 22 13 22 15 0 8 -5 6 -26 -11z"/>
<path d="M3705 2120 c-3 -6 1 -7 9 -4 18 7 21 14 7 14 -6 0 -13 -4 -16 -10z"/>
<path d="M1070 1736 c0 -2 7 -7 16 -10 8 -3 12 -2 9 4 -6 10 -25 14 -25 6z"/>
<path d="M1050 1676 c0 -3 9 -10 20 -16 11 -6 20 -8 20 -6 0 3 -9 10 -20 16
-11 6 -20 8 -20 6z"/>
<path d="M3950 1670 c-9 -6 -10 -10 -3 -10 6 0 15 5 18 10 8 12 4 12 -15 0z"/>
<path d="M2503 3888 c-23 -28 -72 -118 -65 -118 5 0 23 20 42 45 l34 45 44
-47 44 -48 -27 50 c-38 69 -58 90 -72 73z"/>
<path d="M2665 3058 c-7 -18 -30 -87 -51 -153 l-38 -120 -70 -1 c-89 -1 -174
-25 -249 -71 -32 -19 -59 -33 -61 -32 -1 2 -17 26 -35 53 l-32 49 33 -7 c79
-17 101 -19 95 -9 -4 6 -36 16 -71 23 l-65 12 6 32 c16 75 14 79 -54 91 -35 6
-63 10 -63 8 0 -2 36 -58 80 -124 100 -148 110 -172 39 -94 -107 119 -169 180
-169 167 0 -7 45 -62 101 -122 110 -119 106 -109 56 -167 l-20 -22 -69 57 -69
57 48 3 c26 2 53 8 58 14 7 7 -11 8 -60 4 -67 -6 -72 -5 -95 19 l-23 25 51 0
c28 0 54 5 57 10 7 12 -50 12 -110 2 l-40 -7 121 -100 120 -100 -28 -60 c-15
-33 -28 -66 -28 -72 0 -16 2 -16 -150 2 -150 18 -178 19 -164 5 5 -5 46 -13
89 -16 44 -4 86 -10 93 -14 9 -4 -9 -24 -54 -58 -59 -45 -74 -52 -113 -52 -83
-1 -21 -17 119 -31 74 -7 140 -14 145 -14 9 0 39 -104 33 -110 -5 -5 -245 -75
-256 -75 -5 0 3 24 19 53 30 54 36 72 20 63 -9 -6 -81 -129 -81 -139 0 -8 126
-77 140 -77 21 0 -1 20 -52 46 -27 14 -48 27 -46 28 5 5 246 76 256 76 5 0 18
-19 28 -42 10 -24 34 -62 52 -85 17 -24 32 -47 32 -51 -1 -7 -85 -72 -93 -72
-2 0 -1 19 4 43 11 56 11 89 0 83 -5 -3 -12 -35 -16 -72 l-7 -66 -56 4 -57 3
-7 -59 c-4 -33 -6 -62 -3 -64 2 -2 60 39 128 92 l125 95 36 -27 c19 -15 35
-29 36 -32 0 -3 -24 -35 -54 -72 -48 -61 -54 -66 -60 -45 -3 12 -6 37 -6 55 0
18 -4 31 -9 28 -5 -3 -7 -32 -4 -64 4 -46 2 -65 -12 -86 -22 -33 -35 -20 -35
37 0 20 -4 37 -9 37 -8 0 -4 -138 4 -148 2 -2 48 53 104 123 56 69 101 123
101 120 0 -3 -25 -68 -56 -145 -31 -78 -54 -143 -51 -146 3 -3 27 4 52 15 26
12 52 21 57 21 5 0 20 -25 33 -55 14 -30 26 -55 28 -55 2 0 30 68 63 151 l59
150 41 -6 c38 -5 120 3 186 20 25 6 27 4 38 -37 6 -23 14 -51 17 -62 4 -16 -3
-14 -51 14 -32 18 -60 30 -63 27 -3 -4 16 -19 42 -34 85 -50 81 -44 50 -97
-15 -26 -26 -48 -24 -49 74 -48 109 -64 109 -51 0 8 -16 78 -35 156 -20 77
-33 143 -30 146 3 3 5 0 5 -5 0 -12 134 -229 155 -252 11 -11 15 -3 26 43 7
31 16 59 20 62 5 2 35 -2 69 -9 l60 -14 -22 36 c-13 20 -52 83 -89 141 l-66
105 31 40 c17 22 32 41 32 43 1 2 54 -32 118 -74 76 -50 112 -80 104 -85 -7
-4 -32 -10 -55 -14 -41 -6 -70 -25 -40 -25 26 0 132 23 141 30 9 9 -13 148
-26 156 -11 7 -10 -31 2 -81 5 -22 8 -41 6 -42 -1 -2 -217 138 -234 152 -2 2
5 20 16 42 11 21 26 58 33 83 7 25 15 49 19 53 7 7 155 -25 166 -36 3 -3 -17
-17 -43 -33 -26 -15 -43 -29 -36 -31 6 -2 34 10 63 27 46 27 58 30 89 22 l36
-8 -42 -22 c-39 -20 -63 -42 -47 -42 11 0 124 64 124 70 0 3 -62 21 -137 39
-76 18 -146 35 -155 38 -14 3 -18 15 -18 46 l0 42 72 -3 c70 -3 75 -5 116 -45
l42 -41 45 44 c44 43 45 45 23 52 -13 3 -85 6 -160 7 -129 1 -138 2 -138 20 0
11 -8 46 -19 80 -13 43 -15 61 -7 63 18 5 265 162 266 170 0 3 -22 9 -48 13
-74 10 -77 14 -65 82 6 32 10 59 8 61 -1 2 -62 -36 -135 -83 -73 -47 -130 -89
-126 -92 3 -3 56 26 118 65 62 39 114 67 116 62 2 -5 -1 -26 -7 -46 -6 -20 -8
-40 -6 -44 3 -4 25 -11 50 -14 25 -4 45 -10 45 -14 -1 -6 -207 -141 -229 -150
-3 -1 -17 19 -31 45 -14 27 -53 75 -87 108 l-61 61 36 43 c31 38 37 41 43 25
4 -11 8 -36 8 -56 1 -20 6 -40 12 -44 8 -4 9 15 4 69 l-7 74 54 7 55 7 -5 52
c-2 29 -8 58 -11 65 -5 8 -44 -34 -111 -115 -57 -71 -101 -121 -97 -112 3 9
37 72 76 140 39 67 71 127 71 132 0 21 -24 -12 -91 -128 -39 -69 -74 -127 -78
-129 -3 -2 -42 8 -86 23 l-80 26 21 65 22 65 108 59 c127 70 125 88 -3 22 -48
-25 -89 -43 -91 -41 -11 11 25 48 68 70 28 14 50 30 50 35 0 6 -18 1 -40 -10
-51 -26 -53 -26 -45 10 9 40 -2 38 -20 -2z m319 -210 c-3 -5 -21 -8 -40 -8
l-35 0 33 39 33 40 7 -32 c3 -17 4 -35 2 -39z m-866 48 c2 -3 1 -19 -3 -36 -8
-35 -19 -31 -49 21 l-19 32 33 -7 c19 -3 35 -8 38 -10z m392 -212 l0 -76 -67
59 -68 58 63 -69 62 -69 0 -62 0 -62 -56 -7 c-31 -4 -58 -5 -60 -3 -2 2 1 18
7 36 25 72 -20 151 -99 174 l-47 14 42 21 c67 35 142 57 201 61 21 1 22 -2 22
-75z m113 61 c32 -8 81 -27 110 -42 l52 -27 -38 -6 c-47 -9 -94 -52 -109 -102
-9 -31 -8 -45 5 -79 14 -36 14 -40 1 -35 -9 3 -38 6 -65 6 l-49 0 0 60 0 60
68 72 c50 55 57 65 27 41 -22 -17 -51 -43 -64 -57 -32 -34 -41 -21 -41 62 0
72 3 73 103 47z m153 -106 c-50 -39 -24 -129 38 -129 13 0 35 10 50 21 34 26
38 22 26 -23 -38 -137 -224 -122 -238 20 -4 42 0 52 24 81 31 37 55 49 98 50
l29 1 -27 -21z m-456 -4 c43 -22 60 -53 60 -108 0 -42 -5 -54 -34 -83 -30 -30
-40 -34 -86 -34 -46 0 -56 4 -86 34 -26 26 -34 42 -34 70 l0 35 25 -24 c27
-28 42 -30 79 -14 53 24 54 102 2 127 -19 10 -18 11 12 11 18 1 46 -6 62 -14z
m540 -25 c23 -33 17 -60 -20 -80 -54 -29 -105 45 -63 92 24 27 58 22 83 -12z
m-606 4 c33 -32 9 -94 -35 -94 -35 0 -59 19 -59 47 0 53 59 83 94 47z m-84
-188 c41 -34 91 -42 142 -23 35 14 39 14 34 1 -3 -9 -6 -38 -6 -65 l0 -49 -61
0 -61 0 -71 68 c-75 71 -74 60 2 -20 l45 -48 -49 0 c-28 0 -57 -5 -65 -10 -11
-7 4 -10 49 -10 l64 0 -56 -59 c-79 -83 -71 -87 13 -7 l70 66 60 0 60 0 0 -34
c0 -18 3 -47 6 -64 l6 -30 -44 16 c-42 15 -48 15 -89 -1 -53 -21 -81 -57 -89
-112 l-5 -40 -23 36 c-79 129 -82 340 -5 470 l17 29 13 -44 c8 -26 26 -55 43
-70z m783 47 c30 -65 32 -73 32 -193 0 -120 -2 -128 -32 -192 -17 -38 -34 -68
-37 -68 -3 0 -10 18 -16 39 -19 71 -106 118 -172 93 l-29 -11 3 62 3 62 55 3
55 3 75 -68 c71 -64 68 -54 -9 30 l-35 37 64 1 c74 1 56 17 -20 18 l-44 1 35
38 c68 73 84 97 34 51 -100 -92 -95 -89 -152 -89 -59 0 -59 -1 -67 77 l-5 52
25 -9 c41 -16 94 -11 129 10 32 20 65 72 65 104 0 30 11 16 43 -51z m-485 -43
l32 0 0 -64 0 -63 -61 -7 c-34 -4 -62 -6 -64 -4 -2 2 -7 36 -11 77 l-7 74 39
-6 c21 -4 54 -7 72 -7z m212 -19 c0 -15 -3 -49 -6 -75 -7 -45 -7 -46 -44 -46
-21 0 -52 3 -69 6 -31 6 -31 7 -31 70 l0 63 43 4 c108 9 107 10 107 -22z
m-664 -24 c1 -1 -1 -30 -4 -65 -4 -52 -7 -62 -21 -58 -9 3 -53 8 -98 11 -46 4
-83 10 -82 14 0 3 30 29 67 58 59 46 71 51 102 47 19 -3 35 -7 36 -7z m1284
-94 c0 -5 -12 -16 -26 -27 -26 -18 -26 -18 -52 8 l-27 26 53 0 c28 0 52 -3 52
-7z m-800 -92 l0 -70 -47 -6 c-27 -3 -57 -7 -68 -8 -21 -2 -21 -5 -17 103 l2
50 65 0 65 0 0 -69z m174 38 c3 -17 6 -52 6 -77 l0 -45 -52 7 c-29 3 -63 6
-75 6 -22 0 -23 4 -23 70 l0 70 69 0 69 0 6 -31z m-354 -102 c32 -16 70 -73
70 -104 0 -63 -57 -123 -116 -123 l-27 0 21 23 c45 48 14 117 -52 117 -25 0
-40 -7 -55 -26 l-21 -27 0 38 c0 30 8 45 39 76 32 32 46 39 77 39 22 0 50 -6
64 -13z m513 -9 c26 -13 57 -68 57 -100 l0 -27 -26 26 c-20 20 -31 24 -57 19
-44 -9 -61 -29 -61 -72 0 -27 7 -42 25 -57 l24 -20 -43 6 c-52 6 -88 37 -101
84 -30 106 82 192 182 141z m-188 -40 c-13 -44 -17 -78 -11 -102 10 -41 55
-85 98 -97 37 -9 39 -12 22 -23 -32 -22 -126 -53 -181 -61 l-53 -7 0 64 c0 89
7 95 60 45 79 -74 87 -74 18 1 l-68 72 0 60 0 59 53 4 c28 2 56 4 61 5 4 1 5
-8 1 -20z m-145 -52 l0 -65 -69 -73 -69 -73 -59 29 c-43 22 -53 31 -38 33 48
9 97 38 116 70 18 28 21 45 16 89 l-6 54 55 0 54 0 0 -64z m-249 -6 c28 -15
26 -74 -3 -94 -29 -21 -40 -20 -66 4 -54 50 3 125 69 90z m603 -16 c34 -34 6
-94 -44 -94 -34 0 -50 17 -50 55 0 17 5 36 12 43 17 17 64 15 82 -4z m-344
-140 l0 -76 -47 7 c-106 15 -105 11 -27 81 38 35 70 64 72 64 1 0 2 -34 2 -76z
m360 18 c0 -5 31 -57 69 -117 38 -60 69 -111 67 -112 -1 -2 -18 2 -37 7 -59
17 -65 14 -80 -40 l-14 -50 -70 113 c-38 61 -70 115 -70 118 0 8 116 88 128
89 4 0 7 -4 7 -8z m-886 -61 c16 -6 14 -10 -19 -35 -20 -15 -38 -26 -39 -25
-2 2 -1 19 1 37 5 33 18 38 57 23z m407 -41 c21 0 31 -11 21 -24 -5 -6 -28
-62 -52 -123 -24 -62 -46 -113 -49 -113 -3 0 -14 21 -25 46 -10 25 -24 43 -30
41 -6 -3 -28 -12 -48 -21 -21 -9 -38 -14 -38 -11 0 3 20 56 45 117 25 62 45
117 45 124 0 8 20 4 58 -12 31 -13 64 -24 73 -24z m356 -215 c6 -25 8 -44 4
-43 -3 2 -18 10 -33 17 -27 14 -27 14 -11 42 10 16 20 29 23 29 4 0 11 -20 17
-45z"/>
<path d="M3711 2889 c-17 -17 -31 -37 -31 -45 0 -19 -5 -18 -34 11 -29 29 -52
33 -40 8 18 -41 16 -100 -5 -141 -27 -53 -27 -102 1 -155 l22 -42 8 44 c12 68
31 91 78 91 49 0 76 -25 85 -77 4 -21 8 -42 9 -47 1 -6 12 10 24 35 25 51 30
140 10 186 l-12 28 -4 -27 c-3 -29 -9 -33 -28 -20 -23 15 -34 53 -34 116 0 36
-4 66 -9 66 -5 0 -23 -14 -40 -31z"/>
<path d="M1140 1540 c-38 -76 -34 -80 65 -79 72 1 65 10 -17 24 -43 7 -44 10
-22 65 26 65 8 58 -26 -10z"/>
<path d="M3840 1603 c0 -6 9 -32 20 -58 11 -26 20 -48 20 -50 0 -2 -21 -7 -47
-11 -79 -11 -85 -23 -11 -24 101 0 103 2 68 68 -36 70 -50 91 -50 75z"/>
<path d="M2742 1345 c0 -16 2 -22 5 -12 2 9 2 23 0 30 -3 6 -5 -1 -5 -18z"/>
<path d="M2481 1211 c-26 -62 -26 -69 2 -99 l22 -25 -34 7 c-32 6 -33 5 -26
-22 4 -15 8 -29 10 -31 6 -5 105 97 105 109 0 12 -48 110 -54 110 -2 0 -13
-22 -25 -49z"/>
<path d="M2548 1093 c-23 -6 -23 -16 2 -38 23 -21 25 -20 34 18 7 28 2 30 -36
20z"/>
<path d="M2600 1053 l-21 -26 27 -28 27 -28 60 31 61 30 -55 24 c-69 30 -73
29 -99 -3z"/>
<path d="M2328 1048 c-27 -11 -48 -24 -48 -28 0 -4 25 -18 55 -30 l56 -23 24
23 c30 28 30 31 5 58 -25 27 -32 27 -92 0z"/>
<path d="M2493 1034 c-8 -20 17 -36 34 -22 10 8 10 14 2 24 -15 18 -28 18 -36
-2z"/>
<path d="M2446 984 c-8 -32 -6 -35 22 -27 27 7 29 29 3 42 -16 9 -20 6 -25
-15z"/>
<path d="M2545 990 c-21 -23 -20 -25 18 -34 26 -6 28 -5 22 16 -11 36 -20 40
-40 18z"/>
<path d="M2487 932 l-28 -29 28 -57 c15 -31 30 -56 33 -56 3 0 15 26 27 57
l23 58 -28 28 -28 27 -27 -28z"/>
</g>
</svg>
