<?xml version="1.0" standalone="no"?>
<!DOCTYPE svg PUBLIC "-//W3C//DTD SVG 20010904//EN"
 "http://www.w3.org/TR/2001/REC-SVG-20010904/DTD/svg10.dtd">
<svg version="1.0" xmlns="http://www.w3.org/2000/svg"
 width="500.000000pt" height="500.000000pt" viewBox="0 0 500.000000 500.000000"
 preserveAspectRatio="xMidYMid meet">

<g transform="translate(0.000000,500.000000) scale(0.100000,-0.100000)"
fill="#000000" stroke="none">
<path d="M2369 4154 l-146 -146 -149 61 c-82 34 -166 69 -187 78 -22 10 -41
13 -46 7 -4 -5 -45 -100 -92 -211 l-84 -203 -172 0 -173 0 0 -174 c0 -149 -2
-175 -16 -180 -9 -3 -18 -6 -20 -6 -3 0 -3 90 -2 200 2 110 0 200 -4 200 -5 0
-8 -92 -8 -204 l0 -204 -177 -72 c-98 -40 -182 -77 -187 -81 -10 -9 -5 -23 91
-253 l54 -130 -145 -145 -146 -146 145 -145 146 -146 -76 -183 c-42 -101 -74
-189 -71 -195 2 -6 86 -44 185 -85 l181 -73 0 -204 c0 -112 3 -204 8 -204 4 0
6 91 4 201 -3 182 -1 201 13 195 9 -3 19 -6 21 -6 2 0 4 -79 4 -175 l0 -175
175 0 c109 0 175 -4 176 -10 2 -16 5 -23 26 -70 11 -25 46 -108 78 -185 32
-77 62 -144 66 -149 5 -6 34 2 71 17 35 14 119 49 187 78 l124 51 146 -146
146 -146 145 145 146 146 182 -76 c101 -41 186 -75 191 -75 5 0 39 73 76 163
37 89 77 183 88 210 l21 47 173 0 173 0 0 174 c0 147 2 175 15 180 14 5 15
-18 13 -194 -2 -110 0 -200 5 -200 4 0 7 91 7 203 l0 203 78 31 c201 81 297
123 300 131 1 5 -7 31 -19 58 -11 27 -46 109 -76 183 l-54 134 140 141 c78 78
141 146 141 151 0 5 -63 73 -141 151 l-141 141 77 187 c43 103 75 189 72 193
-4 3 -55 26 -114 50 -59 24 -143 59 -185 76 l-78 32 -2 205 -3 205 -2 -202
c-3 -174 -6 -201 -18 -197 -12 5 -15 36 -15 180 l0 174 -173 0 -173 0 -21 48
c-11 26 -51 120 -88 210 -37 89 -72 162 -77 162 -5 0 -52 -18 -104 -40 -52
-23 -134 -56 -181 -76 l-87 -35 -146 146 -145 145 -146 -146z m411 -158 c-7
-7 -53 32 -138 117 l-127 127 -126 -126 c-82 -82 -131 -124 -139 -119 -8 5 33
53 126 146 l139 139 137 -137 c92 -92 134 -141 128 -147z m-73 -27 c-17 -9
-69 -31 -113 -48 l-81 -33 -89 37 c-49 21 -100 41 -113 47 -24 9 -21 13 89
123 l115 115 112 -112 113 -113 -33 -16z m-697 117 c192 -80 202 -85 195 -96
-10 -16 -16 -14 -182 55 -86 36 -157 64 -158 63 -1 -2 -28 -66 -60 -143 -88
-211 -94 -225 -110 -225 -18 0 -18 4 -6 28 6 9 40 91 77 182 80 198 82 203 97
197 7 -3 73 -31 147 -61z m1184 32 c8 -18 39 -95 71 -171 31 -76 58 -145 59
-152 1 -8 5 -18 9 -21 10 -11 9 -34 -2 -34 -13 0 -32 39 -98 200 -30 74 -59
143 -64 152 -8 15 -26 10 -166 -48 -87 -35 -164 -62 -172 -59 -9 4 -11 9 -5
15 9 9 330 147 347 149 4 1 14 -14 21 -31z m-1173 -94 c73 -30 137 -58 141
-63 5 -4 -41 -55 -100 -114 l-109 -107 -106 0 c-106 0 -124 6 -99 35 4 6 34
76 67 158 32 81 61 147 65 147 3 0 67 -25 141 -56z m1199 -105 c36 -88 67
-165 68 -170 2 -5 -42 -9 -104 -9 l-107 0 -109 107 c-59 59 -105 110 -100 115
9 9 263 117 277 117 6 1 39 -72 75 -160z m-970 62 c0 -14 -18 -23 -30 -16 -6
4 -8 11 -5 16 8 12 35 12 35 0z m561 -6 c-1 -15 -24 -12 -29 3 -3 9 2 13 12
10 10 -1 17 -7 17 -13z m-423 -47 c101 -42 123 -58 79 -58 -19 0 -168 57 -198
76 -10 6 -3 24 9 24 4 0 53 -19 110 -42z m375 28 c2 -12 -168 -86 -196 -86
-10 0 -25 -6 -33 -14 -7 -8 -23 -12 -34 -9 -26 7 -16 23 15 23 13 0 25 4 27
10 4 12 188 89 206 87 7 -1 14 -6 15 -11z m-553 -14 c0 -16 -198 -202 -215
-202 -12 0 16 34 85 105 93 94 130 121 130 97z m740 -97 c69 -71 97 -105 85
-105 -17 0 -215 186 -215 202 0 24 37 -3 130 -97z m-614 49 c49 -20 90 -37 92
-38 1 -2 -39 -20 -90 -41 -51 -20 -111 -46 -134 -56 -25 -12 -63 -19 -99 -19
l-58 0 94 95 c51 52 96 95 99 95 3 0 46 -16 96 -36z m547 -52 c48 -49 87 -92
87 -95 0 -15 -106 -6 -144 11 -23 10 -68 29 -101 42 -33 13 -75 30 -93 40
l-33 16 88 37 c48 20 93 36 98 37 6 0 50 -40 98 -88z m-408 -12 c-3 -4 -31
-18 -62 -30 -32 -12 -77 -31 -100 -41 -43 -19 -116 -27 -97 -11 5 5 25 15 44
22 19 7 58 23 85 35 90 39 99 42 117 37 10 -2 16 -8 13 -12z m183 -12 c28 -12
52 -25 52 -29 0 -5 10 -9 23 -9 12 -1 38 -9 57 -20 l35 -19 -34 -1 c-19 0 -53
8 -75 19 -23 10 -68 29 -101 41 -33 13 -62 25 -65 27 -9 8 25 23 40 17 8 -3
39 -15 68 -26z m-103 -16 c17 -10 49 -23 72 -30 23 -7 44 -16 47 -20 2 -4 -73
-7 -167 -7 l-171 -1 40 18 c21 10 47 18 57 18 9 0 17 4 17 8 0 8 44 29 65 31
6 0 24 -7 40 -17z m481 -113 l28 -29 -65 26 c-82 33 -89 40 -35 36 33 -3 51
-11 72 -33z m-1422 -76 c-25 -60 -48 -111 -52 -115 -4 -4 -56 -27 -115 -52
l-107 -45 0 159 0 160 159 0 160 0 -45 -107z m86 102 c0 -3 -16 -44 -36 -92
-30 -75 -68 -132 -80 -120 -2 2 12 41 32 88 20 46 40 94 45 107 7 18 39 33 39
17z m172 -58 c-51 -52 -78 -69 -140 -94 -42 -17 -78 -29 -80 -28 -1 1 14 43
35 94 l37 91 105 0 105 0 -62 -63z m87 27 c-32 -33 -78 -64 -96 -64 -4 0 15
23 42 50 27 28 58 50 69 50 17 0 15 -5 -15 -36z m249 31 c-2 -2 -48 -20 -103
-40 -55 -21 -121 -48 -147 -61 -60 -30 -67 -30 -39 0 13 14 59 39 103 57 44
19 76 35 70 37 -5 1 -30 -7 -56 -18 -61 -26 -64 -25 -37 4 21 22 30 24 118 24
52 0 93 -1 91 -3z m442 -5 c275 -34 502 -147 700 -349 117 -120 190 -228 246
-364 122 -300 122 -604 0 -904 -104 -255 -340 -500 -591 -614 -310 -140 -659
-142 -965 -5 -364 162 -627 504 -685 893 -58 385 70 756 356 1028 254 242 596
357 939 315z m336 -30 c84 -34 151 -76 141 -87 -2 -2 -48 16 -103 40 -54 24
-123 52 -151 61 -29 10 -53 19 -53 22 0 16 84 -2 166 -36z m144 -15 c30 -30
50 -55 45 -55 -6 0 4 -8 20 -18 31 -19 63 -52 51 -52 -13 0 -51 22 -74 43 -16
15 -19 23 -10 28 8 5 3 10 -14 14 -14 4 -45 26 -69 51 -35 36 -40 44 -23 44
11 0 44 -25 74 -55z m212 -40 c20 -49 35 -91 34 -92 -1 -1 -36 12 -79 29 -60
25 -89 45 -139 95 l-63 64 105 -3 105 -3 37 -90z m55 5 c19 -47 38 -95 43
-106 7 -18 6 -21 -10 -17 -12 3 -32 37 -59 101 -46 109 -47 115 -25 110 9 -2
30 -38 51 -88z m293 -70 l0 -160 -37 16 c-21 8 -72 29 -114 47 l-75 31 -31 75
c-18 42 -39 93 -47 114 l-16 37 160 0 160 0 0 -160z m-1826 29 c-18 -20 -65
-49 -80 -49 -12 0 20 33 51 52 40 24 52 23 29 -3z m-103 -43 c-22 -24 -119
-72 -127 -63 -13 13 13 35 69 58 79 34 86 34 58 5z m1562 -5 c61 -27 85 -46
74 -57 -9 -10 -93 30 -122 57 -37 36 -32 36 48 0z m-1655 -144 c-68 -68 -124
-123 -126 -121 -11 8 37 70 110 141 68 67 105 95 136 102 1 1 -53 -55 -120
-122z m1710 19 c72 -69 111 -121 100 -132 -2 -1 -57 51 -123 118 -85 84 -111
116 -90 107 17 -7 68 -49 113 -93z m-1774 61 c-5 -15 -33 -31 -41 -24 -8 9 10
36 25 40 22 4 24 3 16 -16z m1857 -8 c6 -12 6 -19 0 -19 -12 0 -41 28 -41 40
0 15 30 -1 41 -21z m-1913 -11 c-8 -12 -50 -37 -94 -55 -111 -47 -116 -48
-112 -28 2 10 42 33 103 60 118 51 122 52 103 23z m142 19 c0 -1 -25 -27 -55
-57 l-55 -54 16 41 c15 39 25 46 92 72 1 1 2 0 2 -2z m1741 -69 c11 -21 18
-38 16 -38 -1 0 -27 25 -57 56 l-55 56 38 -19 c25 -11 46 -31 58 -55z m209 2
c48 -19 73 -59 28 -44 -80 25 -187 77 -191 93 -4 17 1 16 57 -6 33 -14 81 -33
106 -43z m-2066 -2 c-12 -41 -41 -93 -63 -112 -12 -11 -21 -17 -21 -14 0 15
54 134 64 140 20 14 27 8 20 -14z m1923 -29 c12 -24 27 -57 33 -73 l10 -30
-25 24 c-24 23 -65 100 -65 122 0 23 27 -2 47 -43z m-1976 8 c-36 -95 -74
-157 -125 -207 l-56 -54 0 104 0 105 88 37 c105 44 104 44 93 15z m2075 -15
l89 -38 3 -105 3 -104 -64 64 c-51 49 -71 79 -93 134 -16 40 -30 75 -32 79 -5
12 -3 11 94 -30z m144 -19 c0 -20 -24 -11 -28 10 -2 12 1 15 12 11 9 -3 16
-13 16 -21z m-2420 7 c0 -12 -28 -25 -36 -17 -9 9 6 27 22 27 8 0 14 -5 14
-10z m-50 -17 c0 -12 -16 -24 -48 -37 -90 -36 -267 -109 -270 -112 -2 -1 27
-75 64 -164 49 -119 64 -164 56 -172 -7 -7 -13 -10 -15 -7 -16 20 -146 354
-140 360 6 5 340 147 351 149 1 0 2 -8 2 -17z m2528 1 c20 -9 98 -40 172 -71
74 -30 138 -58 142 -62 8 -7 -125 -336 -143 -355 -5 -6 -11 -3 -14 6 -3 8 21
80 54 159 33 79 61 150 63 158 2 10 -46 35 -157 82 -101 42 -161 73 -163 83
-4 20 0 20 46 0z m-2478 -132 c0 -102 -7 -132 -32 -132 -10 0 -11 224 -1 233
3 4 12 7 20 7 10 0 13 -25 13 -108z m2418 -17 c2 -105 1 -117 -13 -105 -20 17
-23 234 -2 228 8 -3 13 -39 15 -123z m-2468 -18 l0 -122 -85 -85 c-46 -46 -86
-82 -88 -79 -7 7 -117 279 -117 287 0 7 263 120 283 122 4 0 7 -55 7 -123z
m2639 66 c75 -31 138 -58 140 -59 3 -3 -91 -240 -111 -278 -9 -16 -20 -9 -99
70 l-89 89 0 117 c0 80 4 118 11 118 6 0 73 -26 148 -57z m-2402 0 c-8 -15
-25 -37 -37 -48 l-23 -20 8 25 c7 25 55 83 63 76 2 -2 -3 -17 -11 -33z m2055
-18 c10 -16 18 -26 18 -20 0 5 25 -15 55 -45 30 -30 55 -63 55 -74 0 -17 -8
-12 -44 23 -25 24 -47 55 -51 69 -4 17 -9 22 -14 14 -5 -9 -13 -6 -28 10 -21
23 -43 61 -43 74 0 12 33 -20 52 -51z m-2135 -62 c-9 -15 -31 -44 -51 -62 -57
-55 -47 -8 11 51 51 52 63 55 40 11z m15 -69 c-16 -33 -45 -101 -63 -153 -32
-89 -34 -92 -37 -56 -2 27 8 65 34 129 33 80 80 153 91 142 3 -2 -9 -30 -25
-62z m2208 -79 c28 -66 40 -111 38 -135 l-3 -35 -19 55 c-10 30 -38 99 -62
153 -24 53 -44 100 -44 104 0 4 11 -4 25 -17 14 -14 43 -70 65 -125z m38 -21
l-3 -39 -28 70 -27 70 31 -31 c25 -26 30 -37 27 -70z m-2378 41 c-7 -8 -16
-15 -21 -15 -15 0 -10 22 9 43 15 17 17 17 20 3 2 -9 -2 -23 -8 -31z m55 -21
l-24 -59 -1 39 c0 27 7 47 22 63 12 13 23 21 25 20 2 -2 -8 -30 -22 -63z
m2375 24 c0 -17 -3 -18 -15 -8 -8 7 -15 21 -15 32 0 17 3 18 15 8 8 -7 15 -21
15 -32z m180 -175 c0 -23 -14 -14 -92 64 -46 45 -78 86 -78 98 0 15 21 -2 85
-65 47 -47 85 -90 85 -97z m-2721 61 c-41 -41 -77 -74 -81 -74 -22 0 0 32 70
103 56 56 78 73 80 61 3 -10 -25 -45 -69 -90z m104 -59 l-18 -40 -3 74 c-2 59
0 77 15 93 18 20 18 19 21 -34 2 -35 -3 -67 -15 -93z m2435 -9 c-1 -117 -2
-128 -14 -101 -17 39 -18 99 -2 89 8 -5 9 -2 3 12 -4 10 -10 50 -13 89 -4 63
-3 68 12 56 13 -11 15 -35 14 -145z m128 -128 c-21 -51 -39 -94 -41 -96 -1 -2
-19 36 -39 84 -32 76 -36 96 -36 172 l0 87 76 -77 77 -76 -37 -94z m-2627 -20
c-17 -43 -32 -78 -34 -78 -1 0 -19 43 -40 95 l-39 96 70 70 69 70 3 -87 c3
-79 0 -95 -29 -166z m-147 110 c-15 -15 -26 -4 -18 18 5 13 9 15 18 6 9 -9 9
-15 0 -24z m211 -63 l-18 -40 -3 31 c-2 18 5 49 14 70 l18 39 3 -30 c2 -17 -4
-48 -14 -70z m2657 69 c0 -16 -16 -19 -25 -4 -8 13 4 32 16 25 5 -4 9 -13 9
-21z m-3015 -154 l-125 -125 125 -125 c85 -86 122 -129 116 -138 -5 -9 -48 27
-145 124 l-137 137 137 138 c93 93 141 134 146 126 5 -8 -36 -56 -117 -137z
m3168 -262 c-92 -92 -141 -134 -147 -128 -7 7 32 53 117 138 l127 127 -126
126 c-82 82 -124 131 -119 139 5 8 53 -33 146 -126 l139 -139 -137 -137z
m-2959 289 c37 -90 42 -112 27 -121 -12 -8 -94 192 -86 212 9 23 19 7 59 -91z
m2781 93 c8 -12 -75 -220 -87 -220 -17 0 -7 46 30 136 37 92 45 104 57 84z
m-2809 -136 c50 -123 52 -93 -18 -262 l-31 -74 -113 113 -114 114 112 112 c62
62 114 111 115 109 2 -2 24 -52 49 -112z m2942 -221 c-62 -62 -115 -109 -119
-105 -3 4 -25 54 -49 111 l-42 104 28 71 c15 39 36 91 47 115 l19 44 114 -114
114 -114 -112 -112z m-276 242 c22 -56 26 -95 10 -95 -11 0 -52 113 -52 145 0
39 13 24 42 -50z m-2542 -51 c-17 -39 -23 -46 -30 -33 -7 11 -1 38 18 85 26
67 27 68 30 33 2 -20 -6 -56 -18 -85z m65 -79 c0 -171 0 -174 -17 -142 -24 45
-25 231 -1 282 9 19 17 35 17 35 1 0 1 -79 1 -175z m2424 0 c0 -88 -4 -138
-13 -154 -11 -20 -13 3 -13 154 0 151 2 174 13 154 9 -16 13 -66 13 -154z m33
-39 l-21 -41 0 80 0 80 21 -39 20 -39 -20 -41z m-2503 37 l-1 -68 -14 33 c-12
28 -13 40 -2 68 6 19 13 34 15 34 2 0 3 -30 2 -67z m2571 2 c0 -29 -17 -42
-22 -18 -6 25 3 54 13 47 5 -3 9 -16 9 -29z m-2627 12 c3 -8 1 -20 -4 -28 -8
-12 -10 -12 -18 0 -10 15 -4 41 9 41 4 0 10 -6 13 -13z m-23 -62 c0 -18 -68
-186 -81 -199 -5 -6 -11 -3 -14 6 -8 20 74 220 86 212 5 -3 9 -12 9 -19z
m2710 -81 c32 -78 40 -108 32 -116 -7 -7 -13 -10 -15 -7 -13 17 -77 189 -77
207 0 44 17 20 60 -84z m-2649 49 c11 -26 19 -63 17 -82 -3 -35 -4 -34 -30 32
-23 59 -28 97 -12 97 3 0 14 -21 25 -47z m2561 30 c4 -18 -37 -130 -53 -147
-17 -19 -9 48 13 106 24 60 34 71 40 41z m-2572 -113 c26 -63 30 -85 30 -164
l0 -91 -72 72 -72 72 38 96 c21 53 40 94 42 92 2 -2 17 -36 34 -77z m2631 -33
l32 -79 -77 -76 -76 -77 0 86 c0 82 18 150 62 233 13 24 17 17 59 -87z m-2566
-14 c9 -21 14 -51 12 -68 l-3 -30 -17 37 c-16 34 -24 98 -12 98 3 0 12 -17 20
-37z m2421 -70 l-15 -28 -1 31 c0 17 6 46 13 65 l12 34 3 -37 c2 -20 -4 -50
-12 -65z m-2630 5 c4 -6 0 -16 -8 -22 -8 -6 -13 -16 -11 -21 2 -6 -26 -82 -62
-169 -36 -87 -65 -159 -63 -161 2 -1 74 -31 160 -66 118 -48 158 -68 158 -81
0 -14 -4 -16 -22 -9 -167 66 -338 139 -338 145 0 10 133 323 146 343 8 12 14
29 14 38 0 18 16 20 26 3z m2864 -2 c0 -8 -4 -17 -9 -21 -12 -7 -24 12 -16 25
9 15 25 12 25 -4z m-2655 -42 c8 -20 15 -61 15 -92 0 -54 0 -55 -20 -37 -17
15 -20 31 -20 92 0 40 2 73 5 73 3 0 12 -16 20 -36z m2420 -133 c-13 -14 -15
-10 -15 40 0 31 6 71 13 90 12 33 12 32 15 -40 2 -57 -1 -78 -13 -90z m-2526
75 c45 -46 72 -80 69 -91 -2 -12 -23 3 -80 60 -69 69 -94 105 -70 105 4 0 40
-33 81 -74z m171 4 c12 -36 40 -103 61 -149 22 -46 38 -86 36 -87 -11 -11 -58
61 -83 125 -15 40 -30 69 -31 64 -2 -6 6 -31 17 -57 26 -61 25 -64 -4 -37 -23
21 -24 31 -25 118 0 52 2 94 3 92 2 -2 14 -33 26 -69z m2301 -43 c-39 -103
-69 -162 -96 -187 -26 -25 -26 -23 10 55 21 44 51 118 69 165 27 75 31 81 34
52 2 -18 -6 -56 -17 -85z m249 100 c0 -7 -38 -50 -85 -97 -62 -62 -85 -79 -85
-65 0 18 145 175 162 175 5 0 8 -6 8 -13z m129 -172 c39 -93 67 -172 63 -176
-7 -7 -349 -149 -358 -149 -3 0 -4 7 -2 16 2 9 51 35 123 65 165 68 207 88
201 97 -23 37 -126 308 -121 320 9 24 18 8 94 -173z m-2862 63 l83 -83 0 -122
c0 -68 -2 -123 -5 -123 -7 0 -279 111 -284 116 -5 5 111 294 118 294 3 0 43
-37 88 -82z m2808 -68 c31 -77 56 -142 54 -144 -10 -8 -279 -116 -288 -116 -7
0 -11 40 -11 117 l0 118 87 87 c48 48 90 85 93 83 4 -2 33 -68 65 -145z m-334
-24 l-31 -31 27 70 28 70 3 -39 c3 -33 -2 -44 -27 -70z m-2353 32 c7 -7 12
-21 12 -32 0 -18 -1 -19 -20 -1 -20 18 -27 45 -12 45 4 0 13 -5 20 -12z m2418
-36 c-15 -15 -16 -15 -16 4 0 28 24 52 28 28 2 -9 -3 -24 -12 -32z m-2299 -95
c23 -45 9 -42 -41 10 -57 60 -66 107 -10 52 20 -18 42 -47 51 -62z m2212 7
c-29 -29 -56 -51 -60 -48 -4 2 -10 -4 -13 -14 -4 -10 -20 -32 -37 -48 l-31
-29 17 35 c24 49 57 83 66 69 4 -7 10 -3 14 12 4 13 26 43 49 67 31 33 42 39
44 26 3 -10 -18 -38 -49 -70z m-2331 64 c8 -8 12 -49 12 -121 0 -98 -2 -108
-17 -105 -16 3 -18 18 -21 121 -3 114 1 130 26 105z m2428 -215 c-3 -7 -10
-13 -16 -13 -15 0 -13 213 3 229 10 10 13 -9 15 -95 1 -59 0 -114 -2 -121z
m-2242 -17 c19 -44 33 -82 32 -83 -1 -1 -43 14 -94 34 l-92 37 0 105 0 105 60
-59 c45 -45 67 -77 94 -139z m2189 -7 c-11 -11 -175 -80 -179 -76 -2 2 10 37
27 78 23 56 46 90 92 137 l62 63 3 -97 c1 -54 -1 -101 -5 -105z m-2176 88 c8
-16 13 -31 11 -33 -8 -7 -56 51 -63 76 l-8 25 23 -20 c12 -11 29 -33 37 -48z
m277 -275 c-18 -23 -244 202 -244 243 0 3 56 -50 123 -117 68 -68 123 -124
121 -126z m-224 146 c23 -53 22 -62 -2 -53 -14 5 -26 32 -64 130 -16 44 44
-27 66 -77z m1915 70 c-10 -33 -174 -196 -210 -208 -23 -8 -3 16 90 110 66 66
121 120 123 120 2 0 0 -10 -3 -22z m56 0 c-40 -103 -63 -139 -78 -124 -9 9 28
88 56 119 30 33 33 34 22 5z m-2213 -61 c3 -16 1 -17 -17 -7 -25 13 -28 33 -4
28 10 -2 19 -11 21 -21z m2422 9 c0 -8 -7 -16 -15 -20 -15 -5 -21 14 -8 27 11
12 23 8 23 -7z m-2303 -42 c49 -20 94 -41 101 -46 16 -14 16 -42 0 -32 -7 4
-53 24 -103 45 -54 22 -91 43 -93 53 -5 21 -5 21 95 -20z m2251 20 c-3 -14
-40 -32 -194 -94 -18 -7 -21 -6 -17 10 3 12 32 30 80 50 140 58 136 57 131 34z
m-2012 -91 c-3 -3 -66 17 -66 22 0 1 -7 20 -16 41 l-16 39 51 -49 c28 -28 49
-51 47 -53z m1752 56 c-15 -27 -35 -46 -58 -56 -34 -14 -34 -13 20 42 30 30
56 55 58 55 2 0 -7 -19 -20 -41z m-1867 -87 c4 -4 27 -55 52 -114 l45 -107
-159 -3 -159 -3 0 162 0 162 107 -45 c59 -25 111 -48 114 -52z m2127 -144 l-3
-83 -156 5 -157 5 46 110 45 110 111 46 111 47 3 -79 c1 -43 1 -115 0 -161z
m-2094 176 c9 -8 16 -19 16 -24 0 -12 -32 0 -42 14 -19 28 1 36 26 10z m1870
1 c-8 -19 -44 -40 -44 -26 0 12 28 41 40 41 5 0 7 -7 4 -15z m-1754 -45 c36
-18 89 -69 60 -58 -71 28 -126 54 -132 63 -22 30 5 29 72 -5z m1690 20 c0 -13
-36 -35 -100 -60 l-54 -21 19 22 c18 19 108 69 128 69 4 0 7 -4 7 -10z m-1738
-130 c21 -52 38 -95 38 -98 0 -2 -7 -2 -16 0 -9 2 -34 45 -60 108 -24 57 -44
106 -44 108 0 3 10 -2 22 -10 13 -9 38 -53 60 -108z m1778 98 c-32 -82 -77
-185 -84 -196 -5 -9 -12 -10 -18 -4 -14 14 59 188 86 208 27 18 27 18 16 -8z
m-1675 -55 c34 -13 165 -127 165 -143 0 -3 -46 -4 -103 -2 l-104 3 -31 77
c-51 127 -51 116 -6 97 22 -9 57 -24 79 -32z m1615 44 c0 -2 -17 -43 -38 -93
l-38 -89 -102 -5 c-56 -3 -102 -3 -102 0 0 3 27 32 60 65 43 43 81 69 133 91
71 31 87 37 87 31z m-1562 -21 c37 -19 70 -56 51 -56 -8 -1 0 -8 16 -17 33
-17 105 -82 105 -95 0 -4 -8 -5 -17 -1 -25 8 -123 105 -117 115 3 4 -1 8 -9 8
-7 0 -26 14 -42 30 -32 33 -28 37 13 16z m1421 -3 c-8 -9 -27 -24 -44 -35 -16
-10 -26 -18 -20 -18 5 0 -15 -25 -45 -55 -30 -30 -63 -55 -74 -55 -17 0 -12 8
23 44 24 25 55 47 69 51 17 4 22 9 14 14 -9 5 -6 13 10 28 43 38 93 58 67 26z
m-1271 -61 c31 -16 99 -44 150 -63 50 -18 92 -36 92 -40 0 -28 -245 62 -290
107 -32 31 -22 30 48 -4z m1143 4 c-42 -45 -291 -135 -291 -105 0 4 33 18 73
32 39 14 106 42 147 61 89 42 101 44 71 12z m-1011 -108 c0 -18 -78 7 -105 33
l-29 29 67 -28 c37 -15 67 -30 67 -34z m935 33 c-20 -19 -45 -31 -75 -35 -24
-4 -41 -3 -37 1 7 7 120 58 137 62 2 1 -9 -12 -25 -28z m-1307 -93 c11 -24 45
-106 77 -183 32 -77 59 -141 60 -143 1 -1 73 27 160 63 87 37 165 63 173 60 9
-3 12 -9 6 -14 -19 -18 -349 -150 -356 -143 -4 4 -39 86 -78 182 -39 96 -75
183 -81 192 -12 24 -12 28 6 28 8 0 23 -19 33 -42z m337 -68 c60 -60 107 -111
105 -113 -12 -9 -291 -119 -294 -116 -2 2 -30 67 -61 144 -31 77 -61 148 -66
157 -18 35 -10 38 99 38 l107 0 110 -110z m47 13 c54 -53 98 -101 98 -105 0
-24 -36 3 -130 97 -73 73 -99 105 -86 105 11 0 63 -43 118 -97z m75 85 c18 -7
33 -16 33 -20 0 -4 8 -8 18 -8 27 0 177 -66 173 -76 -2 -5 -42 -24 -88 -43
l-85 -34 -96 97 -96 96 54 0 c29 0 69 -5 87 -12z m110 0 c18 -7 33 -16 33 -20
0 -4 7 -8 16 -8 22 0 134 -43 134 -51 0 -18 -36 -15 -92 7 -35 15 -67 29 -73
33 -5 4 -29 13 -52 20 -23 6 -45 16 -48 21 -9 14 42 12 82 -2z m357 -10 c-22
-10 -47 -18 -56 -18 -10 0 -18 -4 -18 -8 0 -4 -15 -14 -34 -20 -30 -11 -40
-10 -93 13 -32 14 -71 31 -86 38 -23 10 1 12 149 12 176 0 176 0 138 -17z
m162 13 c-3 -5 -18 -12 -33 -16 -16 -3 -46 -15 -68 -25 -90 -42 -136 -59 -150
-54 -8 4 -15 9 -15 13 0 8 112 51 134 51 9 0 16 4 16 9 0 5 12 14 28 19 34 13
95 15 88 3z m71 -88 l-96 -97 -96 39 c-52 21 -93 40 -91 42 9 10 172 73 188
73 10 0 18 4 18 9 0 16 52 29 114 30 l60 1 -97 -97z m63 -8 c-93 -94 -130
-121 -130 -97 0 17 196 202 215 202 14 0 -10 -29 -85 -105z m340 100 c0 -3 -4
-13 -9 -23 -5 -9 -36 -83 -68 -164 -32 -81 -61 -148 -66 -148 -7 0 -278 111
-287 117 -2 2 45 53 105 113 l110 110 108 0 c59 0 107 -2 107 -5z m50 -8 c0
-8 -3 -17 -7 -21 -4 -3 -8 -14 -9 -22 -2 -9 -27 -75 -58 -148 -30 -72 -62
-148 -70 -170 -10 -23 -21 -36 -28 -33 -7 3 -85 35 -173 72 -168 70 -188 81
-163 90 9 4 85 -23 169 -59 85 -35 157 -62 161 -58 4 4 31 66 61 137 76 183
96 225 107 225 6 0 10 -6 10 -13z m-800 -108 c0 -5 9 -9 21 -9 22 0 188 -66
203 -80 24 -24 -27 -18 -95 10 -41 17 -86 36 -101 42 -16 5 -28 14 -28 19 0 5
-11 9 -24 9 -30 0 -43 17 -19 22 22 5 43 -1 43 -13z m-50 -17 c0 -5 -47 -28
-106 -52 -78 -32 -108 -40 -116 -32 -15 15 -19 12 82 54 82 35 140 47 140 30z
m141 -58 l111 -47 -113 -113 -114 -114 -112 112 c-62 62 -110 114 -107 118 7
6 206 89 217 90 4 0 57 -21 118 -46z m-386 -35 c10 -15 -1 -23 -20 -15 -9 3
-13 10 -10 16 8 13 22 13 30 -1z m570 1 c3 -6 -1 -13 -10 -16 -19 -8 -30 0
-20 15 8 14 22 14 30 1z m-425 -145 l125 -125 126 126 c82 82 131 124 139 119
8 -5 -34 -53 -126 -146 l-139 -139 -137 137 c-121 120 -146 153 -120 153 4 0
63 -56 132 -125z"/>
<path d="M2402 3661 c2 -5 24 -37 50 -70 l48 -61 65 0 c36 0 65 2 65 5 0 3
-23 35 -51 70 l-51 65 -65 0 c-35 0 -63 -4 -61 -9z m159 -48 c56 -77 56 -73
-3 -73 -53 0 -54 1 -96 54 -23 30 -42 57 -42 60 0 3 24 6 53 6 52 0 54 -1 88
-47z"/>
<path d="M2704 3623 c42 -115 55 -133 91 -132 16 0 15 2 -6 10 -19 7 -34 27
-54 75 -15 36 -26 66 -24 68 2 1 26 -4 52 -11 44 -13 50 -19 72 -70 31 -68 31
-73 3 -74 -21 0 -20 -2 5 -11 16 -5 31 -8 33 -5 3 3 -8 38 -24 78 -30 77 -39
84 -130 103 l-32 8 14 -39z"/>
<path d="M2162 3617 c-24 -7 -44 -15 -45 -19 -1 -3 27 -29 63 -55 l65 -50 55
14 c30 8 58 18 63 22 10 10 -117 101 -139 100 -11 -1 -38 -6 -62 -12z m135
-39 l56 -43 -39 -12 c-61 -18 -71 -16 -131 29 l-56 43 39 12 c61 18 71 16 131
-29z"/>
<path d="M2975 3544 c4 -22 9 -61 13 -88 7 -47 10 -52 62 -83 30 -18 56 -28
58 -23 7 19 -19 155 -31 166 -7 6 -34 24 -60 39 l-48 27 6 -38z m65 -15 c33
-19 39 -28 44 -68 4 -25 9 -59 12 -75 l6 -28 -50 27 c-47 26 -50 29 -56 78 -8
66 -8 87 0 87 4 0 23 -10 44 -21z"/>
<path d="M1929 3507 c-92 -55 -92 -46 -3 -83 l79 -33 57 32 c32 17 54 35 50
39 -4 4 -39 20 -78 36 l-71 30 -34 -21z m87 -13 c22 -9 50 -21 64 -26 24 -9
23 -10 -24 -37 l-48 -29 -64 27 c-35 14 -64 28 -64 32 0 7 72 48 86 49 6 0 29
-7 50 -16z"/>
<path d="M2445 3493 c-86 -14 -262 -66 -330 -97 -203 -94 -379 -276 -464 -480
-36 -87 -78 -248 -87 -335 -7 -66 21 -223 61 -340 68 -202 212 -381 399 -499
123 -78 347 -145 486 -146 98 0 260 36 374 85 153 65 325 210 420 352 88 134
158 361 158 512 0 95 -37 261 -82 367 -91 213 -285 407 -498 498 -132 56 -349
98 -437 83z m205 -63 c78 -26 114 -49 178 -112 68 -67 111 -154 124 -252 l11
-76 31 0 c48 0 144 -28 198 -57 73 -40 144 -116 186 -202 36 -73 37 -78 37
-185 0 -107 -1 -114 -36 -186 -67 -139 -192 -231 -342 -253 l-74 -10 -10 -74
c-40 -274 -310 -445 -576 -363 -160 50 -286 204 -303 375 -7 65 -7 65 -38 65
-48 0 -144 28 -200 58 -73 39 -149 120 -187 199 -29 60 -34 80 -37 168 -3 83
0 110 17 160 58 165 208 283 382 302 57 6 59 7 59 34 0 122 78 269 183 346
109 80 271 106 397 63z m-469 -67 c-37 -38 -80 -90 -94 -118 -30 -60 -57 -148
-57 -187 0 -24 -4 -28 -29 -28 -110 0 -278 -100 -355 -210 l-18 -25 7 25 c59
207 230 416 429 526 54 29 170 82 183 84 2 0 -28 -30 -66 -67z m749 2 c91 -46
161 -99 241 -181 81 -85 121 -139 162 -220 29 -58 68 -156 64 -161 -2 -1 -18
17 -35 42 -61 87 -202 169 -313 182 l-45 5 -11 63 c-21 120 -106 254 -203 318
-22 14 -18 14 30 -2 31 -10 80 -31 110 -46z m-1199 -1189 c58 -51 153 -95 233
-109 l64 -11 6 -54 c11 -91 66 -195 146 -273 l69 -68 -52 20 c-254 99 -452
294 -542 533 -32 84 -31 88 4 39 15 -21 48 -56 72 -77z m1648 55 c-45 -121
-130 -254 -213 -337 -50 -50 -163 -132 -226 -164 -50 -25 -158 -70 -168 -70
-2 0 18 18 45 39 92 72 164 197 178 308 l7 49 66 12 c117 20 250 102 303 188
29 48 33 38 8 -25z"/>
<path d="M2152 2907 l-362 -362 363 -363 362 -362 363 363 362 362 -363 363
-362 362 -363 -363z m716 -714 l-353 -353 -352 352 -353 353 352 352 353 353
352 -352 353 -353 -352 -352z"/>
<path d="M2395 3069 c-9 -14 0 -21 27 -23 13 -1 28 -11 35 -26 12 -24 8 -30
-105 -143 l-117 -118 -37 39 c-32 35 -38 38 -51 25 -13 -13 -10 -19 25 -51
l39 -35 -96 -97 -95 -96 35 -34 c19 -19 35 -40 35 -47 0 -7 3 -12 8 -12 18 3
21 -3 11 -28 -10 -26 -10 -27 9 -9 27 23 40 2 16 -25 -19 -21 -13 -24 18 -8
18 10 27 4 74 -42 29 -29 51 -55 49 -58 -3 -2 -13 3 -22 11 -16 13 -21 11 -53
-26 -19 -23 -28 -35 -19 -29 8 7 24 14 35 16 10 1 25 6 32 11 8 5 18 3 25 -4
9 -9 9 -11 1 -7 -7 4 -17 0 -24 -8 -7 -8 -9 -15 -5 -15 4 0 1 -8 -6 -17 -7
-10 1 -5 19 11 17 16 29 33 26 38 -3 4 0 8 6 8 20 0 23 -31 5 -44 -13 -9 -15
-15 -7 -20 7 -4 12 -2 12 4 0 6 5 8 10 5 6 -3 10 2 10 12 0 12 14 3 50 -32 28
-27 50 -55 50 -62 0 -18 -20 -27 -33 -13 -9 9 -9 11 2 8 7 -2 16 3 18 10 3 6
-3 12 -11 12 -17 0 -33 -26 -23 -37 4 -3 18 -7 32 -8 17 -2 25 2 25 13 0 11
14 2 43 -26 l43 -42 29 30 c32 33 53 38 61 15 4 -8 10 -13 15 -10 4 3 6 12 3
19 -9 23 16 29 39 9 22 -18 22 -18 5 3 -10 11 -18 26 -18 32 0 7 -6 12 -12 12
-7 0 30 43 82 95 64 65 97 91 102 82 6 -9 8 -8 8 2 0 10 11 5 33 -15 l32 -29
-27 31 c-33 36 -34 45 -9 68 15 13 20 14 24 4 4 -10 6 -10 6 1 1 10 8 8 26 -9
28 -27 34 -17 8 13 -18 19 -17 20 5 8 22 -12 23 -11 12 9 -8 14 -17 19 -28 15
-16 -6 -15 -5 0 11 17 17 18 17 37 0 13 -12 21 -14 26 -6 4 7 -2 14 -14 17
-28 7 -27 14 14 53 l35 34 -132 133 c-132 132 -136 139 -85 147 8 1 22 8 31
15 9 7 16 9 16 3 0 -5 -7 -15 -15 -22 -9 -7 -13 -15 -10 -18 3 -3 -1 -12 -8
-21 -11 -14 -10 -15 8 -1 28 21 44 43 38 52 -2 5 6 13 19 18 l23 11 -25 -5
c-16 -4 -32 2 -47 16 -17 16 -23 18 -23 7 0 -9 -13 -27 -28 -42 l-28 -27 -94
95 -94 94 49 21 c44 19 47 22 33 37 -15 14 -19 12 -49 -21 l-32 -37 -21 20
-22 21 -22 -22 c-17 -17 -22 -19 -22 -7 0 15 -49 69 -62 69 -4 0 -10 -5 -13
-11z m196 -245 c-38 -64 -70 -145 -71 -183 -1 -9 -12 19 -26 61 -13 42 -40
100 -59 128 -19 29 -35 55 -35 58 0 4 26 32 57 64 l58 58 58 -59 59 -58 -41
-69z m-140 -46 c29 -57 59 -161 59 -205 0 -27 -25 -29 -110 -9 -73 18 -120 38
-176 77 l-46 31 103 105 104 104 19 -23 c10 -13 31 -49 47 -80z m372 -125
c-15 -13 -53 -35 -83 -49 -60 -29 -205 -63 -216 -51 -12 12 12 136 37 192 12
28 35 70 52 94 l29 43 105 -103 104 -104 -28 -22z m27 173 c0 -2 -8 -10 -17
-17 -16 -13 -17 -12 -4 4 13 16 21 21 21 13z m-631 -59 c6 -8 8 -17 4 -20 -7
-8 -33 11 -33 24 0 13 16 11 29 -4z m19 -148 c37 -22 93 -47 125 -56 l59 -17
-65 -21 c-35 -11 -92 -38 -127 -59 l-62 -38 -59 58 -59 58 57 58 c32 32 59 58
61 58 2 0 33 -18 70 -41z m684 -16 l58 -57 -57 -58 c-32 -32 -61 -58 -66 -58
-5 0 -23 11 -41 25 -42 32 -131 72 -181 81 l-40 7 60 16 c62 18 157 64 176 88
19 22 31 16 91 -44z m-412 -85 c-1 -72 -58 -227 -106 -286 l-19 -23 -104 104
-103 105 46 31 c58 40 106 61 176 77 88 20 110 18 110 -8z m188 -14 c34 -13
83 -37 108 -55 l46 -31 -103 -105 -104 -104 -23 28 c-49 58 -102 203 -102 280
0 25 1 25 58 18 31 -4 85 -18 120 -31z m-164 -114 c8 -30 34 -86 57 -124 l41
-68 -58 -59 -58 -59 -58 57 c-32 32 -58 60 -58 64 0 4 16 31 35 60 20 29 46
86 58 126 12 41 22 71 24 66 1 -4 8 -33 17 -63z m94 -252 c-3 -7 -13 -15 -24
-17 -16 -3 -17 -1 -5 13 16 19 34 21 29 4z"/>
<path d="M2362 3028 c14 -14 26 -19 30 -13 9 12 0 21 -30 30 l-23 7 23 -24z"/>
<path d="M2630 3004 c-23 -23 -30 -34 -19 -34 18 0 63 44 58 58 -2 5 -20 -6
-39 -24z"/>
<path d="M2318 3012 c-19 -4 -25 -37 -8 -47 6 -4 7 1 3 12 -5 14 -1 13 20 -6
30 -27 37 -19 10 11 -16 18 -16 18 0 12 9 -3 17 -2 17 4 0 13 -20 19 -42 14z"/>
<path d="M2680 2988 c-12 -22 -12 -22 6 -6 10 10 15 20 12 24 -4 3 -12 -5 -18
-18z"/>
<path d="M2705 2963 c-7 -21 -7 -22 15 -16 27 7 25 -5 -7 -41 -16 -17 -21 -25
-12 -18 9 6 19 9 22 5 4 -3 9 2 13 11 3 9 13 16 22 16 13 0 13 2 -1 18 -10 10
-17 23 -17 29 0 15 -28 12 -35 -4z"/>
<path d="M2241 2923 c0 -12 2 -14 6 -5 4 10 14 6 37 -15 l31 -28 -29 33 c-33
36 -46 40 -45 15z"/>
<path d="M2220 2900 c0 -13 18 -22 24 -11 3 5 -1 11 -9 15 -8 3 -15 1 -15 -4z"/>
<path d="M2192 2868 c-6 -6 -12 -16 -12 -22 0 -5 3 -6 7 -3 3 4 15 -1 26 -10
19 -17 20 -17 10 2 -6 11 -12 26 -14 33 -3 10 -7 10 -17 0z"/>
<path d="M2878 2808 c-21 -21 -23 -29 -5 -25 11 2 32 37 25 42 -2 1 -11 -7
-20 -17z"/>
<path d="M2106 2791 c-4 -5 4 -15 16 -22 22 -12 22 -11 8 7 -8 10 -15 20 -16
22 -1 2 -5 -1 -8 -7z"/>
<path d="M2073 2755 c9 -7 17 -17 17 -24 0 -6 4 -11 9 -11 22 0 6 39 -18 43
-23 5 -24 4 -8 -8z"/>
<path d="M2040 2735 c15 -18 5 -35 -21 -35 -18 0 -18 -1 -1 -18 19 -21 34 -19
26 2 -9 23 16 29 39 9 22 -18 22 -18 5 3 -10 11 -18 25 -18 31 0 6 -9 13 -21
16 -16 4 -18 3 -9 -8z"/>
<path d="M2920 2731 c0 -17 18 -21 24 -6 3 9 0 15 -9 15 -8 0 -15 -4 -15 -9z"/>
<path d="M2950 2699 c-11 -19 -10 -20 9 -10 27 15 36 31 17 31 -8 0 -20 -9
-26 -21z"/>
<path d="M2980 2690 c-8 -5 -11 -12 -7 -16 4 -4 13 -2 19 4 15 15 7 24 -12 12z"/>
<path d="M3010 2658 c0 -13 -5 -29 -12 -36 -7 -7 -8 -12 -2 -12 5 0 17 11 26
24 15 21 16 26 3 36 -13 10 -15 8 -15 -12z"/>
<path d="M1987 2663 c-13 -12 -7 -19 36 -43 l42 -24 -30 36 c-32 38 -37 42
-48 31z"/>
<path d="M2022 2469 c-13 -16 -18 -29 -12 -29 6 0 8 -6 4 -12 -4 -7 1 -6 12 3
10 9 27 20 37 26 17 9 17 10 0 25 -17 14 -20 13 -41 -13z"/>
<path d="M2980 2485 c-12 -15 -3 -21 24 -16 4 1 14 -4 22 -10 10 -8 14 -8 14
0 0 6 -4 11 -9 11 -5 0 -16 7 -24 15 -13 13 -16 13 -27 0z"/>
<path d="M2052 2427 c-31 -33 -27 -41 8 -20 17 9 30 23 30 30 0 19 -14 16 -38
-10z"/>
<path d="M2147 2344 c-21 -28 -4 -29 25 -1 21 20 23 27 6 27 -7 0 -21 -12 -31
-26z"/>
<path d="M2806 2305 c4 -8 7 -15 9 -15 2 0 5 7 9 15 3 9 0 15 -9 15 -9 0 -12
-6 -9 -15z"/>
<path d="M2769 2274 c-8 -10 -9 -15 -2 -11 7 4 18 -2 27 -15 19 -27 21 -13 2
20 -12 22 -13 22 -27 6z"/>
<path d="M2209 2233 c-13 -16 -12 -17 4 -4 9 7 17 15 17 17 0 8 -8 3 -21 -13z"/>
<path d="M2731 2237 c-8 -10 -2 -21 26 -48 21 -19 32 -27 27 -19 -6 8 -14 24
-18 34 -7 20 -7 20 16 1 14 -12 11 -6 -6 13 -35 37 -31 36 -45 19z"/>
<path d="M2680 2201 c0 -5 9 -11 21 -14 16 -4 18 -3 8 9 -13 16 -29 19 -29 5z"/>
<path d="M2360 2165 c-10 -12 -10 -15 4 -15 9 0 16 7 16 15 0 8 -2 15 -4 15
-2 0 -9 -7 -16 -15z"/>
<path d="M2658 2173 c6 -2 12 -11 12 -19 0 -8 4 -14 9 -14 6 0 9 9 8 20 -1 13
-8 20 -22 19 -11 0 -14 -3 -7 -6z"/>
<path d="M2440 2091 c0 -6 1 -13 3 -15 1 -2 -7 -13 -17 -25 -11 -12 -16 -21
-11 -21 4 0 18 11 30 25 20 20 21 26 9 36 -10 8 -14 8 -14 0z"/>
<path d="M2573 2083 c-22 -8 -14 -19 30 -43 l42 -23 -30 34 c-16 19 -30 34
-30 35 0 1 -6 -1 -12 -3z"/>
<path d="M3216 3373 c-4 -27 -9 -64 -12 -83 -4 -32 0 -40 44 -83 l50 -49 12
87 12 87 -43 44 c-24 24 -46 44 -50 44 -4 0 -10 -21 -13 -47z m83 -113 c-5
-35 -12 -67 -15 -69 -2 -3 -20 11 -40 30 -29 28 -34 39 -30 64 2 17 8 50 11
74 l7 44 39 -39 39 -39 -11 -65z"/>
<path d="M1681 3306 c-25 -25 -43 -47 -40 -50 2 -2 40 -9 84 -14 l80 -11 48
47 48 47 -33 7 c-18 4 -58 9 -88 13 l-55 6 -44 -45z m177 14 c10 -5 5 -16 -20
-43 l-34 -36 -65 9 c-35 5 -68 10 -74 10 -5 0 8 18 30 40 38 39 40 40 94 34
31 -4 62 -10 69 -14z"/>
<path d="M3392 3129 l-32 -80 32 -55 c18 -29 36 -50 40 -46 4 4 20 38 37 77
l29 70 -21 36 c-54 88 -48 89 -85 -2z m68 10 c25 -45 24 -48 -17 -148 l-15
-34 -28 47 -27 48 25 64 c14 35 28 64 32 64 3 0 17 -19 30 -41z"/>
<path d="M1645 3135 c-5 -2 -30 -6 -55 -10 -43 -5 -47 -9 -79 -66 l-33 -59 39
5 c21 4 60 9 86 13 46 7 50 10 83 65 l33 57 -32 -1 c-17 0 -36 -2 -42 -4z m33
-46 c-30 -54 -33 -56 -110 -64 l-68 -7 26 45 c23 42 29 46 72 52 26 3 54 8 62
9 39 9 41 6 18 -35z"/>
<path d="M3513 2881 l-51 -67 16 -62 c9 -34 19 -62 22 -62 13 0 100 129 99
146 0 11 -5 28 -10 39 -7 15 -8 10 -4 -17 5 -33 1 -45 -36 -93 -46 -61 -54
-60 -65 12 -5 38 -2 46 37 98 36 48 44 54 50 39 7 -17 8 -17 8 3 2 41 -15 32
-66 -36z"/>
<path d="M1500 2880 c-69 -30 -80 -45 -94 -123 l-7 -37 51 20 c97 38 108 47
120 93 6 23 13 50 16 60 7 23 -9 21 -86 -13z m61 -47 c-10 -35 -17 -41 -76
-67 -36 -16 -67 -27 -69 -25 -2 2 3 27 11 54 14 48 16 51 76 75 69 28 74 25
58 -37z"/>
<path d="M1453 2609 l-63 -49 0 -66 c0 -74 -5 -73 83 -7 l57 44 0 65 c0 35 -3
64 -7 64 -5 -1 -36 -23 -70 -51z m67 -21 c-1 -51 -2 -54 -47 -88 -75 -57 -73
-57 -73 2 0 52 1 54 53 95 28 23 55 42 60 43 4 0 7 -24 7 -52z"/>
<path d="M3563 2609 l-63 -49 0 -65 c0 -36 3 -65 6 -65 3 0 35 23 70 51 l64
51 0 64 c0 35 -3 64 -7 64 -5 -1 -36 -23 -70 -51z m67 -21 c0 -52 -1 -54 -55
-95 -30 -24 -57 -43 -60 -43 -3 0 -5 24 -5 53 0 51 1 53 53 94 28 23 55 42 60
42 4 1 7 -23 7 -51z"/>
<path d="M1473 2334 l-50 -67 14 -51 c8 -28 16 -57 19 -65 5 -17 104 111 104
135 0 21 -21 96 -30 107 -4 4 -30 -22 -57 -59z m76 -45 c1 -12 -58 -101 -83
-126 -2 -3 -10 20 -17 51 l-12 55 44 58 43 58 12 -40 c7 -22 13 -47 13 -56z"/>
<path d="M3547 2337 c-83 -32 -77 -25 -103 -129 -8 -35 -2 -35 83 1 68 29 68
29 86 87 9 32 16 61 15 65 -2 4 -38 -7 -81 -24z m70 6 c-3 -5 -10 -27 -16 -51
-11 -39 -17 -45 -68 -68 -76 -33 -84 -30 -67 27 13 42 18 48 71 71 59 27 88
34 80 21z"/>
<path d="M1563 2073 l-30 -78 28 -50 c16 -27 32 -51 37 -53 4 -1 22 31 39 72
l31 73 -32 57 c-17 31 -33 56 -37 56 -3 0 -19 -35 -36 -77z m87 -36 c0 -18
-44 -127 -52 -127 -3 0 -17 19 -30 43 -17 30 -22 49 -16 63 4 10 17 41 28 69
l21 49 25 -43 c13 -24 24 -48 24 -54z"/>
<path d="M3495 2079 c-38 -6 -38 -6 -7 -8 38 -1 38 -2 11 -51 -16 -28 -30 -40
-53 -43 -88 -15 -116 -18 -116 -13 0 3 12 25 27 50 23 38 33 46 63 49 l35 4
-37 1 c-39 2 -52 -11 -98 -97 l-12 -24 63 7 c112 13 112 13 144 72 16 29 27
55 24 57 -2 1 -22 0 -44 -4z"/>
<path d="M1727 1903 c-3 -15 -8 -55 -12 -88 l-7 -60 46 -44 c25 -25 48 -43 50
-40 2 2 9 40 14 84 l10 80 -48 48 -47 49 -6 -29z m55 -37 c33 -33 34 -36 27
-88 -4 -29 -8 -62 -8 -73 -1 -16 -8 -13 -41 20 l-40 40 6 60 c6 57 11 75 19
75 1 0 18 -15 37 -34z"/>
<path d="M3176 1811 l-48 -49 86 -12 87 -13 44 43 c25 24 45 47 45 51 0 4 -26
10 -57 13 -32 4 -69 9 -83 12 -20 4 -35 -5 -74 -45z m148 23 l48 -7 -39 -38
-39 -39 -62 8 c-34 5 -65 12 -69 15 -4 4 9 23 27 42 27 27 40 34 60 31 14 -3
47 -8 74 -12z"/>
<path d="M1920 1724 c0 -15 5 -55 11 -89 10 -59 12 -62 59 -88 26 -15 52 -27
57 -27 5 0 4 34 -2 80 -11 85 -8 81 -87 129 l-38 23 0 -28z m99 -49 c5 -5 12
-40 16 -77 l7 -67 -46 25 c-47 26 -48 29 -61 128 l-7 48 42 -23 c23 -13 45
-28 49 -34z"/>
<path d="M2963 1667 c-29 -18 -53 -35 -53 -38 0 -3 35 -19 78 -36 l77 -30 50
28 c27 16 51 32 53 37 2 6 -138 73 -150 72 -2 -1 -26 -15 -55 -33z m187 -38
c0 -3 -19 -16 -41 -29 -42 -23 -42 -23 -93 -5 -94 33 -95 34 -42 65 l48 27 64
-26 c35 -14 64 -29 64 -32z"/>
<path d="M2153 1598 c4 -13 18 -50 31 -81 27 -59 24 -57 129 -83 l28 -6 -16
38 c-9 22 -24 58 -33 81 -14 37 -21 43 -61 53 -25 6 -54 13 -65 17 -16 4 -18
1 -13 -19z m78 -8 c32 -9 38 -17 63 -76 15 -37 26 -68 24 -69 -2 -1 -25 4 -53
12 -48 14 -51 16 -76 79 -30 71 -28 73 42 54z"/>
<path d="M2722 1582 c-30 -10 -54 -21 -55 -25 -1 -5 27 -30 62 -56 l64 -48 51
14 c28 8 57 16 64 19 8 2 -15 26 -56 59 -39 30 -72 55 -74 54 -2 -1 -27 -8
-56 -17z m117 -42 c30 -21 56 -41 58 -44 3 -2 -20 -10 -51 -17 l-55 -12 -57
44 -57 44 39 12 c59 18 66 16 123 -27z"/>
<path d="M2402 1552 c2 -5 23 -36 48 -70 l45 -61 68 -1 c77 0 76 -5 10 83
l-44 57 -65 0 c-36 0 -64 -4 -62 -8z m158 -49 c57 -75 58 -73 -2 -73 -53 0
-54 1 -96 54 -23 30 -42 57 -42 60 0 3 24 6 53 6 50 -1 53 -2 87 -47z"/>
</g>
</svg>
