<?xml version="1.0" standalone="no"?>
<!DOCTYPE svg PUBLIC "-//W3C//DTD SVG 20010904//EN"
 "http://www.w3.org/TR/2001/REC-SVG-20010904/DTD/svg10.dtd">
<svg version="1.0" xmlns="http://www.w3.org/2000/svg"
 width="500.000000pt" height="500.000000pt" viewBox="0 0 500.000000 500.000000"
 preserveAspectRatio="xMidYMid meet">

<g transform="translate(0.000000,500.000000) scale(0.100000,-0.100000)"
fill="#000000" stroke="none">
<path d="M2168 3723 l-336 -336 -74 62 c-284 242 -648 237 -889 -10 -78 -79
-147 -205 -177 -319 -24 -90 -14 -112 26 -60 46 61 105 110 172 143 57 28 74
32 150 32 71 0 94 -4 141 -26 97 -46 189 -149 205 -228 7 -32 1 -39 -222 -262
l-229 -229 234 -234 233 -233 -28 -59 c-36 -75 -117 -157 -191 -192 -49 -22
-72 -27 -143 -26 -75 0 -92 3 -150 32 -66 32 -124 80 -172 142 -15 19 -30 31
-35 27 -14 -14 29 -151 75 -242 62 -120 165 -226 272 -278 111 -54 185 -70
304 -65 161 8 293 64 432 184 l60 53 335 -335 c183 -184 338 -334 344 -334 6
0 160 150 344 334 l334 334 67 -57 c93 -77 164 -118 266 -152 214 -71 447 -16
609 145 83 82 143 178 179 288 24 71 33 128 21 128 -3 0 -35 -31 -71 -70 -47
-49 -86 -80 -132 -102 -60 -30 -75 -33 -152 -32 -70 0 -95 5 -142 27 -75 34
-151 111 -188 189 l-30 63 230 230 c127 127 230 234 230 239 0 5 -103 112
-230 237 -224 222 -230 229 -219 256 36 97 134 199 224 232 75 28 176 28 251
0 65 -24 146 -87 189 -146 17 -23 33 -42 38 -42 13 -1 7 46 -14 115 -60 196
-186 347 -352 425 -227 106 -503 56 -707 -128 -32 -29 -62 -53 -67 -53 -4 0
-159 151 -343 335 l-335 335 -337 -337z m407 217 l59 -60 -59 -60 c-33 -33
-64 -60 -69 -60 -14 0 -116 101 -116 114 0 11 110 126 120 126 3 0 32 -27 65
-60z m-180 -100 c19 -22 20 -21 -45 -39 -32 -8 -32 -9 -8 -10 21 -1 27 -7 30
-27 l3 -26 25 29 c14 15 18 22 10 16 -19 -17 -31 -16 -24 1 11 29 37 27 71 -6
18 -17 33 -37 33 -43 0 -5 -60 -71 -134 -144 l-134 -134 -47 46 c-26 26 -52
47 -58 47 -7 0 13 -23 43 -50 l55 -49 -455 -451 -455 -451 -33 38 c-29 33 -31
38 -15 45 13 5 14 7 3 7 -29 1 -90 -12 -90 -19 0 -4 10 -5 23 -3 15 3 33 -7
60 -33 40 -40 46 -58 20 -68 -12 -5 -34 10 -75 51 -32 32 -57 61 -56 65 2 5
210 215 463 468 383 383 461 457 463 438 4 -24 49 -78 65 -78 4 0 -5 17 -22
37 -17 21 -31 46 -31 57 0 17 274 306 291 306 3 0 14 -9 24 -20z m382 -102
c106 -106 123 -127 123 -155 0 -17 -3 -33 -7 -35 -5 -1 3 -14 16 -28 20 -21
23 -22 17 -5 -4 11 -10 36 -13 55 -5 32 23 6 321 -290 179 -179 320 -327 314
-329 -17 -5 -68 -53 -68 -64 0 -4 17 5 37 22 21 17 42 31 48 31 5 0 63 -53
127 -117 101 -100 118 -122 118 -149 0 -29 -2 -31 -31 -28 -27 3 -30 2 -19
-12 10 -11 15 -12 20 -3 5 8 14 5 30 -11 l21 -21 -7 48 -6 48 31 -30 32 -29
-66 -66 -65 -65 -599 599 -600 600 37 33 c20 18 43 30 51 27 11 -3 12 5 7 46
-4 27 -3 50 1 50 4 0 63 -55 130 -122z m-144 83 c3 -13 -10 -33 -43 -66 -38
-38 -49 -44 -58 -32 -9 11 -5 20 21 43 l32 29 -25 -29 c-21 -24 -22 -27 -5
-18 26 13 66 57 64 68 -5 28 7 32 14 5z m497 -1946 c-338 -338 -618 -615 -621
-615 -3 0 -64 59 -135 130 -155 157 -68 70 -634 631 l-474 470 619 619 620
620 620 -620 620 -620 -615 -615z m571 1713 l0 -23 11 22 c10 20 16 22 52 16
23 -3 43 -7 44 -9 6 -5 -19 -73 -28 -79 -5 -3 -19 13 -30 36 -12 22 -24 39
-26 36 -3 -3 4 -23 15 -46 27 -51 27 -51 -9 -51 -28 0 -30 3 -31 38 l-2 37 -6
-35 c-5 -30 -11 -36 -48 -46 l-43 -13 0 55 c0 30 5 54 10 54 6 0 10 -3 10 -7
0 -5 14 -24 31 -43 36 -42 28 -21 -13 32 l-29 37 33 4 c18 2 39 5 46 5 6 1 12
-8 13 -20z m-2443 -33 c-12 -25 -25 -45 -28 -45 -10 0 -39 78 -32 84 3 3 23 6
44 6 l38 0 -22 -45z m126 33 c-19 -32 -57 -78 -65 -78 -5 0 -9 20 -9 45 l0 45
41 0 c29 0 38 -3 33 -12z m-231 -55 l-16 -46 -30 33 -30 34 38 17 c22 10 43
16 46 13 4 -2 1 -25 -8 -51z m147 7 c0 -49 -1 -50 -30 -50 -16 0 -30 3 -30 7
0 9 50 93 55 93 3 0 5 -22 5 -50z m168 44 c29 -8 28 -14 -13 -60 l-34 -39 -1
30 c0 17 -3 40 -6 53 -7 24 8 28 54 16z m2122 -51 l-1 -58 -40 45 c-22 25 -36
36 -31 25 6 -11 20 -29 31 -39 30 -27 26 -43 -12 -55 -43 -15 -58 -9 -96 39
l-31 39 29 16 c46 23 51 19 53 -37 1 -46 2 -48 5 -13 7 84 13 91 71 94 20 1
22 -3 22 -56z m328 31 c12 -8 23 -24 23 -37 l2 -22 4 23 c2 12 7 22 10 22 12
0 73 -42 73 -50 0 -9 -53 -50 -64 -50 -3 0 -7 12 -7 28 l-2 27 -4 -27 c-2 -16
-6 -28 -8 -28 -4 0 -57 22 -64 26 -1 2 9 20 24 41 l28 38 -32 -32 c-17 -18
-32 -33 -35 -33 -3 0 -26 82 -26 96 0 9 51 -5 78 -22z m-2508 -52 c0 -41 -1
-42 -27 -36 -54 13 -55 17 -22 63 37 49 49 42 49 -27z m2439 -13 c1 -12 -6
-14 -29 -11 -35 5 -36 9 -13 57 l17 36 12 -33 c7 -18 13 -40 13 -49z m-2651
46 c18 -40 14 -52 -18 -57 -25 -4 -30 -2 -25 11 4 9 9 28 12 44 7 34 16 34 31
2z m308 -102 c-5 -5 -62 14 -75 23 -2 2 14 25 35 51 l39 48 3 -59 c2 -32 1
-61 -2 -63z m53 106 c17 -6 31 -14 31 -19 0 -4 -13 -24 -30 -45 -41 -52 -37
-59 5 -10 l34 39 -5 -44 c-10 -79 -15 -84 -52 -50 -18 17 -22 32 -22 80 0 33
2 60 4 60 1 0 17 -5 35 -11z m-507 -41 l1 -33 4 33 c5 39 15 40 42 6 28 -35
27 -40 -11 -53 -24 -9 -34 -8 -40 1 -6 10 -8 10 -8 0 0 -13 -17 -7 -54 21 -17
13 -17 15 15 35 45 29 49 28 51 -10z m618 -26 c0 -5 -13 -21 -30 -37 -16 -16
-28 -31 -25 -34 3 -2 19 9 36 25 26 24 30 26 26 9 -3 -11 -9 -33 -13 -50 -10
-44 -13 -47 -36 -31 -24 17 -31 52 -23 113 l6 43 30 -15 c16 -9 29 -19 29 -23z
m1734 -25 c5 -43 4 -47 -12 -38 -9 5 -27 20 -40 34 l-23 25 28 20 c15 11 31
18 34 14 4 -4 9 -28 13 -55z m50 -45 c-14 -7 -28 -12 -30 -9 -2 2 -6 26 -10
53 l-5 49 36 -40 36 -39 -27 -14z m666 17 c0 -9 -71 -31 -78 -24 -2 2 -1 22 3
44 l7 41 34 -26 c19 -15 34 -30 34 -35z m-3157 4 c7 -36 4 -38 -42 -22 l-32
11 27 29 c31 32 39 29 47 -18z m41 24 l28 -23 -25 -17 c-25 -16 -25 -16 -35
23 -11 46 -7 48 32 17z m366 7 c36 -8 101 -33 145 -54 84 -42 195 -118 195
-135 0 -12 -188 -201 -193 -194 -3 2 -15 24 -27 48 -33 66 -115 147 -182 180
-79 40 -152 54 -264 49 l-95 -3 33 27 c104 85 247 116 388 82z m2529 -13 c51
-19 151 -80 151 -91 0 -3 -42 -4 -93 -2 -207 7 -356 -69 -438 -223 -13 -25
-29 -45 -34 -45 -6 0 -52 42 -103 93 l-93 93 23 21 c75 68 225 147 323 169 79
18 196 12 264 -15z m136 -3 c-9 -42 -9 -42 -34 -28 -28 14 -26 22 7 42 35 23
35 23 27 -14z m-2320 -55 c-21 -18 -40 -31 -42 -29 -2 1 2 26 8 55 l11 51 31
-22 30 -22 -38 -33z m1612 15 c6 -29 10 -54 9 -55 0 0 -19 14 -41 32 -39 33
-39 34 -21 54 29 32 41 25 53 -31z m53 -40 l-25 -20 -12 38 c-22 74 -17 83 25
41 l37 -38 -25 -21z m-2442 27 c19 -5 21 -9 11 -21 -16 -20 -37 -17 -49 7 -7
11 -14 18 -17 16 -2 -3 3 -17 12 -31 l17 -25 -69 -44 c-37 -24 -70 -43 -72
-41 -6 6 81 134 98 144 16 9 22 9 69 -5z m2392 -55 c0 -15 -41 -43 -49 -34 -7
8 -31 83 -31 98 0 4 18 -8 40 -25 22 -18 40 -35 40 -39z m790 65 c0 -3 -7 -17
-16 -31 -16 -24 -17 -24 -36 -7 -20 18 -19 18 9 30 31 14 43 16 43 8z m56 -38
c42 -58 77 -117 69 -117 -6 0 -84 46 -134 79 -13 8 -12 15 4 45 11 20 22 36
25 36 3 0 19 -20 36 -43z m-2436 -22 c-14 -50 -18 -53 -50 -27 l-23 18 39 32
c21 17 40 29 42 27 3 -2 -1 -25 -8 -50z m53 37 c16 -17 15 -20 -20 -53 -20
-19 -33 -26 -30 -17 3 9 9 33 13 52 7 41 14 44 37 18z m1462 -42 l7 -35 -26
24 c-29 27 -32 41 -14 59 15 15 22 4 33 -48z m-2165 3 c-1 -5 -9 -23 -19 -42
l-18 -33 -22 33 c-13 19 -20 25 -16 14 14 -39 10 -50 -16 -53 -29 -3 -44 11
-54 51 -6 24 -4 27 18 27 25 0 25 -2 15 -31 -6 -16 -8 -33 -4 -36 3 -4 6 1 6
9 0 32 40 68 76 68 19 0 34 -3 34 -7z m108 -9 c24 -5 22 -14 -17 -63 l-19 -25
-21 42 c-32 63 -30 64 57 46z m2692 11 c0 -10 -44 -95 -49 -95 -10 0 -53 72
-47 78 3 3 23 8 43 12 53 11 53 11 53 5z m100 -7 c0 -7 -9 -26 -19 -42 l-19
-29 -16 31 c-23 45 -20 52 19 52 21 0 35 -5 35 -12z m73 -4 c3 -3 1 -19 -5
-36 -12 -32 -22 -28 -32 15 -5 22 -3 27 12 27 10 0 21 -3 25 -6z m-2938 -40
c8 -20 15 -37 15 -38 0 -1 -16 0 -35 2 -38 5 -41 9 -23 47 15 34 25 32 43 -11z
m2800 5 c9 -17 15 -32 13 -34 -2 -1 -20 -5 -40 -9 l-38 -7 12 28 c12 29 28 53
34 53 2 0 11 -14 19 -31z m99 -16 c7 -20 4 -23 -23 -23 -36 0 -36 1 -15 42 17
33 23 30 38 -19z m-3160 -28 l-45 -65 -30 15 c-16 9 -29 19 -29 23 1 7 129 90
142 91 4 1 -13 -28 -38 -64z m86 10 c0 -6 -20 -17 -45 -26 -25 -9 -45 -15 -45
-12 0 2 14 25 31 50 l32 46 13 -24 c7 -13 13 -29 14 -34z m336 40 c19 -8 46
-23 60 -34 l24 -19 -50 -31 c-28 -17 -52 -31 -54 -31 -2 0 -7 21 -10 48 -4 26
-9 55 -12 65 -6 21 -3 21 42 2z m2469 -37 c-11 -80 -14 -83 -68 -48 -27 17
-45 35 -42 40 7 11 94 59 108 60 5 0 6 -24 2 -52z m363 2 c17 -28 30 -50 27
-50 -4 0 -73 30 -83 36 -7 4 9 64 16 64 4 0 22 -23 40 -50z m70 -3 l63 -40
-27 -17 c-33 -22 -43 -19 -70 23 -11 17 -29 45 -40 62 -21 32 -25 34 74 -28z
m-2944 -19 c8 -43 6 -44 -34 -23 -36 18 -36 19 -9 57 25 34 32 28 43 -34z
m2564 26 c13 -20 22 -37 20 -39 -5 -4 -67 -35 -71 -35 -2 0 1 25 6 55 6 30 13
55 16 55 3 0 16 -16 29 -36z m-2443 -81 c-10 -72 -15 -76 -54 -41 -27 24 -31
32 -20 39 8 4 28 17 44 28 17 11 32 20 34 20 2 1 0 -20 -4 -46z m2329 9 l38
-24 -33 -34 c-18 -19 -36 -34 -40 -34 -3 0 -9 19 -13 43 -4 23 -10 53 -13 66
-6 26 -9 27 61 -17z m-2269 -3 c14 -18 37 -54 51 -81 l25 -50 -58 6 -58 5 53
-11 c28 -6 52 -14 52 -17 0 -9 -69 -76 -73 -70 -11 16 -37 82 -37 94 0 7 -5
15 -11 17 -12 4 9 138 22 138 4 0 19 -14 34 -31z m2209 -36 c8 -37 14 -69 12
-71 -7 -6 -129 -23 -133 -18 -12 12 79 156 97 156 5 0 15 -30 24 -67z m-2852
33 c16 -11 13 -17 -29 -57 -48 -47 -50 -42 -17 39 14 35 21 38 46 18z m3502
-33 c24 -71 20 -74 -30 -25 -42 43 -44 47 -28 59 30 22 41 15 58 -34z m-644
-86 c0 -5 -42 -91 -46 -96 -2 -2 -20 13 -40 33 -20 20 -34 39 -32 41 2 2 26 8
53 13 64 12 65 13 65 9z m316 -646 l-65 -64 -62 62 -62 63 64 64 63 64 63 -62
63 -63 -64 -64z m-2771 119 l60 -60 -63 -63 -62 -62 -62 62 -63 63 60 60 c33
33 62 60 65 60 3 0 32 -27 65 -60z m335 -356 c0 -27 -3 -31 -25 -29 -31 4 -31
3 -3 -21 19 -15 20 -16 9 -1 -20 25 4 22 28 -5 l21 -21 -10 34 c-19 66 -9 63
80 -26 85 -85 103 -117 76 -136 -4 -4 -3 -10 3 -13 6 -4 11 -2 11 4 0 6 5 8
13 4 8 -5 7 -2 -2 9 -8 10 -11 20 -7 24 3 3 107 -94 231 -217 l224 -224 -40
-34 c-22 -19 -37 -37 -34 -40 3 -4 9 -2 13 4 4 5 22 20 40 33 l34 24 122 -122
c101 -101 123 -128 124 -153 1 -28 -2 -30 -29 -26 -16 3 -29 4 -29 3 0 -1 15
-14 32 -31 18 -16 24 -19 14 -6 -22 26 -11 30 16 5 19 -17 19 -16 13 12 -4 17
-8 36 -11 43 -6 20 11 14 36 -13 l24 -26 -64 -64 -65 -65 -615 615 -615 615
30 27 c24 23 26 24 10 4 -13 -16 -15 -22 -5 -16 31 17 60 49 60 67 0 10 5 18
10 18 14 0 12 -37 -2 -47 -7 -5 -26 -24 -43 -43 -29 -34 -14 -27 33 14 20 18
24 18 33 6 6 -10 7 5 3 45 l-6 60 131 -130 c112 -111 131 -134 131 -161z
m2255 266 c22 -24 21 -24 -30 -38 -25 -6 -32 -10 -17 -11 20 -1 28 -16 23 -43
-2 -13 5 -9 30 19 22 25 22 26 2 9 -26 -22 -32 -6 -7 18 22 22 25 21 67 -22
l37 -37 -513 -513 c-282 -282 -517 -509 -522 -505 -4 4 -5 3 -2 -3 3 -6 -30
-46 -73 -89 l-79 -79 -22 19 c-33 31 -44 56 -28 66 9 6 -4 7 -31 3 -25 -4 -49
-11 -55 -16 -6 -6 -1 -7 15 -4 20 5 35 -3 70 -34 44 -40 44 -40 24 -60 -20
-20 -20 -20 -84 45 l-65 66 130 128 c126 125 131 128 167 124 29 -4 38 -10 40
-28 l3 -23 20 26 c15 21 15 24 2 13 -13 -10 -17 -11 -17 -1 0 7 8 19 18 27 16
13 16 14 -3 9 -59 -14 -85 -17 -85 -9 0 4 147 154 327 333 259 257 328 321
331 305 4 -21 51 -74 65 -75 5 0 -5 17 -22 37 -17 21 -31 45 -31 55 0 16 275
306 291 307 3 1 14 -8 24 -19z m-2292 -542 c-17 -6 -17 -7 0 -7 23 -1 22 -8
-13 -66 -34 -58 -64 -95 -77 -95 -9 0 -39 128 -31 135 2 2 26 8 53 14 l50 10
-48 -3 c-26 -2 -47 -1 -45 3 2 4 12 28 23 53 l20 47 43 -42 c36 -36 40 -43 25
-49z m2160 -6 c12 -15 -12 -14 -107 5 l-28 5 43 44 44 45 18 -43 c10 -23 23
-48 30 -56z m-35 -17 c33 -5 42 -10 38 -23 -3 -10 -10 -44 -17 -77 l-11 -60
-35 40 c-36 41 -73 105 -73 125 0 7 11 10 28 6 15 -3 46 -8 70 -11z m-1991
-90 c48 -53 89 -100 91 -105 5 -13 -133 -108 -204 -140 -98 -46 -178 -63 -276
-58 -75 4 -96 9 -160 41 -41 20 -82 45 -91 55 -17 19 -15 19 90 19 207 1 348
79 425 237 12 25 25 46 29 46 4 0 47 -43 96 -95z m1904 35 c83 -155 264 -242
467 -223 34 3 62 3 62 0 0 -3 -25 -22 -56 -43 -175 -116 -395 -95 -614 57
-107 75 -108 56 5 169 55 55 101 100 102 100 1 0 16 -27 34 -60z m-2672 -100
c59 -86 59 -88 31 -69 -14 8 -46 28 -72 45 -27 16 -48 32 -48 36 0 4 12 15 28
23 25 15 15 14 -23 -1 -16 -6 -36 31 -51 92 -6 28 -5 27 46 -21 28 -27 69 -75
89 -105z m3436 88 c-9 -29 -22 -59 -28 -67 -12 -14 -143 -101 -152 -101 -3 0
14 29 37 64 42 63 43 64 70 50 37 -19 50 -17 14 2 l-28 16 48 49 c26 27 50 47
52 44 3 -2 -3 -28 -13 -57z m-558 -16 c12 -7 4 -16 -37 -41 -29 -18 -54 -30
-56 -28 -4 4 12 90 23 127 3 10 11 5 29 -18 14 -17 32 -36 41 -40z m-2361 -27
l7 -47 -49 28 c-27 15 -50 29 -52 30 -2 1 14 18 35 37 43 40 46 38 59 -48z
m2464 -42 c0 -10 -44 -73 -52 -73 -3 0 -9 19 -13 43 -3 23 -9 50 -12 60 -4 17
-2 17 36 -3 23 -11 41 -23 41 -27z m-2585 -10 c-10 -70 -26 -89 -79 -97 -55
-9 -61 -6 -86 44 l-20 40 27 5 c67 14 63 17 42 -33 -27 -62 -19 -61 14 2 18
34 39 58 60 69 47 23 49 22 42 -30z m79 21 c34 -19 44 -29 37 -38 -12 -15
-109 -61 -115 -55 -7 7 15 119 24 119 4 0 28 -12 54 -26z m2420 9 c14 -50 17
-103 6 -103 -17 0 -85 37 -99 53 -10 13 -5 19 31 41 51 31 55 31 62 9z m-2840
-13 c25 -12 46 -25 46 -30 0 -14 -22 -60 -29 -60 -6 0 -71 96 -71 105 0 8 4 7
54 -15z m3220 -35 c-39 -59 -49 -65 -57 -37 -2 9 -8 24 -12 33 -5 13 2 20 32
29 21 7 42 16 48 21 26 25 21 3 -11 -46z m-188 4 c2 -5 -2 -22 -11 -38 -22
-44 -18 -51 7 -12 l21 33 18 -23 c30 -39 24 -51 -23 -47 -38 3 -45 7 -65 43
-13 22 -23 45 -23 50 0 13 67 7 76 -6z m-2898 -4 c4 -4 -32 -65 -39 -65 -4 0
-10 11 -13 24 -3 13 -9 32 -12 41 -6 15 -2 16 27 10 19 -4 35 -8 37 -10z
m2852 -79 c0 -10 -81 1 -94 14 -5 5 4 24 20 45 l28 37 22 -44 c13 -23 23 -47
24 -52z m127 38 l-14 -26 -21 35 -21 36 32 3 c37 4 44 -10 24 -48z m213 24
c-7 -12 -30 -47 -52 -76 l-40 -54 -23 34 -23 33 72 47 c39 25 72 45 74 43 2
-2 -2 -14 -8 -27z m-3385 -19 c36 -22 65 -44 65 -49 0 -4 -7 -13 -15 -20 -8
-7 -15 -18 -15 -24 0 -6 9 0 19 13 17 23 20 23 41 8 l23 -16 -28 -11 c-46 -17
-71 -4 -113 58 -67 100 -68 99 23 41z m3225 -34 c0 -1 -11 -5 -25 -7 -28 -6
-29 -3 -14 42 l12 32 13 -32 c8 -18 14 -34 14 -35z m-3097 38 c2 -10 8 -25 11
-34 6 -13 2 -16 -18 -12 -28 6 -29 7 -20 41 8 26 20 29 27 5z m100 -18 l17
-35 -41 0 c-22 0 -39 3 -37 8 37 75 38 75 61 27z m666 -29 c17 -69 14 -71 -38
-26 l-34 29 24 20 c13 11 27 20 30 21 4 0 12 -20 18 -44z m54 -38 c-22 -25
-29 -23 -37 10 -3 15 -9 38 -12 52 -6 24 -5 23 29 -9 35 -33 36 -36 20 -53z
m1474 75 c-3 -5 -10 -28 -17 -51 -11 -43 -12 -43 -31 -26 -19 17 -19 18 13 51
30 31 45 42 35 26z m59 -25 c4 -7 -8 -25 -32 -45 -21 -18 -35 -33 -30 -33 4 0
22 11 38 25 17 14 32 25 33 23 6 -5 -18 -98 -25 -98 -3 0 -18 13 -33 28 l-27
28 15 52 c14 47 18 51 35 42 10 -6 22 -15 26 -22z m-1659 -75 c6 -27 9 -50 7
-52 -3 -3 -21 12 -41 32 -36 36 -37 37 -18 52 32 23 41 18 52 -32z m55 -38
l-27 -24 -12 37 c-22 70 -18 77 27 42 l40 -31 -28 -24z m1664 71 c18 -14 18
-16 -18 -53 -40 -40 -45 -34 -27 30 11 41 16 44 45 23z m723 -15 c15 -23 15
-23 -19 -16 -44 9 -46 11 -30 30 16 19 29 16 49 -14z m-3145 -48 l-4 -38 10
33 c12 36 17 38 44 17 20 -15 20 -15 0 -30 -38 -30 -63 -29 -95 1 l-30 29 38
12 c21 6 39 12 40 12 1 1 0 -16 -3 -36z m629 -28 l5 -50 -34 39 c-40 46 -41
50 -11 63 29 14 34 8 40 -52z m1862 53 c14 -6 25 -14 25 -17 -1 -3 -16 -24
-35 -45 -34 -38 -35 -38 -35 -14 0 28 11 88 16 88 2 0 15 -5 29 -12z m636 -42
c-27 -26 -33 -29 -41 -16 -5 8 -10 27 -10 41 0 26 1 27 41 16 l41 -10 -31 -31z
m-2421 -26 c0 -3 -13 -13 -29 -23 l-29 -17 -6 31 c-3 18 -6 43 -6 57 l0 26 35
-34 c19 -19 35 -37 35 -40z m1733 18 c-6 -50 -15 -57 -47 -33 -19 15 -19 16
14 50 18 19 35 34 36 32 1 -1 0 -23 -3 -49z m627 33 c0 -11 3 -26 6 -35 8 -22
-6 -20 -36 4 -24 20 -25 21 -6 35 26 20 36 19 36 -4z m-2520 -71 c0 -33 -3
-60 -7 -60 -10 1 -77 89 -72 94 5 4 61 24 72 25 4 1 7 -26 7 -59z m2034 45
l37 -16 -38 -45 -38 -45 -6 53 -6 53 -1 -52 c-1 -29 -4 -53 -7 -53 -12 0 -65
31 -65 38 0 11 68 82 78 82 5 0 26 -7 46 -15z m-2493 -7 c3 7 19 4 46 -8 34
-15 44 -26 54 -59 15 -51 24 -47 10 4 -10 36 -9 36 17 33 28 -3 31 -14 18 -68
-4 -16 0 -12 10 10 19 42 30 50 67 50 26 0 27 -2 27 -46 0 -39 -2 -44 -14 -35
-8 6 -19 25 -26 42 -7 16 -15 28 -17 25 -2 -2 5 -23 17 -46 l22 -42 -39 5
c-60 8 -127 25 -156 38 -21 10 -27 20 -29 48 l-1 36 -4 -32 c-5 -39 -9 -40
-47 -10 l-29 23 28 22 c20 16 31 19 36 11 4 -8 8 -8 10 -1z m509 -28 l31 -39
-30 -16 c-17 -8 -32 -15 -36 -15 -3 0 -5 25 -5 55 0 30 2 55 4 55 2 0 18 -18
36 -40z m2399 13 c1 33 8 33 44 3 l29 -23 -30 -22 c-37 -26 -52 -27 -53 -3 -1
11 -3 9 -8 -7 -6 -24 -7 -24 -34 12 l-28 37 33 13 c32 13 33 13 39 -12 l7 -26
1 28z m-2549 -35 c0 -18 -3 -43 -6 -55 -6 -21 -9 -20 -40 21 -19 25 -34 47
-34 50 0 5 31 12 63 15 13 1 17 -7 17 -31z m2258 17 c5 -5 -12 -32 -47 -75
l-21 -25 0 59 0 59 32 -7 c17 -3 34 -8 36 -11z m-2178 -76 c0 -8 -59 -21 -69
-15 -3 2 -5 26 -2 52 l3 49 34 -40 c19 -22 34 -43 34 -46z m2100 31 c0 -50 0
-50 -27 -44 -16 4 -32 10 -37 15 -9 8 41 77 57 78 4 1 7 -22 7 -49z m259 38
c0 -7 -6 -29 -13 -48 l-13 -35 -17 39 c-9 21 -13 42 -10 47 8 14 54 11 53 -3z
m-89 -3 c0 -3 -9 -24 -21 -47 -16 -31 -23 -38 -30 -27 -7 11 -9 11 -9 -3 0
-14 -9 -18 -40 -18 -22 0 -40 3 -40 6 0 3 15 25 32 47 l33 41 6 -29 7 -30 1
33 c1 29 4 32 31 32 17 0 30 -2 30 -5z m140 -20 c14 -15 20 -29 14 -34 -12
-11 -74 -31 -74 -24 0 16 24 83 30 83 4 0 17 -11 30 -25z m-2546 -23 c14 -21
26 -41 26 -45 0 -4 -16 -7 -35 -7 -35 0 -35 0 -35 45 0 25 4 45 9 45 4 0 20
-17 35 -38z m2441 2 c8 -20 12 -40 9 -45 -6 -10 -74 -13 -74 -4 0 10 40 85 45
85 3 0 12 -16 20 -36z m-1227 -391 l-62 -63 -63 62 -63 62 62 63 62 63 63 -62
63 -62 -62 -63z"/>
<path d="M2455 3935 c-30 -30 -32 -64 -4 -99 42 -54 129 -21 129 49 0 24 -7
39 -26 54 -35 28 -69 26 -99 -4z"/>
<path d="M2280 3703 c-25 -26 -33 -37 -17 -23 l27 24 -6 -32 c-8 -38 9 -62 40
-61 14 0 16 2 6 6 -40 14 -47 76 -12 116 32 37 4 15 -38 -30z"/>
<path d="M2174 3618 c-21 -24 -23 -28 -5 -13 18 14 23 16 19 5 -4 -11 2 -15
21 -17 l26 -1 -22 18 c-16 13 -19 20 -10 29 6 6 9 11 6 11 -3 0 -18 -15 -35
-32z"/>
<path d="M2020 3443 c-25 -27 -39 -42 -31 -36 12 10 18 9 33 -4 20 -18 25 -4
6 15 -18 18 -5 22 36 11 23 -6 40 -19 46 -32 6 -16 9 -18 9 -5 1 22 -24 46
-55 54 -24 6 -24 7 -8 25 37 41 6 16 -36 -28z"/>
<path d="M1822 3257 c-31 -32 -43 -55 -21 -42 5 4 18 0 27 -7 34 -30 46 -30
19 -1 -41 44 -19 49 26 6 22 -21 35 -29 29 -18 -6 11 -20 29 -31 39 -13 12
-19 26 -15 38 8 25 3 23 -34 -15z"/>
<path d="M1725 3148 c-22 -23 -29 -34 -16 -23 l24 20 -7 -29 c-8 -31 15 -66
43 -66 11 0 9 4 -7 16 -26 18 -30 69 -6 102 23 34 12 27 -31 -20z"/>
<path d="M1616 3102 c-4 -7 -2 -12 5 -12 8 0 8 -5 -2 -17 -11 -15 -11 -16 1
-5 8 6 18 12 23 12 4 0 5 -6 1 -12 -4 -7 -3 -10 1 -5 5 4 9 16 10 27 1 15 -2
17 -11 9 -8 -7 -13 -6 -16 3 -3 9 -6 9 -12 0z"/>
<path d="M1460 2903 c-14 -3 -29 -9 -35 -15 -7 -7 -1 -9 17 -6 15 3 29 2 30
-1 2 -4 11 1 21 11 17 18 15 19 -33 11z"/>
<path d="M1476 2854 c-23 -23 -20 -30 4 -9 11 10 20 20 20 22 0 7 -9 2 -24
-13z"/>
<path d="M1366 2800 c-37 -41 -48 -63 -21 -40 12 10 18 10 33 -1 14 -11 15
-11 5 1 -7 8 -13 18 -13 23 0 15 64 -4 83 -25 13 -15 17 -16 17 -5 0 19 -18
34 -53 42 -27 7 -27 8 -11 26 9 11 12 19 7 19 -6 0 -27 -18 -47 -40z"/>
<path d="M1259 2703 l-24 -28 24 20 c22 18 24 18 18 2 -4 -11 -3 -16 4 -12 5
4 16 1 24 -5 10 -8 15 -9 15 -2 0 6 -9 17 -20 25 -11 8 -17 17 -13 20 3 4 4 7
1 7 -2 0 -15 -12 -29 -27z"/>
<path d="M1230 2565 c18 -19 36 -32 39 -30 6 7 -50 65 -63 65 -5 0 5 -16 24
-35z"/>
<path d="M2720 3745 c13 -14 26 -25 28 -25 3 0 -5 11 -18 25 -13 14 -26 25
-28 25 -3 0 5 -11 18 -25z"/>
<path d="M2697 3721 c-3 -12 -1 -21 3 -21 15 0 23 21 12 32 -6 6 -11 2 -15
-11z"/>
<path d="M2778 3668 c8 -8 9 -15 1 -25 -8 -9 -8 -13 0 -13 6 0 11 5 11 11 0 5
4 8 9 4 11 -6 -2 -60 -20 -81 -9 -11 -8 -14 5 -14 9 0 16 4 16 9 0 5 5 22 10
36 9 23 13 25 25 15 8 -7 15 -8 15 -3 0 12 -63 73 -75 73 -5 0 -4 -5 3 -12z"/>
<path d="M2865 3530 c10 -11 20 -20 22 -20 2 0 -2 9 -9 20 -7 11 -17 20 -22
20 -5 0 -1 -9 9 -20z"/>
<path d="M3080 3396 c0 -2 8 -10 18 -17 15 -13 16 -12 3 4 -13 16 -21 21 -21
13z"/>
<path d="M3135 3310 c18 -20 17 -20 -11 -20 -35 0 -54 -16 -54 -44 0 -19 2
-18 13 4 11 21 19 25 52 23 21 -2 43 -7 49 -13 5 -5 14 -10 18 -10 5 0 -9 18
-31 40 -40 41 -69 57 -36 20z"/>
<path d="M3231 3214 c11 -13 10 -17 -4 -25 -9 -6 -22 -20 -28 -32 -10 -18 -6
-17 20 7 46 44 51 22 5 -25 -21 -23 -30 -37 -19 -31 11 6 31 22 44 36 19 20
27 23 38 15 24 -21 13 1 -19 36 -30 34 -63 51 -37 19z"/>
<path d="M3425 3020 c4 -6 1 -17 -5 -25 -7 -9 -8 -15 -2 -15 15 0 35 28 27 40
-3 5 -11 10 -16 10 -6 0 -7 -5 -4 -10z"/>
<path d="M3450 2975 c0 -14 -11 -37 -25 -51 -25 -25 -25 -25 -3 -22 16 2 25
13 33 41 10 35 12 37 24 23 8 -9 16 -14 19 -11 6 6 -28 45 -40 45 -4 0 -8 -11
-8 -25z"/>
<path d="M3534 2878 c-11 -13 -28 -34 -39 -47 l-20 -25 25 19 c31 23 75 75 63
75 -5 0 -18 -10 -29 -22z"/>
<path d="M3626 2838 c19 -21 19 -21 -1 -14 -11 4 -16 4 -12 0 4 -4 2 -13 -4
-21 -16 -18 5 -17 24 2 8 8 19 11 23 7 5 -4 -2 5 -15 21 -14 15 -27 27 -29 27
-3 0 3 -10 14 -22z"/>
<path d="M3680 2772 c0 -5 7 -15 15 -22 8 -7 15 -8 15 -2 0 5 -7 15 -15 22 -8
7 -15 8 -15 2z"/>
<path d="M3636 2721 c-9 -10 -16 -24 -16 -32 0 -8 6 -5 16 9 18 26 84 31 104
7 7 -8 17 -15 23 -15 6 0 1 10 -11 23 -28 29 -93 34 -116 8z"/>
<path d="M2286 3364 l7 -106 -264 -264 -264 -265 -105 3 -105 3 -3 -243 -2
-244 110 3 111 3 261 -260 260 -259 -6 -107 -6 -108 225 0 225 0 0 108 0 107
259 259 259 259 106 -2 106 -2 0 247 0 247 -102 -8 -101 -7 -264 264 -263 263
0 107 0 108 -226 0 -225 0 7 -106z m420 -132 c2 -299 33 -452 103 -502 63 -44
92 -46 509 -24 l122 7 0 -222 0 -221 -92 5 c-51 3 -154 10 -228 16 -360 28
-402 -26 -417 -538 l-6 -213 -192 0 -192 0 -6 233 c-12 493 -53 543 -421 517
-89 -6 -195 -12 -236 -13 l-75 -2 -3 219 -2 219 122 -7 c314 -17 404 -18 444
-7 128 35 162 137 171 509 l6 232 196 0 196 0 1 -208z m498 -505 c-8 -5 -83
-9 -167 -10 -137 -2 -155 0 -187 19 -76 44 -109 145 -117 359 l-5 130 246
-245 c191 -190 242 -246 230 -253z m-918 426 c-3 -32 -8 -92 -11 -133 -14
-167 -45 -249 -109 -283 -38 -20 -54 -22 -193 -20 -84 1 -158 5 -164 9 -11 6
456 484 474 484 4 0 6 -26 3 -57z m-126 -905 c51 -26 73 -60 94 -143 15 -59
38 -316 30 -325 -3 -2 -113 104 -245 235 l-239 240 32 6 c18 3 89 6 158 7 113
2 129 0 170 -20z m1023 13 l37 -6 -246 -245 -246 -245 5 130 c6 137 32 262 64
311 32 50 83 64 223 62 69 -1 142 -4 163 -7z"/>
<path d="M2392 2714 c-86 -43 -132 -120 -132 -224 0 -71 15 -112 60 -164 51
-58 103 -80 185 -80 104 0 178 44 226 136 62 120 9 277 -115 334 -72 33 -155
33 -224 -2z m225 -18 c73 -38 118 -116 117 -207 0 -104 -54 -179 -156 -215
-78 -27 -153 -12 -218 44 -70 59 -97 137 -79 223 32 147 202 226 336 155z"/>
<path d="M2502 2558 c-1 -73 -6 -128 -11 -128 -6 0 -18 27 -27 60 -21 76 -30
72 -11 -3 l15 -56 -37 -4 -36 -4 37 -1 c37 -2 37 -2 50 -62 6 -33 17 -59 22
-57 9 3 13 15 30 89 5 22 12 27 44 31 l37 4 -37 1 -36 2 9 36 c6 19 9 40 6 47
-2 6 -9 -10 -15 -36 -7 -26 -17 -47 -22 -47 -5 0 -11 55 -13 128 l-3 127 -2
-127z m17 -160 c0 -13 -4 -32 -8 -42 -7 -18 -8 -18 -14 5 -11 39 -8 59 8 59 9
0 15 -9 14 -22z"/>
<path d="M3858 2555 c-62 -34 -38 -127 35 -133 72 -6 107 83 51 127 -31 24
-49 26 -86 6z"/>
<path d="M1065 2545 c-14 -13 -25 -36 -25 -50 0 -35 42 -75 78 -75 17 0 37 9
50 23 67 72 -34 172 -103 102z"/>
<path d="M1323 2376 c21 -16 22 -30 1 -22 -9 3 -12 2 -9 -5 4 -5 1 -17 -7 -26
-12 -15 -11 -15 10 -4 12 6 22 17 22 23 0 6 6 5 17 -3 15 -12 16 -12 8 1 -15
27 -38 50 -49 50 -6 0 -3 -7 7 -14z"/>
<path d="M1388 2292 c8 -5 10 -16 5 -28 -6 -17 -5 -17 10 -5 15 12 17 11 17
-3 0 -27 -28 -86 -41 -86 -7 0 -10 -3 -7 -6 13 -12 47 17 53 46 6 28 25 43 25
20 0 -5 5 -10 12 -10 7 0 -6 18 -27 40 -21 22 -44 40 -50 40 -5 0 -4 -4 3 -8z"/>
<path d="M1748 1941 c18 -22 15 -31 -11 -31 -30 0 -47 -18 -46 -49 1 -21 2
-22 6 -6 9 37 24 47 62 40 20 -4 44 -14 54 -22 39 -35 14 -4 -30 37 -27 25
-42 38 -35 31z"/>
<path d="M1847 1834 c3 -9 -6 -27 -23 -46 -31 -33 -15 -29 23 5 40 35 37 9 -2
-28 -21 -19 -36 -37 -33 -40 3 -3 21 11 42 31 32 31 39 34 54 23 9 -7 -1 6
-23 29 -43 46 -47 49 -38 26z"/>
<path d="M2039 1641 c13 -8 13 -12 0 -27 -12 -15 -12 -16 9 -10 13 4 22 3 22
-3 0 -21 -22 -65 -38 -77 -20 -16 -9 -18 18 -4 10 5 21 23 25 40 6 28 25 43
25 20 0 -5 5 -10 12 -10 7 0 -6 18 -27 40 -21 22 -44 40 -50 40 -5 0 -4 -4 4
-9z"/>
<path d="M2154 1497 c-48 -55 -54 -68 -14 -30 24 23 42 45 39 48 -3 3 -14 -5
-25 -18z"/>
<path d="M2233 1463 c13 -16 13 -20 0 -32 -8 -7 -12 -16 -9 -19 4 -3 15 4 26
15 18 20 18 22 1 37 -24 22 -38 20 -18 -1z"/>
<path d="M2310 1370 c10 -19 9 -20 -13 -15 -29 8 -58 -17 -56 -48 1 -21 2 -21
6 -2 3 11 10 23 17 27 20 13 71 9 96 -9 16 -10 10 0 -15 25 -44 47 -51 51 -35
22z"/>
<path d="M3660 2325 c-42 -43 -48 -64 -8 -28 19 17 19 16 13 -10 -7 -28 7 -57
28 -57 7 0 7 4 -1 12 -17 17 -15 78 5 100 9 10 14 20 11 23 -2 2 -24 -16 -48
-40z"/>
<path d="M3568 2247 c-16 -13 -28 -27 -28 -31 0 -5 10 -1 22 10 21 19 21 19
14 -1 -4 -11 -4 -16 0 -12 4 4 13 2 21 -4 8 -7 13 -8 13 -1 0 5 -7 15 -15 22
-12 10 -13 16 -4 26 16 20 8 17 -23 -9z"/>
<path d="M3500 2161 c0 -5 21 -26 48 -47 48 -40 41 -20 -11 29 -32 29 -37 32
-37 18z"/>
<path d="M3400 2065 c-24 -25 -39 -45 -33 -45 6 0 14 6 17 13 5 10 7 10 12 0
3 -7 10 -13 16 -13 6 0 5 6 -2 15 -18 22 -9 26 34 14 23 -6 40 -19 46 -32 l9
-22 0 23 c1 18 -8 27 -39 39 -36 14 -38 17 -22 29 9 7 14 15 11 18 -3 3 -25
-15 -49 -39z"/>
<path d="M3202 1867 c-33 -34 -44 -60 -16 -36 13 11 17 10 25 -4 6 -9 20 -22
32 -28 19 -10 18 -8 -5 18 -46 49 -31 60 17 13 54 -53 60 -46 9 10 -20 21 -33
44 -29 50 12 19 -1 10 -33 -23z"/>
<path d="M3105 1769 c-27 -28 -33 -38 -17 -30 20 11 22 10 22 -17 0 -33 16
-52 45 -52 18 0 17 2 -5 13 -31 15 -37 55 -16 97 8 17 13 30 12 30 -1 0 -20
-19 -41 -41z"/>
<path d="M3001 1716 c-10 -12 -8 -17 7 -25 20 -11 35 -5 26 10 -2 4 -12 5 -22
2 -15 -6 -15 -5 -3 10 7 9 11 17 8 17 -2 0 -10 -6 -16 -14z"/>
<path d="M2757 1422 c-20 -21 -37 -42 -37 -47 0 -6 4 -4 9 4 8 12 12 12 25 2
11 -9 16 -10 16 -2 0 6 -4 11 -10 11 -5 0 -10 5 -10 10 0 13 47 3 78 -16 18
-12 22 -12 22 -1 0 8 -18 19 -41 26 -38 11 -39 13 -22 26 10 7 15 16 12 19 -3
3 -22 -11 -42 -32z"/>
<path d="M2652 1331 c-24 -20 -31 -41 -7 -21 11 9 15 9 15 1 0 -7 4 -10 9 -6
5 3 12 1 16 -5 3 -5 10 -10 16 -10 5 0 4 9 -3 20 -7 11 -19 18 -27 15 -11 -4
-12 -3 -1 10 17 21 8 19 -18 -4z"/>
<path d="M2610 1185 c18 -19 36 -32 39 -30 6 7 -50 65 -63 65 -5 0 5 -16 24
-35z"/>
<path d="M1171 1725 c0 -5 11 -23 24 -40 14 -16 25 -25 25 -20 0 6 -11 24 -25
40 -13 17 -24 26 -24 20z"/>
<path d="M1100 1465 c-13 -14 -21 -27 -18 -31 3 -3 16 9 28 25 26 37 22 40
-10 6z"/>
<path d="M2469 1170 c-9 -5 -22 -23 -29 -39 -35 -84 93 -143 135 -61 34 66
-41 138 -106 100z"/>
</g>
</svg>
