<?xml version="1.0" standalone="no"?>
<!DOCTYPE svg PUBLIC "-//W3C//DTD SVG 20010904//EN"
 "http://www.w3.org/TR/2001/REC-SVG-20010904/DTD/svg10.dtd">
<svg version="1.0" xmlns="http://www.w3.org/2000/svg"
 width="500.000000pt" height="500.000000pt" viewBox="0 0 500.000000 500.000000"
 preserveAspectRatio="xMidYMid meet">

<g transform="translate(0.000000,500.000000) scale(0.100000,-0.100000)"
fill="#000000" stroke="none">
<path d="M2300 4244 c-193 -36 -254 -50 -346 -80 -518 -171 -934 -586 -1107
-1104 -19 -58 -38 -123 -41 -145 -6 -37 -5 -36 9 10 69 224 137 379 231 522
175 270 429 492 714 626 251 119 466 167 743 167 288 0 510 -52 772 -181 165
-81 294 -170 423 -294 248 -236 400 -494 492 -835 16 -58 29 -97 29 -86 1 10
-11 61 -25 114 -176 644 -696 1130 -1352 1263 -85 17 -150 22 -312 25 -113 1
-216 0 -230 -2z"/>
<path d="M2488 4193 c7 -3 16 -2 19 1 4 3 -2 6 -13 5 -11 0 -14 -3 -6 -6z"/>
<path d="M2409 4154 c26 -33 27 -60 4 -73 -10 -6 -13 -11 -7 -11 23 0 36 29
30 64 -5 23 -3 36 6 39 7 3 -2 6 -20 6 l-33 1 20 -26z"/>
<path d="M2547 4172 c7 -4 11 -25 9 -49 -2 -24 1 -40 5 -37 5 3 10 24 11 47
l1 42 7 -45 c5 -35 7 -38 9 -15 1 17 6 37 11 45 7 11 10 7 11 -20 2 -34 2 -34
6 -5 3 16 10 33 16 37 7 4 -13 8 -43 8 -30 0 -50 -4 -43 -8z"/>
<path d="M2804 4157 c0 -14 8 -24 18 -24 16 -2 16 0 2 23 -20 30 -22 30 -20 1z"/>
<path d="M2245 4160 c-22 -6 -24 -8 -9 -9 14 -1 27 -14 39 -41 22 -49 32 -46
11 4 -8 20 -11 36 -5 36 5 0 9 5 9 10 0 11 -2 11 -45 0z"/>
<path d="M2673 4108 l-1 -63 13 60 c13 59 13 59 15 20 2 -29 4 -33 7 -15 9 48
20 41 17 -12 l-3 -53 9 49 c5 27 14 52 20 56 15 9 -12 20 -48 20 -27 0 -27 -2
-29 -62z"/>
<path d="M2135 4150 c-7 -12 2 -12 30 0 19 8 19 9 -2 9 -12 1 -25 -3 -28 -9z"/>
<path d="M2880 4141 c5 -11 8 -32 6 -48 -2 -15 -1 -20 1 -10 2 9 9 15 14 12 5
-4 9 -3 9 0 0 10 -30 65 -36 65 -2 0 0 -9 6 -19z"/>
<path d="M2160 4133 c0 -5 5 -15 10 -23 8 -12 10 -11 10 8 0 12 -4 22 -10 22
-5 0 -10 -3 -10 -7z"/>
<path d="M1960 4110 c0 -5 9 -11 19 -15 10 -3 22 -16 25 -28 10 -37 6 -43 -10
-17 l-15 25 7 -25 c13 -50 21 -53 31 -11 11 40 10 41 -23 60 -19 11 -34 16
-34 11z"/>
<path d="M2780 4116 c0 -2 11 -6 25 -8 13 -3 22 -1 19 3 -5 9 -44 13 -44 5z"/>
<path d="M2860 4095 c-6 -16 -9 -36 -7 -44 2 -9 9 2 15 23 13 47 7 62 -8 21z"/>
<path d="M1896 4082 c16 -13 19 -23 13 -40 -9 -24 -3 -27 21 -12 10 6 11 10 3
10 -19 0 -16 18 3 22 11 2 3 9 -22 21 -38 17 -38 17 -18 -1z"/>
<path d="M3048 4093 c7 -3 16 -2 19 1 4 3 -2 6 -13 5 -11 0 -14 -3 -6 -6z"/>
<path d="M3047 4059 c4 -16 8 -17 14 -7 13 19 11 28 -5 28 -9 0 -12 -7 -9 -21z"/>
<path d="M3124 4053 c16 -4 18 -12 14 -54 -3 -26 -1 -46 4 -43 4 3 8 14 8 24
0 30 11 50 29 51 9 0 4 6 -14 14 -16 8 -37 14 -45 13 -9 0 -8 -2 4 -5z"/>
<path d="M1806 4034 c-16 -9 -24 -19 -19 -23 6 -3 22 -28 37 -56 27 -50 26
-24 -1 28 -8 16 -12 31 -9 34 2 3 14 -12 25 -34 24 -45 27 -40 6 11 -8 20 -11
36 -6 36 5 0 14 -12 19 -27 6 -16 17 -37 26 -48 10 -11 6 3 -8 31 -14 28 -22
54 -19 58 12 12 -22 5 -51 -10z"/>
<path d="M2871 4034 c0 -11 3 -14 6 -6 3 7 2 16 -1 19 -3 4 -6 -2 -5 -13z"/>
<path d="M2660 4031 c0 -6 -57 -10 -156 -10 -170 -1 -239 -9 -384 -46 -491
-124 -897 -503 -1059 -991 -128 -385 -90 -842 98 -1189 21 -38 47 -86 57 -105
11 -19 24 -39 30 -45 6 -5 26 -32 45 -60 47 -71 230 -250 326 -318 185 -132
398 -220 633 -264 134 -24 382 -24 515 1 258 48 509 162 692 314 34 29 66 52
70 53 12 1 156 165 208 237 129 177 237 431 270 632 29 180 25 401 -10 573
-123 586 -581 1051 -1161 1177 -51 11 -105 20 -118 20 -14 0 -32 7 -40 16 -9
8 -16 11 -16 5z m-19 -32 c204 -20 342 -60 524 -148 155 -76 275 -162 400
-286 254 -254 403 -572 435 -934 38 -419 -109 -842 -399 -1153 -220 -234 -480
-378 -813 -450 -148 -31 -418 -31 -568 1 -340 71 -620 232 -840 481 -352 400
-467 952 -304 1457 36 114 133 305 205 408 82 114 240 272 354 354 159 112
380 208 563 246 167 34 288 40 443 24z"/>
<path d="M2462 3985 c-64 -28 -76 -130 -20 -169 19 -13 16 -15 -38 -21 -51 -5
-207 -34 -283 -52 -24 -6 -24 -5 -8 18 21 29 22 61 2 99 -19 37 -43 50 -90 50
-102 0 -130 -150 -36 -190 l30 -12 -95 -48 c-52 -27 -123 -69 -157 -93 l-62
-44 0 47 c0 55 -21 85 -66 95 -48 11 -89 -4 -110 -38 -44 -74 2 -157 88 -157
23 0 20 -6 -41 -67 -37 -37 -90 -101 -119 -141 l-52 -73 -9 36 c-10 44 -54 75
-104 75 -75 0 -120 -102 -72 -163 25 -31 81 -45 117 -28 20 9 24 9 20 -1 -3
-7 -21 -50 -41 -95 -19 -46 -45 -119 -57 -163 l-22 -80 -18 29 c-41 67 -144
58 -175 -14 -29 -69 16 -137 90 -137 18 0 44 7 57 16 l24 15 0 -178 0 -179
-24 19 c-63 50 -157 -1 -155 -83 3 -100 131 -133 182 -48 l19 30 22 -82 c12
-46 38 -119 57 -163 19 -44 38 -86 41 -94 5 -11 2 -11 -15 -2 -96 51 -190 -82
-113 -160 57 -56 149 -29 168 49 l8 34 48 -69 c25 -38 78 -102 117 -143 38
-40 70 -75 70 -76 0 -2 -7 -1 -15 2 -26 11 -85 -16 -100 -46 -38 -74 5 -150
85 -150 33 0 48 6 72 30 25 26 29 37 26 70 -2 22 -2 40 -1 40 2 0 38 -24 81
-53 43 -28 113 -68 155 -87 76 -35 93 -50 60 -50 -39 -1 -73 -48 -73 -99 0
-38 45 -89 80 -92 49 -3 62 1 91 30 34 34 39 83 12 120 -16 24 -16 24 8 17 75
-20 203 -46 267 -52 l73 -7 -26 -27 c-52 -55 -27 -145 46 -163 96 -24 163 91
94 163 l-26 27 73 7 c64 6 192 32 267 52 24 7 24 7 8 -17 -45 -63 3 -149 83
-149 111 0 137 151 32 191 -23 9 -19 12 58 50 46 22 118 64 160 93 l77 53 -5
-43 c-4 -38 -1 -47 26 -74 61 -61 157 -29 169 56 5 36 1 46 -24 74 -23 26 -38
34 -66 34 -21 1 -37 2 -37 2 0 1 32 35 71 75 38 41 91 105 117 142 l47 69 7
-33 c21 -103 175 -105 194 -3 15 83 -66 151 -137 114 -10 -6 -19 -9 -19 -7 0
1 18 43 40 92 22 50 49 127 61 173 l22 82 19 -30 c46 -77 161 -55 184 36 8 31
-22 89 -52 103 -42 19 -105 9 -124 -20 -3 -4 -5 73 -5 171 l0 179 24 -15 c83
-55 185 29 147 121 -31 73 -134 81 -176 13 l-18 -29 -16 68 c-9 38 -36 114
-60 169 l-42 100 54 -1 c45 0 57 4 73 24 58 71 17 171 -69 171 -49 0 -79 -23
-96 -73 l-13 -37 -39 57 c-21 32 -74 95 -118 140 -72 76 -76 83 -53 83 58 0
107 46 107 100 0 35 -27 76 -59 90 -75 30 -149 -23 -138 -101 l5 -39 -64 46
c-34 25 -106 67 -159 93 l-95 49 29 12 c99 41 70 190 -37 190 -73 0 -122 -72
-93 -137 7 -14 10 -27 8 -29 -2 -2 -38 5 -79 15 -42 11 -118 24 -168 30 -51 6
-95 12 -97 15 -3 2 4 9 15 15 11 6 25 26 32 45 16 49 -7 102 -54 121 -42 18
-42 18 -84 0z m157 -224 c11 -7 10 -14 -5 -40 -18 -30 -20 -31 -94 -31 -73 0
-76 1 -93 29 -9 16 -17 34 -17 40 0 13 188 15 209 2z m-220 -44 l24 -44 -34
-61 -34 -62 -77 0 -77 0 -35 62 c-29 51 -32 65 -24 84 12 27 20 30 115 49 111
22 115 21 142 -28z m399 17 c43 -9 82 -24 93 -35 20 -20 20 -20 -15 -82 l-34
-62 -79 -3 -78 -2 -34 62 -34 61 24 44 c27 49 12 47 157 17z m-691 -40 c-3 -3
-12 -4 -19 -1 -8 3 -5 6 6 6 11 1 17 -2 13 -5z m38 -95 c19 -33 35 -63 35 -66
0 -3 -16 -32 -36 -65 l-36 -59 -76 3 -76 3 -35 58 -34 59 29 53 c34 65 50 73
131 74 l62 1 36 -61z m483 2 c17 -32 32 -63 32 -69 0 -6 -14 -35 -32 -66 l-32
-56 -76 0 -76 0 -34 59 c-18 33 -33 62 -33 66 0 4 15 33 33 66 l34 59 76 0 75
0 33 -59z m435 38 c30 -15 50 -34 66 -64 l23 -43 -34 -59 -34 -58 -76 -3 -77
-3 -35 61 c-20 34 -36 63 -36 65 0 2 16 31 36 64 36 60 37 61 80 61 24 0 63
-9 87 -21z m-1178 -59 c-13 -25 -21 -30 -53 -30 l-37 0 45 30 c57 37 64 37 45
0z m1310 -16 c20 -15 20 -16 -4 -12 -14 2 -26 9 -29 16 -5 16 9 15 33 -4z
m-1293 -106 l36 -63 -20 -40 c-46 -91 -52 -95 -128 -95 l-69 0 -36 62 c-44 74
-41 94 19 155 41 41 46 43 103 43 l59 0 36 -62z m487 -3 l35 -60 -36 -65 -36
-65 -73 0 -73 0 -39 62 -39 62 37 66 37 66 76 -3 76 -3 35 -60z m486 1 l35
-63 -37 -67 -38 -66 -72 0 -72 0 -37 66 -37 67 28 51 c43 77 40 76 121 76 l73
0 36 -64z m447 11 c35 -29 64 -60 66 -69 2 -8 -13 -43 -33 -77 l-36 -61 -69 0
c-70 0 -70 0 -93 38 -60 94 -60 91 -19 160 36 61 37 62 79 62 37 0 51 -7 105
-53z m-1666 -147 c18 -30 33 -60 34 -67 0 -7 -16 -39 -35 -72 l-36 -61 -73 0
-72 0 -17 34 c-16 34 -15 35 15 78 60 84 120 149 136 146 9 -2 30 -28 48 -58z
m489 -5 l36 -65 -25 -43 c-34 -57 -91 -89 -152 -85 -45 3 -46 4 -81 68 l-35
65 37 63 37 62 73 0 73 0 37 -65z m483 4 c19 -33 32 -61 30 -62 -1 -1 -65 -1
-140 1 l-138 4 16 31 c43 83 49 87 127 87 l72 0 33 -61z m488 -1 l37 -63 -35
-65 -36 -65 -67 -3 c-39 -2 -72 2 -80 8 -8 7 -28 36 -45 67 l-31 54 36 65 36
64 74 0 74 0 37 -62z m357 0 c57 -69 107 -143 107 -160 0 -28 -25 -38 -91 -38
l-68 0 -35 59 c-20 32 -36 64 -36 71 0 18 60 120 70 120 5 0 28 -24 53 -52z
m-1572 -141 c41 -69 41 -66 -18 -159 -23 -38 -23 -38 -93 -38 l-69 0 -36 62
c-41 69 -40 79 5 151 l30 47 73 0 72 0 36 -63z m339 40 c-30 -13 -56 -22 -58
-21 -2 1 3 11 10 23 10 16 23 21 58 21 l45 -1 -55 -22z m613 -6 c24 -42 22
-44 -25 -20 -23 12 -58 27 -77 34 l-36 14 60 0 c57 1 62 -1 78 -28z m503 -31
c18 -30 33 -60 34 -67 0 -7 -16 -39 -36 -73 l-35 -61 -72 3 -72 3 -36 63 -37
63 37 65 36 64 74 -2 75 -3 32 -55z m-913 -52 c-25 -57 -49 -106 -52 -110 -8
-9 -220 112 -223 127 -6 23 187 83 269 84 l51 1 -45 -102z m297 67 c128 -43
128 -43 19 -107 -153 -90 -136 -86 -161 -31 -11 26 -34 77 -49 112 l-29 64 71
-6 c39 -3 106 -18 149 -32z m-145 -191 l83 -189 63 3 c35 2 133 11 217 20 83
10 152 16 152 15 0 -2 -56 -79 -125 -173 -69 -94 -125 -172 -125 -175 0 -3 56
-82 125 -177 69 -94 124 -172 123 -173 -4 -3 -119 9 -292 30 -71 8 -132 13
-134 10 -3 -3 -41 -88 -86 -189 -45 -102 -85 -185 -90 -186 -5 -1 -46 82 -91
185 -46 102 -84 188 -87 190 -2 2 -98 -7 -213 -19 -116 -13 -211 -22 -213 -21
-2 2 54 80 124 174 l127 172 -37 52 c-20 29 -76 106 -124 172 -59 79 -84 121
-75 123 7 2 102 -6 210 -18 108 -11 199 -17 203 -13 6 7 105 228 157 352 8 18
16 31 19 28 3 -3 43 -90 89 -193z m-1152 125 c14 -22 -58 -149 -84 -149 -26 0
-24 9 18 95 37 75 48 83 66 54z m931 -134 c-2 -10 -64 -50 -176 -114 l-58 -32
0 145 0 145 118 -68 c64 -37 116 -71 116 -76z m494 -69 l-3 -75 -117 67 c-65
37 -116 72 -114 77 1 6 54 39 117 75 l114 66 3 -68 c2 -37 2 -101 0 -142z
m799 61 c-2 -6 -20 19 -41 56 -20 37 -34 72 -30 79 8 13 77 -117 71 -135z
m-1537 2 l0 -132 -77 7 c-43 4 -100 9 -126 13 l-48 6 17 26 c51 78 191 211
221 211 10 0 13 -33 13 -131z m806 102 c62 -46 99 -82 150 -146 l47 -60 -39
-6 c-21 -4 -78 -10 -126 -14 l-88 -7 0 131 c0 72 4 131 8 131 5 0 27 -13 48
-29z m-1280 -51 c18 -30 33 -60 34 -67 0 -7 -16 -39 -36 -73 l-35 -61 -71 3
-71 3 -38 62 -38 62 37 66 37 65 74 -2 75 -3 32 -55z m302 -9 c-34 -38 -65
-67 -67 -65 -2 1 13 32 33 68 33 59 40 66 67 66 l31 0 -64 -69z m1157 8 c38
-66 39 -67 25 -89 -7 -12 -13 -9 -32 15 -12 17 -45 54 -72 83 l-49 52 46 0
c46 0 46 0 82 -61z m488 -4 l37 -64 -38 -63 -39 -63 -70 -3 -71 -3 -37 61
c-42 69 -41 79 5 153 l30 47 73 0 73 0 37 -65z m-1262 -137 l-29 -65 -67 8
c-37 5 -69 10 -71 11 -3 4 190 116 194 113 1 -1 -11 -31 -27 -67z m495 -46
c-2 -1 -34 -6 -71 -11 l-68 -8 -28 63 c-16 35 -29 66 -29 68 0 3 45 -21 99
-52 55 -31 98 -58 97 -60z m-1421 43 l36 -64 -36 -66 -37 -65 -60 0 -61 0 7
43 c3 23 18 81 33 130 25 82 28 87 54 87 24 0 33 -9 64 -65z m458 52 c3 -8 -7
-34 -23 -58 -15 -25 -40 -77 -56 -117 -23 -60 -32 -72 -50 -72 -18 0 -32 15
-59 62 -41 69 -40 79 5 151 l30 47 74 0 c52 0 75 -4 79 -13z m1483 -47 c18
-30 33 -60 34 -67 0 -7 -16 -39 -35 -72 -34 -58 -38 -61 -74 -61 -37 0 -39 2
-56 48 -10 26 -30 73 -46 104 -25 50 -27 62 -17 83 11 25 15 26 87 23 l75 -3
32 -55z m357 -27 c15 -49 30 -107 33 -130 l7 -43 -46 0 -45 0 -37 65 -36 66
36 64 c20 36 42 65 49 65 7 0 24 -36 39 -87z m-1773 -119 c55 -74 69 -99 58
-105 -7 -5 -57 -34 -111 -65 -54 -31 -96 -58 -94 -61 2 -2 48 21 101 52 53 31
103 58 111 61 13 5 15 -14 15 -133 l0 -139 -75 -102 c-41 -56 -77 -102 -81
-102 -10 0 -55 112 -69 174 -15 61 -20 146 -9 146 3 0 52 -27 110 -61 58 -33
107 -59 109 -57 3 2 -46 33 -108 69 l-112 65 0 80 c1 56 8 100 24 149 24 71
48 125 56 125 2 0 36 -43 75 -96z m1255 -16 c22 -67 49 -218 39 -218 -3 0
-227 131 -232 135 -2 2 29 47 69 100 83 113 80 114 124 -17z m-1539 22 c18
-30 33 -60 34 -67 0 -7 -16 -39 -35 -72 l-36 -61 -72 0 -72 1 -37 64 -37 65
37 65 37 65 74 -2 75 -3 32 -55z m1947 -5 l37 -64 -38 -63 -39 -63 -70 -3 -71
-3 -37 61 c-42 69 -41 79 5 153 l30 47 73 0 73 0 37 -65z m-2188 -140 l36 -64
-36 -66 -37 -66 -67 3 -66 3 -3 55 c-2 30 -1 88 3 128 l7 72 63 0 64 0 36 -65z
m338 -52 c-5 -128 -7 -143 -22 -143 -18 0 -83 122 -77 144 11 41 66 116 85
116 17 0 18 -8 14 -117z m1603 57 c18 -30 33 -60 34 -67 0 -7 -16 -39 -36 -73
-31 -53 -39 -61 -62 -58 -26 3 -27 5 -28 68 0 36 -4 93 -8 128 l-8 63 38 -3
c34 -3 41 -8 70 -58z m409 -22 c4 -46 5 -103 3 -128 l-3 -45 -51 -3 -52 -3
-37 66 -36 66 36 64 36 65 49 0 48 0 7 -82z m-651 -21 c59 -35 108 -67 109
-73 0 -8 -34 -30 -185 -117 l-48 -28 0 141 c0 77 3 140 8 140 4 0 56 -29 116
-63z m-1029 -21 l37 -54 -42 -56 c-23 -31 -44 -56 -46 -56 -2 0 -4 52 -4 116
0 63 4 113 9 110 4 -3 25 -30 46 -60z m883 -103 l-3 -58 -37 53 c-21 29 -38
54 -38 57 0 3 17 28 38 56 l37 50 3 -50 c2 -28 2 -76 0 -108z m-1318 40 c45
-72 46 -82 5 -151 l-36 -62 -72 0 -72 1 -37 64 -37 65 37 65 37 65 72 0 73 0
30 -47z m1953 -18 l37 -64 -38 -63 -39 -63 -70 -3 -71 -3 -37 61 c-42 69 -41
79 5 153 l30 47 73 0 73 0 37 -65z m-374 -52 c-9 -79 -28 -148 -56 -212 -23
-54 -24 -55 -42 -35 -10 10 -44 54 -75 96 l-56 77 37 25 c73 46 178 105 189
106 7 0 8 -19 3 -57z m-1814 -88 l37 -65 -37 -65 c-36 -65 -36 -65 -80 -65
l-43 0 -17 73 c-9 39 -19 98 -22 130 l-6 57 66 0 66 0 36 -65z m349 -1 c9 -37
28 -93 41 -125 14 -32 25 -61 25 -64 0 -3 -26 -5 -57 -3 l-57 3 -34 57 c-24
40 -32 65 -28 80 10 37 65 118 80 118 8 0 20 -25 30 -66z m1592 6 c18 -30 33
-62 33 -70 0 -8 -15 -40 -33 -70 l-32 -55 -73 -3 c-67 -3 -73 -1 -66 15 14 33
64 187 70 216 5 25 10 28 37 25 26 -2 37 -12 64 -58z m401 -3 c-3 -35 -13 -94
-23 -130 -15 -63 -18 -67 -45 -67 -24 0 -33 9 -64 65 l-37 65 37 65 36 65 51
0 51 0 -6 -63z m-2102 -138 c19 -33 35 -65 35 -71 0 -6 -16 -37 -36 -69 l-35
-59 -72 0 -72 0 -37 65 -37 66 30 52 c46 78 45 77 120 77 l68 0 36 -61z m1947
-7 l38 -63 -37 -64 -37 -65 -73 0 -73 0 -30 48 c-46 73 -47 83 -5 152 l37 61
71 -3 70 -3 39 -63z m-1259 -84 c15 -34 26 -63 24 -64 -2 -2 -122 65 -167 95
l-25 16 40 6 c98 15 98 15 128 -53z m447 54 l45 -7 -25 -16 c-59 -38 -164 -98
-167 -95 -2 1 9 30 24 64 30 68 30 68 123 54z m78 -216 l-3 -75 -117 67 c-65
37 -116 71 -114 77 1 5 54 39 117 76 l114 66 3 -68 c2 -37 2 -102 0 -143z
m-738 68 l0 -135 -31 18 c-71 42 -209 187 -209 220 0 10 121 28 203 32 l37 1
0 -136z m135 73 c60 -34 110 -67 112 -72 2 -6 -23 -25 -54 -42 -32 -18 -86
-49 -120 -68 l-63 -36 0 140 c0 78 4 141 9 141 4 0 57 -28 116 -63z m753 51
c62 -7 102 -16 102 -23 0 -35 -193 -225 -228 -225 -9 0 -12 38 -12 130 0 117
2 130 18 130 9 0 63 -5 120 -12z m-1604 -83 l37 -64 -21 -40 c-11 -22 -24 -42
-28 -45 -15 -9 -108 195 -95 208 4 3 21 6 39 6 29 0 36 -6 68 -65z m478 0 l47
-64 -37 -66 -37 -65 -72 0 -73 0 -30 48 c-46 73 -47 83 -5 152 l36 60 62 0 62
0 47 -65z m1463 4 c19 -33 35 -65 35 -72 -1 -7 -16 -37 -34 -67 l-32 -55 -75
-3 -74 -2 -36 64 -37 64 25 44 c52 92 47 88 123 88 l69 0 36 -61z m349 39
c-10 -36 -72 -168 -78 -168 -3 0 -13 14 -21 30 -15 29 -15 33 20 95 30 53 41
65 62 65 21 0 23 -3 17 -22z m-1264 -208 c23 -52 44 -101 47 -109 11 -27 -173
10 -274 55 -31 13 -53 27 -49 31 19 20 222 130 227 125 4 -4 26 -50 49 -102z
m328 25 c45 -26 82 -49 82 -51 0 -9 -109 -53 -167 -68 -32 -8 -82 -17 -111
-21 -60 -8 -59 -16 -8 97 14 32 32 74 41 94 l15 36 32 -20 c18 -11 70 -41 116
-67z m-1113 4 c19 -33 35 -65 35 -72 -1 -7 -16 -37 -34 -67 l-32 -55 -59 0
-58 0 -47 70 c-48 68 -48 70 -33 100 41 80 49 85 123 85 l69 0 36 -61z m1463
-9 l35 -65 -38 -62 -37 -63 -73 0 -74 0 -31 56 c-18 30 -31 56 -29 58 2 1 33
23 69 48 36 25 76 58 90 72 13 15 30 25 38 24 8 -2 30 -32 50 -68z m468 28
l27 -42 -23 -41 c-12 -22 -38 -61 -57 -87 -31 -43 -39 -48 -74 -48 -36 0 -42
4 -69 48 -46 73 -47 83 -5 152 l36 60 70 0 69 0 26 -42z m-1578 -9 c26 -22 70
-55 99 -72 29 -18 53 -35 53 -38 0 -4 -12 -27 -26 -53 l-26 -46 -73 0 -74 0
-36 65 -37 65 34 60 c18 33 34 60 36 60 2 0 25 -18 50 -41z m-106 -156 l37
-62 -37 -65 -37 -66 -72 0 -73 0 -30 48 c-46 73 -47 83 -5 152 l37 61 71 -3
72 -3 37 -62z m1453 6 c19 -33 35 -65 35 -72 -1 -7 -16 -37 -34 -67 l-32 -55
-75 -3 -74 -2 -36 64 -37 64 25 44 c52 92 47 88 123 88 l69 0 36 -61z m-477
-15 l32 -55 -37 -65 -37 -64 -73 0 -72 0 -36 61 c-19 33 -35 65 -35 72 1 21
26 47 46 48 10 0 53 13 94 29 41 15 77 29 80 29 3 1 20 -24 38 -55z m-505 -9
c16 -3 32 -16 39 -29 9 -21 5 -33 -26 -85 l-37 -61 -73 0 -72 0 -38 65 c-22
38 -34 70 -30 77 4 7 18 29 30 49 l23 37 78 -23 c43 -13 91 -26 106 -30z m230
-21 c-4 -12 -23 -14 -81 -12 -105 4 -103 23 2 24 70 2 84 -1 79 -12z m-948
-95 c35 -59 43 -89 26 -89 -11 0 -141 131 -141 142 0 4 18 8 40 8 37 0 41 -3
75 -61z m457 44 c8 -10 27 -39 42 -66 l27 -47 -36 -65 -37 -65 -73 0 -74 0
-36 65 -37 65 37 65 36 65 68 0 c52 0 71 -4 83 -17z m503 -24 c52 -82 53 -84
15 -155 l-35 -64 -72 0 -73 0 -30 48 c-44 69 -46 84 -14 139 43 74 40 73 115
73 l69 0 25 -41z m467 27 c8 -8 27 -38 42 -67 l28 -54 -37 -62 -37 -63 -74 0
-73 0 -36 65 -36 64 27 48 c46 80 50 83 120 83 40 0 68 -5 76 -14z m388 6 c0
-4 -27 -34 -60 -67 -33 -33 -60 -56 -60 -51 0 5 16 35 36 67 28 46 41 59 60
59 13 0 24 -4 24 -8z m-1568 -200 c33 -54 36 -65 26 -82 -15 -23 -23 -21 -94
22 -82 49 -128 92 -121 112 6 14 18 16 79 14 l71 -3 39 -63z m486 -3 l36 -65
-38 -62 -37 -62 -73 0 -72 0 -38 65 -37 64 38 66 38 65 74 -2 73 -3 36 -66z
m484 5 l38 -65 -37 -65 -37 -64 -73 0 -72 0 -36 62 c-40 68 -40 67 11 156 l25
42 72 0 72 0 37 -66z m452 57 c6 -9 -94 -88 -163 -129 -26 -16 -38 -18 -48
-10 -10 8 -5 24 25 79 l37 69 72 0 c39 0 74 -4 77 -9z m-1212 -148 c16 -19 68
-108 68 -117 0 -12 -218 68 -238 88 -2 3 1 14 8 25 9 18 20 21 79 21 52 0 71
-4 83 -17z m514 -43 c62 -103 46 -120 -112 -120 -113 0 -115 0 -126 26 -10 22
-8 33 16 77 44 80 41 78 119 75 l71 -3 32 -55z m459 36 c0 -13 -23 -28 -90
-56 -49 -21 -101 -41 -114 -45 l-23 -7 28 49 c47 83 49 84 128 81 61 -3 71 -6
71 -22z m-727 -135 c4 -11 -6 -12 -54 -6 -89 11 -102 25 -20 22 48 -1 71 -6
74 -16z m432 15 c0 -6 -102 -27 -107 -22 -3 3 -2 9 2 15 6 10 105 16 105 7z"/>
<path d="M2450 2847 c-29 -67 -57 -126 -61 -131 -8 -9 -211 8 -268 21 -26 7
-26 6 104 -173 l44 -61 -81 -112 c-44 -61 -79 -113 -77 -115 4 -4 117 6 224
19 l52 7 58 -131 c31 -72 58 -131 60 -131 1 0 26 55 55 123 30 67 57 126 61
130 4 5 49 4 100 -2 169 -20 179 -21 179 -13 0 5 -32 51 -71 103 -39 52 -75
101 -79 110 -7 12 12 45 75 130 46 63 82 115 81 116 -1 1 -55 -4 -120 -13 -64
-8 -129 -14 -142 -12 -22 3 -33 20 -81 128 -30 69 -56 126 -57 127 -1 2 -26
-52 -56 -120z m110 -37 c28 -63 52 -115 53 -117 2 -1 59 4 127 12 69 7 127 12
129 10 3 -3 -88 -133 -140 -201 -5 -6 21 -51 67 -113 41 -57 73 -105 71 -108
-3 -2 -59 2 -126 10 -89 10 -124 10 -131 2 -5 -6 -29 -58 -54 -115 -24 -58
-48 -104 -52 -103 -4 1 -29 53 -56 115 -28 62 -51 114 -51 114 -1 1 -58 -5
-126 -13 -68 -8 -125 -12 -128 -9 -3 2 29 51 71 107 46 62 72 107 67 113 -52
68 -143 198 -140 201 2 2 60 -3 129 -10 68 -8 125 -13 126 -12 1 1 26 55 54
120 29 65 54 116 56 114 2 -1 26 -54 54 -117z"/>
<path d="M2486 2726 c-9 -20 -23 -52 -31 -71 l-15 -34 -81 6 -82 6 40 -54 c21
-30 43 -60 47 -66 4 -8 -11 -37 -39 -74 -26 -33 -46 -62 -44 -63 2 -2 37 1 78
6 41 5 77 5 81 1 3 -4 17 -33 30 -63 13 -30 27 -59 31 -64 4 -5 22 24 40 63
l32 72 56 -6 c31 -3 67 -8 79 -11 27 -6 27 -4 -31 74 -43 60 -44 56 26 146
l31 38 -83 -3 -83 -4 -25 60 c-33 80 -39 84 -57 41z m146 -111 c37 4 68 4 68
0 0 -4 -16 -29 -35 -55 -19 -26 -35 -51 -35 -55 0 -4 16 -30 35 -56 19 -27 35
-52 35 -55 0 -4 -31 -4 -68 0 l-69 7 -29 -68 -30 -67 -29 67 -30 68 -67 -7
c-38 -4 -68 -4 -68 0 0 3 16 28 35 55 19 26 35 52 35 56 0 5 -19 33 -41 63
l-42 55 75 -7 75 -7 29 67 28 67 30 -67 30 -68 68 7z"/>
<path d="M2506 2617 c3 -10 9 -15 12 -12 3 3 0 11 -7 18 -10 9 -11 8 -5 -6z"/>
<path d="M2395 2560 c3 -5 8 -10 11 -10 2 0 4 5 4 10 0 6 -5 10 -11 10 -5 0
-7 -4 -4 -10z"/>
<path d="M2459 2538 c-10 -24 -14 -26 -28 -16 -13 10 -14 10 -4 -2 10 -11 10
-17 0 -29 -10 -14 -10 -14 3 -4 13 10 18 7 28 -15 9 -22 18 -27 47 -27 29 0
38 5 47 27 7 15 16 24 21 21 5 -3 -2 11 -15 30 -16 26 -31 36 -55 39 -28 3
-34 0 -44 -24z"/>
<path d="M1703 3982 c-18 -9 -33 -21 -33 -25 0 -5 5 -5 10 -2 6 3 10 3 10 -2
0 -4 11 -26 25 -48 23 -36 25 -37 19 -11 -5 22 -4 27 5 21 8 -4 7 4 -3 23 -19
36 -19 42 -6 42 6 0 10 -6 10 -12 0 -7 10 -24 21 -38 l20 -25 -20 41 c-11 23
-17 44 -14 48 11 11 -11 5 -44 -12z m27 -56 c0 -5 -7 -3 -15 4 -8 7 -15 20
-15 28 0 13 3 12 15 -4 8 -10 15 -23 15 -28z"/>
<path d="M3308 3968 c7 -9 12 -31 10 -49 -2 -25 -9 -35 -28 -41 l-25 -7 25 2
c17 1 29 12 39 32 8 17 18 32 22 35 5 3 -6 14 -24 25 -26 15 -29 16 -19 3z"/>
<path d="M1595 3960 c-3 -6 1 -7 9 -4 18 7 21 14 7 14 -6 0 -13 -4 -16 -10z"/>
<path d="M3417 3949 c7 -7 15 -10 18 -7 3 3 -2 9 -12 12 -14 6 -15 5 -6 -5z"/>
<path d="M3403 3925 c0 -7 6 -11 14 -8 7 3 13 6 13 8 0 2 -6 5 -13 8 -8 3 -14
-1 -14 -8z"/>
<path d="M1530 3910 c0 -5 5 -10 11 -10 5 0 7 5 4 10 -3 6 -8 10 -11 10 -2 0
-4 -4 -4 -10z"/>
<path d="M1543 3874 c-20 -18 -22 -21 -6 -13 34 20 76 -6 71 -43 -3 -15 -1
-25 4 -22 16 10 8 53 -13 68 -12 8 -18 19 -14 25 12 20 -14 11 -42 -15z"/>
<path d="M3445 3880 c4 -6 -10 -34 -31 -63 -23 -32 -27 -42 -12 -26 14 14 31
35 37 47 6 12 16 22 22 22 5 0 2 -12 -8 -27 l-17 -28 27 24 c35 32 34 20 -3
-35 -40 -58 -31 -57 11 1 17 24 37 42 43 39 6 -3 -5 8 -24 25 -35 30 -57 41
-45 21z"/>
<path d="M3544 3811 c5 -8 -1 -23 -16 -39 -42 -47 -53 -68 -20 -38 31 29 45
25 20 -4 -7 -8 1 -3 18 13 48 43 50 32 4 -25 l-42 -53 46 48 c29 31 51 45 58
41 9 -5 8 -2 -1 10 -18 22 -77 64 -67 47z m16 -36 c-7 -9 -15 -13 -17 -11 -7
7 7 26 19 26 6 0 6 -6 -2 -15z"/>
<path d="M1389 3753 c-13 -16 -20 -25 -15 -20 5 4 19 -1 30 -10 21 -18 21 -18
2 5 -25 29 -8 28 38 -3 20 -13 36 -20 36 -15 0 5 -15 17 -32 26 -44 22 -45 24
-28 34 8 6 10 10 4 10 -6 0 -21 -12 -35 -27z"/>
<path d="M3660 3742 c0 -10 -11 -22 -26 -28 l-26 -9 23 -20 c18 -15 20 -16 10
-2 -18 23 -8 33 13 12 15 -15 16 -13 16 24 0 23 -2 41 -5 41 -3 0 -5 -8 -5
-18z"/>
<path d="M1314 3698 c-19 -22 -19 -22 0 -8 18 13 19 13 14 0 -4 -11 0 -16 13
-16 16 0 17 2 4 16 -8 9 -12 20 -8 23 3 4 4 7 1 7 -3 0 -13 -10 -24 -22z"/>
<path d="M3699 3663 c0 -10 -14 -29 -32 -42 l-32 -25 29 32 c44 47 26 48 -20
1 -23 -24 -31 -37 -20 -33 14 5 17 4 11 -5 -10 -18 27 2 44 23 8 9 17 13 22
10 5 -3 9 1 9 10 0 8 3 21 6 30 3 9 1 16 -5 16 -6 0 -11 -8 -12 -17z"/>
<path d="M1180 3559 c-12 -8 -10 -10 11 -6 17 2 36 -5 55 -20 16 -12 24 -23
18 -23 -6 0 -17 7 -24 15 -7 8 -18 15 -24 15 -11 -1 53 -59 66 -60 13 0 1 30
-21 54 -17 18 -19 25 -9 29 7 3 -3 6 -22 6 -19 0 -42 -4 -50 -10z"/>
<path d="M3824 3545 c3 -8 1 -15 -3 -15 -5 0 -11 -7 -14 -14 -4 -10 -1 -13 9
-9 7 3 14 9 14 15 0 5 5 6 11 2 8 -4 8 0 0 15 -13 24 -26 29 -17 6z"/>
<path d="M1155 3510 c-16 -4 -24 -8 -17 -9 20 -2 44 -29 37 -41 -15 -23 4 -8
21 18 17 26 17 26 -1 12 -16 -14 -17 -13 -11 8 4 12 6 21 4 21 -2 -1 -16 -5
-33 -9z"/>
<path d="M3855 3482 c4 -7 1 -21 -7 -30 -12 -15 -11 -16 5 -3 26 20 21 -3 -9
-38 -14 -17 -21 -31 -16 -31 6 0 21 14 33 31 16 23 24 28 30 17 6 -9 9 -9 9
-1 0 7 -12 25 -26 40 -14 15 -23 22 -19 15z"/>
<path d="M1102 3424 c-13 -20 -21 -38 -18 -42 3 -3 6 -2 6 3 0 4 8 1 18 -7 24
-20 92 -61 92 -55 0 3 -22 20 -50 38 -50 32 -62 51 -18 28 22 -12 23 -11 6 8
-10 11 -18 23 -18 28 0 4 8 1 18 -7 9 -9 28 -21 42 -28 22 -10 22 -9 -5 14
-16 14 -33 25 -37 26 -3 0 -8 7 -10 15 -2 9 -11 2 -26 -21z"/>
<path d="M1031 3310 c-25 -44 -26 -51 -7 -44 8 3 34 -5 57 -17 30 -15 40 -17
31 -7 -7 9 -26 21 -42 28 -17 7 -30 16 -30 21 0 5 15 2 33 -7 l32 -16 -30 26
c-16 14 -25 25 -19 26 6 0 14 -3 17 -7 10 -9 87 -43 87 -38 0 3 -18 14 -39 24
-21 11 -45 27 -54 35 -12 13 -17 10 -36 -24z"/>
<path d="M3974 3296 c8 -25 -18 -63 -46 -69 l-23 -4 23 -2 c12 0 30 8 39 19
13 14 20 17 30 8 19 -15 16 -3 -8 34 -12 18 -18 24 -15 14z"/>
<path d="M977 3237 c-3 -8 1 -14 8 -14 7 0 11 6 8 14 -3 7 -6 13 -8 13 -2 0
-5 -6 -8 -13z"/>
<path d="M961 3156 c-6 -16 -14 -34 -17 -40 -3 -6 1 -3 9 7 16 20 67 23 86 5
11 -11 13 -10 9 2 -3 8 -19 16 -36 18 -19 2 -32 10 -35 20 -3 13 -7 10 -16
-12z"/>
<path d="M920 3160 c0 -5 5 -10 11 -10 5 0 7 5 4 10 -3 6 -8 10 -11 10 -2 0
-4 -4 -4 -10z"/>
<path d="M4040 3152 c0 -5 -19 -17 -41 -28 -23 -10 -37 -20 -31 -22 6 -2 24 4
41 12 34 18 41 19 41 8 0 -5 -12 -13 -27 -19 -27 -11 -27 -11 7 -7 l35 4 -34
-15 c-39 -19 -36 -30 3 -15 15 5 32 7 38 4 10 -6 6 12 -13 64 -8 22 -19 30
-19 14z"/>
<path d="M4083 3039 c1 -6 -18 -19 -43 -29 -25 -11 -37 -19 -27 -19 10 -1 27
4 38 10 11 6 25 8 32 6 7 -3 1 -10 -13 -16 l-25 -11 28 5 c38 8 34 -10 -5 -22
l-33 -10 42 1 c40 1 42 2 36 26 -9 37 -22 70 -28 70 -3 0 -4 -5 -2 -11z"/>
<path d="M890 2964 c-13 -33 -13 -65 -1 -45 5 8 16 11 27 7 18 -6 17 -5 0 9
-18 14 -16 15 30 15 31 0 44 3 35 9 -7 5 -28 6 -47 4 -28 -4 -33 -2 -28 11 3
9 3 16 0 16 -4 0 -11 -12 -16 -26z"/>
<path d="M4140 2915 c-7 -8 -16 -12 -21 -9 -10 6 -11 -4 0 -29 6 -15 9 -13 24
17 18 38 17 45 -3 21z"/>
<path d="M4080 2913 c0 -4 5 -15 10 -23 8 -13 10 -13 10 2 0 9 -4 20 -10 23
-5 3 -10 3 -10 -2z"/>
<path d="M855 2871 c-4 -13 -4 -25 -1 -28 3 -4 6 1 6 9 0 11 8 14 28 12 17 -2
19 -1 7 3 -11 3 -23 10 -26 15 -4 6 -10 1 -14 -11z"/>
<path d="M781 2802 c-7 -37 -14 -114 -16 -172 l-4 -105 9 100 c4 55 13 131 20
168 7 37 10 70 8 72 -3 3 -10 -25 -17 -63z"/>
<path d="M4141 2830 c-13 -11 -33 -20 -45 -21 -19 -1 -18 -2 4 -8 27 -8 45 1
61 31 12 22 10 22 -20 -2z"/>
<path d="M4081 2829 c-65 -13 -74 -20 -16 -13 28 3 54 10 60 15 5 5 7 9 5 8
-3 -1 -25 -5 -49 -10z"/>
<path d="M4225 2785 c14 -124 17 -401 5 -491 -76 -614 -467 -1137 -1036 -1387
-99 -43 -155 -61 -304 -98 -63 -15 -104 -28 -92 -28 63 -2 306 73 442 136 548
254 931 780 1000 1375 14 116 8 423 -9 493 l-10 40 4 -40z"/>
<path d="M4048 2793 c7 -3 16 -2 19 1 4 3 -2 6 -13 5 -11 0 -14 -3 -6 -6z"/>
<path d="M840 2690 c-14 -11 -20 -20 -13 -20 6 0 15 5 18 10 3 6 14 10 23 10
13 0 14 -2 4 -9 -18 -11 8 -21 51 -20 l32 2 -35 7 -35 7 35 3 35 2 -30 8 c-16
4 -37 10 -45 14 -8 3 -26 -3 -40 -14z"/>
<path d="M4182 2650 c0 -14 2 -19 5 -12 2 6 2 18 0 25 -3 6 -5 1 -5 -13z"/>
<path d="M4140 2640 c-12 -8 -11 -10 8 -10 12 0 22 5 22 10 0 13 -11 13 -30 0z"/>
<path d="M820 2614 c-13 -13 -19 -24 -13 -24 7 0 15 5 18 10 5 8 11 8 20 0 10
-8 13 -5 11 15 -1 30 -4 30 -36 -1z"/>
<path d="M872 2600 c0 -14 2 -19 5 -12 2 6 2 18 0 25 -3 6 -5 1 -5 -13z"/>
<path d="M4170 2580 c0 -5 -8 -10 -17 -11 -16 0 -16 -1 1 -8 15 -6 10 -10 -24
-21 -35 -12 -45 -12 -63 0 -20 12 -21 12 -7 -4 14 -18 49 -18 92 -1 11 4 18 1
21 -12 3 -10 5 1 6 25 0 23 -1 42 -4 42 -3 0 -5 -4 -5 -10z"/>
<path d="M832 2510 c0 -30 2 -49 5 -42 3 7 25 13 51 14 l47 1 -50 7 c-37 5
-42 7 -20 9 17 2 23 5 15 8 -43 14 -40 18 20 23 l65 7 -62 1 c-38 1 -63 7 -66
15 -3 6 -5 -13 -5 -43z"/>
<path d="M766 2370 c2 -63 11 -142 18 -175 17 -73 20 -51 5 31 -6 32 -15 104
-20 159 l-8 100 5 -115z"/>
<path d="M830 2384 l0 -42 38 8 c20 5 51 11 67 14 17 2 4 3 -28 2 -32 -2 -60
1 -63 6 -3 4 10 9 28 9 l33 2 -35 6 -35 7 45 7 c25 4 56 8 70 10 14 2 -8 5
-48 8 l-72 4 0 -41z"/>
<path d="M4167 2371 c-6 -25 -53 -38 -79 -22 -22 14 -23 8 -2 -13 10 -11 24
-14 41 -10 15 4 28 2 33 -6 5 -7 10 2 14 25 8 39 2 60 -7 26z"/>
<path d="M4198 2343 c7 -3 16 -2 19 1 4 3 -2 6 -13 5 -11 0 -14 -3 -6 -6z"/>
<path d="M4190 2249 c0 -5 5 -7 10 -4 6 3 10 8 10 11 0 2 -4 4 -10 4 -5 0 -10
-5 -10 -11z"/>
<path d="M851 2230 c0 -14 4 -34 9 -45 8 -19 9 -19 9 2 1 13 13 30 27 40 22
14 29 15 47 4 21 -13 21 -13 4 5 -15 16 -21 17 -49 6 -25 -9 -34 -9 -40 1 -5
7 -7 3 -7 -13z"/>
<path d="M4050 2210 c14 -4 37 -8 52 -9 15 -1 30 -6 33 -11 4 -7 -9 -9 -37 -5
l-43 5 38 -11 c46 -13 49 -27 5 -22 l-33 3 33 -10 c17 -6 32 -16 33 -23 0 -7
4 -3 9 8 13 30 12 72 -2 72 -7 0 -35 3 -63 6 -33 4 -42 3 -25 -3z"/>
<path d="M806 2095 c10 -69 73 -245 129 -360 171 -352 465 -643 819 -810 167
-79 374 -141 498 -150 35 -2 52 -2 38 1 -250 47 -339 72 -474 131 -204 90
-387 217 -549 379 -213 216 -345 443 -438 754 -16 52 -26 77 -23 55z"/>
<path d="M4035 2095 c17 -8 40 -14 53 -15 12 0 22 -4 22 -10 0 -5 -15 -7 -32
-5 l-33 5 28 -11 c20 -8 27 -18 28 -37 0 -25 1 -25 14 8 12 31 20 92 9 64 -4
-9 -19 -8 -57 2 -64 17 -71 17 -32 -1z"/>
<path d="M940 2040 c-18 -14 -27 -16 -33 -7 -5 7 -6 2 -3 -13 3 -14 6 -31 6
-37 0 -7 5 -13 11 -13 5 0 7 5 4 10 -3 6 0 10 7 10 10 0 10 2 0 8 -16 11 14
40 54 52 28 8 28 8 4 9 -14 0 -36 -8 -50 -19z"/>
<path d="M4005 2050 c11 -5 29 -8 40 -8 16 0 15 2 -5 8 -34 11 -60 11 -35 0z"/>
<path d="M4046 1975 c-9 -26 -7 -32 5 -12 6 10 9 21 6 23 -2 3 -7 -2 -11 -11z"/>
<path d="M4067 1949 c-4 -16 -2 -17 16 -7 30 15 30 15 8 21 -13 3 -21 -1 -24
-14z"/>
<path d="M940 1930 c0 -13 11 -13 30 0 12 8 11 10 -7 10 -13 0 -23 -4 -23 -10z"/>
<path d="M920 1916 c0 -8 4 -17 9 -20 5 -4 7 3 4 14 -6 23 -13 26 -13 6z"/>
<path d="M4000 1911 c19 -11 39 -16 44 -13 6 3 -6 11 -25 18 -50 18 -59 16
-19 -5z"/>
<path d="M3954 1911 c3 -5 19 -14 36 -21 16 -7 27 -17 24 -22 -7 -11 31 -2 56
14 11 7 9 8 -8 4 -13 -2 -44 4 -68 15 -25 10 -43 15 -40 10z"/>
<path d="M1010 1770 c-7 -17 -10 -33 -7 -36 3 -3 8 4 12 15 3 12 14 21 23 21
15 0 15 -2 2 -10 -28 -18 5 -9 40 11 32 19 30 19 -17 3 -15 -5 -15 -3 1 10 21
17 11 22 -14 6 -9 -6 -17 -5 -21 1 -3 6 -12 -4 -19 -21z"/>
<path d="M3940 1734 c0 -2 9 -8 20 -14 11 -6 20 -7 20 -2 0 6 -9 12 -20 15
-11 3 -20 3 -20 1z"/>
<path d="M3997 1733 c-4 -3 -7 -11 -7 -17 0 -6 5 -5 12 2 6 6 9 14 7 17 -3 3
-9 2 -12 -2z"/>
<path d="M1036 1698 c-9 -34 -7 -45 5 -25 6 10 15 14 22 10 7 -4 5 2 -3 13 -8
10 -15 20 -16 22 -1 1 -4 -8 -8 -20z"/>
<path d="M1076 1695 c4 -8 11 -15 16 -15 6 0 5 6 -2 15 -7 8 -14 15 -16 15 -2
0 -1 -7 2 -15z"/>
<path d="M3950 1671 c0 -8 -8 -10 -22 -7 -13 3 -17 3 -10 0 6 -3 12 -9 12 -14
0 -8 -57 2 -81 14 -8 4 -5 0 5 -8 11 -9 31 -16 44 -16 19 0 22 -4 17 -20 -3
-11 -4 -20 -1 -20 9 0 48 71 42 77 -3 4 -6 1 -6 -6z"/>
<path d="M1110 1646 c-14 -8 -28 -12 -32 -10 -14 9 -8 -7 17 -44 14 -20 25
-32 25 -26 0 7 21 26 48 43 26 17 42 31 36 31 -6 0 -28 -11 -48 -25 -47 -32
-60 -32 -21 0 32 26 24 35 -9 10 -33 -25 -43 -16 -11 10 34 27 32 31 -5 11z"/>
<path d="M1210 1565 c-25 -19 -51 -33 -57 -30 -20 7 -15 -7 17 -45 22 -26 30
-30 30 -17 0 9 3 17 8 17 4 0 23 15 43 33 19 17 28 26 19 20 -20 -15 -44 -17
-35 -3 3 6 -10 1 -29 -11 -20 -12 -36 -16 -36 -10 0 6 3 11 8 11 8 1 90 70 82
70 -3 0 -25 -16 -50 -35z m5 -55 c-10 -11 -23 -20 -29 -20 -6 1 0 10 13 20 30
26 39 26 16 0z"/>
<path d="M3740 1501 c0 -6 14 -18 30 -26 19 -10 28 -20 24 -28 -4 -7 5 -1 19
12 15 14 27 29 26 35 0 6 -3 5 -6 -1 -7 -18 -59 -16 -77 3 -9 8 -16 11 -16 5z"/>
<path d="M1299 1410 c-12 -16 -27 -26 -33 -23 -5 4 0 -8 13 -25 12 -18 24 -32
26 -32 2 0 1 15 -2 33 -6 37 19 72 44 63 8 -3 11 -1 8 4 -11 18 -34 10 -56
-20z"/>
<path d="M3641 1425 c31 -39 34 -49 13 -41 -14 5 -11 -1 10 -23 42 -44 19 -38
-26 6 -21 20 -38 32 -38 27 0 -6 14 -20 31 -33 16 -12 33 -31 37 -42 7 -18 11
-16 42 17 19 20 28 34 20 31 -9 -2 -34 13 -60 37 -24 22 -37 32 -29 21z m59
-60 c7 -8 8 -15 2 -15 -5 0 -15 7 -22 15 -7 8 -8 15 -2 15 5 0 15 -7 22 -15z"/>
<path d="M1200 1426 c0 -2 8 -10 18 -17 15 -13 16 -12 3 4 -13 16 -21 21 -21
13z"/>
<path d="M3763 1394 c0 -8 6 -13 13 -10 7 3 15 0 18 -7 3 -9 5 -9 5 0 1 7 -7
17 -17 22 -14 8 -19 6 -19 -5z"/>
<path d="M1255 1340 c-3 -5 -1 -10 4 -10 6 0 11 5 11 10 0 6 -2 10 -4 10 -3 0
-8 -4 -11 -10z"/>
<path d="M3570 1324 c8 -10 23 -27 34 -36 12 -9 18 -20 14 -23 -4 -4 -21 8
-38 27 -34 35 -31 18 3 -19 31 -35 8 -27 -32 10 l-34 32 32 -42 c21 -26 30
-46 25 -54 -4 -7 12 3 35 21 37 30 40 35 23 41 -11 4 -26 16 -33 26 -8 11 -21
23 -29 28 -13 8 -13 7 0 -11z"/>
<path d="M1474 1312 c-6 -4 -19 -22 -28 -40 -12 -24 -22 -32 -34 -27 -13 5
-12 2 3 -15 33 -36 50 -41 50 -15 0 18 -3 21 -12 13 -17 -13 -16 -5 1 36 8 19
22 39 33 45 10 6 14 10 8 11 -5 0 -15 -4 -21 -8z"/>
<path d="M3417 1226 c5 -15 3 -17 -7 -11 -8 5 -4 -8 8 -27 17 -27 19 -37 10
-41 -7 -2 4 -8 25 -12 21 -4 41 -5 44 -1 4 3 -3 6 -15 6 -12 0 -27 10 -33 23
-11 20 -11 21 4 8 27 -22 19 1 -13 39 -17 19 -27 26 -23 16z m23 -37 c0 -6 -4
-7 -10 -4 -5 3 -10 11 -10 16 0 6 5 7 10 4 6 -3 10 -11 10 -16z"/>
<path d="M3519 1223 c-1 -5 -1 -12 0 -17 1 -4 -4 -14 -10 -22 -9 -12 -6 -14
22 -13 19 1 26 3 17 6 -16 4 -23 21 -19 46 0 4 -1 7 -4 7 -3 0 -6 -3 -6 -7z"/>
<path d="M1511 1187 c-6 -8 -8 -17 -4 -20 11 -12 19 -7 20 13 2 24 -1 25 -16
7z"/>
<path d="M1494 1151 c20 -22 26 -25 26 -13 0 4 -10 13 -22 21 -23 14 -23 14
-4 -8z"/>
<path d="M1679 1128 c-11 -15 -25 -26 -30 -23 -11 8 0 -56 13 -70 6 -6 7 0 3
16 -4 17 1 37 16 63 12 20 24 34 27 31 3 -3 -4 -19 -16 -35 -24 -31 -28 -45
-12 -35 6 4 19 23 29 44 16 31 17 38 5 38 -8 0 -24 -13 -35 -29z"/>
<path d="M1830 1089 c-7 -11 -10 -23 -7 -25 2 -2 9 7 15 21 14 30 7 33 -8 4z"/>
<path d="M1858 1031 c-26 -58 -45 -70 -22 -15 8 20 10 33 5 29 -6 -3 -11 -12
-11 -19 0 -8 -8 -20 -17 -27 -14 -12 -16 -12 -11 1 20 50 20 55 2 30 -10 -14
-22 -28 -27 -31 -5 -3 10 -14 32 -23 48 -19 54 -20 46 -6 -3 5 3 31 15 56 11
26 18 49 16 51 -2 3 -15 -18 -28 -46z"/>
<path d="M3170 1069 c0 -8 11 -26 25 -39 19 -18 22 -26 14 -37 -6 -7 -8 -13
-5 -13 11 0 66 30 66 36 0 3 -4 3 -9 -1 -6 -3 -14 3 -20 12 -6 10 -11 12 -11
6 0 -23 -20 -13 -40 20 -11 18 -20 25 -20 16z"/>
<path d="M3290 1073 c0 -6 7 -18 15 -26 8 -8 11 -18 7 -22 -4 -5 1 -5 11 -2
10 4 21 7 23 7 2 0 4 5 4 11 0 5 -5 7 -10 4 -6 -4 -19 4 -30 17 -11 13 -19 18
-20 11z"/>
<path d="M1746 1049 c5 -8 -1 -10 -19 -6 -25 7 -25 7 -14 -31 11 -35 12 -35
15 -10 2 16 11 30 23 33 19 6 17 25 -2 25 -6 0 -7 -5 -3 -11z"/>
<path d="M1931 1028 c-16 -43 -22 -68 -18 -68 3 0 12 20 20 45 16 45 14 65 -2
23z"/>
<path d="M1972 993 c-5 -15 -13 -37 -16 -47 -4 -10 -9 -16 -12 -13 -4 3 -1 20
5 38 6 18 9 34 7 36 -2 3 -9 -11 -15 -30 -10 -29 -15 -34 -39 -30 -16 2 -7 -4
23 -17 57 -23 63 -24 48 -9 -7 7 -6 22 4 51 15 46 11 64 -5 21z"/>
<path d="M2871 984 c0 -11 3 -14 6 -6 3 7 2 16 -1 19 -3 4 -6 -2 -5 -13z"/>
<path d="M2998 995 c-8 -9 1 -35 20 -57 10 -12 11 -18 4 -18 -7 0 -12 -4 -12
-9 0 -5 14 -4 30 2 25 10 27 13 12 18 -22 8 -39 28 -43 52 -2 11 -7 16 -11 12z"/>
<path d="M2827 955 c4 -22 7 -53 7 -68 1 -27 3 -28 36 -22 42 8 55 15 42 24
-6 3 -15 22 -21 41 l-11 35 5 -45 4 -45 -14 30 -14 30 -1 -30 c-1 -25 -5 -19
-21 30 -14 44 -17 49 -12 20z"/>
<path d="M2090 935 c0 -26 -4 -35 -17 -36 -12 0 -8 -5 12 -14 42 -20 65 -19
36 1 -18 13 -22 24 -19 50 2 19 0 34 -4 34 -4 0 -8 -16 -8 -35z"/>
<path d="M2562 907 c-1 -29 -6 -46 -12 -42 -20 12 -10 -2 22 -31 18 -16 25
-20 16 -9 -10 12 -18 43 -21 75 l-3 55 -2 -48z"/>
<path d="M2583 900 c0 -30 2 -43 4 -27 2 15 2 39 0 55 -2 15 -4 2 -4 -28z"/>
<path d="M2713 904 c9 -37 8 -47 -4 -55 -10 -6 -6 -8 16 -8 31 1 89 16 69 18
-7 1 -17 22 -23 49 l-10 47 4 -50 c3 -35 2 -45 -5 -35 -5 8 -10 24 -11 35 -1
11 -5 2 -8 -20 l-7 -40 -8 53 c-4 28 -11 52 -16 52 -4 0 -3 -21 3 -46z"/>
<path d="M2285 898 c4 -38 1 -47 -13 -51 -9 -2 2 -5 26 -8 23 -2 42 -1 42 3 0
5 -9 8 -19 8 -14 0 -21 11 -30 48 l-10 47 4 -47z"/>
<path d="M2315 870 c-3 -5 -1 -10 4 -10 6 0 11 5 11 10 0 6 -2 10 -4 10 -3 0
-8 -4 -11 -10z"/>
<path d="M2387 860 c-3 -12 0 -20 8 -20 8 0 11 8 8 20 -3 11 -7 20 -8 20 -1 0
-5 -9 -8 -20z"/>
<path d="M2633 873 c9 -2 25 -2 35 0 9 3 1 5 -18 5 -19 0 -27 -2 -17 -5z"/>
<path d="M2958 873 c6 -2 18 -2 25 0 6 3 1 5 -13 5 -14 0 -19 -2 -12 -5z"/>
<path d="M2620 855 c0 -1 14 -14 31 -31 30 -28 31 -28 18 -4 -7 14 -13 27 -12
30 1 3 -7 6 -18 6 -10 0 -19 -1 -19 -1z"/>
<path d="M2718 773 c12 -2 30 -2 40 0 9 3 -1 5 -23 4 -22 0 -30 -2 -17 -4z"/>
<path d="M2411 758 c60 -6 132 -6 190 0 88 9 82 9 -96 9 -180 0 -185 0 -94 -9z"/>
</g>
</svg>
